<?xml version="1.0" encoding="UTF-8"?> <svg xmlns="http://www.w3.org/2000/svg" id="Capa_1" data-name="Capa 1" viewBox="0 0 1143.85 691.52"><defs><style>.cls-1{fill:#b1caf4;}.cls-2{fill:#ed823a;}.cls-3{fill:#ff9e55;}.cls-4{fill:#dd732c;}.cls-5{fill:#ffb27d;}.cls-6{fill:#fff;}.cls-7{fill:#f2ccaa;}.cls-8{fill:#f9ddbf;}.cls-9{fill:#2a4e96;}.cls-10{fill:#618dc1;}.cls-11{fill:#f3953f;}.cls-12{fill:#d3714a;}.cls-13{fill:#ffc781;}.cls-14{fill:#bf5e1b;}.cls-15{fill:#d3e2f6;}.cls-16{fill:#c2d8fa;}.cls-17{fill:#618bbf;}.cls-18{fill:#2a4e94;}.cls-19{fill:#9ac1f1;}.cls-20{fill:#e1eefd;}.cls-21{fill:#e9f1f8;}.cls-22{fill:#fd9c55;}.cls-23{fill:#ffb864;}.cls-24{fill:#c3d2d7;}.cls-25{fill:#634553;}.cls-26{fill:#c26947;}.cls-27{fill:#82b378;}.cls-28{fill:#a8d29f;}.cls-29{fill:#799ee8;}.cls-30{fill:#183e7a;}.cls-31{fill:#1f437c;}.cls-32{fill:#2c3a64;}.cls-33{fill:#ed975d;}.cls-34{fill:#699dee;}.cls-35{fill:#80b4ff;}.cls-36{fill:#9dc3f3;}.cls-37{fill:#e3f0ff;}.cls-38{fill:#233862;}.cls-39{fill:#14345a;}.cls-40{fill:#dde7fe;}.cls-41{fill:#cde0fb;}.cls-42{fill:#91aff9;}.cls-43{fill:#f47362;}.cls-44{fill:#ff9841;}.cls-45{fill:#f9974e;}.cls-46{fill:#e66a00;}.cls-47{fill:#163560;}.cls-48{fill:#ffa561;}.cls-49{fill:#f4904d;}.cls-50{fill:#1c4b8e;}.cls-51{fill:#6980e2;}.cls-52{fill:#8c9df4;}.cls-53{fill:#2b478b;}.cls-54{fill:#e8945b;}</style></defs><path class="cls-1" d="M109,669.55c-135.85-89.06-152.48-409.87-5.41-540.13C155.94,83,245,48.35,329.21,39c166.62-18.51,182.3,66.66,315.62,37.86C761.16,51.72,815.15-18.31,931.73,4.5c11.37,2.23,37.6,6.26,65.92,23.19,32.9,19.67,81.24,63.69,115.62,248.86,28.34,152.61,42.51,228.92,18,269-63.94,104.55-231.13,35.63-602.68,85C254,667,190.24,722.83,109,669.55Z"></path><rect class="cls-2" x="631.04" y="445.65" width="116.77" height="96.28"></rect><rect class="cls-3" x="572.65" y="445.65" width="116.77" height="96.28"></rect><polygon class="cls-4" points="747.74 517.52 729.24 517.52 730.87 512.31 729.24 508.59 747.74 508.59 747.74 517.52"></polygon><polygon class="cls-5" points="689.43 475.45 670.92 475.45 672.55 470.25 670.92 466.52 689.43 466.52 689.43 475.45"></polygon><polygon class="cls-4" points="689.43 466.52 707.93 466.52 706.3 471.73 707.93 475.45 689.43 475.45 689.43 466.52"></polygon><polygon class="cls-5" points="572.65 518.55 591.16 518.55 589.53 523.76 591.16 527.48 572.65 527.48 572.65 518.55"></polygon><rect class="cls-6" x="580.3" y="452.18" width="33.6" height="13.07" transform="translate(1194.21 917.44) rotate(180)"></rect><rect class="cls-7" x="171.22" y="418.77" width="150.59" height="124.17" transform="translate(493.04 961.7) rotate(180)"></rect><rect class="cls-8" x="246.52" y="418.77" width="150.59" height="124.17" transform="translate(643.63 961.7) rotate(180)"></rect><polygon class="cls-9" points="171.31 511.45 195.18 511.45 193.07 504.73 195.18 499.94 171.31 499.94 171.31 511.45"></polygon><polygon class="cls-10" points="246.52 457.19 270.38 457.19 268.28 450.48 270.38 445.68 246.52 445.68 246.52 457.19"></polygon><polygon class="cls-9" points="246.52 445.68 222.66 445.68 224.76 452.39 222.66 457.19 246.52 457.19 246.52 445.68"></polygon><polygon class="cls-10" points="397.12 512.78 373.25 512.78 375.36 519.5 373.25 524.29 397.12 524.29 397.12 512.78"></polygon><rect class="cls-6" x="343.92" y="427.18" width="43.34" height="16.86"></rect><rect class="cls-11" x="447.25" y="324.72" width="86.48" height="112.93"></rect><rect class="cls-12" x="533.73" y="324.72" width="48.92" height="112.93" transform="translate(1116.38 762.36) rotate(180)"></rect><polygon class="cls-13" points="525.63 335.21 501.46 335.21 501.46 364.3 519.44 364.3 525.63 358.12 525.63 335.21"></polygon><polygon class="cls-14" points="519.44 364.3 525.63 358.12 519.44 358.12 519.44 364.3"></polygon><polygon class="cls-15" points="536.46 274.59 489.23 274.59 499.39 246.19 526.29 246.19 536.46 274.59"></polygon><path class="cls-15" d="M536.14,306.29a23.16,23.16,0,0,0-4.59-13.87,12.66,12.66,0,0,0-10.18-5.07H504.32a12.7,12.7,0,0,0-10.19,5.07,23.27,23.27,0,0,0,1.33,29.38,8.52,8.52,0,0,0,6.33,2.81h22.1a8.53,8.53,0,0,0,6.34-2.81A23.24,23.24,0,0,0,536.14,306.29Z"></path><path class="cls-16" d="M534.18,297a23.48,23.48,0,0,1,.26,3.38,23.2,23.2,0,0,1-5.92,15.51,8.49,8.49,0,0,1-6.33,2.81h-26a8.46,8.46,0,0,1-3.51-.76,23.69,23.69,0,0,0,2.82,3.91,8.52,8.52,0,0,0,6.33,2.81h22.1a8.53,8.53,0,0,0,6.34-2.81A23.28,23.28,0,0,0,534.18,297Z"></path><path class="cls-6" d="M499.19,300a3,3,0,0,1-2.45-4.66c.15-.22.3-.44.47-.66a3,3,0,1,1,4.77,3.56l-.33.46A3,3,0,0,1,499.19,300Z"></path><path class="cls-6" d="M498.49,317.39a3,3,0,0,1-2.59-1.51,19.52,19.52,0,0,1-2.53-9.59,20.2,20.2,0,0,1,.17-2.58,3,3,0,1,1,5.91.78,13.52,13.52,0,0,0,1.63,8.45,3,3,0,0,1-2.59,4.45Z"></path><polygon class="cls-15" points="504.32 287.35 521.37 287.35 528.76 281.04 496.92 281.04 504.32 287.35"></polygon><path class="cls-16" d="M523.26,281a19.6,19.6,0,0,1-12.94,4.9h-7.66l1.66,1.41h17.05l7.39-6.31Z"></path><path class="cls-16" d="M536.46,274.59l-10.17-28.41h-8.13l3.48,12.32a9.36,9.36,0,0,1-9,11.9H490.72l-1.49,4.19Z"></path><rect class="cls-17" x="510.49" y="274.59" width="4.71" height="6.45"></rect><polygon class="cls-18" points="515.2 274.59 510.47 279.32 510.47 274.59 515.2 274.59"></polygon><rect class="cls-16" x="567.31" y="493.88" width="69.37" height="57.21"></rect><rect class="cls-15" x="601.99" y="493.88" width="69.37" height="57.21"></rect><polygon class="cls-19" points="507.35 536.55 518.32 536.55 517.35 533.46 518.32 531.26 507.35 531.26 507.35 536.55"></polygon><polygon class="cls-20" points="601.99 511.56 612.97 511.56 612 508.47 612.97 506.27 601.99 506.27 601.99 511.56"></polygon><polygon class="cls-19" points="601.99 506.27 591.02 506.27 591.94 509.35 591.02 511.56 601.99 511.56 601.99 506.27"></polygon><polygon class="cls-20" points="671.36 537.16 660.34 537.16 661.31 540.25 660.34 542.5 671.36 542.5 671.36 537.16"></polygon><rect class="cls-6" x="586.86" y="497.76" width="19.97" height="7.76"></rect><rect class="cls-16" x="497.98" y="431.09" width="70.23" height="61.82"></rect><rect class="cls-16" x="568.22" y="431.09" width="39.73" height="61.82" transform="translate(1176.16 923.99) rotate(180)"></rect><rect class="cls-16" x="565.8" y="437.34" width="69.37" height="57.21"></rect><rect class="cls-15" x="590.49" y="437.34" width="69.37" height="57.21"></rect><polygon class="cls-19" points="505.85 480.05 516.82 480.05 515.85 476.92 516.82 474.71 505.85 474.71 505.85 480.05"></polygon><polygon class="cls-20" points="600.49 455.06 611.46 455.06 610.49 451.97 611.46 449.72 600.49 449.72 600.49 455.06"></polygon><polygon class="cls-19" points="600.49 449.72 589.47 449.72 590.44 452.85 589.47 455.06 600.49 455.06 600.49 449.72"></polygon><polygon class="cls-20" points="659.86 480.66 648.84 480.66 649.81 483.75 648.84 485.95 659.86 485.95 659.86 480.66"></polygon><rect class="cls-6" x="636.36" y="441.22" width="19.97" height="7.76"></rect><polygon class="cls-18" points="567.64 363.29 551.1 402.66 544.1 402.66 562.41 359.06 567.64 363.29"></polygon><polygon class="cls-16" points="531.65 359.06 538.65 359.06 562.41 359.06 544.1 402.66 520.34 402.66 513.34 402.66 531.65 359.06"></polygon><polygon class="cls-18" points="558.48 354.87 541.95 394.23 534.95 394.23 553.26 350.64 558.48 354.87"></polygon><polygon class="cls-21" points="522.5 350.64 529.5 350.64 553.26 350.64 534.95 394.23 511.19 394.23 504.18 394.23 522.5 350.64"></polygon><polygon class="cls-15" points="543.22 360.79 526.69 400.16 519.68 400.16 538 356.56 543.22 360.79"></polygon><polygon class="cls-16" points="507.23 356.56 514.24 356.56 538 356.56 519.68 400.16 495.93 400.16 488.92 400.16 507.23 356.56"></polygon><polygon class="cls-12" points="529.69 365.22 513.15 404.59 506.15 404.59 524.46 360.99 529.69 365.22"></polygon><polygon class="cls-22" points="493.7 360.99 500.7 360.99 524.46 360.99 506.15 404.59 482.39 404.59 475.39 404.59 493.7 360.99"></polygon><path class="cls-23" d="M456.19,358.67h0a39.2,39.2,0,0,1,49.1,25.72h0a2.32,2.32,0,0,1-.16,1.76l-50.3-26.34A2.31,2.31,0,0,1,456.19,358.67Z"></path><path class="cls-12" d="M454.68,361.56h0a2.3,2.3,0,0,1,.15-1.75l50.3,26.34a2.3,2.3,0,0,1-1.36,1.13h0A39.19,39.19,0,0,1,454.68,361.56Z"></path><path class="cls-6" d="M495.93,368.71a39.73,39.73,0,0,1,3.68,4.37l-4.18,8-4.68-2.45Z"></path><path class="cls-24" d="M495.43,381.06l-4.19,8a38.46,38.46,0,0,1-5.68-.54l5.19-9.9Z"></path><path class="cls-24" d="M460.35,372.87l4.19-8,4.68,2.45-5.19,9.9A39.73,39.73,0,0,1,460.35,372.87Z"></path><path class="cls-6" d="M468.72,356.9a38.33,38.33,0,0,1,5.68.54l-5.18,9.9-4.68-2.45Z"></path><path class="cls-6" d="M471.14,373.51l4.24-8.11a.58.58,0,0,0-.24-.78.59.59,0,0,0-.78.25l-4.24,8.1a.58.58,0,0,0,1,.54Z"></path><path class="cls-6" d="M474,375l4.24-8.1a.58.58,0,0,0-1-.54L473,374.49a.57.57,0,1,0,1,.53Z"></path><path class="cls-6" d="M476.92,376.54l4.25-8.11a.57.57,0,0,0-1-.53L475.9,376a.58.58,0,0,0,1,.54Z"></path><path class="cls-6" d="M479.82,378.05l4.24-8.1a.58.58,0,1,0-1-.54l-4.24,8.11a.57.57,0,1,0,1,.53Z"></path><path class="cls-6" d="M482.71,379.57l4.24-8.11a.56.56,0,0,0-.24-.77.58.58,0,0,0-.78.24l-4.24,8.1a.58.58,0,1,0,1,.54Z"></path><path class="cls-6" d="M485.6,381.08l4.25-8.1a.57.57,0,0,0-.25-.78.56.56,0,0,0-.77.24l-4.25,8.11a.57.57,0,1,0,1,.53Z"></path><rect class="cls-23" x="497.42" y="376.95" width="67.03" height="78.91" transform="translate(1061.87 832.8) rotate(-180)"></rect><polygon class="cls-11" points="510.33 407.09 564.45 407.09 564.45 376.95 497.42 376.95 510.33 407.09"></polygon><polygon class="cls-13" points="584.41 399.74 517.38 399.74 497.42 376.95 564.45 376.95 584.41 399.74"></polygon><rect class="cls-11" x="430.39" y="376.95" width="67.03" height="78.91"></rect><polygon class="cls-12" points="484.52 407.09 430.39 407.09 430.39 376.95 497.42 376.95 484.52 407.09"></polygon><polygon class="cls-13" points="410.44 399.74 477.47 399.74 497.42 376.95 430.39 376.95 410.44 399.74"></polygon><polygon class="cls-13" points="507.87 432.74 519.78 422.18 528.47 436.67 518.82 445.21 514.9 444.47 507.87 432.74"></polygon><polygon class="cls-14" points="518.82 445.21 514.9 444.47 517.16 442.46 518.82 445.21"></polygon><rect class="cls-23" x="427.24" y="456.44" width="96.34" height="93.55"></rect><rect class="cls-11" x="523.58" y="456.44" width="54.5" height="93.55" transform="translate(1101.65 1006.44) rotate(180)"></rect><path class="cls-25" d="M546,539.3c0,.26-.12.47-.27.47s-.28-.21-.28-.47v-.83h-.39v.83c0,.62.3,1.13.67,1.13s.66-.51.66-1.13v-4.67h3c-.58-2-1.78-3.35-3.17-3.35s-2.58,1.37-3.16,3.35h3Z"></path><path class="cls-25" d="M560.06,528.21H541.39V543.5h27.73V528.21Zm-9.61,14.36h-8.51V529.13h8.51Zm9.07,0H551V529.13h8.52Zm9.06,0h-8.52V529.13h8.52Z"></path><polygon class="cls-25" points="552.79 539.63 554.18 539.63 554.18 533.63 555.03 533.63 553.49 530.49 551.95 533.63 552.79 533.63 552.79 539.63"></polygon><polygon class="cls-25" points="556.33 539.63 557.72 539.63 557.72 533.63 558.56 533.63 557.02 530.49 555.48 533.63 556.33 533.63 556.33 539.63"></polygon><rect class="cls-25" x="551.95" y="540.3" width="6.62" height="0.92"></rect><path class="cls-25" d="M564.09,537v2.25c0,.68-.32,1.23-.72,1.23h-.61v.77h3.11v-.77h-.6c-.4,0-.72-.55-.72-1.23V537c1-.19,1.82-1.65,1.82-3.44v-3h-4.11v3C562.26,535.32,563.07,536.78,564.09,537Z"></path><polygon class="cls-26" points="470.45 495.91 471.69 494.3 472.93 495.91 474.17 494.3 475.41 495.91 476.65 494.3 477.89 495.91 479.13 494.3 480.37 495.91 481.61 494.3 482.93 496.02 482.93 456.44 467.88 456.44 467.88 496.02 469.21 494.3 470.45 495.91"></polygon><polygon class="cls-26" points="550.77 495.91 551.45 494.3 552.13 495.91 552.81 494.3 553.49 495.91 554.17 494.3 554.85 495.91 555.53 494.3 556.21 495.91 556.89 494.3 557.62 496.02 557.62 456.44 549.36 456.44 549.36 496.02 550.09 494.3 550.77 495.91"></polygon><path class="cls-27" d="M602.36,381.09s8.09-9.55.5-15.62c0,0-5.54-3.4-10.07-3.13,0,0,6.41,10.88,4.34,12s-6.28-12.64-6.28-12.64-12.61-1.24-16.67.74c0,0,10.78,8.94,8.51,9.47s-13.92-8.24-13.92-8.24-11.74,2-11.11,9.28,4.67,9.49,6.45,9.3,12.18-4.22,12.4-2.74-6,6.3-10.42,6.52c0,0,8.28,9.25,13.78,6.58s6-6.9,9.4-8.48,6.36-1.59,5,0-7.63,3.19-9.59,6.71-3.72,5.88,2,5,14.95-5.08,15.35-9.92Z"></path><path class="cls-27" d="M563.42,373.1s31.9-1.24,38.94,8a23.4,23.4,0,0,0,6.35,9l.75,2.06s-5.53-5.9-7.51-6.26C602,385.92,605.05,374.48,563.42,373.1Z"></path><path class="cls-27" d="M608.71,390.12A20.32,20.32,0,0,1,616,404.41l-1.24.11s-2.19-9.47-6.14-13.17S608.71,390.12,608.71,390.12Z"></path><path class="cls-28" d="M630.64,369.08s-12.87-7.3-6.86-17.21c0,0,4.8-6.08,10-7.64,0,0-2.75,14.77,0,15.11s1.89-16.68,1.89-16.68,13.55-6.6,18.87-6.08c0,0-8.41,14.42-5.66,14.08s12.18-15,12.18-15,13.89-2.6,16.12,5.74-1.37,12.51-3.43,13-15.27.35-14.92,2.08,9.26,4.52,14.24,3c0,0-5.49,13.72-12.7,13s-9.44-5.21-13.9-5.56-7.72.87-5.49,2.09,9.78.39,13.39,3.5,6.51,5-.18,6.4-18.7.52-21.1-4.69Z"></path><path class="cls-27" d="M670.78,344.05s-36,11.82-40.14,25a28,28,0,0,1-3.43,12.68v2.61S631,375.5,633,374.29C633,374.29,625,362.82,670.78,344.05Z"></path><path class="cls-27" d="M627.21,381.76a24.3,24.3,0,0,0-2.39,18.95l1.43-.39s-1.39-11.46,1.52-17.22S627.21,381.76,627.21,381.76Z"></path><path class="cls-28" d="M610.17,359s17-9.62,9.05-22.68c0,0-6.34-8-13.12-10.07,0,0,3.62,19.46,0,19.92s-2.49-22-2.49-22-17.86-8.7-24.87-8c0,0,11.08,19,7.46,18.55S570.14,315,570.14,315s-18.31-3.43-21.26,7.56,1.81,16.49,4.53,17.18,20.12.46,19.67,2.75-12.21,6-18.77,3.89c0,0,7.24,18.1,16.74,17.18s12.44-6.87,18.31-7.33,10.18,1.15,7.24,2.75-12.89.53-17.64,4.61-8.59,6.61.23,8.45,24.65.68,27.81-6.19Z"></path><path class="cls-27" d="M557.25,326s47.49,15.57,52.92,33a36.87,36.87,0,0,0,4.52,16.72v3.44s-5-11.68-7.69-13.29C607,365.88,617.63,350.76,557.25,326Z"></path><path class="cls-27" d="M614.69,375.73s7.33,11.26,3.15,25l-1.88-.52s1.83-15.1-2-22.69S614.69,375.73,614.69,375.73Z"></path><path class="cls-29" d="M610.74,430.44a33.43,33.43,0,0,1-33.22-33.65H644A33.44,33.44,0,0,1,610.74,430.44Z"></path><path class="cls-29" d="M577.06,428h67.37a0,0,0,0,1,0,0v0a4.15,4.15,0,0,1-4.15,4.15H581.21a4.15,4.15,0,0,1-4.15-4.15v0A0,0,0,0,1,577.06,428Z" transform="translate(1221.48 860.16) rotate(180)"></path><rect class="cls-29" x="576.76" y="396.79" width="68.3" height="1.03" transform="translate(1221.82 794.61) rotate(180)"></rect><rect class="cls-3" x="236.26" y="429.53" width="9.58" height="168.68" transform="translate(482.1 1027.74) rotate(180)"></rect><path class="cls-9" d="M218.17,437.37H242a7,7,0,0,0,7-7h0a7,7,0,0,0-7-7H218.17a7,7,0,0,0-7,7h0A7,7,0,0,0,218.17,437.37Z"></path><path class="cls-3" d="M245.84,513.87c1.16.1,51.67,30,51.67,30v43.58H245Z"></path><path class="cls-9" d="M540.28,600.26A14.28,14.28,0,1,0,526,614.54,14.27,14.27,0,0,0,540.28,600.26Z"></path><path class="cls-30" d="M535,600.26a8.95,8.95,0,1,0-9,8.94A8.95,8.95,0,0,0,535,600.26Z"></path><rect class="cls-3" x="236.26" y="585.38" width="310.01" height="12.83" transform="translate(782.53 1183.58) rotate(180)"></rect><path class="cls-9" d="M268.58,591.79a22.74,22.74,0,1,0-22.74,22.75A22.74,22.74,0,0,0,268.58,591.79Z"></path><path class="cls-30" d="M260.09,591.79A14.25,14.25,0,1,0,245.84,606,14.24,14.24,0,0,0,260.09,591.79Z"></path><path class="cls-5" d="M225.42,415.16s11,4.36,11.53,6.39.58,9.87-2.32,9.87-5.95-6.68-7.26-6.82-4.93-1-5.37-2.61S225.42,415.16,225.42,415.16Z"></path><path class="cls-31" d="M225.75,418.35c1.57-3.3,0-4.55,0-4.55S193.79,394,191.23,392s-17.37-38-17.37-38-5.35-14.59-14.15-15.29c-7.64-.61-12.4,3.67-15.31,8.39a16,16,0,0,0,.92,18.07c8.92,11.83,26.87,35.28,31.77,39.08,10.92,8.47,45.37,18.16,45.37,18.16A11.41,11.41,0,0,0,225.75,418.35Z"></path><path class="cls-32" d="M161.58,612.11H130.91a3.32,3.32,0,0,1-.65-.19c-2-1-1.41-8.87-1.16-11.29l.08-.71s10.78-8.63,12.27-2c0,.2.1.41.16.61h0c1.87,6.18,10.24,9,15.07,9.77C160.37,608.88,161.33,611,161.58,612.11Z"></path><path class="cls-5" d="M142.12,327.12s7.3,11.9,19.29,9.21c0,0,3.33-5.53,4-9.87.08-.53.17-1,.25-1.54.8-4.88,1.38-7.6,1.38-7.6h0c-.48-.29-16.24-9.73-16.31-9.16C149,321.43,142.12,327.12,142.12,327.12Z"></path><path class="cls-33" d="M152,311.56c1.16,3.25,5.83,10,13.73,13.36.8-4.88,1.38-7.6,1.38-7.6h0C166.61,317.12,151.61,310.61,152,311.56Z"></path><path class="cls-5" d="M170.67,317.34s-19.57,1.58-20.36-10.62-3.86-20.21,8.6-21.73,15.19,3,16.44,7S175.73,316.62,170.67,317.34Z"></path><path class="cls-9" d="M150.46,310c-.28.12-4.53.76-9.91-15.75a13.49,13.49,0,0,1,2.64-12.09c3.51-4.18,14.05-6.28,22.59-6.6s9.82,4.65,11.06,9.64c1.31,5.24,6.62,10.19,6.62,10.19-7.76,2.92-15.52-4.11-18.65-3.62s-4.89,5-5.34,6.51-1,2.68-4.54.76-2.51,5.06-2.1,6.43C152.83,305.51,152.83,309,150.46,310Z"></path><path class="cls-32" d="M81,612.11H69.46c-2.42,0-5.12-2.43-5.79-6.88s-5.66-6.87-6.74-10.51S61.38,586,61.38,586l.92-1.18,1-1.24,9.17,2.15s.23,2.19.37,5a61.28,61.28,0,0,1,0,6.36c-.27,4.85,1.36,10.08,5.67,11S81,612.11,81,612.11Z"></path><path class="cls-3" d="M155.4,435.25s-1.64,20.43-3.57,45c-2.61,33.36-5.76,74.35-6.07,82.11-.54,13.49-2.7,35-2.7,35s-5.12,5.12-15.36,3c0,0-9.13-30.79-11.74-63.36l-.12-1.61c-2.43-33.16-6.2-103-6.2-103Z"></path><path class="cls-2" d="M147.13,439.29s3.23,7.35-2.67,31.27C140.13,488.11,116,537,116,537l-.12-1.61c-2.43-33.16-6.2-103-6.2-103Z"></path><path class="cls-3" d="M149.29,433.89S118.4,511.68,99,546.46s-25.48,44.48-25.48,44.48-11.12-4.45-12.13-7.48c0,0,7.42-67.14,20.42-83.51,7.34-9.25,16-37,16.38-46.7s2.63-28.92,2.63-28.92Z"></path><path class="cls-9" d="M150.87,437.41c-4.17-1.18-46.67-17.84-45.84-20.25,2.88-8.38,5.85-22.53,9.41-39.74.67-3.2,1.42-6.35,2.23-9.44a147,147,0,0,1,7.69-22.2c5.5-12.27,14.43-20.6,21.58-23.44.93-.35,2.88,2.59,6.7,6,3.53,3.1,7.21,3,11.27,3.3l3.27,5.81a47,47,0,0,1,5.21,17.84S151.24,437.51,150.87,437.41Z"></path><path class="cls-3" d="M172.39,355.24l-12.71-1.37-31.49,38.2a17,17,0,0,1-18.69,5.23h0l-8.69,27,53.42,17.25Z"></path><path class="cls-2" d="M151.92,336.92c-1.85-3.5-8.2-13.55-8.2-13.55l2.22-1c1.26.16,7.95,10.15,10,13.9,2.51,4.51,8.92,18.62,8.92,18.62l-5.21-1S154.1,341,151.92,336.92Z"></path><path class="cls-5" d="M211.81,419.19s10.95,4.36,11.53,6.39.58,9.87-2.32,9.87-6-6.67-7.26-6.82-4.93-1-5.37-2.61S211.81,419.19,211.81,419.19Z"></path><path class="cls-9" d="M211.77,423.74c1.57-3.29,0-4.55,0-4.55s-32-19.77-34.56-21.84-17.37-38-17.37-38-5.35-14.6-14.15-15.29c-7.64-.61-12.4,3.67-15.31,8.39a16,16,0,0,0,.92,18.07c8.92,11.83,26.87,35.28,31.77,39.08,10.92,8.47,45.37,18.16,45.37,18.16A11.5,11.5,0,0,0,211.77,423.74Z"></path><rect class="cls-34" x="387.42" y="479.88" width="129.64" height="106.9"></rect><rect class="cls-35" x="322.6" y="479.88" width="129.64" height="106.9"></rect><polygon class="cls-36" points="516.99 559.67 496.44 559.67 498.25 553.89 496.44 549.76 516.99 549.76 516.99 559.67"></polygon><polygon class="cls-37" points="452.24 512.96 431.7 512.96 433.51 507.18 431.7 503.05 452.24 503.05 452.24 512.96"></polygon><polygon class="cls-36" points="452.24 503.05 472.79 503.05 470.98 508.83 472.79 512.96 452.24 512.96 452.24 503.05"></polygon><polygon class="cls-37" points="322.6 560.82 343.14 560.82 341.33 566.6 343.14 570.73 322.6 570.73 322.6 560.82"></polygon><rect class="cls-6" x="331.09" y="487.13" width="37.31" height="14.51" transform="translate(699.49 988.77) rotate(180)"></rect><rect class="cls-2" x="387.42" y="416.94" width="77.66" height="64.04" transform="translate(852.51 897.92) rotate(180)"></rect><rect class="cls-3" x="426.25" y="416.94" width="77.66" height="64.04" transform="translate(930.17 897.92) rotate(180)"></rect><polygon class="cls-4" points="387.47 464.74 399.77 464.74 398.69 461.28 399.77 458.8 387.47 458.8 387.47 464.74"></polygon><polygon class="cls-5" points="426.25 436.76 438.56 436.76 437.48 433.3 438.56 430.82 426.25 430.82 426.25 436.76"></polygon><polygon class="cls-4" points="426.25 430.82 413.95 430.82 415.03 434.29 413.95 436.76 426.25 436.76 426.25 430.82"></polygon><polygon class="cls-5" points="503.92 465.43 491.61 465.43 492.7 468.89 491.61 471.37 503.92 471.37 503.92 465.43"></polygon><rect class="cls-6" x="476.48" y="421.29" width="22.35" height="8.69"></rect><g id="P297LW"><path class="cls-38" d="M683.39,248.69s-5.26-11.08-1.14-17.9,20.45-7.24,20.45-7.24-1.42.78-1.49,1.49,4.69-1.85,8,3.9,3.11,11.14-.37,19.1S683.39,248.69,683.39,248.69Z"></path><path class="cls-3" d="M765.49,359.32c-3.15.73-17.41.91-27.43-1.34a30.53,30.53,0,0,1-5.57-1.74,8.62,8.62,0,0,1-4-3.05c-1.13-1.88-3.2-8.34-5.63-16.8-6.71-23.32-16.15-61.85-16.15-61.85s19,3.87,23,7.17,7.55,55.67,11.33,57.09c.55.21,1.51.65,2.74,1.25l.18.09,2.45,1.24c7.82,4,19.19,11.53,22.11,12.87C771,355.41,770.09,358.26,765.49,359.32Z"></path><path class="cls-3" d="M729.13,304.36a14.3,14.3,0,0,0-.25-2.68c-2.44-13.41-21.82-26.87-22.21-26.87h0c0,2.05-3.23,5.83-8.21,6.16-5.9.38-13.14-2.55-13.14-6,0,0-3.36,0-4.47.13-4.73.54-14.17,3.1-18.22,6.15-3.84,2.91,1.59,21.23,5,34.2,1.42,5.49,2.47,10,2.3,12-.08,1-1,14.29-1.75,26.34-.65,9.93-1.24,19-1.26,19.57,0,1.13,5.57,5.09,15,8.07a72.78,72.78,0,0,0,7.47,1.94,79.16,79.16,0,0,0,16.26,1.62c1.95,0,3.79-.11,5.53-.28C724.6,383.47,729.21,368.13,729.13,304.36Z"></path><path class="cls-5" d="M765.52,359.3c-.46.11-1.08.17-1.87.28a99.25,99.25,0,0,1-11.28.11c-7-.34-15-1.3-19.9-3.45,2.38-9.07,7.37-13.72,11.4-16.1,3.45,1.7,9,4.59,13.88,7.42h.06c5.27,2.95,9.08,6.18,10.65,6.69C771.06,355.11,770.11,358.28,765.52,359.3Z"></path><path class="cls-5" d="M685.28,274.44a113.76,113.76,0,0,1,.68-16.68l20.78,3.4s0,6.34-.09,13.38h0s.57,6.53-7.47,7.49S685.07,279.48,685.28,274.44Z"></path><path class="cls-38" d="M702.67,550.51c-2.61-1.61-1.08-13.53-1.08-13.53s12.24-9.72,13.89-2.23,11.56,10.87,17.2,11.81c3.89.64,5.09,2.81,5.46,4.08Z"></path><path class="cls-38" d="M665.16,550.51c-2.61-1.61-1.08-13.53-1.08-13.53s12.24-9.72,13.9-2.23,11.55,10.87,17.19,11.81c3.89.64,5.09,2.81,5.46,4.08Z"></path><path class="cls-9" d="M666.88,373.45c0,1.13,5.57,5.08,15,8.07.76.24,1.54.48,2.35.7l0,0c.88,10.32,3.26,24.89,5.4,38.95h0c.56,3.65,1.1,7.26,1.59,10.75a214.83,214.83,0,0,1,2.4,23.73v.06c.05,2.78-2.3,9.72-2.48,11.32-.11,1-.2,2-.26,3.11a127.13,127.13,0,0,0,.2,14.95c1.54,23.91,7.85,54.49,10.11,55.8,4.48,2.59,12.63,0,16.78-.61a3.44,3.44,0,0,0,3-3.45c-2-39.67,3.79-94.93,8.13-128.9.11-.88.23-1.75.34-2.6.52-4,.86-7.75,1.08-11.12.2-3,.29-5.65.33-8,0-.73,0-1.42,0-2.08,0-2.12-1.68-16.05-1.75-79.82h0a2.7,2.7,0,0,0-2.69-2.68h-39a6.75,6.75,0,0,0-6.75,6.85,109.36,109.36,0,0,1-1.17,18.14c-1.44,8.86-4.52,17.13-10.89,19.12h0c0,.07-.21.46-.48,1.1h0c-.06,1.6-.12,3.23-.2,4.89,0,.34,0,.67,0,1l0,.59c0,.34,0,.68,0,1,0,.55-.06,1.12-.09,1.69s-.05.89-.07,1.34c0,.86-.1,1.74-.16,2.62,0,.28,0,.56,0,.85-.07,1.13-.15,2.29-.24,3.46,0,.35-.05.71-.08,1.07,0,.18,0,.35,0,.52,0,.46-.07.92-.11,1.38l-.12,1.46C666.7,370.6,666.93,372.2,666.88,373.45Z"></path><path class="cls-38" d="M691.1,485.11c1.54,23.91,7.85,54.49,10.11,55.8,4.48,2.59,12.63,0,16.78-.61a3.44,3.44,0,0,0,3-3.45c-2-39.67,3.79-94.93,8.13-128.9.11-.88.23-1.75.34-2.6.52-4,.86-7.75,1.08-11.12-2.07-13.47-13.73-14.19-24.31,13.67,1.31,9.24-12.59,41.53-12.59,47.77v.06c.05,2.78-2.3,9.72-2.48,11.32-.11,1-.2,2-.26,3.11A127.13,127.13,0,0,0,691.1,485.11Z"></path><path class="cls-9" d="M666.45,454.54c-.32,2.77-3.56,9.34-4,10.9-5.34,21.51-2.39,72.5.26,74.53,4.1,3.16,12.53,1.66,16.71,1.61a3.43,3.43,0,0,0,3.43-3c3.29-40.62,16.91-96.42,25.67-129.25a154.36,154.36,0,0,0,5-28.69s-41-25.09-45.38-11.38C664.31,381.36,668.92,433.32,666.45,454.54Z"></path><path class="cls-9" d="M679.45,275.35s12.07,14.06,12.77,26.33h-6.13a58.68,58.68,0,0,0-10.65-25.49Z"></path><path class="cls-9" d="M709.45,275.32a61.75,61.75,0,0,1,9.67,26.36h6.13c-.51-9.64-6.51-19.91-9.85-24.94h0C713.12,276.11,711,275.64,709.45,275.32Z"></path><path class="cls-3" d="M669.79,350.82c.3,14.4-1.49,43.07-1.49,43.07h-8.5c-4-20.17-5.42-33.15-5.42-40.23,0-1.39,0-2.69,0-3.89.05-6,.21-9.55.21-9.55-1.59-36.63,5.73-56.21,8-58.91s12.81-5.12,12.81-5.12a145.14,145.14,0,0,1,4.89,18.26c1.41,8.14-11.13,42.34-10.62,54C669.75,349.2,669.77,350,669.79,350.82Z"></path><path class="cls-5" d="M669.27,374.66c-.39,10.37-1,19.21-1,19.21h-8.5c-1.48-7.2-2.55-13.49-3.4-18.87a152,152,0,0,1-2-21.32c0-1.41,0-2.72,0-3.91a29.57,29.57,0,0,1,15.36,1.08C669.9,357.26,669.61,366.44,669.27,374.66Z"></path><path class="cls-5" d="M674.32,404.53c.11,2.32-10,7.65-13.1,6.23s-3.17-9.46-1.41-16.89,8.5,0,8.5,0S674.2,402.15,674.32,404.53Z"></path><path class="cls-5" d="M785.24,359.58H763.65l4.81-5.33s5.56,1.14,9.19,0S785.24,359.58,785.24,359.58Z"></path><path class="cls-33" d="M685.45,263.13s5.15,6.09,10.65,6.1c6.84,0,10.57-6.57,10.57-6.57Z"></path><path class="cls-5" d="M706.13,263.18c-2,1.59-7.94,3.17-9.66,3.35,0,0-8.78-1.95-10.37-2.92-2.48-1.5-2.32-4.53-2.44-8.75-.16-5-.66-8.91-.1-11.79.66-3.44,2.84-5.4,9-5.93,11.22-1,15.89,1.84,16.09,5.6,0,1,.1,2,.13,2.88C709.18,257.35,708.25,261.51,706.13,263.18Z"></path><path class="cls-38" d="M683.39,248.69s-.93-10,5-10,13.85,7.53,17.4,2.7,3,6.67,3,6.67l.37-15.4-22.73-.86-4.76,3.55Z"></path></g><path class="cls-39" d="M871.28,449.46H846.59c-7.87,0-14.24,21-14.24,46.86s6.38,46.86,14.24,46.86h24.69c7.87,0,14.24-21,14.24-46.86S879.15,449.46,871.28,449.46Z"></path><path class="cls-40" d="M878.17,499.38c0,17.25-2.74,31.24-6.13,31.24s-6.13-14-6.13-31.24,2.74-31.24,6.13-31.24S878.17,482.13,878.17,499.38Z"></path><path class="cls-39" d="M1029.31,449.46h-24.69c-7.87,0-14.24,21-14.24,46.86s6.38,46.86,14.24,46.86h24.69c7.87,0,14.24-21,14.24-46.86S1037.18,449.46,1029.31,449.46Z"></path><ellipse class="cls-40" cx="1030.08" cy="499.38" rx="6.13" ry="31.24"></ellipse><path class="cls-39" d="M909.87,449.46H885.18c-7.87,0-14.24,21-14.24,46.86s6.38,46.86,14.24,46.86h24.69c7.87,0,14.24-21,14.24-46.86S917.74,449.46,909.87,449.46Z"></path><ellipse class="cls-40" cx="910.64" cy="499.38" rx="6.13" ry="31.24"></ellipse><path class="cls-39" d="M1069.74,449.46h-24.69c-7.87,0-14.24,21-14.24,46.86s6.38,46.86,14.24,46.86h24.69c7.87,0,14.24-21,14.24-46.86S1077.61,449.46,1069.74,449.46Z"></path><path class="cls-40" d="M1078.47,499.38c0,17.25-2.74,31.24-6.13,31.24s-6.13-14-6.13-31.24,2.74-31.24,6.13-31.24S1078.47,482.13,1078.47,499.38Z"></path><polygon class="cls-39" points="1115.47 328.99 1070.15 291.3 1070.15 500.75 1115.47 500.75 1115.47 328.99"></polygon><polygon class="cls-41" points="804.41 231.81 804.41 500.75 994.13 500.75 994.13 178.52 804.41 231.81"></polygon><polygon class="cls-39" points="987.22 190.66 810.6 240.27 810.6 501 987.22 501 987.22 190.66"></polygon><path class="cls-42" d="M994.13,178.52V500.75h26.29V459.19c0-9.36,7.41-16.46,15.51-14.87l7.56,1.48c7.25,1.42,12.55,8.58,12.55,16.95v38l88.23-11.2L1113,276.8Z"></path><path class="cls-41" d="M1113.27,306.55l-119.14-84v92.71l132.14,51.27Q1119.78,336.55,1113.27,306.55Z"></path><polygon class="cls-39" points="1000.27 200.48 1001.37 198.59 1113.19 283.12 1112.09 285.01 1000.27 200.48"></polygon><polygon class="cls-39" points="1002.7 422.56 1003.05 419.85 1138.27 441.64 1137.93 444.35 1002.7 422.56"></polygon><polygon class="cls-39" points="996.45 326.4 997.16 323.86 1128.27 377.01 1127.56 379.55 996.45 326.4"></polygon><path class="cls-39" d="M1135.27,483.55l-81.36-4.17v23.37l78.36,1.8Z"></path><polygon class="cls-39" points="1053.43 476.55 1029.16 474.58 1029.16 502.75 1053.43 502.75 1053.43 476.55"></polygon><path class="cls-39" d="M1029.16,502.75H802.68a6.28,6.28,0,0,1-6.28-6.28V480.85a6.28,6.28,0,0,1,6.28-6.28h226.48Z"></path><path class="cls-6" d="M1029.16,478.31v-3.73H802.68a6.3,6.3,0,0,0-5.74,3.73Z"></path><path class="cls-43" d="M825.39,490.35H811.52A4.55,4.55,0,0,1,807,485.8v-.09a4.55,4.55,0,0,1,4.55-4.55h13.87a4.55,4.55,0,0,1,4.55,4.55v.09A4.55,4.55,0,0,1,825.39,490.35Z"></path><path class="cls-43" d="M1005.47,490.35H991.6a4.55,4.55,0,0,1-4.55-4.55v-.09a4.55,4.55,0,0,1,4.55-4.55h13.87a4.55,4.55,0,0,1,4.55,4.55v.09A4.55,4.55,0,0,1,1005.47,490.35Z"></path><rect class="cls-44" x="815.09" y="367.67" width="98.9" height="102.6"></rect><polygon class="cls-6" points="904.19 460.19 900.62 455.99 897.04 460.19 898.89 460.19 898.89 467.62 902.34 467.62 902.34 460.19 904.19 460.19"></polygon><path class="cls-6" d="M894.57,467.52H883.32V456.27h11.25Zm-10.25-1h9.25v-9.25h-9.25Z"></path><path class="cls-6" d="M881.85,467.52H870.6V456.27h11.25Zm-10.25-1h9.25v-9.25H871.6Z"></path><rect class="cls-44" x="839.8" y="285.86" width="72.24" height="74.94"></rect><polygon class="cls-44" points="906.07 334.42 898.52 325.55 890.96 334.42 894.87 334.42 894.87 337.13 902.16 337.13 902.16 334.42 906.07 334.42"></polygon><rect class="cls-45" x="916.19" y="316.15" width="72.24" height="153.43"></rect><rect class="cls-46" x="916.19" y="316.15" width="14.91" height="153.43"></rect><polygon class="cls-6" points="982.46 460.53 974.9 451.66 967.35 460.53 971.26 460.53 971.26 463.25 978.55 463.25 978.55 460.53 982.46 460.53"></polygon><path class="cls-47" d="M886.8,234.36c-6.18-3.2-11.13-1.19-11.13-1.19-18.9-2.22-24.41,19.83-24.16,27.41s1.13,15.73-7.32,25.59c-24.38,28.46,26.69,29.71,26.69,29.71.43-22.74,27.69-14.44,26.49-12.14C932.32,312.13,900.85,241.65,886.8,234.36Z"></path><path class="cls-5" d="M813.89,324.62s-3.33-5.06-6-5.16-7.64-1.49-7.24-.5,3.47,1.1,3.77,1.69-4.56,1.49-5.95,1.59-4.67,0-4.57.69,5.9,3.57,10,3.18A27.67,27.67,0,0,1,813,327.3Z"></path><path class="cls-48" d="M862,326.26a50.76,50.76,0,0,1-5.08,7.69c-4,4.94-10,10.66-17.69,11.79A19.06,19.06,0,0,1,828.68,344h0c-9.29-4.13-16.27-13.61-16.27-13.61a7.63,7.63,0,0,1,1-7.49s18.75,4.22,20.54,3.33S846.75,301,848.72,297c4.21-8.63,10.88-11.1,10.88-11.1Z"></path><path class="cls-49" d="M856.88,334c-4,4.94-10,10.66-17.69,11.79A19.06,19.06,0,0,1,828.68,344c.36.05,9.64,1.19,13.34-5.42s7.85-17.46,13.45-13.89C857.89,326.26,857.78,330.09,856.88,334Z"></path><path class="cls-50" d="M931.93,528.69s5.72,5.22,4.6,8.93-6.28,6.18-7,10.72-3.49,7-6,7h-12s-1.85-3.19,2.62-4.16,6.15-6.29,5.87-11.23a87,87,0,0,1,.42-11.55l9.49-2.2Z"></path><path class="cls-50" d="M883.49,530.9s2.06,22.13-.45,23.36l-32.15-.06s0-3.71,5.16-4.54,14.24-3.85,15.77-10.58S883.49,530.9,883.49,530.9Z"></path><path class="cls-48" d="M908.22,311.33a127.84,127.84,0,0,1,0,14.86c-.31,5.38-5.75,12.57-6.52,14.35-1.94,4.47-4.12,5.2-4.12,5.2l-16.88,4.13-5.93,1.46-18.72-5.59s-8.53-23.8-5.1-37.2a102.84,102.84,0,0,1,8.65-22.69s12.69-5,35.16-1.27Z"></path><path class="cls-7" d="M903.28,328.39c-.32,5.37-.81,10.37-1.58,12.15-1.94,4.47-4.12,5.2-4.12,5.2l-16.88,4.13-7.33-2.15S897.84,344,895.13,323Z"></path><path class="cls-51" d="M857.24,349.35S848,378.2,847.38,388s17.71,139.55,18.45,144.07c.7,4.27,6,7,6,7a8,8,0,0,0,5.92.46c4.82-1.37,6.35-3,6.35-3S891.3,444,886.84,411a522.5,522.5,0,0,1-4.52-61.63Z"></path><path class="cls-52" d="M896.51,348.49s14.14,19,15.46,31.79,2.07,57.88,4.88,70.38S930,487.22,930,526.21a7.76,7.76,0,0,1-4.38,3.43,35,35,0,0,1-3.86,1.06,6.05,6.05,0,0,1-6.78-3.21c-7-14-29.19-59.35-30.33-68.75-.81-6.65-7.82-50.7-23.13-76.54-3.67-6.2,2.26-30.87,2.26-30.87Z"></path><path class="cls-38" d="M855.76,344.89s3.72,2.95,11.11,3.1c8.83.17,30.71-2.25,30.71-2.25a18.07,18.07,0,0,1,.93,5.58s-26.72,6.74-42.2,1C856.31,352.3,854.31,348.55,855.76,344.89Z"></path><path class="cls-6" d="M864.75,355.6a4.59,4.59,0,1,1,4-4.56A4.33,4.33,0,0,1,864.75,355.6Zm0-7.79a3.28,3.28,0,1,0,2.7,3.23A3,3,0,0,0,864.75,347.81Z"></path><path class="cls-53" d="M923.51,352.59l-21.7,18.89a3.76,3.76,0,0,1-5.31-.37l-27.69-31.79a3.77,3.77,0,0,1,.37-5.31l21.7-18.9a3.76,3.76,0,0,1,5.31.37l27.69,31.79A3.78,3.78,0,0,1,923.51,352.59Z"></path><path class="cls-5" d="M891.41,350.2c-.31.08-11.53,1.4-11.53,3.72,0,2.68,3.29,6.27,6.39,6.1,1.25-.07,7-5.39,7-5.39Z"></path><path class="cls-5" d="M885.65,283.35c-1.28-3.09-2-7.81-2-13.64l-.85.16-14.25,2.83s.32,4.48.33,8.7v.11c0,3.67-2.48,7.35,3.41,8.81C874.11,290.77,888.33,289.85,885.65,283.35Z"></path><path class="cls-54" d="M868.55,272.7s.32,4.48.33,8.7c8-.22,12.19-7.49,13.92-11.53Z"></path><path class="cls-5" d="M865.89,276.7s18.86.31,18.88-11.45,2.45-19.62-9.59-20.32-14.39,3.79-15.35,7.71S861,276.31,865.89,276.7Z"></path><path class="cls-47" d="M866.58,244.64s5.17,13.79,13.1,15.83,11.36-.08,11.36-.08a22.44,22.44,0,0,1-7.34-13.27S870.48,238.08,866.58,244.64Z"></path><path class="cls-47" d="M867.86,245.76s-3.83,1.44-5.4,4.23a19,19,0,0,0-2.55,10.79s-3.9-9.37.48-14.67C865,240.48,867.86,245.76,867.86,245.76Z"></path><path class="cls-5" d="M891.41,350.2a12.9,12.9,0,0,0-4.49-.61c-1.79.25-3.12,0-3.12.47s2.31.73,2.81,1S891.41,350.2,891.41,350.2Z"></path><path class="cls-48" d="M894.76,284.58s13.39.94,18.53,13.42,14.87,33.43,14.87,37-5.44,14.39-34.66,20.64c0,0-3-3.18-2.84-5.7,0,0,18.24-15.67,18.19-17.5-.09-3.46-3-8-19-24C885.49,304,894.76,284.58,894.76,284.58Z"></path></svg> 