<svg id="_лой_1" data-name="‘лой_1" xmlns="http://www.w3.org/2000/svg" viewBox="0 0 3905.93 1877.14"><defs><style>.cls-1{fill:#b5caf0;}.cls-2{fill:#fff;}.cls-3{fill:#dfebfa;}.cls-4{fill:#cbdcf7;}.cls-5{fill:#ebf3fa;}.cls-6{fill:#c3dafc;}.cls-7{fill:#d4e4f8;}.cls-8{fill:#9dc3f3;}.cls-9{fill:#e3f0ff;}.cls-10{opacity:0.8;}.cls-11{fill:#82b378;}.cls-12{fill:#a8d29f;}.cls-13{fill:#aec3ff;}.cls-14{fill:#ccdcff;}.cls-15{fill:#2a4e96;}.cls-16{fill:#618dc1;}.cls-17{fill:#ed823a;}.cls-18{fill:#ff9e55;}.cls-19{fill:#dd732c;}.cls-20{fill:#ffb27d;}.cls-21{fill:#c0d8fb;}.cls-22{fill:#dfebfd;}.cls-23{fill:#b7d3f3;}.cls-24{fill:#ed975d;}.cls-25{fill:#2c3a64;}.cls-26{fill:#212d4c;}.cls-27{fill:#f99746;}.cls-28{fill:#233862;}.cls-29{fill:#ed7d2b;}.cls-30{fill:#f9ddbf;}.cls-31{fill:#ed985f;}.cls-32{fill:#eac3a2;}.cls-33{fill:#2b478b;}.cls-34{fill:#f2ccaa;}.cls-35{fill:#163560;}.cls-36{fill:#4168b5;}.cls-37{fill:#35488b;}.cls-38{fill:#ea9c68;}.cls-39{fill:#e28242;}.cls-40{fill:#ef8c42;}.cls-41{fill:#ffa561;}.cls-42{fill:#f1a34f;}.cls-43{fill:#cc662e;}.cls-44{fill:#e07e34;}.cls-45{fill:#2e3552;}.cls-46{fill:#dfe9f9;}</style></defs><path class="cls-1" d="M-349.54,1193.21C-448.94,771.15-343.39,207.19,0-.7,357.47-217.11,606.38,174.09,1521.23,228.83,2338,277.7,2680.82-1.73,3101.54,282.41c39.93,27,319.5,222.08,398.77,584.47,110,502.95-259.27,900.67-300.31,943.46H0C-98.64,1711.05-276.43,1503.6-349.54,1193.21Z" transform="translate(385.24 65.41)"/><rect class="cls-2" x="1459.83" y="403.3" width="925.87" height="645.97"/><path class="cls-3" d="M2000.46,690.42H1999V636c-2.46-1.1-4.93-2.23-7.37-3.36H1979.9v-5.52l-2.52-1.23v6.74h-87.71V621.23h-2.52v11.43h-17.62V747.53H1756.85v42.28h-62.64V765.27h-58.08V667.8h-155.5v-1.16h.08V655.82h-.08V645.6h.08v-17h-.08V617.69h.08v-17h-.08V589.8h.08v-17h-.08V561h.08V544h-.08V529h.08V512h-.08V500.71H1342.69v89.08l-13,.05v-.05h.09v-17h-.09V561h.09V544h-.09V532.27h.09v-17h-.09v-.06h-123v.06h-21.11l-3.29,1.35V630.2h-84.95V989.29H2025V690.35Z" transform="translate(385.24 65.41)"/><rect class="cls-3" x="1988.05" y="687.77" width="4.38" height="46.29"/><rect class="cls-3" x="1911.82" y="648.03" width="6.81" height="89.64"/><rect class="cls-3" x="1850.02" y="553.37" width="2.19" height="12.74"/><rect class="cls-3" x="1746.46" y="553.37" width="2.19" height="12.74"/><path class="cls-4" d="M1029.93,1010H2063.65a12.18,12.18,0,0,0,12.18-12.18V996a12.18,12.18,0,0,0-12.18-12.18H1029.93A12.18,12.18,0,0,0,1017.75,996v1.74A12.18,12.18,0,0,0,1029.93,1010Z" transform="translate(385.24 65.41)"/><path class="cls-4" d="M2025,321.13V983.86h-24.55V322.16Q2012.72,321.52,2025,321.13Z" transform="translate(385.24 65.41)"/><path class="cls-4" d="M1093.78,321.24V983.86h-20.93V321.13l9.47.07C1086.16,321.22,1090,321.24,1093.78,321.24Z" transform="translate(385.24 65.41)"/><path class="cls-4" d="M2026.16,337.89H1074.6V321.13h951.72c0,2.53-.08,5.07-.1,7.59C2026.17,331.79,2026.16,334.84,2026.16,337.89Z" transform="translate(385.24 65.41)"/><rect class="cls-5" x="1600.37" y="598.91" width="17.17" height="25.46"/><rect class="cls-5" x="1754.9" y="662.14" width="17.17" height="25.46"/><rect class="cls-5" x="2277.73" y="718.31" width="17.17" height="25.46"/><rect class="cls-5" x="2179.77" y="856.89" width="17.17" height="25.46"/><rect class="cls-5" x="2249.23" y="949.87" width="17.17" height="25.46"/><rect class="cls-5" x="1973.08" y="758.54" width="17.17" height="25.46"/><rect class="cls-5" x="1842.53" y="831.43" width="17.17" height="25.46"/><rect class="cls-5" x="1617.94" y="771.27" width="17.17" height="25.46"/><rect class="cls-5" x="1964.49" y="946.78" width="17.17" height="25.46"/><rect class="cls-5" x="1671.39" y="946.78" width="17.17" height="25.46"/><rect class="cls-6" x="881.5" y="1588.49" width="250.27" height="281.02"/><rect class="cls-7" x="1006.63" y="1588.49" width="250.27" height="281.02"/><polygon class="cls-8" points="881.64 1798.24 921.3 1798.24 917.8 1783.05 921.3 1772.19 881.64 1772.19 881.64 1798.24"/><polygon class="cls-9" points="1006.63 1675.46 1046.29 1675.46 1042.79 1660.26 1046.29 1649.41 1006.63 1649.41 1006.63 1675.46"/><polygon class="cls-8" points="1006.63 1649.41 966.97 1649.41 970.46 1664.6 966.97 1675.46 1006.63 1675.46 1006.63 1649.41"/><polygon class="cls-9" points="1256.91 1801.26 1217.25 1801.26 1220.74 1816.46 1217.25 1827.32 1256.91 1827.32 1256.91 1801.26"/><rect class="cls-2" x="1168.5" y="1607.55" width="72.02" height="38.16"/><rect class="cls-6" x="1279.68" y="1588.49" width="250.27" height="281.02"/><rect class="cls-7" x="1404.82" y="1588.49" width="250.27" height="281.02"/><polygon class="cls-8" points="1279.83 1798.24 1319.48 1798.24 1315.99 1783.05 1319.48 1772.19 1279.83 1772.19 1279.83 1798.24"/><polygon class="cls-9" points="1404.82 1675.46 1444.47 1675.46 1440.98 1660.26 1444.47 1649.41 1404.82 1649.41 1404.82 1675.46"/><polygon class="cls-8" points="1404.82 1649.41 1365.16 1649.41 1368.65 1664.6 1365.16 1675.46 1404.82 1675.46 1404.82 1649.41"/><polygon class="cls-9" points="1655.1 1801.26 1615.44 1801.26 1618.93 1816.46 1615.44 1827.32 1655.1 1827.32 1655.1 1801.26"/><rect class="cls-2" x="1566.68" y="1607.55" width="72.02" height="38.16"/><g class="cls-10"><rect class="cls-6" x="940.93" y="1397.49" width="231.64" height="191"/><rect class="cls-7" x="1056.75" y="1397.49" width="231.64" height="191"/><polygon class="cls-8" points="941.06 1540.05 977.77 1540.05 974.54 1529.72 977.77 1522.34 941.06 1522.34 941.06 1540.05"/><polygon class="cls-9" points="1056.75 1456.6 1093.46 1456.6 1090.22 1446.27 1093.46 1438.89 1056.75 1438.89 1056.75 1456.6"/><polygon class="cls-8" points="1056.75 1438.89 1020.04 1438.89 1023.28 1449.22 1020.04 1456.6 1056.75 1456.6 1056.75 1438.89"/><polygon class="cls-9" points="1288.4 1542.1 1251.69 1542.1 1254.93 1552.43 1251.69 1559.81 1288.4 1559.81 1288.4 1542.1"/><rect class="cls-2" x="1206.57" y="1410.44" width="66.66" height="25.93"/></g><path class="cls-11" d="M2577.54,1172.57s21.4-25,1.32-40.82c0,0-14.67-8.88-26.62-8.16,0,0,17,28.41,11.46,31.24s-16.6-33-16.6-33-33.38-3.24-44.11,1.93c0,0,28.53,23.35,22.52,24.74s-36.83-21.53-36.83-21.53-31.06,5.29-29.41,24.24,12.36,24.8,17.06,24.3,32.22-11,32.82-7.15-16,16.45-27.56,17c0,0,21.9,24.15,36.45,17.18s15.8-18,24.87-22.16,16.82-4.13,13.07.09-20.17,8.33-25.35,17.51-9.84,15.37,5.21,13.1,39.54-13.29,40.61-25.9Z" transform="translate(385.24 65.41)"/><path class="cls-11" d="M2474.54,1151.7s84.37-3.25,103,20.88c0,0,4.12,12.34,16.8,23.58l2,5.39s-14.62-15.42-19.85-16.35C2576.46,1185.19,2584.65,1155.3,2474.54,1151.7Z" transform="translate(385.24 65.41)"/><path class="cls-11" d="M2594.34,1196.15s18.11,13.39,19.37,37.32l-3.29.29s-5.78-24.74-16.24-34.42S2594.34,1196.15,2594.34,1196.15Z" transform="translate(385.24 65.41)"/><path class="cls-12" d="M2652.35,1141.18s-34-19.06-18.15-44.93c0,0,12.71-15.88,26.32-20,0,0-7.26,38.58,0,39.49s5-43.57,5-43.57,35.85-17.25,49.92-15.88c0,0-22.24,37.67-15,36.76s32.22-39,32.22-39,36.76-6.81,42.66,15-3.63,32.68-9.08,34-40.39.91-39.49,5.45,24.51,11.8,37.67,7.72c0,0-14.52,35.85-33.58,34s-25-13.62-36.76-14.52-20.42,2.27-14.52,5.45,25.87,1,35.4,9.14,17.25,13.09-.45,16.73-49.47,1.36-55.82-12.25Z" transform="translate(385.24 65.41)"/><path class="cls-11" d="M2758.56,1075.82s-95.31,30.86-106.2,65.35c0,0,.45,15.43-9.08,33.13v6.81s10-23.15,15.43-26.32C2658.71,1154.79,2637.38,1124.84,2758.56,1075.82Z" transform="translate(385.24 65.41)"/><path class="cls-11" d="M2643.28,1174.31s-14.7,22.32-6.32,49.49l3.78-1s-3.67-29.93,4-45S2643.28,1174.31,2643.28,1174.31Z" transform="translate(385.24 65.41)"/><path class="cls-12" d="M2598.2,1114.89s44.87-25.13,23.93-59.23c0,0-16.75-20.94-34.7-26.32,0,0,9.57,50.85,0,52.05s-6.58-57.43-6.58-57.43-47.26-22.73-65.81-20.94c0,0,29.31,49.66,19.74,48.46S2492.3,1000,2492.3,1000s-48.46-9-56.24,19.74,4.79,43.07,12,44.87,53.25,1.2,52,7.18-32.31,15.55-49.66,10.17c0,0,19.14,47.26,44.27,44.87s32.9-17.95,48.46-19.14,26.92,3,19.14,7.18-34.1,1.37-46.67,12-22.73,17.26.6,22,65.21,1.79,73.59-16.15Z" transform="translate(385.24 65.41)"/><path class="cls-11" d="M2458.21,1028.74s125.63,40.68,140,86.15c0,0-.6,20.34,12,43.67v9s-13.16-30.51-20.34-34.7C2589.83,1132.84,2617.94,1093.35,2458.21,1028.74Z" transform="translate(385.24 65.41)"/><path class="cls-11" d="M2610.17,1158.56s19.38,29.42,8.33,65.24l-5-1.34s4.84-39.45-5.3-59.29S2610.17,1158.56,2610.17,1158.56Z" transform="translate(385.24 65.41)"/><path class="cls-13" d="M2599.71,1301.46a87.89,87.89,0,0,1-87.89-87.89H2687.6A87.88,87.88,0,0,1,2599.71,1301.46Z" transform="translate(385.24 65.41)"/><path class="cls-14" d="M2625.67,1300.79a88,88,0,0,1-98.81-87.22h21.83A87.92,87.92,0,0,0,2625.67,1300.79Z" transform="translate(385.24 65.41)"/><path class="cls-13" d="M2510.61,1305.94h178.21A10.84,10.84,0,0,0,2678,1295.1H2521.46a10.83,10.83,0,0,0-10.85,10.84Z" transform="translate(385.24 65.41)"/><rect class="cls-13" x="2895.07" y="1278.98" width="180.67" height="2.7"/><rect class="cls-6" x="2715.99" y="1554.24" width="382.09" height="315.06"/><rect class="cls-7" x="2907.04" y="1554.24" width="382.09" height="315.06"/><polygon class="cls-15" points="2716.21 1789.41 2776.76 1789.41 2771.43 1772.37 2776.76 1760.2 2716.21 1760.2 2716.21 1789.41"/><polygon class="cls-16" points="2907.04 1651.75 2967.58 1651.75 2962.25 1634.71 2967.58 1622.54 2907.04 1622.54 2907.04 1651.75"/><polygon class="cls-15" points="2907.04 1622.54 2846.49 1622.54 2851.82 1639.58 2846.49 1651.75 2907.04 1651.75 2907.04 1622.54"/><polygon class="cls-16" points="3289.14 1792.79 3228.59 1792.79 3233.93 1809.83 3228.59 1822 3289.14 1822 3289.14 1792.79"/><rect class="cls-2" x="3154.16" y="1575.61" width="109.95" height="42.78"/><rect class="cls-17" x="2923.43" y="1371.52" width="221.4" height="182.56"/><rect class="cls-18" x="2812.73" y="1371.52" width="221.4" height="182.56"/><polygon class="cls-19" points="3144.7 1507.78 3109.62 1507.78 3112.71 1497.91 3109.62 1490.85 3144.7 1490.85 3144.7 1507.78"/><polygon class="cls-20" points="3034.13 1428.01 2999.05 1428.01 3002.14 1418.14 2999.05 1411.09 3034.13 1411.09 3034.13 1428.01"/><polygon class="cls-19" points="3034.13 1411.09 3069.21 1411.09 3066.12 1420.96 3069.21 1428.01 3034.13 1428.01 3034.13 1411.09"/><polygon class="cls-20" points="2812.73 1509.74 2847.81 1509.74 2844.72 1519.61 2847.81 1526.66 2812.73 1526.66 2812.73 1509.74"/><rect class="cls-17" x="3120.04" y="1651.75" width="263.85" height="217.56"/><rect class="cls-18" x="2988.11" y="1651.75" width="263.85" height="217.56"/><polygon class="cls-19" points="3383.73 1814.13 3341.92 1814.13 3345.6 1802.37 3341.92 1793.96 3383.73 1793.96 3383.73 1814.13"/><polygon class="cls-20" points="3251.96 1719.08 3210.15 1719.08 3213.83 1707.31 3210.15 1698.91 3251.96 1698.91 3251.96 1719.08"/><polygon class="cls-19" points="3251.96 1698.91 3293.77 1698.91 3290.09 1710.67 3293.77 1719.08 3251.96 1719.08 3251.96 1698.91"/><polygon class="cls-20" points="2988.11 1816.47 3029.91 1816.47 3026.23 1828.23 3029.91 1836.64 2988.11 1836.64 2988.11 1816.47"/><path class="cls-21" d="M2472.81,680H2293.34a15,15,0,0,1-15-15V491.82a15,15,0,0,1,15-15h179.47a15,15,0,0,1,15,15V665A15,15,0,0,1,2472.81,680Z" transform="translate(385.24 65.41)"/><path class="cls-22" d="M2465,671.21H2301.12a13.72,13.72,0,0,1-13.68-13.68V499.32a13.73,13.73,0,0,1,13.68-13.68H2465a13.73,13.73,0,0,1,13.68,13.68V657.53A13.72,13.72,0,0,1,2465,671.21Z" transform="translate(385.24 65.41)"/><path class="cls-23" d="M2378.74,504.18a4.34,4.34,0,1,1,4.34,4.34A4.34,4.34,0,0,1,2378.74,504.18Z" transform="translate(385.24 65.41)"/><path class="cls-23" d="M2413.74,510.32a4.34,4.34,0,1,1,1.68,5.9A4.34,4.34,0,0,1,2413.74,510.32Z" transform="translate(385.24 65.41)"/><path class="cls-23" d="M2443.73,534.14a4.34,4.34,0,1,1-1.29,6A4.34,4.34,0,0,1,2443.73,534.14Z" transform="translate(385.24 65.41)"/><path class="cls-23" d="M2458.59,571a4.34,4.34,0,1,1-4.34,4.34A4.34,4.34,0,0,1,2458.59,571Z" transform="translate(385.24 65.41)"/><path class="cls-23" d="M2451,613.82a4.34,4.34,0,1,1-6.14,0A4.34,4.34,0,0,1,2451,613.82Z" transform="translate(385.24 65.41)"/><path class="cls-23" d="M2423.76,641.13a4.34,4.34,0,1,1-6.14,0A4.35,4.35,0,0,1,2423.76,641.13Z" transform="translate(385.24 65.41)"/><path class="cls-23" d="M2378.74,655.21a4.34,4.34,0,1,1,4.34,4.34A4.34,4.34,0,0,1,2378.74,655.21Z" transform="translate(385.24 65.41)"/><path class="cls-23" d="M2352.27,510.32a4.34,4.34,0,1,0-1.68,5.9A4.33,4.33,0,0,0,2352.27,510.32Z" transform="translate(385.24 65.41)"/><path class="cls-23" d="M2322.28,534.14a4.34,4.34,0,1,0,1.29,6A4.34,4.34,0,0,0,2322.28,534.14Z" transform="translate(385.24 65.41)"/><path class="cls-23" d="M2307.43,571a4.34,4.34,0,1,0,4.34,4.34A4.34,4.34,0,0,0,2307.43,571Z" transform="translate(385.24 65.41)"/><path class="cls-23" d="M2315,613.82a4.33,4.33,0,1,0,6.13,0A4.32,4.32,0,0,0,2315,613.82Z" transform="translate(385.24 65.41)"/><path class="cls-23" d="M2342.25,641.13a4.34,4.34,0,1,0,6.13,0A4.35,4.35,0,0,0,2342.25,641.13Z" transform="translate(385.24 65.41)"/><path class="cls-23" d="M2381.91,575.36a4.34,4.34,0,1,1,4.34,4.34A4.34,4.34,0,0,1,2381.91,575.36Z" transform="translate(385.24 65.41)"/><rect class="cls-23" x="2770.89" y="586.57" width="1.18" height="54.2"/><rect class="cls-23" x="2381.84" y="562.18" width="36.53" height="3.55" transform="translate(549.23 1667.8) rotate(-38.13)"/><path class="cls-24" d="M2190.47,1581.17c.89,8.15.12,20.53-1.71,35.12-7.21,57.78-30.75,150-30.75,150l-29.49,3.58c2.15-16.31-4-78.79-12.14-148-12.3-104.46-29.2-224.31-29.2-224.31s64.2-53.06,102-38.4S2186,1540.69,2190.47,1581.17Z" transform="translate(385.24 65.41)"/><path class="cls-22" d="M2188.76,1616.29c-7.21,57.78-30.75,150-30.75,150l-29.49,3.58c2.15-16.31-4-78.79-12.14-148,10.49,1.85,39,5.51,62.79-3.46A29.77,29.77,0,0,1,2188.76,1616.29Z" transform="translate(385.24 65.41)"/><path class="cls-25" d="M2161.75,968.75a42.88,42.88,0,0,0-33,0c-17.45,7.46-30.15,39.23-22.33,68.9s-18.57,30.17-6.35,54c4.33,8.44,61.68,15.62,63.63-17.25,1.21-20.36-17.22-21.37-11.85-43.5S2161.75,968.75,2161.75,968.75Z" transform="translate(385.24 65.41)"/><path class="cls-20" d="M2244.08,1574.85c1.73,10,1.26,26.7-.41,46.21-5,58.89-21,143.06-21,143.06l-29.17,6.74c1.11-16.11-8.41-76.71-20.43-144.51-18.69-105.47-43.38-228.38-43.38-228.38s60.81-56.93,99.47-44.62S2237.17,1534.72,2244.08,1574.85Z" transform="translate(385.24 65.41)"/><path class="cls-26" d="M2128.87,1764.08s-7,12.87-20.36,15.85c-8.41,1.88-15.59,6.3-20,12.47a7.85,7.85,0,0,0,6.38,12.46l67.84-.39a9.75,9.75,0,0,0,9.65-10.79c-.53-5-1.1-10.87-1.35-15.36-.56-9.79-11.17-18.6-11.17-18.6s-9.31,5.34-12.91,6C2139.1,1767.08,2128.87,1764.08,2128.87,1764.08Z" transform="translate(385.24 65.41)"/><path class="cls-20" d="M2115.94,1110.46s-47.67,83.76-56.61,144.7c0,0,24.9,20.08,33.67-.35S2164.72,1125,2115.94,1110.46Z" transform="translate(385.24 65.41)"/><path class="cls-25" d="M2124.38,977.78c.48-.79,20.31-32.16,57.4-38.42,30-5.07,58.16,16.15,62.78,46.27s-.09,69.47-49.46,83.6Z" transform="translate(385.24 65.41)"/><path class="cls-20" d="M2133.45,1112.62l55.87,33.18,14.74-39.21s-7.1-14.45-9-37.37a152.47,152.47,0,0,1,.9-33l-48.58,21.1a90.7,90.7,0,0,1,1.19,10.89c.36,7,.12,16.36-2.41,25.12C2144,1100.8,2140.11,1107.87,2133.45,1112.62Z" transform="translate(385.24 65.41)"/><path class="cls-24" d="M2146.19,1093.28c26.8,1,48.91-24.06,48.91-24.06l-46.49-1.07C2149,1075.15,2148.73,1084.52,2146.19,1093.28Z" transform="translate(385.24 65.41)"/><path class="cls-20" d="M2134.16,1077.55s52.47,17.49,73.58-23.78c22.78-44.53,3.11-79.29-14.87-82.69-35.85-6.79-57.72,5.66-65,19.82S2105.19,1068.16,2134.16,1077.55Z" transform="translate(385.24 65.41)"/><path class="cls-2" d="M2156.84,1055s-2.58,5.36-16.46,1.38c0,0-11.66-3.34-9.92-9.48C2130.46,1046.9,2142.89,1045,2156.84,1055Z" transform="translate(385.24 65.41)"/><path class="cls-27" d="M2267.17,1538.33c-15.17,14.49-127.16,44.44-190.28,22.91-11.31-3.86,6.79-352.86,17.58-420.25a42.44,42.44,0,0,1,36.18-35.37c3.13-.43,7.23-1.25,10.9-1.61-.78,8.29,1.35,16.49,15.79,19.32,19.22,3.75,37.4-8.36,46.74-16.8,15.05,3.13,23.8,4.29,35.75,9.27a31.43,31.43,0,0,1,19,33.18l-3.61,26.61-11.5,84.78a112,112,0,0,0,.25,32.08c4.9,32.22,12.68,110.72,17.9,170.43C2265.54,1504.88,2267.94,1537.59,2267.17,1538.33Z" transform="translate(385.24 65.41)"/><path class="cls-25" d="M2170.92,976s-5,49.22,41.72,66.67c18.57,6.94,28.23-68.24-10.56-83.26s-77.06,2.82-81.63,29.06-1.09,31.71-1.09,31.71S2137.52,970.23,2170.92,976Z" transform="translate(385.24 65.41)"/><path class="cls-27" d="M2101.47,1123.54l-24.29,41.54s3.13,19.28,21.3,21.19S2101.47,1123.54,2101.47,1123.54Z" transform="translate(385.24 65.41)"/><path class="cls-25" d="M2228.88,969.17a38.53,38.53,0,0,1,33,0c17.45,8.4,30.15,44.17,22.33,77.59s18.57,34,6.35,60.77c-4.33,9.5-61.68,17.59-63.63-19.42-1.21-22.93,17.22-24.06,11.85-49S2228.88,969.17,2228.88,969.17Z" transform="translate(385.24 65.41)"/><path class="cls-2" d="M2243.67,1621.07c-5,58.89-21,143.06-21,143.06l-29.17,6.74c1.11-16.11-8.41-76.71-20.43-144.51C2188.62,1628,2217.28,1629.23,2243.67,1621.07Z" transform="translate(385.24 65.41)"/><path class="cls-25" d="M2192.67,1764.08s-7,12.87-20.36,15.85c-8.41,1.88-15.59,6.3-20,12.47a7.85,7.85,0,0,0,6.38,12.46l67.84-.39a9.75,9.75,0,0,0,9.65-10.79c-.53-5-1.1-10.87-1.35-15.36-.56-9.79-11.17-18.6-11.17-18.6s-9.31,5.34-12.9,6C2202.89,1767.08,2192.67,1764.08,2192.67,1764.08Z" transform="translate(385.24 65.41)"/><path class="cls-13" d="M2147.89,1249.59v63c0,7.56-8.54,13.75-19,13.75h-56.73c-10.44,0-19-6.19-19-13.75v-63Z" transform="translate(385.24 65.41)"/><path class="cls-12" d="M2083.7,1249.68c-.09-.68-9.08-68.07-44.06-101.5l.95-1c35.34,33.77,44.39,101.63,44.48,102.32Z" transform="translate(385.24 65.41)"/><path class="cls-12" d="M2099.87,1249.62c-1.46-42.85,9.8-132.48,9.92-133.38l1.36.17c-.11.9-11.36,90.42-9.91,133.16Z" transform="translate(385.24 65.41)"/><path class="cls-12" d="M2121.16,1249.66l-1.36-.13c1.93-20.74,15.18-32.83,26-39.32a78,78,0,0,1,23.09-9.18l.25,1.35a76.49,76.49,0,0,0-22.67,9C2135.93,1217.74,2123,1229.51,2121.16,1249.66Z" transform="translate(385.24 65.41)"/><path class="cls-12" d="M2044.55,1152.27s-2.87-25.53-15.91-25.93a123.55,123.55,0,0,0-26,2.37s9.49,5.07,14,10.57S2044.55,1152.27,2044.55,1152.27Z" transform="translate(385.24 65.41)"/><path class="cls-12" d="M2053,1163s-16.34-2.36-22.4,2.39-3.95,19.24-3.95,19.24,7.91-2.11,13.44-5.8,8.17-5.78,10.54-10.8Z" transform="translate(385.24 65.41)"/><path class="cls-11" d="M2084.38,1247.79s-22-12.36-33.21-9-16.23,25.21-16.23,25.21,12.42,1.36,22.33-.85,14.82-3.73,21-9.57Z" transform="translate(385.24 65.41)"/><path class="cls-11" d="M2110.46,1116.87c.46.37-7.11-13.24-15.22-11.66s-17.79,9.29-17.79,9.29,11.46,1.58,16.5,3.16S2107.5,1114.5,2110.46,1116.87Z" transform="translate(385.24 65.41)"/><path class="cls-12" d="M2166.13,1202.61c0,.54-5.73-14.4,0-17.17s16.76-1.33,16.76-1.33-5.25,7-6.91,10.87S2166.05,1199.19,2166.13,1202.61Z" transform="translate(385.24 65.41)"/><path class="cls-11" d="M2110.46,1116.73s-.13-5.86,6.59-9c0,0,1.45,3.82,0,6.59S2110.46,1116.73,2110.46,1116.73Z" transform="translate(385.24 65.41)"/><path class="cls-12" d="M2133.12,1220.73s-5.69-1.44-6.94-8.76c0,0,4.07-.38,6.35,1.76S2133.12,1220.73,2133.12,1220.73Z" transform="translate(385.24 65.41)"/><path class="cls-11" d="M2109.94,1121.51s5.93-2.37,9.75-1.84,7.64,10.28,7.64,10.28-7.91-.13-10.54-1.19S2112.31,1121.24,2109.94,1121.51Z" transform="translate(385.24 65.41)"/><path class="cls-12" d="M2146.67,1211s5.3-3.55,9.15-3.83,9.62,8.46,9.62,8.46-7.76,1.52-10.56,1S2148.94,1210.24,2146.67,1211Z" transform="translate(385.24 65.41)"/><path class="cls-12" d="M2108.09,1136.5s-10.28-7.71-18.45-6.56-16.08,11.69-16.08,11.69,9.22,2.9,14.36,2.11,11.86-4.15,13.64-5.93S2108.09,1136.5,2108.09,1136.5Z" transform="translate(385.24 65.41)"/><path class="cls-11" d="M2106.48,1134.49s1.63-4.61-1.42-7.58-4-3.86-4-3.86a12.94,12.94,0,0,0,0,6.21C2102,1132,2106.48,1134.49,2106.48,1134.49Z" transform="translate(385.24 65.41)"/><path class="cls-12" d="M2106.31,1154s16.6-8.72,27.47-2.59,14.43,20.55,14.43,20.55-19.17-.4-25.5-5.34-5.81-12.06-8.64-12.45A56.7,56.7,0,0,0,2106.31,1154Z" transform="translate(385.24 65.41)"/><path class="cls-12" d="M2103.11,1189.48s4.94-11.45,13.13-12.82,16.05,4.6,16.05,4.6-10.08,7.81-15.42,7.9-8-3.81-9.67-2.83A36.4,36.4,0,0,0,2103.11,1189.48Z" transform="translate(385.24 65.41)"/><path class="cls-12" d="M2126.18,1229.45s22-11.57,36.45-3.44,19.14,27.27,19.14,27.27-25.44-.52-33.83-7.08-7.71-16-11.46-16.52A75.14,75.14,0,0,0,2126.18,1229.45Z" transform="translate(385.24 65.41)"/><path class="cls-12" d="M2161.26,1203.42s16.6-8.72,27.47-2.59,14.43,20.55,14.43,20.55-19.17-.4-25.5-5.34-5.81-12.06-8.64-12.45A56.7,56.7,0,0,0,2161.26,1203.42Z" transform="translate(385.24 65.41)"/><path class="cls-11" d="M2104.86,1162.37s-1.55-8.95-9.83-10.1-16.51,10.1-16.51,10.1,7.71,2.58,12.06,2.58,8.77-6.79,10.91-5.31A28.44,28.44,0,0,1,2104.86,1162.37Z" transform="translate(385.24 65.41)"/><path class="cls-12" d="M2103.61,1200.6s-12.82-15.33-29.87-8.41-20.33,37.45-20.33,37.45,17.52-3.58,25.81-8.38,9.22-22.61,14.93-22.13A59.09,59.09,0,0,1,2103.61,1200.6Z" transform="translate(385.24 65.41)"/><path class="cls-11" d="M2127.34,1229.87s1.35-9.64-5.31-12.85-17,6.44-17,6.44,5.75,4.54,9.43,5.6,9.44-4.9,10.81-2.84A25.36,25.36,0,0,1,2127.34,1229.87Z" transform="translate(385.24 65.41)"/><path class="cls-20" d="M2222.72,1149.81s-.72,104-12.91,115.44-63.59,37-63.59,37l4.57,15.19s61.17-7,84.83-24.24,31.55-109.7,30.83-119S2222.72,1149.81,2222.72,1149.81Z" transform="translate(385.24 65.41)"/><path class="cls-27" d="M2246.31,1119.56a49.51,49.51,0,0,1,19.76,27.42c5.38,18.82,4.78,61.57,4.78,61.57s-26.35,9.68-58.08-7.53S2246.31,1119.56,2246.31,1119.56Z" transform="translate(385.24 65.41)"/><path class="cls-20" d="M2146.85,1301.94s-5.82-4.52-11.53-4.16-17.29-2.5-17.29.36,6.42,4.46,6.77,6.24-5.88,6.77-10.16,8.2-11.94,1.07-10.52,6.06,13.73,8.56,23.53,8.2,29.32-10.33,29.32-10.33Z" transform="translate(385.24 65.41)"/><path class="cls-20" d="M2049.57,1273.36s-7.08,11.92-4.21,19.09,12.14,6.63,16.45,3.76-1.21-10.35-3.23-15.19S2054.58,1268.7,2049.57,1273.36Z" transform="translate(385.24 65.41)"/><path class="cls-12" d="M1048.93,933s-8.19-72.73,23.27-134c3.34-6.5,11.62-4.86,13,2.58,4.89,26.66,9.77,79.93-12.78,136.52C1040.31,1018.55,1048.93,933,1048.93,933Z" transform="translate(385.24 65.41)"/><path class="cls-12" d="M1086.51,947.33s5.14-73,47.21-127.57c4.46-5.79,12.31-2.67,12.3,4.89,0,27.11-4.89,80.37-37.34,131.93C1062.5,1029.94,1086.51,947.33,1086.51,947.33Z" transform="translate(385.24 65.41)"/><path class="cls-11" d="M1065.58,932.78s.15-73.19,38.4-130.49c4.06-6.08,12.1-3.5,12.61,4,1.82,27,.6,80.52-28.26,134.17C1047.26,1016.84,1065.58,932.78,1065.58,932.78Z" transform="translate(385.24 65.41)"/><path class="cls-11" d="M1090.3,936.48s14.44-55.29,54.57-91.11c4.25-3.8,9.83-.28,8.74,5.52-3.92,20.8-15.31,61-47.63,95.87C1060,996.42,1090.3,936.48,1090.3,936.48Z" transform="translate(385.24 65.41)"/><path class="cls-28" d="M714.65,1714.06s-19.83,18.1-16,31,21.76,21.43,24.18,37.15,12.09,24.29,20.8,24.29h41.5s6.41-11.06-9.07-14.39-21.31-21.8-20.35-39-1.45-40-1.45-40l-32.89-7.62Z" transform="translate(385.24 65.41)"/><path class="cls-28" d="M882.49,1723.61s-7.13,76.66,1.57,81l111.41-.23s0-12.86-17.9-15.72-49.33-13.33-54.65-36.67S882.49,1723.61,882.49,1723.61Z" transform="translate(385.24 65.41)"/><path class="cls-29" d="M973.47,1092.58s32.12,100,34.18,134-61.4,483.58-64,499.26c-2.41,14.79-20.77,24.21-20.77,24.21s-8.44,5-20.5,1.58c-16.72-4.72-22-10.37-22-10.37s-25-320.61-9.53-435.13,15.65-213.57,15.65-213.57Z" transform="translate(385.24 65.41)"/><path class="cls-27" d="M837.37,1089.6s-49,65.74-53.57,110.18-7.17,200.55-16.9,243.87-45.49,126.7-45.49,261.83c0,0,3.72,7.74,15.19,11.87A124.18,124.18,0,0,0,750,1721a21,21,0,0,0,23.49-11.15c24.17-48.67,101.17-205.65,105.12-238.23,2.79-23.06,27.11-175.68,80.14-265.23,12.73-21.5-7.81-107-7.81-107Z" transform="translate(385.24 65.41)"/><path class="cls-25" d="M830.17,613.82c-1.18-2.85-14.91-33.14-61.55-16.61,0,0,23.67-6.15,31.39,2.56,0,0-20.12-6.59-31.16,2.44s-10,34.6-7.3,42.08,18.59,28.76,27.32,27.66a25.63,25.63,0,0,0,9.65-3.79,125,125,0,0,0-2,13.81c-3.94,46.1,29.11,76.61,43.1,66.28,9-6.62,18.31,9.8,18.31,9.8l66.87-119S861.07,577.15,830.17,613.82Z" transform="translate(385.24 65.41)"/><path class="cls-20" d="M955.6,894.23c-63.33,29.17-110.94-73.79-106.8-74.85,6.33-7.38,12.86-33.68,8.22-71.54l3.28.23,55.07,4.2s.86,17.61,2.76,34c1.26,10.8,3,21.09,5.22,25.58C924,813.21,935.94,815,936,815,936.89,816.08,972.49,886.46,955.6,894.23Z" transform="translate(385.24 65.41)"/><path class="cls-30" d="M1000.49,926.23c4.1,15.48,7.47,29.34,9.12,38.68,7.63,43.06,3.79,262,3.79,262-111.75,42.62-245.54-12.24-245.54-12.24-4.15-40.82,11.75-131.6,21.41-212.37,2.37-19.8,4.36-39,5.6-56.68a367.75,367.75,0,0,1,5.1-41.34c16.06-86.33,57.37-95.81,57.37-95.81,19.31,38.66,80.26,49.07,80.26,49.07.75-21.76-6.08-49.47-6.08-49.47,7.72,1,33.74,4.23,40.77,7.74,20.87,10.41,70.34,97.65,70.34,97.65S1055.45,907.61,1000.49,926.23Z" transform="translate(385.24 65.41)"/><path class="cls-31" d="M915.38,752.29s.84,17.6,2.76,34C888,789.24,868.68,763,860.31,748.09Z" transform="translate(385.24 65.41)"/><path class="cls-20" d="M927.27,766.59s-71,10.18-76.52-35.52-18.32-75.17,26.81-83.6,56.05,7.88,61.48,22.68S945.61,762.76,927.27,766.59Z" transform="translate(385.24 65.41)"/><path class="cls-25" d="M933.9,645c-12.64-12.36-20.59-8.3-24.76-3.58C867.61,624.27,846.4,660,846.4,660c-.87,33.4-21.59,55.07-21.59,55.07s14,6.63,42.93-5.07c8.85-3.57,16.22-11.29,22.19-20.29a173.25,173.25,0,0,1-24.32,39.59c33.71-21.53,42-74.56,42.78-80.15,4.82,3.47,14.43,11.13,18.05,19.37,4.93,11.19,9.37,35,16,33.28C942.49,701.84,952.85,663.54,933.9,645Z" transform="translate(385.24 65.41)"/><path class="cls-32" d="M857,794.87s-8.34,7.06-8.36,17.52c0,0,13,36.62,88.92,45.12C937.6,857.51,865.06,822.1,857,794.87Z" transform="translate(385.24 65.41)"/><path class="cls-32" d="M921.53,809.77s16.62,30.07,16.07,47.74c0,0,1.3-40.15-1.41-49.47s-17.49-17.15-17.49-17.15Z" transform="translate(385.24 65.41)"/><path class="cls-2" d="M904.92,742.61c.65,0,6.72,5.59,14.75,4s8-8,8-8a35,35,0,0,0-10.29,0C912.51,739.48,904.92,742.61,904.92,742.61Z" transform="translate(385.24 65.41)"/><path class="cls-12" d="M1036.31,941.47s8.19-72.73-23.27-134c-3.34-6.5-11.62-4.86-13,2.58-4.89,26.66-9.77,79.93,12.78,136.52C1044.93,1027.07,1036.31,941.47,1036.31,941.47Z" transform="translate(385.24 65.41)"/><path class="cls-12" d="M998.73,955.85s-5.14-73-47.21-127.57c-4.46-5.79-12.31-2.67-12.3,4.89,0,27.11,4.89,80.37,37.34,131.93C1022.74,1038.47,998.73,955.85,998.73,955.85Z" transform="translate(385.24 65.41)"/><path class="cls-11" d="M1019.66,941.31s-.15-73.19-38.4-130.49c-4.06-6.08-12.1-3.51-12.61,4-1.82,27-.6,80.52,28.26,134.17C1038,1025.37,1019.66,941.31,1019.66,941.31Z" transform="translate(385.24 65.41)"/><path class="cls-11" d="M1062.26,945.25s13.8-71.88-12.83-135.42c-2.82-6.74-11.21-5.75-13.15,1.56-6.94,26.21-15.93,78.93,2.17,137.1C1064.23,1031.26,1062.26,945.25,1062.26,945.25Z" transform="translate(385.24 65.41)"/><path class="cls-11" d="M994.94,945s-14.44-55.29-54.57-91.11c-4.25-3.8-9.83-.28-8.74,5.52,3.92,20.8,15.31,61,47.63,95.87C1025.24,1005,994.94,945,994.94,945Z" transform="translate(385.24 65.41)"/><path class="cls-27" d="M1083.39,1065.47h-78.9a59.75,59.75,0,0,1-59.58-59.58V934a3.14,3.14,0,0,1,3.13-3.13H1143v75.07A59.77,59.77,0,0,1,1083.39,1065.47Z" transform="translate(385.24 65.41)"/><path class="cls-20" d="M843.66,896c-22.52-10-38.5,10.68-34.3,35C821,998.34,848.75,1095.1,871.46,1102c34.1,10.35,156.75-68.19,156.75-68.19l-14.07-20.4s-104.93,31.12-106.78,26.28S868.2,906.87,868.2,906.87Z" transform="translate(385.24 65.41)"/><path class="cls-20" d="M1014.14,1013.41s-.19-6.22,7.13-9.63,14.52-4.83,20.47-9,6.09,1.07,3.51,5.22-8,5.71-4.32,6.93,18.23-7.56,29.67-11.41c6.16-2.07,4.06,21.69-2,26.36-5.28,4.06-19.46,11.6-31.24,12.78a57.22,57.22,0,0,0-25.31,9.17Z" transform="translate(385.24 65.41)"/><path class="cls-30" d="M853.83,844.35s-30.18,11.51-40.72,27.26-11.83,66.06,4.48,131.45c0,0,62.31-19.74,94.46-53.21C912.05,949.86,887,834.89,853.83,844.35Z" transform="translate(385.24 65.41)"/><path class="cls-30" d="M1659.68,709.79s-102.33,178.83-81.81,240.51,89.2,65.61,89.2,65.61Z" transform="translate(385.24 65.41)"/><path class="cls-28" d="M1606.61,1810.34h142.87c10.24-6.94-2.76-74.81-2.76-74.81s-39-14.79-45.73,15.29-49.67,39.63-72.38,43.29C1613.07,1796.65,1608.16,1805.18,1606.61,1810.34Z" transform="translate(385.24 65.41)"/><path class="cls-28" d="M1818.5,1810.34h142.87c10.24-6.94-2.76-74.81-2.76-74.81s-39-14.79-45.73,15.29-49.67,39.63-72.38,43.29C1825,1796.65,1820.05,1805.18,1818.5,1810.34Z" transform="translate(385.24 65.41)"/><path class="cls-33" d="M1645.05,1118s6.42,80.12,14,176.43c10.26,130.83,37.93,455.2,37.93,455.2s18.14,15.48,58.32,7c0,0,34.2-111.9,44.43-239.62.16-2.09.32-4.2.48-6.31,9.51-130,24.31-403.8,24.31-403.8Z" transform="translate(385.24 65.41)"/><path class="cls-28" d="M1642.86,1090.28s8.61,107.8,16.16,204.11L1799.69,1517c.16-2.09.32-4.2.48-6.31,9.51-130,24.31-403.8,24.31-403.8Z" transform="translate(385.24 65.41)"/><path class="cls-33" d="M1683.86,1090.28s102,254,134.64,350.23c23.23,68.57,88.75,309.13,88.75,309.13s28.49,8.67,52.44-8.09c0,0,24.38-245.77-24.86-315.07-26.12-36.77-6.49-382.19-112.41-385.15S1683.86,1090.28,1683.86,1090.28Z" transform="translate(385.24 65.41)"/><path class="cls-20" d="M1729.43,715.89a63.69,63.69,0,0,0,44,5.92,91.33,91.33,0,0,0,29.78-12.57,87.6,87.6,0,0,0,12-9s-.53-.76-1.41-2.26c-4.6-7.87-18.55-36.17-12.35-81.63.08-.6-4.42.25-11.22,1.86-20.25,4.79-60.94,16.34-62.75,16.85h-.07s-.5,9.56-2.18,26.7c-.14,1.51-.29,3.09-.46,4.73-.21,2-.42,4.14-.67,6.33C1722.2,690.59,1729.43,715.89,1729.43,715.89Z" transform="translate(385.24 65.41)"/><path class="cls-24" d="M1725.21,661.71c30.22,6.93,75.33-37.69,75.33-37.69a47.7,47.7,0,0,0-10.34-5.86C1770,623,1729.26,634.5,1727.45,635h-.07S1726.88,644.57,1725.21,661.71Z" transform="translate(385.24 65.41)"/><path class="cls-30" d="M1629.09,1047.5c2.2,29.12,8.35,50,21.84,50,0,0,59.94,21.1,131.58,21.67,14,.1,33.84-2.63,50.28-5.38,16.79-2.84,30.1-5.71,30.1-5.71,14.41-3.32,30.3-12.22,28.17-28.65-1.12-8.74-2-20-2.5-33,0-.83-.08-1.67-.11-2.51-1.58-38.05-1.33-90.47-1.52-140.65-.14-30.82-.44-60.78-1.48-86.06,0,0,14.14-99.28-1.55-115.56-18.4-19.06-72.41-24.91-75.8-24.17-1-.21-2-.47-3.07-.64,0,0-46,25.92-80.18,6.74,0,0-.93-1-1-1-8,2.67-49.77,12-64.12,27.2-5,5.22-24.71,37.27-25.25,72.46-.75,49.07,1.17,104.81,1.17,104.82-.52,8-1.38,18.25-2.31,30-1,12.5-2.11,26.61-3,41.34-.47,7.42-.9,15-1.25,22.56C1627.93,1004.3,1627.6,1027.8,1629.09,1047.5Z" transform="translate(385.24 65.41)"/><path class="cls-34" d="M1807.87,677.51s-50.91,52.5-87.3,41.75c0,0-4.85-7.09,11.54-9.36S1766.19,708.55,1807.87,677.51Z" transform="translate(385.24 65.41)"/><path class="cls-20" d="M1714.94,632.59a153.79,153.79,0,0,0,28.27,6.59c23.17,3.13,53.63,1.28,63.21-26.75,16.12-47.18,36.71-75.47-10.73-94.74-25.4-10.31-41.64-10.86-52.68-6.92-9.59,3.4-15.24,10.18-19.52,16.9C1714.28,542.11,1695.75,624.34,1714.94,632.59Z" transform="translate(385.24 65.41)"/><path class="cls-35" d="M1719.9,499.17c-10.71,2.6-15.54,19.48-5.34,26.5,18.29,12.58,40.63,7.64,48.87,11.31,11.8,5.24,13.92,25,14.13,31.31s1,11.6,17.06,7.83c2.63-.61,4.52-.43,5.82.35,6.65,3.94-1.85,23.06-4.41,27.19,0,0-3.69,13.69,4.49,20.36,1,.8,17.06,7.82,55.79-51.45,6.09-9.3,11.9-30.26,2.5-50.44S1820.38,477,1785.52,477C1758,477,1742.58,493.66,1719.9,499.17Z" transform="translate(385.24 65.41)"/><path class="cls-2" d="M1714.58,602.13s-1,6.11,13.21,11c0,0,11.92,4.09,14.1-2.17C1741.89,610.94,1732.42,601.93,1714.58,602.13Z" transform="translate(385.24 65.41)"/><path class="cls-34" d="M1749.16,990.59c-5.09,9.55,16.8,22.16,16.8,22.16s60.53,28.78,122.59,33.67c0-.83-.08-1.67-.11-2.51-1.58-38.05-1.33-90.47-1.52-140.65C1886.92,903.26,1757.56,974.84,1749.16,990.59Z" transform="translate(385.24 65.41)"/><rect class="cls-17" x="1969.01" y="858.05" width="236.46" height="238.29"/><rect class="cls-18" x="1850.78" y="858.05" width="236.46" height="238.29"/><polygon class="cls-33" points="2205.33 1035.9 2167.86 1035.9 2171.16 1023.02 2167.86 1013.81 2205.33 1013.81 2205.33 1035.9"/><polygon class="cls-36" points="2087.24 931.79 2049.77 931.79 2053.07 918.91 2049.77 909.7 2087.24 909.7 2087.24 931.79"/><polygon class="cls-33" points="2087.24 909.7 2124.71 909.7 2121.41 922.58 2124.71 931.79 2087.24 931.79 2087.24 909.7"/><polygon class="cls-36" points="1850.77 1038.46 1888.24 1038.46 1884.94 1051.35 1888.24 1060.56 1850.77 1060.56 1850.77 1038.46"/><path class="cls-20" d="M1457.82,886a13.21,13.21,0,0,1,9.89-11.37c7.54-1.89,18.27-3.33,19.57,3.38,2,10.47-11.94,36.83-21.08,36.83C1459.27,914.8,1456.53,897.86,1457.82,886Z" transform="translate(385.24 65.41)"/><path class="cls-20" d="M1766,1012.75s-38.29,25.26-53.07,26.88c-10.05,1.1-49.78-.52-50-5.54-.31-7.09,24.26-14.58,30.63-17.43s11.34-6.13,11.3-8.88-24.62,6.35-22,.35,25.36-16.43,30.84-17.43,23.18,5,30,1.82S1766,1012.75,1766,1012.75Z" transform="translate(385.24 65.41)"/><path class="cls-30" d="M1870.62,692.41s26.22,11.08,57.39,69.32,60.66,181.57,48,201.62-119.06,66-211.83,53.73c0,0-23-21-18.37-29,0,0,155.55-63.41,155.64-71s-70-125.14-73.11-157.67S1870.62,692.41,1870.62,692.41Z" transform="translate(385.24 65.41)"/><path class="cls-25" d="M1449.84,1806.12l-111.82-.48s-2.06-18.2.58-33.74a9.59,9.59,0,0,1,2.78-5.09,40.35,40.35,0,0,0,26.87.06,55.26,55.26,0,0,0,19.83-12.22c1.15,1.12,24.16,23.24,34.84,23.29C1433.87,1778,1450.58,1783.34,1449.84,1806.12Z" transform="translate(385.24 65.41)"/><path class="cls-37" d="M1401.25,1760.2s-44.62,21.22-70.82,6.68c0,0-10.22-36.4-22.43-89.34-10.12-43.82-21.6-99-29.79-154.19-.44-2.9-.86-6.08-1.25-9.5-6.55-55.64-5.85-172.47,107-141Z" transform="translate(385.24 65.41)"/><path class="cls-25" d="M1308,1677.53c-10.12-43.82-21.6-99-29.79-154.19-.44-2.9-.86-6.08-1.25-9.5,6.94-39.06,17.77-70.27,30.43-74C1307.39,1439.81,1351.11,1628.81,1308,1677.53Z" transform="translate(385.24 65.41)"/><path class="cls-25" d="M1298.19,1805.47l-111.82-.48s-2.06-18.2.58-33.74a9.59,9.59,0,0,1,2.78-5.09,40.41,40.41,0,0,0,26.87.06,55.26,55.26,0,0,0,19.83-12.22c1.15,1.13,24.16,23.24,34.84,23.29C1282.22,1777.34,1298.93,1782.69,1298.19,1805.47Z" transform="translate(385.24 65.41)"/><path class="cls-20" d="M1323.73,1113.43l-59.14,29.91-11.65-41s7.58-14.13,11.08-37.33a156.28,156.28,0,0,0,1.37-33.69l48,24.82a89.79,89.79,0,0,0-2,11c-.85,7.09-1.25,16.64.72,25.73C1313.82,1100.69,1317.28,1108.14,1323.73,1113.43Z" transform="translate(385.24 65.41)"/><path class="cls-38" d="M1312.12,1092.88C1284.78,1092,1264,1065,1264,1065l47.38,2.13C1310.55,1074.24,1310.14,1083.79,1312.12,1092.88Z" transform="translate(385.24 65.41)"/><path class="cls-20" d="M1325.45,1077.71s-54.6,14.17-73.22-29.28c-20.1-46.89,2.32-80.89,20.85-83.11,37-4.43,58.34,9.75,64.77,24.66S1355.57,1070.16,1325.45,1077.71Z" transform="translate(385.24 65.41)"/><path class="cls-25" d="M1261.9,1063.64s-6.32-18.8-5.51-28.81c0,0-14.15-18.21-5.84-22.66s12.74,6.3,14.65,4.2,5-37.74,15.09-36.57,47.27,12.87,63.66-1.14-23-69.21-90.23-48.25S1199.87,1026.09,1261.9,1063.64Z" transform="translate(385.24 65.41)"/><path class="cls-25" d="M1220.47,959.54s-3-9.08.29-15.55c0,0,.12,8.93,3.61,12.91S1220.47,959.54,1220.47,959.54Z" transform="translate(385.24 65.41)"/><path class="cls-25" d="M1221.89,953.2s-8.3-1-12.25,5.39c0,0,5.87-3.93,11.77.29Z" transform="translate(385.24 65.41)"/><path class="cls-2" d="M1305.86,1056.24s4.42,5.2,10.34,5,14.44-1.42,15.92-3.45,1.88-7.76,1.88-7.76S1317.91,1050.56,1305.86,1056.24Z" transform="translate(385.24 65.41)"/><path class="cls-37" d="M1181.12,1370.73c-4.88.66,12.63,213.92,2.58,253.89s-.67,148.14-.67,148.14,37.84,11.07,78.88-4.29c0,0,13.31-129.68,24.31-166.8,23.69-79.94,36.38-223.73,36.38-223.73Z" transform="translate(385.24 65.41)"/><polygon class="cls-20" points="1761.49 1228.69 1796.07 1319.29 1748.31 1325.19 1738.64 1251.34 1761.49 1228.69"/><path class="cls-13" d="M1392.07,1399.2s-50,12.37-116.22,10.6c-52.89-1.41-102.9-9.6-102.9-9.6,1.11.28,11-202.23,11-202.23l-5.67-63.48c17.85-22.12,51.24-28.89,74.69-32.13,8.92,9.22,26.58,22.81,46.4,20.32,14.89-1.88,17.72-8.89,17.5-17.37,31.11,5.26,52.86,31.3,52.86,31.3Z" transform="translate(385.24 65.41)"/><path class="cls-20" d="M1179.19,1131.36s-61.92,116.64-53.91,148.5,96,44.07,96,44.07l5.81-16.81s-65.48-44.12-58-51.49,35-56.09,36.53-63.48S1199.9,1133.66,1179.19,1131.36Z" transform="translate(385.24 65.41)"/><path class="cls-13" d="M1208.31,1113.17s-24.45,8.4-39.72,30.54-26.48,49.09-26.48,49.09,23.56,27.11,57.23,26.88S1208.31,1113.17,1208.31,1113.17Z" transform="translate(385.24 65.41)"/><path class="cls-13" d="M1339.28,1113.36s24.74,10.46,34.28,28.63,21.21,58.18,21.21,58.18a140.37,140.37,0,0,1-24.79,1.37C1355.93,1201.11,1339.28,1113.36,1339.28,1113.36Z" transform="translate(385.24 65.41)"/><path class="cls-33" d="M1305.53,1260.5l-30.62-57.27a9,9,0,0,1-.57-7v0c3.26-10.35-2.68-20.42-3.37-21.54A7,7,0,0,0,1259,1182c.71,1.15,3.11,6.19,1.92,9.94-.24.75-1,3-5.47,5-10.1,4.35-14.76-4-16-6.67a7,7,0,0,0-12.9,5.55c.47,1.1,4.86,10.84,14.82,14.83l0,0a14.27,14.27,0,0,1,7.4,6.43l30.63,57.3Z" transform="translate(385.24 65.41)"/><path class="cls-33" d="M1333.56,1257.46l-6.59-33.9a4.79,4.79,0,0,1,.81-3.65h0c3.28-4.75,1.83-10.8,1.66-11.47a3.73,3.73,0,0,0-7.22,1.88c.18.69.61,3.63-.58,5.35-.24.34-1,1.39-3.56,1.67-5.81.63-6.88-4.34-7.06-5.89a3.74,3.74,0,0,0-7.43.8c.07.63.77,6.27,5.21,9.86l0,0a7.53,7.53,0,0,1,2.75,4.42l6.59,33.92Z" transform="translate(385.24 65.41)"/><path class="cls-11" d="M1435.48,1278.51l23.88-51.26a7.85,7.85,0,0,1,4.58-4.06h0c8.91-3.14,12.82-12.54,13.23-13.61a6.11,6.11,0,0,0-11.38-4.46c-.43,1.09-2.69,5.4-5.91,6.53-.65.23-2.61.92-6.33-1.21-8.31-4.76-4.93-12.37-3.69-14.6a6.11,6.11,0,0,0-10.6-6.08c-.52.9-5,9-2.57,18.07v0a12.41,12.41,0,0,1-.61,8.51l-23.89,51.29Z" transform="translate(385.24 65.41)"/><rect class="cls-39" x="1333.41" y="1222.07" width="144.48" height="175.22" transform="matrix(0, -1, 1, 0, 475.2, 2775.12)"/><rect class="cls-40" x="1245.8" y="1221.69" width="144.48" height="175.22" transform="translate(388.34 2687.12) rotate(-89.75)"/><polygon class="cls-41" points="1791.19 1302.84 1756.36 1340.71 1583.46 1339.96 1615.97 1302.09 1791.19 1302.84"/><polygon class="cls-42" points="1878.24 1411.06 1850.48 1410.94 1852.95 1403.13 1850.53 1397.54 1878.3 1397.66 1878.24 1411.06"/><polygon class="cls-43" points="1791.12 1319.17 1827.9 1356.27 1878.47 1356.48 1878.7 1303.21 1791.19 1302.84 1791.12 1319.17"/><polygon class="cls-41" points="1878.81 1303.21 1918.04 1341.4 1830.37 1341.02 1791.19 1302.84 1878.81 1303.21"/><path class="cls-20" d="M1225.43,1306.55s14.93-9.37,21.85-6,19.07,16.54,12.4,19-15.92,1.78-19.53,3.71-11.48,3.56-19.8.47S1225.43,1306.55,1225.43,1306.55Z" transform="translate(385.24 65.41)"/><path class="cls-20" d="M1226.08,1306.46s2.87-6.32,3.23-8.47,2.29-1.24,2.35,1.19.18,6.8.18,6.8Z" transform="translate(385.24 65.41)"/><rect class="cls-17" x="685.42" y="1727.1" width="173.63" height="143.17"/><rect class="cls-18" x="772.23" y="1727.1" width="173.63" height="143.17"/><polygon class="cls-19" points="685.52 1833.96 713.04 1833.96 710.61 1826.22 713.04 1820.69 685.52 1820.69 685.52 1833.96"/><polygon class="cls-20" points="772.24 1771.41 799.75 1771.41 797.32 1763.67 799.75 1758.13 772.24 1758.13 772.24 1771.41"/><polygon class="cls-19" points="772.24 1758.13 744.72 1758.13 747.15 1765.88 744.72 1771.41 772.24 1771.41 772.24 1758.13"/><polygon class="cls-20" points="945.86 1835.5 918.35 1835.5 920.78 1843.24 918.35 1848.77 945.86 1848.77 945.86 1835.5"/><path class="cls-34" d="M413.24,1661.78h-98.6a6.72,6.72,0,0,1-6.7-6.13l-8.09-90.48a6.73,6.73,0,0,1,6.7-7.33H421.32a6.72,6.72,0,0,1,6.7,7.33l-8.09,90.48A6.71,6.71,0,0,1,413.24,1661.78Z" transform="translate(385.24 65.41)"/><path class="cls-30" d="M471.6,1661.78H373a6.72,6.72,0,0,1-6.7-6.13l-8.09-90.48a6.73,6.73,0,0,1,6.71-7.33H479.69a6.72,6.72,0,0,1,6.7,7.33l-8.09,90.48A6.73,6.73,0,0,1,471.6,1661.78Z" transform="translate(385.24 65.41)"/><path class="cls-5" d="M439.65,1575.7H409.16a4.15,4.15,0,0,1-4.14-4.14h0a4.15,4.15,0,0,1,4.14-4.14h30.49a4.15,4.15,0,0,1,4.14,4.14h0A4.16,4.16,0,0,1,439.65,1575.7Z" transform="translate(385.24 65.41)"/><rect class="cls-28" x="828.37" y="1039.51" width="10.75" height="813.06"/><path class="cls-28" d="M527,1804.38H370A20.43,20.43,0,0,1,390.43,1784H506.58A20.42,20.42,0,0,1,527,1804.38Z" transform="translate(385.24 65.41)"/><path class="cls-13" d="M418.4,1195.09a2,2,0,1,1,2,2A2,2,0,0,1,418.4,1195.09Z" transform="translate(385.24 65.41)"/><path class="cls-13" d="M418.4,1191.26a2,2,0,1,1,2,2A2,2,0,0,1,418.4,1191.26Z" transform="translate(385.24 65.41)"/><path class="cls-13" d="M418.4,1198.92a2,2,0,1,1,2,2A2,2,0,0,1,418.4,1198.92Z" transform="translate(385.24 65.41)"/><path class="cls-13" d="M418.4,1202.83a2,2,0,1,1,2,2A2,2,0,0,1,418.4,1202.83Z" transform="translate(385.24 65.41)"/><path class="cls-13" d="M418.29,1210.51a2,2,0,1,1,2,2A2,2,0,0,1,418.29,1210.51Z" transform="translate(385.24 65.41)"/><path class="cls-13" d="M418.29,1206.69a2,2,0,1,1,2,2A2,2,0,0,1,418.29,1206.69Z" transform="translate(385.24 65.41)"/><path class="cls-13" d="M418.29,1214.34a2,2,0,1,1,2,2A2,2,0,0,1,418.29,1214.34Z" transform="translate(385.24 65.41)"/><path class="cls-13" d="M418.29,1218.25a2,2,0,1,1,2,2A2,2,0,0,1,418.29,1218.25Z" transform="translate(385.24 65.41)"/><path class="cls-13" d="M418.4,1225.83a2,2,0,1,1,2,2A2,2,0,0,1,418.4,1225.83Z" transform="translate(385.24 65.41)"/><path class="cls-13" d="M418.4,1222a2,2,0,1,1,2,2A2,2,0,0,1,418.4,1222Z" transform="translate(385.24 65.41)"/><path class="cls-13" d="M418.4,1229.65a2,2,0,1,1,2,2A2,2,0,0,1,418.4,1229.65Z" transform="translate(385.24 65.41)"/><path class="cls-13" d="M418.4,1233.57a2,2,0,1,1,2,2A2,2,0,0,1,418.4,1233.57Z" transform="translate(385.24 65.41)"/><path class="cls-13" d="M418.29,1241.25a2,2,0,1,1,2,2A2,2,0,0,1,418.29,1241.25Z" transform="translate(385.24 65.41)"/><path class="cls-13" d="M418.29,1237.42a2,2,0,1,1,2,2A2,2,0,0,1,418.29,1237.42Z" transform="translate(385.24 65.41)"/><path class="cls-13" d="M418.29,1245.08a2,2,0,1,1,2,2A2,2,0,0,1,418.29,1245.08Z" transform="translate(385.24 65.41)"/><path class="cls-13" d="M418.29,1249a2,2,0,1,1,2,2A2,2,0,0,1,418.29,1249Z" transform="translate(385.24 65.41)"/><polygon class="cls-27" points="925.7 1266.44 735.34 1266.44 761.15 1025.53 899.89 1025.53 925.7 1266.44"/><path class="cls-27" d="M2912,1397.88c-1.54,6.09-4.86,15.87-9,27.63-1.43,4-3,8.19-4.58,12.55-3.4,9.2-7.15,19.07-10.94,28.94-6.21,16-12.57,32.07-17.79,45.23-7.19,18-12.35,30.59-12.35,30.59l7.64,18.54L2800,1546.64l14.83-13.44s.78-13.57,2.1-32.81c1-14.23,2.21-31.64,3.52-48.91.82-10.44,1.69-20.85,2.58-30.52.75-8.06,1.51-15.61,2.24-22.24.92-8.36,1.89-15.29,2.77-19.89a37.22,37.22,0,0,1,4.77-12.34c11.27-18.44,35.8-22.16,38-31.61a38.85,38.85,0,0,0,.71-5.07c1.35-14.86-.3-44.87-.3-44.87l42.39,9.62s-14.15,25.82-19.47,39.88a39.93,39.93,0,0,0-1.7,5.35c-2.14,9.45,18.41,23.4,20.6,44.89A37.72,37.72,0,0,1,2912,1397.88Z" transform="translate(385.24 65.41)"/><path class="cls-2" d="M2912,1397.88c-1.54,6.09-4.86,15.87-9,27.63-1.43,4-3,8.19-4.58,12.55-.45.09-22.64,4.61-75.27-17.09h0c.75-8.06,1.51-15.61,2.24-22.24.92-8.36,1.89-15.29,2.77-19.89a37.22,37.22,0,0,1,4.77-12.34s38.15,19.28,80.18,18.2A37.4,37.4,0,0,1,2912,1397.88Z" transform="translate(385.24 65.41)"/><path class="cls-27" d="M2900.38,1432.39s-3-2.4-8.41-6.8c-2.68-2.2-4.81-1.11-7.52.26s-5.48,2.78-9.66,2.07c-3.79-.64-5.65-2.52-7.44-4.34-2.33-2.35-4.53-4.57-10.9-3.81-9.79,1.16-12.2-1.14-16.58-5.34-.8-.76-1.71-1.63-2.73-2.54a10.88,10.88,0,0,0-12.79-1.42l-.38-.62a11.8,11.8,0,0,1,13.64,1.5c1,.91,1.94,1.79,2.75,2.55,4.22,4,6.55,6.26,16,5.14,6.74-.8,9.15,1.65,11.5,4,1.72,1.74,3.5,3.53,7.05,4.13,3.94.67,6.74-.75,9.21-2,2.82-1.43,5.26-2.67,8.3-.17,5.36,4.4,8.37,6.77,8.4,6.79Z" transform="translate(385.24 65.41)"/><path class="cls-27" d="M2901.35,1428.12s-3-2.4-8.41-6.8c-2.68-2.2-4.81-1.11-7.52.26s-5.48,2.77-9.66,2.07c-3.78-.64-5.64-2.52-7.44-4.34-2.33-2.35-4.53-4.57-10.9-3.81-9.78,1.17-12.2-1.14-16.58-5.34-.8-.77-1.71-1.63-2.73-2.54a10.88,10.88,0,0,0-12.79-1.42l-.38-.62a11.8,11.8,0,0,1,13.64,1.5c1,.91,1.94,1.79,2.75,2.55,4.23,4,6.55,6.26,16,5.14,6.73-.8,9.16,1.65,11.5,4,1.72,1.74,3.5,3.53,7.05,4.13,3.94.67,6.74-.75,9.21-2,2.82-1.43,5.26-2.67,8.3-.17,5.36,4.4,8.37,6.77,8.4,6.79Z" transform="translate(385.24 65.41)"/><path class="cls-27" d="M2847.35,1407.77a2.66,2.66,0,1,1,2,3.18A2.67,2.67,0,0,1,2847.35,1407.77Z" transform="translate(385.24 65.41)"/><path class="cls-27" d="M2874.71,1414a2.66,2.66,0,1,1,2,3.19A2.67,2.67,0,0,1,2874.71,1414Z" transform="translate(385.24 65.41)"/><path class="cls-27" d="M2858.73,1425.2a2.66,2.66,0,1,1,2,3.18A2.67,2.67,0,0,1,2858.73,1425.2Z" transform="translate(385.24 65.41)"/><path class="cls-27" d="M2885.23,1431.22a2.66,2.66,0,1,1,2,3.18A2.67,2.67,0,0,1,2885.23,1431.22Z" transform="translate(385.24 65.41)"/><path class="cls-27" d="M2829,1415.72a2.66,2.66,0,1,1,2,3.18A2.67,2.67,0,0,1,2829,1415.72Z" transform="translate(385.24 65.41)"/><path class="cls-27" d="M2896.75,1419a2.66,2.66,0,1,1,2,3.18A2.67,2.67,0,0,1,2896.75,1419Z" transform="translate(385.24 65.41)"/><path class="cls-27" d="M2908.24,1406.82s-3.21-2.44-8.88-6.91c-2.84-2.24-5.07-1.17-7.9.17-2.68,1.28-5.72,2.72-10.09,2-4-.68-5.93-2.58-7.84-4.42-2.47-2.38-4.79-4.64-11.49-3.94-10.23,1.06-12.78-1.28-17.42-5.52-.85-.78-1.81-1.66-2.89-2.57a11.87,11.87,0,0,0-13.44-1.57l-.37-.64a12.82,12.82,0,0,1,14.29,1.65c1.09.93,2.06,1.81,2.91,2.59,4.48,4.1,6.94,6.36,16.84,5.33,7-.73,9.6,1.75,12.08,4.15,1.82,1.76,3.71,3.58,7.45,4.22,4.15.71,7.07-.68,9.64-1.91,2.94-1.4,5.47-2.61,8.68-.09,5.67,4.47,8.84,6.88,8.88,6.9Z" transform="translate(385.24 65.41)"/><path class="cls-27" d="M2909.21,1402.54s-3.21-2.44-8.88-6.91c-2.84-2.24-5.07-1.17-7.9.17-2.68,1.28-5.71,2.72-10.09,2-4-.68-5.93-2.58-7.84-4.42-2.47-2.38-4.79-4.64-11.49-3.94-10.23,1.06-12.78-1.28-17.42-5.53-.85-.78-1.81-1.66-2.89-2.57a11.87,11.87,0,0,0-13.44-1.57l-.37-.64a12.82,12.82,0,0,1,14.29,1.65c1.09.93,2.05,1.81,2.91,2.59,4.48,4.1,6.94,6.36,16.84,5.33,7-.73,9.6,1.75,12.08,4.15,1.82,1.76,3.71,3.58,7.45,4.22,4.15.71,7.07-.68,9.64-1.91,2.94-1.4,5.47-2.61,8.68-.09,5.67,4.47,8.84,6.88,8.88,6.9Z" transform="translate(385.24 65.41)"/><path class="cls-27" d="M2852.39,1381.54a2.8,2.8,0,1,1,2.14,3.21A2.74,2.74,0,0,1,2852.39,1381.54Z" transform="translate(385.24 65.41)"/><path class="cls-27" d="M2881.14,1388.06a2.8,2.8,0,1,1,2.14,3.21A2.74,2.74,0,0,1,2881.14,1388.06Z" transform="translate(385.24 65.41)"/><path class="cls-27" d="M2864.51,1399.14a2.8,2.8,0,1,1,2.14,3.21A2.74,2.74,0,0,1,2864.51,1399.14Z" transform="translate(385.24 65.41)"/><path class="cls-27" d="M2892.35,1405.46a2.8,2.8,0,1,1,2.14,3.21A2.74,2.74,0,0,1,2892.35,1405.46Z" transform="translate(385.24 65.41)"/><path class="cls-27" d="M2833.19,1389.3a2.8,2.8,0,1,1,2.14,3.21A2.74,2.74,0,0,1,2833.19,1389.3Z" transform="translate(385.24 65.41)"/><path class="cls-27" d="M2904.38,1393.34a2.8,2.8,0,1,1,2.14,3.21A2.74,2.74,0,0,1,2904.38,1393.34Z" transform="translate(385.24 65.41)"/><path class="cls-44" d="M2864.87,1561.36,2800,1546.64l14.83-13.44s19.64,9.36,42.39,9.62Z" transform="translate(385.24 65.41)"/><path class="cls-15" d="M2693.84,1446.24v-35.49s23.66-19.36,49.47-15.06,61.84-2.69,73.13,15.06,14,33.88,14,33.88l-7.53,3.23Z" transform="translate(385.24 65.41)"/><path class="cls-17" d="M2918.8,1411.11s29.75-17.21,49.83-11.47,15.47,10.53,15.47,10.53S2919.16,1410,2918.8,1411.11Z" transform="translate(385.24 65.41)"/><path class="cls-34" d="M2803.1,1586.5h167.27a11.43,11.43,0,0,0,11.38-10.4l13.72-153.5a11.43,11.43,0,0,0-11.38-12.44H2789.38A11.41,11.41,0,0,0,2778,1422.6l13.72,153.5A11.42,11.42,0,0,0,2803.1,1586.5Z" transform="translate(385.24 65.41)"/><path class="cls-30" d="M2704.1,1586.5h167.27a11.41,11.41,0,0,0,11.37-10.4l13.72-153.5a11.43,11.43,0,0,0-11.38-12.44H2690.37A11.43,11.43,0,0,0,2679,1422.6l13.72,153.5A11.44,11.44,0,0,0,2704.1,1586.5Z" transform="translate(385.24 65.41)"/><path class="cls-15" d="M2758.3,1440.46H2810a7,7,0,0,0,7-7h0a7,7,0,0,0-7-7H2758.3a7,7,0,0,0-7,7h0A7,7,0,0,0,2758.3,1440.46Z" transform="translate(385.24 65.41)"/><path class="cls-45" d="M3095.57,1811.73H190a3.28,3.28,0,0,1-3.27-3.27v-1a3.28,3.28,0,0,1,3.27-3.27H3095.58a3.28,3.28,0,0,1,3.27,3.27v1A3.29,3.29,0,0,1,3095.57,1811.73Z" transform="translate(385.24 65.41)"/><rect class="cls-46" x="3054.91" y="523.97" width="109.5" height="36.79"/><rect class="cls-46" x="3181.54" y="523.97" width="109.5" height="36.79"/><rect class="cls-46" x="3118.24" y="575.68" width="109.5" height="36.79"/><rect class="cls-46" x="3118.24" y="472.27" width="109.5" height="36.79"/><rect class="cls-46" x="715.69" y="438.24" width="109.5" height="36.79"/><rect class="cls-46" x="842.31" y="438.24" width="109.5" height="36.79"/><rect class="cls-46" x="779.01" y="489.95" width="109.5" height="36.79"/><rect class="cls-46" x="779.01" y="386.54" width="109.5" height="36.79"/><rect class="cls-46" x="770.45" y="674.45" width="109.5" height="36.79"/><rect class="cls-46" x="897.08" y="674.45" width="109.5" height="36.79"/><rect class="cls-46" x="833.78" y="726.16" width="109.5" height="36.79"/><rect class="cls-46" x="833.78" y="622.75" width="109.5" height="36.79"/><rect class="cls-46" x="3219.72" y="684.62" width="97.88" height="32.89"/><rect class="cls-46" x="3163.11" y="638.4" width="97.88" height="32.89"/><rect class="cls-46" x="678.64" y="605.53" width="97.88" height="32.89"/><rect class="cls-46" x="622.03" y="559.3" width="97.88" height="32.89"/><rect class="cls-46" x="3292.98" y="1154.63" width="97.88" height="32.89"/><rect class="cls-46" x="3349.59" y="1200.84" width="97.88" height="32.89"/></svg>