<?xml version="1.0" encoding="UTF-8"?> <svg xmlns="http://www.w3.org/2000/svg" xmlns:xlink="http://www.w3.org/1999/xlink" id="_лой_1" data-name="‘лой_1" viewBox="0 0 2838.75 1811.97"><defs><style>.cls-1{fill:#b3ccf6;}.cls-2{fill:#82b378;}.cls-3{fill:#a8d29f;}.cls-4{fill:#8cb4f4;}.cls-5{fill:#99c3ff;}.cls-6{fill:#c3dafc;}.cls-7{fill:#d4e4f8;}.cls-8{fill:#9dc3f3;}.cls-9{fill:#e3f0ff;}.cls-10{fill:#fff;}.cls-11{fill:#9abfe2;}.cls-12{fill:#bad4f4;}.cls-13{fill:#c8dbf4;}.cls-14{fill:#dfebfd;}.cls-15{fill:#b7d3f3;}.cls-16{fill:#2a4e96;}.cls-17{fill:#618dc1;}.cls-18{fill:#ed823a;}.cls-19{fill:#ff9e55;}.cls-20{fill:#dd732c;}.cls-21{fill:#ffb27d;}.cls-22{fill:#d8702a;}.cls-23{fill:#c15e1b;}.cls-24{fill:#ed975d;}.cls-25{fill:#2c3a64;}.cls-26{fill:url(#linear-gradient);}.cls-27{fill:#ff9843;}.cls-28{fill:#ffc48a;}.cls-29{fill:#d9e8fe;}.cls-30{fill:#bbc9f9;}.cls-31{fill:#35488b;}.cls-32{fill:#dde7fe;}.cls-33{fill:#6c7aff;}.cls-34{fill:#8fadef;}.cls-35{fill:#cde2fc;}.cls-36{fill:#a4c8f4;}.cls-37,.cls-39{fill:#bdd8ff;}.cls-37{opacity:0.5;}.cls-37,.cls-53{isolation:isolate;}.cls-38{fill:#f5fbff;}.cls-40{fill:#f77d48;}.cls-41{fill:#ff8c64;}.cls-42{fill:#9fc1f4;}.cls-43{fill:#ffb93e;}.cls-44{fill:#ffa412;}.cls-45{fill:#7da4ea;}.cls-46{fill:#0b0755;}.cls-47{fill:#b5c6e8;}.cls-48{fill:#e9f0ff;}.cls-49,.cls-53{fill:#ca6d2e;}.cls-50{fill:#eb9a57;}.cls-51{fill:#e29a58;}.cls-52{fill:#e5a55e;}.cls-53{opacity:0.4;}.cls-54{fill:#739ce7;}.cls-55{fill:#eaf2fc;}.cls-56{fill:#2e3552;}</style><linearGradient id="linear-gradient" x1="1200.19" y1="173.06" x2="1199.97" y2="349.84" gradientUnits="userSpaceOnUse"><stop offset="0" stop-color="#fff" stop-opacity="0"></stop><stop offset="1" stop-color="#c1c1c1"></stop></linearGradient></defs><path class="cls-1" d="M2955.2,255.55v-31h-1.75v31H2918v-31h-1.76v31h-9.77V698h-44.9V458.65h-93.32V274H2677v139.7h-8V246.75h-11.42v-23.9h-1.37v23.9h-62.69v-23.9h-1.32v23.9h-8.51v313.1h-28.43V400.25H2551V560h-43v-85.2h-2.69V560h-17.89v182.6l-92.39.37L2395,1961.06h-33.6V709.35h-18.35V494.05h-10.93v-21.4h-1.53v21.4h-54.24v-21.4h-1.53v21.4H2263v108.2l-2.33,0v864.33H1952.13V698h-73.58V458.65h-92.18q-3.27,751.34-6.55,1502.66l-48.42-.25V273.85h-96.17l-.09,139.8h-13.29V246.75h-18.93v-23.9h-2.27v23.9H1496.73v-23.9h-2.27v23.9h-14v313.1h-47V400.25h-7V560h-71.16v-85.2h-4.45V560H1321.2v182.6h-59.6v46h-64.24v-79.2H1134.9V1961.06h-33.6V709.35h-19.51V494.05h-18.11v-21.4h-2.54v21.4h-90v-21.4h-2.46v21.4H949.12v108.2l-97.09-.6v66.8H769.77V382.55q-132.4.66-264.87,1.42V1961.06H471.3v19H1952.13v-.39h308.56v.39H3130.2V255.75Z" transform="translate(-471.3 -168.08)"></path><path class="cls-2" d="M2332.4,1483.46s16.9-19.7,1-32.2c0,0-11.6-7-21-6.4,0,0,13.4,22.4,9.1,24.7s-13.1-26.1-13.1-26.1-26.4-2.6-34.8,1.5c0,0,22.5,18.4,17.8,19.5s-29.1-17-29.1-17-24.5,4.2-23.2,19.1,9.8,19.6,13.5,19.2,25.4-8.7,25.9-5.7-12.6,13-21.8,13.5c0,0,17.3,19.1,28.8,13.6s12.5-14.2,19.6-17.5,13.3-3.3,10.3.1-15.9,6.6-20,13.8-7.8,12.1,4.1,10.3,31.2-10.5,32.1-20.4S2332.4,1483.46,2332.4,1483.46Z" transform="translate(-471.3 -168.08)"></path><path class="cls-2" d="M2251.1,1467.06s66.6-2.6,81.3,16.5c0,0,3.2,9.8,13.3,18.6l1.6,4.2s-11.5-12.2-15.7-12.9C2331.6,1493.46,2338,1469.86,2251.1,1467.06Z" transform="translate(-471.3 -168.08)"></path><path class="cls-2" d="M2345.7,1502.16s14.3,10.6,15.3,29.5l-2.6.2s-4.6-19.5-12.8-27.2S2345.7,1502.16,2345.7,1502.16Z" transform="translate(-471.3 -168.08)"></path><path class="cls-3" d="M2391.5,1458.76s-26.9-15.1-14.3-35.5c0,0,10-12.5,20.8-15.8,0,0-5.7,30.5,0,31.2s3.9-34.4,3.9-34.4,28.3-13.6,39.4-12.5c0,0-17.6,29.8-11.8,29s25.4-30.8,25.4-30.8,29-5.4,33.7,11.8-2.9,25.8-7.2,26.9-31.9.7-31.2,4.3,19.4,9.3,29.8,6.1c0,0-11.5,28.3-26.5,26.9s-19.7-10.8-29-11.5-16.1,1.8-11.5,4.3,20.4.8,28,7.2,13.6,10.3-.4,13.2-39.1,1.1-44.1-9.7S2391.5,1458.76,2391.5,1458.76Z" transform="translate(-471.3 -168.08)"></path><path class="cls-2" d="M2475.4,1407.06s-75.3,24.4-83.9,51.6c0,0,.4,12.2-7.2,26.2v5.4s7.9-18.3,12.2-20.8C2396.5,1469.46,2379.7,1445.86,2475.4,1407.06Z" transform="translate(-471.3 -168.08)"></path><path class="cls-2" d="M2384.3,1484.86s-11.6,17.6-5,39.1l3-.8s-2.9-23.6,3.2-35.5S2384.3,1484.86,2384.3,1484.86Z" transform="translate(-471.3 -168.08)"></path><path class="cls-3" d="M2348.7,1438s35.4-19.8,18.9-46.8c0,0-13.2-16.5-27.4-20.8,0,0,7.6,40.2,0,41.1s-5.2-45.3-5.2-45.3-37.3-17.9-52-16.5c0,0,23.1,39.2,15.6,38.3s-33.5-40.6-33.5-40.6-38.3-7.1-44.4,15.6,3.8,34,9.4,35.4,42.1.9,41.1,5.7-25.5,12.3-39.2,8c0,0,15.1,37.3,35,35.4s26-14.2,38.3-15.1,21.3,2.4,15.1,5.7-26.9,1.1-36.9,9.5-17.9,13.6.5,17.4,51.5,1.4,58.1-12.8Z" transform="translate(-471.3 -168.08)"></path><path class="cls-2" d="M2238.2,1370s99.2,32.1,110.6,68c0,0-.5,16.1,9.4,34.5v7.1s-10.4-24.1-16.1-27.4C2342.1,1452.16,2364.3,1421,2238.2,1370Z" transform="translate(-471.3 -168.08)"></path><path class="cls-2" d="M2358.2,1472.46s15.3,23.2,6.6,51.5l-3.9-1.1s3.8-31.2-4.2-46.8S2358.2,1472.46,2358.2,1472.46Z" transform="translate(-471.3 -168.08)"></path><path class="cls-4" d="M2349.9,1585.26a69.44,69.44,0,0,1-69.4-69.4h138.8A69.31,69.31,0,0,1,2349.9,1585.26Z" transform="translate(-471.3 -168.08)"></path><path class="cls-5" d="M2370.4,1584.76a81.08,81.08,0,0,1-8.6.5,69.44,69.44,0,0,1-69.4-69.4h17.2A69.48,69.48,0,0,0,2370.4,1584.76Z" transform="translate(-471.3 -168.08)"></path><path class="cls-4" d="M2279.6,1588.86h140.7a8.6,8.6,0,0,0-8.6-8.6H2288.1a8.51,8.51,0,0,0-8.5,8.6Z" transform="translate(-471.3 -168.08)"></path><rect class="cls-5" x="1807.6" y="1347.78" width="142.7" height="2.1"></rect><rect class="cls-6" x="137.9" y="1663.18" width="157.4" height="129.8"></rect><rect class="cls-7" x="216.5" y="1663.18" width="157.4" height="129.8"></rect><polygon class="cls-8" points="137.9 1760.08 162.9 1760.08 160.7 1753.08 162.9 1748.08 137.9 1748.08 137.9 1760.08"></polygon><polygon class="cls-9" points="216.5 1703.38 241.5 1703.38 239.3 1696.38 241.5 1691.38 216.5 1691.38 216.5 1703.38"></polygon><polygon class="cls-8" points="216.5 1691.38 191.6 1691.38 193.8 1698.38 191.6 1703.38 216.5 1703.38 216.5 1691.38"></polygon><polygon class="cls-9" points="373.9 1761.48 349 1761.48 351.2 1768.48 349 1773.48 373.9 1773.48 373.9 1761.48"></polygon><rect class="cls-10" x="318.3" y="1671.98" width="45.3" height="17.6"></rect><rect class="cls-6" x="390.8" y="1666.18" width="157.4" height="129.8"></rect><rect class="cls-7" x="469.5" y="1666.18" width="157.4" height="129.8"></rect><polygon class="cls-8" points="390.9 1763.08 415.8 1763.08 413.6 1756.08 415.8 1751.08 390.9 1751.08 390.9 1763.08"></polygon><polygon class="cls-9" points="469.5 1706.38 494.4 1706.38 492.2 1699.38 494.4 1694.38 469.5 1694.38 469.5 1706.38"></polygon><polygon class="cls-8" points="469.5 1694.38 444.5 1694.38 446.7 1701.38 444.5 1706.38 469.5 1706.38 469.5 1694.38"></polygon><polygon class="cls-9" points="626.9 1764.48 601.9 1764.48 604.1 1771.48 601.9 1776.48 626.9 1776.48 626.9 1764.48"></polygon><rect class="cls-10" x="571.3" y="1674.98" width="45.3" height="17.6"></rect><path class="cls-11" d="M1490,1599.06v9.2c0,3.2-1.1,5.9-2.3,5.9H1150.5c-1.3,0-2.3-2.6-2.3-5.9v-9.2c0-3.2,1-5.9,2.3-5.9h337.2C1489,1593.16,1490,1595.76,1490,1599.06Z" transform="translate(-471.3 -168.08)"></path><path class="cls-12" d="M1490,1599.06v9.2c0,3.2-1,5.9-2.1,5.9H1220.2c-1.2,0-2.1-2.6-2.1-5.9v-9.2c0-3.2,1-5.9,2.1-5.9h267.7C1489.1,1593.16,1490,1595.76,1490,1599.06Z" transform="translate(-471.3 -168.08)"></path><rect class="cls-13" x="694" y="1446.08" width="239.4" height="348.9"></rect><rect class="cls-14" x="761.1" y="1446.08" width="239.4" height="348.9"></rect><path class="cls-15" d="M1458.9,1943.76H1245.2V1624h213.7Zm-211.3-2.3h209.1v-315.2H1247.6v315.2Z" transform="translate(-471.3 -168.08)"></path><rect class="cls-15" x="775.1" y="1561.68" width="211.4" height="2.3"></rect><rect class="cls-15" x="775.1" y="1669.58" width="211.4" height="2.3"></rect><path class="cls-15" d="M1373.7,1644.66h-39.2a3.54,3.54,0,0,1-3.5-3.5h0a3.54,3.54,0,0,1,3.5-3.5h39.2a3.54,3.54,0,0,1,3.5,3.5h0A3.54,3.54,0,0,1,1373.7,1644.66Z" transform="translate(-471.3 -168.08)"></path><path class="cls-15" d="M1373.7,1750.06h-39.2a3.54,3.54,0,0,1-3.5-3.5h0a3.54,3.54,0,0,1,3.5-3.5h39.2a3.54,3.54,0,0,1,3.5,3.5h0A3.48,3.48,0,0,1,1373.7,1750.06Z" transform="translate(-471.3 -168.08)"></path><path class="cls-15" d="M1373.7,1860.06h-39.2a3.54,3.54,0,0,1-3.5-3.5h0a3.54,3.54,0,0,1,3.5-3.5h39.2a3.54,3.54,0,0,1,3.5,3.5h0A3.54,3.54,0,0,1,1373.7,1860.06Z" transform="translate(-471.3 -168.08)"></path><rect class="cls-6" x="1666.2" y="1545.18" width="301.7" height="248.8"></rect><rect class="cls-7" x="1817.1" y="1545.18" width="301.7" height="248.8"></rect><polygon class="cls-16" points="1666.4 1730.88 1714.2 1730.88 1710 1717.38 1714.2 1707.78 1666.4 1707.78 1666.4 1730.88"></polygon><polygon class="cls-17" points="1817.1 1622.18 1864.9 1622.18 1860.7 1608.68 1864.9 1599.08 1817.1 1599.08 1817.1 1622.18"></polygon><polygon class="cls-16" points="1817.1 1599.08 1769.3 1599.08 1773.5 1612.58 1769.3 1622.18 1817.1 1622.18 1817.1 1599.08"></polygon><polygon class="cls-17" points="2118.8 1733.58 2071 1733.58 2075.2 1746.98 2071 1756.68 2118.8 1756.68 2118.8 1733.58"></polygon><rect class="cls-10" x="2012.2" y="1562.08" width="86.8" height="33.8"></rect><rect class="cls-18" x="1830" y="1420.88" width="174.8" height="144.2"></rect><rect class="cls-19" x="1742.6" y="1420.88" width="174.8" height="144.2"></rect><polygon class="cls-20" points="2004.8 1528.48 1977.1 1528.48 1979.5 1520.68 1977.1 1515.08 2004.8 1515.08 2004.8 1528.48"></polygon><polygon class="cls-21" points="1917.5 1465.48 1889.8 1465.48 1892.2 1457.68 1889.8 1452.08 1917.5 1452.08 1917.5 1465.48"></polygon><polygon class="cls-20" points="1917.5 1452.08 1945.2 1452.08 1942.7 1459.88 1945.2 1465.48 1917.5 1465.48 1917.5 1452.08"></polygon><polygon class="cls-21" points="1742.6 1529.98 1770.3 1529.98 1767.9 1537.78 1770.3 1543.38 1742.6 1543.38 1742.6 1529.98"></polygon><rect class="cls-18" x="343.2" y="1515.98" width="174.8" height="144.2"></rect><rect class="cls-19" x="255.8" y="1515.98" width="174.8" height="144.2"></rect><polygon class="cls-20" points="517.9 1623.58 490.2 1623.58 492.7 1615.78 490.2 1610.18 517.9 1610.18 517.9 1623.58"></polygon><polygon class="cls-21" points="430.6 1560.58 402.9 1560.58 405.4 1552.78 402.9 1547.18 430.6 1547.18 430.6 1560.58"></polygon><polygon class="cls-20" points="430.6 1547.18 458.3 1547.18 455.9 1554.98 458.3 1560.58 430.6 1560.58 430.6 1547.18"></polygon><polygon class="cls-21" points="255.8 1625.08 283.5 1625.08 281 1632.88 283.5 1638.48 255.8 1638.48 255.8 1625.08"></polygon><rect class="cls-18" x="1985.3" y="1626.18" width="208.4" height="171.8"></rect><rect class="cls-19" x="1881.1" y="1626.18" width="208.4" height="171.8"></rect><polygon class="cls-20" points="2193.5 1754.38 2160.5 1754.38 2163.4 1745.08 2160.5 1738.48 2193.5 1738.48 2193.5 1754.38"></polygon><polygon class="cls-21" points="2089.5 1679.38 2056.5 1679.38 2059.4 1670.08 2056.5 1663.38 2089.5 1663.38 2089.5 1679.38"></polygon><polygon class="cls-20" points="2089.5 1663.38 2122.5 1663.38 2119.6 1672.68 2122.5 1679.38 2089.5 1679.38 2089.5 1663.38"></polygon><polygon class="cls-21" points="1881.1 1756.28 1914.1 1756.28 1911.2 1765.58 1914.1 1772.18 1881.1 1772.18 1881.1 1756.28"></polygon><rect class="cls-22" x="2577.45" y="1128.63" width="174.2" height="143.6"></rect><rect class="cls-19" x="2664.55" y="1128.63" width="174.2" height="143.6"></rect><polygon class="cls-23" points="2577.55 1235.83 2605.15 1235.83 2602.65 1228.13 2605.15 1222.53 2577.55 1222.53 2577.55 1235.83"></polygon><polygon class="cls-21" points="2664.55 1173.13 2692.15 1173.13 2689.65 1165.33 2692.15 1159.83 2664.55 1159.83 2664.55 1173.13"></polygon><polygon class="cls-23" points="2664.55 1159.83 2636.95 1159.83 2639.35 1167.53 2636.95 1173.13 2664.55 1173.13 2664.55 1159.83"></polygon><polygon class="cls-21" points="2838.75 1237.43 2811.15 1237.43 2813.55 1245.23 2811.15 1250.73 2838.75 1250.73 2838.75 1237.43"></polygon><rect class="cls-10" x="2777.15" y="1138.43" width="50.1" height="19.5"></rect><path class="cls-21" d="M3227.85,1434.31c4.2-2.8,13.8-8.8,14.2-7.3.3,1-.3,2.8-1.4,4.5,5.7-1.9,11.5-3.1,25,.1a10.08,10.08,0,0,1,6.5,4.7c1.3,2.2,1.7,4.9-1.8,6.9-7.1,4-5,1.5-14.8,7.4s-21.7,7-28.6,2.4l-9.4-1.9-.6-15.6C3217,1435.41,3222.35,1435,3227.85,1434.31Z" transform="translate(-471.3 -168.08)"></path><path class="cls-21" d="M2983.65,1273.91s26.8,21.9,52.6,5.8c0,0,3.3-15.6,1.4-26.3-.2-1.3-.5-2.6-.7-3.8-2.1-12.1-3-18.9-3-18.9h0c-1.4-.3-45.9-9.5-45.6-8.1C2995.15,1255,2983.65,1273.91,2983.65,1273.91Z" transform="translate(-471.3 -168.08)"></path><path class="cls-24" d="M2994,1229.51c5.4,6.6,21.8,18.5,43,20-2.1-12.1-3-18.9-3-18.9h0C3032.75,1230.61,2992.35,1227.61,2994,1229.51Z" transform="translate(-471.3 -168.08)"></path><path class="cls-21" d="M3042.35,1227.81s-44.4,19.7-56.2-8.2-25.5-44.1,2.4-57.8,37.9-5.4,44.1,2.9S3053.65,1222,3042.35,1227.81Z" transform="translate(-471.3 -168.08)"></path><path class="cls-16" d="M2989.25,1227.21c-.6.5-10,5.5-36-28.7-4.1-5.4-8.5-17.8-3.7-30.4s27.7-26.1,47.4-33.8a40.43,40.43,0,0,1,24.8-1.2,15.38,15.38,0,0,1,10.8,19.1c-3.7,13-13,21-24.7,20.7-7.8-.2-7.3,15.8-7.2,19.6s-.1,7.1-10,5.5c-8.4-1.4-3.7,9.8-.9,14.8a14.58,14.58,0,0,1,2,8.1A8.59,8.59,0,0,1,2989.25,1227.21Z" transform="translate(-471.3 -168.08)"></path><path class="cls-25" d="M2921.25,1969.41h-28.7c-6,0-12.7-6-14.4-17s-14-17-16.7-26,11-21.7,11-21.7l2.3-2.9,2.4-3.1,22.7,5.3s.6,5.4.9,12.3c.2,5,.4,10.7.1,15.8-.7,12,3.4,24.9,14,27.3C2925.65,1961.61,2921.25,1969.41,2921.25,1969.41Z" transform="translate(-471.3 -168.08)"></path><path class="cls-25" d="M3120.65,1969.41h-75.9a4.3,4.3,0,0,1-1.6-.5c-5.1-2.5-3.5-21.9-2.9-27.9.1-1.1.2-1.8.2-1.8s26.7-21.3,30.4-5a8.33,8.33,0,0,0,.4,1.5h0c4.6,15.3,25.4,22.2,37.3,24.2C3117.65,1961.41,3120,1966.71,3120.65,1969.41Z" transform="translate(-471.3 -168.08)"></path><path class="cls-19" d="M3105.25,1531.61s-4.1,50.6-8.8,111.4c-6.5,82.6-14.3,184.1-15,203.3-1.3,33.4-6.7,86.8-6.7,86.8s-12.7,12.7-38,7.3c0,0-22.6-76.2-29.1-156.8-.1-1.3-.2-2.7-.3-4-6-82.1-15.4-254.9-15.4-254.9Z" transform="translate(-471.3 -168.08)"></path><path class="cls-18" d="M3090.15,1528.21s2.6,31.6-12,90.8c-10.7,43.4-70.6,164.5-70.6,164.5-.1-1.3-.2-2.7-.3-4-6-82.1-15.4-254.9-15.4-254.9Z" transform="translate(-471.3 -168.08)"></path><path class="cls-19" d="M3090.15,1528.21s-76.5,192.6-124.5,278.7-63.1,110.1-63.1,110.1-27.5-11-30-18.5c0,0,18.4-166.2,50.6-206.7,18.2-22.9,39.5-91.6,40.5-115.6s6.5-71.6,6.5-71.6Z" transform="translate(-471.3 -168.08)"></path><path class="cls-16" d="M3094.05,1524.61c-10.7.7-123.6-3.6-123.6-9.9-.1-21.9-4.7-57.4-10.4-100.6-1.1-8-1.9-16-2.5-23.9a364.92,364.92,0,0,1-.1-58.2c2.8-33.2,16.9-59.9,31.3-72.4,1.9-1.6,8.9,3.7,20.5,8.4,10.8,4.4,19.3,1.2,29-1.5l12.4,10.9c10.3,9.6,21.4,24.3,26.7,37.5C3077.35,1315,3095,1524.51,3094.05,1524.61Z" transform="translate(-471.3 -168.08)"></path><path class="cls-19" d="M3077.35,1315l-30.8,7.2-42.4,114.9a42,42,0,0,1-39.4,27.5h0l3.7,56.8,136.9,10.3Z" transform="translate(-471.3 -168.08)"></path><path class="cls-16" d="M3225.25,1443c1-9-3.6-10.7-3.6-10.7s-90.9-20.1-98.6-22.9-71.6-74.6-71.6-74.6-24.4-29.8-45.5-24.2c-18.4,4.8-26,18.7-28.9,32.1a39.75,39.75,0,0,0,16.9,41.5c30.5,20.4,91.6,60.6,106.1,65.4,32.4,10.9,120.9,5.4,120.9,5.4A28.61,28.61,0,0,0,3225.25,1443Z" transform="translate(-471.3 -168.08)"></path><path class="cls-18" d="M3014.55,1288.91c-7.2-6.7-30.2-25-30.2-25l4.3-4.2c3.1-.7,26.9,17.2,34.8,24.3,9.5,8.5,36,35.2,36,35.2l-13,3C3046.55,1322.11,3023,1296.71,3014.55,1288.91Z" transform="translate(-471.3 -168.08)"></path><path class="cls-26" d="M1202.9,168.08V489.85c-.1,33.23-1.3,59.46-2.7,59.46h-.4c-1.3,0-2.4-22.45-2.7-52.22V168.4C1199,168.24,1201,168.16,1202.9,168.08Z" transform="translate(-471.3 -168.08)"></path><path class="cls-27" d="M1200.63,503.76c-55.49-.66-101.06,46.4-101.75,105l201,2.39C1300.56,552.46,1256.13,504.42,1200.63,503.76Z" transform="translate(-471.3 -168.08)"></path><path class="cls-28" d="M1208.62,505.16a43.16,43.16,0,0,0-8.79-1.11c-36.2-.43-66.06,46.62-66.76,105.12l17.7.21C1151.31,555.78,1176.54,511.68,1208.62,505.16Z" transform="translate(-471.3 -168.08)"></path><path class="cls-29" d="M1586.1,1742.46s-3.7-61-14.2-80.1h55.5v79.9Z" transform="translate(-471.3 -168.08)"></path><path class="cls-30" d="M1613.8,1742.46s-3.7-61-14.2-80.1h55.5v79.9Z" transform="translate(-471.3 -168.08)"></path><rect class="cls-31" x="1163.4" y="1461.48" width="53.7" height="173.3"></rect><rect class="cls-25" x="1217.1" y="1461.48" width="129.5" height="173.3"></rect><circle class="cls-32" cx="1190.3" cy="1483.18" r="9"></circle><circle class="cls-33" cx="1190.3" cy="1483.18" r="6.3"></circle><rect class="cls-34" x="1177.8" y="1504.78" width="25.3" height="45.6"></rect><rect class="cls-35" x="1256.2" y="1540.98" width="103.1" height="33.2"></rect><rect class="cls-36" x="1359.3" y="1540.98" width="103.1" height="33.2"></rect><rect class="cls-34" x="1256.2" y="1557.28" width="25.7" height="0.7"></rect><rect class="cls-34" x="1288.2" y="1547.08" width="71.1" height="0.7"></rect><rect class="cls-34" x="1256.2" y="1566.18" width="45.5" height="0.7"></rect><rect class="cls-29" x="1224.2" y="1507.78" width="103.1" height="33.2"></rect><rect class="cls-30" x="1327.3" y="1507.78" width="103.1" height="33.2"></rect><rect class="cls-34" x="1224.2" y="1524.08" width="25.7" height="0.7"></rect><rect class="cls-34" x="1256.2" y="1513.78" width="71.1" height="0.7"></rect><rect class="cls-34" x="1224.2" y="1532.98" width="45.5" height="0.7"></rect><rect class="cls-37" x="1281.9" y="1414.08" width="103.1" height="33.2"></rect><rect class="cls-36" x="1385" y="1414.08" width="103.1" height="33.2"></rect><rect class="cls-34" x="1281.9" y="1430.38" width="25.7" height="0.7"></rect><rect class="cls-34" x="1313.9" y="1420.18" width="71.1" height="0.7"></rect><rect class="cls-34" x="1281.9" y="1438.88" width="45.5" height="0.7"></rect><rect class="cls-38" x="1249.9" y="1380.88" width="103.1" height="33.2"></rect><rect class="cls-39" x="1353" y="1380.88" width="103.1" height="33.2"></rect><rect class="cls-34" x="1249.9" y="1397.18" width="25.7" height="0.7"></rect><rect class="cls-34" x="1347.7" y="1397.18" width="25.7" height="0.7"></rect><rect class="cls-34" x="1338.2" y="1386.88" width="71.1" height="0.7"></rect><rect class="cls-34" x="1249.9" y="1406.08" width="45.5" height="0.7"></rect><rect class="cls-39" x="1366" y="1447.28" width="103.1" height="60.5"></rect><rect class="cls-38" x="1263" y="1447.28" width="103.1" height="60.5"></rect><rect class="cls-34" x="1443.4" y="1477.08" width="25.7" height="1"></rect><rect class="cls-31" x="1295.4" y="1458.68" width="141.7" height="0.5"></rect><rect class="cls-34" x="1423.7" y="1493.38" width="45.5" height="1"></rect><rect class="cls-31" x="1336.1" y="1469.48" width="48.8" height="0.5"></rect><rect class="cls-40" x="1210" y="1574.38" width="303.5" height="224.2"></rect><rect class="cls-41" x="1110.3" y="1574.38" width="240.6" height="224.2"></rect><path class="cls-25" d="M1718.9,1779.06h-61.4a7.55,7.55,0,0,1-7.5-7.5h0a7.55,7.55,0,0,1,7.5-7.5h61.4a7.55,7.55,0,0,1,7.5,7.5h0A7.62,7.62,0,0,1,1718.9,1779.06Z" transform="translate(-471.3 -168.08)"></path><rect class="cls-42" x="1672.84" y="1818.16" width="57.7" height="57.7" transform="translate(-883.03 3035.63) rotate(-80.04)"></rect><rect class="cls-34" x="1701.28" y="1794.33" width="9.3" height="57.7" transform="translate(-856.05 3020.09) rotate(-80.04)"></rect><rect class="cls-43" x="1744.34" y="1774.07" width="57.7" height="57.7" transform="translate(-871.22 341.65) rotate(-14.72)"></rect><rect class="cls-44" x="1738.04" y="1774.9" width="57.7" height="9.3" transform="translate(-865.48 339.29) rotate(-14.72)"></rect><path class="cls-34" d="M1583,1680.06c-1.6-8.7-6.1-17.5-6.1-17.6l.5-.2a72.73,72.73,0,0,1,6.2,17.7Z" transform="translate(-471.3 -168.08)"></path><path class="cls-34" d="M1596.6,1701.86a171.7,171.7,0,0,0-10.1-39.4l.5-.2c.1.2,6.9,16.1,10.2,39.5Z" transform="translate(-471.3 -168.08)"></path><rect class="cls-34" x="1474.5" y="1628.58" width="228.6" height="168.9"></rect><rect class="cls-42" x="1399.3" y="1628.58" width="181.3" height="168.9"></rect><path class="cls-31" d="M1974.1,1824.16h-46.3a5.59,5.59,0,0,1-5.6-5.6h0a5.59,5.59,0,0,1,5.6-5.6h46.3a5.59,5.59,0,0,1,5.6,5.6h0A5.59,5.59,0,0,1,1974.1,1824.16Z" transform="translate(-471.3 -168.08)"></path><rect class="cls-39" x="1390.4" y="1599.78" width="190.2" height="37.2"></rect><rect class="cls-45" x="1580.6" y="1599.78" width="128.2" height="37.2"></rect><rect class="cls-41" x="1976.34" y="1838.49" width="60.1" height="60.1" transform="translate(-880.24 403.06) rotate(-14.72)"></rect><rect class="cls-40" x="1970.04" y="1839.37" width="60.1" height="9.7" transform="translate(-874.26 400.66) rotate(-14.72)"></rect><polygon class="cls-40" points="1517 1523.98 1564.6 1485.58 1635.4 1494.18 1635.4 1523.98 1517 1523.98"></polygon><rect class="cls-41" x="1446.2" y="1485.38" width="118.4" height="38.8"></rect><path class="cls-32" d="M2021.1,1666.76a6.1,6.1,0,1,1-6.1,6.1A6.19,6.19,0,0,1,2021.1,1666.76Z" transform="translate(-471.3 -168.08)"></path><path class="cls-46" d="M2021.1,1669.46a3.4,3.4,0,1,1-3.4,3.4A3.5,3.5,0,0,1,2021.1,1669.46Z" transform="translate(-471.3 -168.08)"></path><rect class="cls-39" x="1498.4" y="1496.38" width="36.7" height="17.3"></rect><rect class="cls-32" x="1453.3" y="1561.98" width="117.3" height="37.8"></rect><rect class="cls-47" x="1570.7" y="1561.98" width="117.3" height="37.8"></rect><rect class="cls-31" x="1453.3" y="1580.48" width="29.3" height="0.8"></rect><rect class="cls-31" x="1489.8" y="1568.78" width="80.9" height="0.8"></rect><rect class="cls-31" x="1453.3" y="1590.68" width="51.8" height="0.8"></rect><rect class="cls-48" x="1416.9" y="1524.18" width="117.3" height="37.8"></rect><rect class="cls-30" x="1534.3" y="1524.18" width="117.3" height="37.8"></rect><rect class="cls-34" x="1416.9" y="1542.68" width="29.3" height="0.8"></rect><rect class="cls-34" x="1453.4" y="1530.98" width="80.9" height="0.8"></rect><rect class="cls-34" x="1416.9" y="1552.78" width="51.8" height="0.8"></rect><path class="cls-49" d="M1293.9,1417l-13.8,163.7s-1.4,9.9,5.9,9.9h60.4s-9.1-2.1-9-6.7c.1-5.5,16.1-168.5,16.1-168.5Z" transform="translate(-471.3 -168.08)"></path><path class="cls-50" d="M1350.4,1587.66c-2.4,0-48.5.2-60.3,0-5.2-.1-6.1-4.6-6.1-7.5a13.52,13.52,0,0,1,.2-2.4l.4-4.3.9-10.8.8-9.6,1-12.3.9-10.4,9.8-116.3,59.7-1.6s-6.7,68.2-11.5,117.9c-.5,5.5-1,10.8-1.5,15.8-.2,1.6-.3,3.1-.4,4.6-.4,4.7-.8,9-1.2,12.8-.2,2-.4,3.9-.5,5.6-.6,6.7-1,11-1,11.8a5.28,5.28,0,0,0,.1,1.3C1342.5,1587.46,1349.5,1587.66,1350.4,1587.66Z" transform="translate(-471.3 -168.08)"></path><polygon class="cls-50" points="677.7 1159.78 711.2 1294.48 715.8 1312.98 731.4 1375.68 1021.7 1375.68 964.1 1159.78 677.7 1159.78"></polygon><polygon class="cls-51" points="677.7 1159.78 673 1161.28 725.2 1380.38 731.4 1375.68 677.7 1159.78"></polygon><polygon class="cls-49" points="725.2 1380.38 1013.7 1380.38 1021.7 1375.68 731.4 1375.68 725.2 1380.38"></polygon><rect class="cls-52" x="826.5" y="1419.68" width="62.4" height="3"></rect><polygon class="cls-52" points="1007.6 1335.88 960.5 1162.68 677.2 1162.68 677.2 1159.78 964.1 1159.78 1011 1335.58 1007.6 1335.88"></polygon><polygon class="cls-49" points="873.1 1380.38 872.8 1382.68 814.1 1394.48 814.9 1384.98 815.3 1380.38 873.1 1380.38"></polygon><path class="cls-53" d="M1350.4,1587.66c-2.4,0-48.5.2-60.3,0-5.2-.1-6.1-4.6-6.1-7.5l58.5-11c-.6,6.7-1,11-1,11.8a5.28,5.28,0,0,0,.1,1.3C1342.5,1587.46,1349.5,1587.66,1350.4,1587.66Z" transform="translate(-471.3 -168.08)"></path><polygon class="cls-53" points="858.9 1331.98 731.4 1375.68 715.8 1312.98 858.9 1331.98"></polygon><polygon class="cls-54" points="677.7 1159.78 964.1 1159.78 1010.6 1333.28 719.4 1333.28 677.7 1159.78"></polygon><path class="cls-49" d="M1355.5,1523.36a9.69,9.69,0,0,0-9.2-7.7c-4.3,0-7,3.4-6.2,7.7a9.69,9.69,0,0,0,9.2,7.7A6.13,6.13,0,0,0,1355.5,1523.36Z" transform="translate(-471.3 -168.08)"></path><polygon class="cls-55" points="997 1325.78 728.9 1325.78 698.5 1204.78 696.2 1195.58 694.2 1187.68 692.6 1181.28 689.5 1169.08 953.8 1169.08 954 1169.78 957.2 1181.28 959 1187.68 961.1 1195.58 963.7 1204.78 997 1325.78"></polygon><polygon class="cls-55" points="997 1326.18 728.9 1326.18 698.5 1205.18 696.2 1195.98 694.2 1188.08 692.6 1181.68 689.5 1169.48 953.8 1169.48 954 1170.18 957.2 1181.68 959 1188.08 961.1 1195.98 963.7 1205.18 997 1326.18"></polygon><polygon class="cls-1" points="957.2 1181.28 692.6 1181.28 689.5 1169.08 953.7 1169.08 954 1169.78 957.2 1181.28"></polygon><path class="cls-55" d="M1168.2,1343.26a1.75,1.75,0,0,1,1.7-2.3,3.09,3.09,0,0,1,2.9,2.3,1.75,1.75,0,0,1-1.7,2.3A3.09,3.09,0,0,1,1168.2,1343.26Z" transform="translate(-471.3 -168.08)"></path><ellipse class="cls-55" cx="1178.2" cy="1343.37" rx="2" ry="2.6" transform="translate(-1079.93 1169.04) rotate(-48.55)"></ellipse><path class="cls-55" d="M1184.2,1343.26a1.75,1.75,0,0,1,1.7-2.3,3.19,3.19,0,0,1,2.9,2.3,1.75,1.75,0,0,1-1.7,2.3A3.09,3.09,0,0,1,1184.2,1343.26Z" transform="translate(-471.3 -168.08)"></path><path class="cls-56" d="M3118.37,1979.66H473.59c-1.22,0-2.29-1.46-2.29-3.33v-8.62c0-1.77,1-3.33,2.29-3.33H3118.37c1.21,0,2.28,1.46,2.28,3.33v8.62C3120.65,1978.2,3119.58,1979.66,3118.37,1979.66Z" transform="translate(-471.3 -168.08)"></path></svg> 