<svg id="Слой_1" data-name="Слой 1" xmlns="http://www.w3.org/2000/svg" viewBox="0 0 3200 2000"><defs><style>.cls-1{fill:#fff;}.cls-2{fill:#ebf3fa;}.cls-3{fill:#dfebfd;}.cls-4{fill:#cde0fb;}.cls-5{fill:#ffb27d;}.cls-6{fill:#233862;}.cls-7{fill:#e8945b;}.cls-8{fill:#163560;}.cls-9{fill:#1c468a;}.cls-10{fill:#f99746;}.cls-11{fill:#f1a34f;}.cls-12{fill:#d86713;}.cls-13{fill:#d9935c;}.cls-14{fill:#466aa5;}.cls-15{fill:#9ec3f6;}.cls-16{fill:#699ff0;}.cls-17{fill:#f4a269;}.cls-18{fill:#c65447;}.cls-19{fill:#ef7e29;}.cls-20{fill:#b5453c;}.cls-21{fill:#2b478b;}.cls-22{fill:#9e332e;}.cls-23{fill:#ea9963;}.cls-24{fill:#ed7d2b;}.cls-25{fill:#4a75cb;}.cls-26{fill:#ed975d;}.cls-27{fill:#2e3552;}.cls-28{fill:#ebf3ff;}</style></defs><rect class="cls-1" width="3200" height="2000"/><path class="cls-2" d="M3023.85,1599.62l-539.94-1.34-247-.61-53-.13-192.31-.47-234.38-.58-203.17-.49-11.51,0-53.59-.13-470.1-1.16-236-.59-22.26,0-129.32-.32-337-.83s-418-791.23,147.07-1084.18C1169.32,131.34,1688.45,675,1967.3,654.42,2377.42,624.12,3180,394.75,3023.85,1599.62Z"/><path class="cls-3" d="M2163.67,960.74s138.77-211.9,198.18-184.17S2163.67,960.74,2163.67,960.74Z"/><path class="cls-3" d="M2158.44,996.45s297.48-226.89,394.61-166.67-75,90.4-140,96.37S2158.44,996.45,2158.44,996.45Z"/><path class="cls-3" d="M2135.92,963.31s-.4-8.74-1.15-21.49c-1.45-24.87-4.21-65-7.83-85.42-5.48-30.85,13.94-58.23,48.11-33.54s-30.76,129.66-30.76,129.66Z"/><path class="cls-4" d="M1132.87,1594.22l-135.57-.37a42.85,42.85,0,0,0-12.79,0l-74.28-.2c-26.48-19.65-30.56-79.34-30.56-79.34,22.26,15.81,71.18,16.69,75.68,8.71s-61.57-28.69-71-34.61-20.64-32.32,3.91-69.69,89.56-1.89,89.56-1.89,23.48,87.18,36.59,93.37-5.52-78.45-5.52-78.45c27.33,6.12,84.2,60.7,84.2,60.7s-31.71,82.34-17.48,85.11,24.36-74.34,24.36-74.34c23.12,16.1,37.24,53.84,37.24,53.84C1140.85,1572.19,1138.44,1584.42,1132.87,1594.22Z"/><path class="cls-3" d="M488.6,660.41c34-58.48,135.18-10.15,135.18-10.15s42.59,129.81,62.91,138.09S672,670.25,672,670.25c41.79,7,132.17,84.86,132.17,84.86s-41.19,127-19.46,130S815.4,770.82,815.4,770.82c36.24,22.43,60.66,78.31,60.66,78.31,25.85,87.27-87.54,116-87.54,116s-13.33,44.32.49,103h0s3.68,11.13,5.69,28.92L784,1094.11q-.15-4.68-.67-9.13a.09.09,0,0,0,0,0,.59.59,0,0,0,0-.13c-.28-1.86-.71-4.51-1.25-7.74h0v0c-1.55-7.31-2.49-12.65-3-16.46v0c-4.41-22.82-11.51-52.92-19.48-61a21.7,21.7,0,0,0,3.62-4.31l-3.62,4.31c-29,34.47-122.75,16.31-171.17-8s-22.19-32.74,11.71-48.78,90.06,5.69,109.61,1.09-2.94-20.52-37.81-27.08-61.14,23-117.74,13.43-70.74-124.7-70.74-124.7c34.93,22.08,108.91,19.43,115.07,7S503.09,774.21,488.39,766,454.56,718.89,488.6,660.41Z"/><path class="cls-3" d="M1271.13,957c39.53-54.46,134.77,3.47,134.77,3.47s29.17,132.69,48.45,142.92-2.79-118.33-2.79-118.33c40.65,11.12,122.3,97.17,122.3,97.17s-53.45,121.55-32.25,126.72,41.84-110,41.84-110c33.62,25.81,52.2,83.55,52.2,83.55,16.86,88.93-98.2,106-98.2,106s-17.61,42.53-9.81,102h0s2.53,11.38,2.74,29.18l-10.35-3.93c.21-3.1.3-6.13.25-9.1a.09.09,0,0,0,0,0v-.13c-.1-1.87-.25-4.53-.47-7.78v0s0,0,0,0c-.81-7.39-1.21-12.77-1.3-16.59a0,0,0,0,1,0,0c-2.09-23-6.11-53.52-13.19-62.28a21.87,21.87,0,0,0,4-3.91l-4,3.91c-32.14,31.21-123.08,3.87-168.56-25s-18.69-34.61,16.45-47.09,88.54,14.62,108.35,12-.86-20.59-34.7-30.56-62.8,16.66-117.85,1.52-57.53-130.45-57.53-130.45c32.35,25.33,105.82,30.1,113.16,18.41s-90.54-47.45-104.27-57S1231.61,1011.49,1271.13,957Z"/><path class="cls-3" d="M1534.62,1525.83s-14.34,50.27-11.58,69.8l-54.28-.15c-1.13-11,1.53-23,10.7-35.27C1479.46,1560.21,1507.21,1531.37,1534.62,1525.83Z"/><path class="cls-3" d="M1740.51,1596.2l-205.81-.54c8.15-20.73,10.43-76.94,10.43-76.94s73.32-27.33,100.63-22.13c0,0-50.33,69.78-36,69.3s70.14-70.64,70.14-70.64,73.22-6.73,80.86,37C1767.67,1571.51,1751.74,1591.34,1740.51,1596.2Z"/><path class="cls-3" d="M2172.74,1597.35l-194.81-.52c12.63-5.4,29.11-10.48,46.81-16.53C2069.07,1565.15,2129.48,1586,2172.74,1597.35Z"/><path class="cls-3" d="M2271.73,1598.16l-176.34-.47c3.68-7.81-18.82-23.79-51.39-33.82-41.46-12.76-77.44,19.55-144.89.13s-68.79-161.22-68.79-161.22c39.39,31.62,129.64,38.58,138.83,24.31s-110.59-59.67-127.33-71.63-34.61-61.92,14.78-128.28,165.62,6.25,165.62,6.25,33.9,163.56,57.44,176.42-1.68-145.5-1.68-145.5c49.82,14.26,148.91,121.26,148.91,121.26s-67.51,148.63-41.52,155.29,53.06-134.65,53.06-134.65c41,32.23,62.93,103.47,62.93,103.47C2308.58,1550.48,2293.5,1578.74,2271.73,1598.16Z"/><path class="cls-5" d="M608.31,1142.92c0-.37-5.38-11.49-3.67-12.34s4.78-.73,5.13,1.22S608.31,1142.92,608.31,1142.92Z"/><path class="cls-6" d="M528,1004.66S496.45,966.75,479.75,991c0,0-12.46,5.17-17,26.38-4.59,21.64,9.79,38.09,17.24,34,4.77-2.6,8.38,5.75,8.38,5.75Z"/><path class="cls-5" d="M567.13,1206.38c25.08-9.24,49.23-52.15,49.23-52.15l-7.91-5.54c-6.59,9.64-36.22,28.14-36.22,28.14-.68-8.12-1.66-15.49-2.88-22.16-8.22-45.36-27.05-58.8-32.1-61.65a11.43,11.43,0,0,0-1.27-.65s0,.34,0,1c.07,1.36.23,4.12.5,7.88C538.49,1129.31,546.17,1214.11,567.13,1206.38Z"/><path class="cls-6" d="M483.2,987.16S479,970.19,454,975.5c0,0,11.92-1.51,15.19,3.09,0,0-9.45-4.33-15.37-.71s-6.89,15.82-6,19.53,7.42,14.76,11.75,14.76,9.46-3.8,9.46-3.8Z"/><path class="cls-5" d="M445.91,1252.7c12.39-27.79,18.32-35.65,18.52-44.39.17-6.91-3.24-14.37-9.86-32.66a68,68,0,0,1-3.3-13.23c-5.24-35.26,15.15-73.38,27.83-76,3.52-.93,9.5-13.67,9.43-34.19l1.58.31,26.69,5.29s-.6,8.4-.62,16.31c0,6.59.38,12.84,1.87,13.63,1.92.17,3.06.29,3.06.29s22.25,30.9,24.12,59.64-17.82,41.23.15,98.67C563.72,1305.05,439.06,1268.05,445.91,1252.7Z"/><path class="cls-7" d="M516.8,1057.85s-.6,8.4-.62,16.31c-14.94-.42-22.83-14.05-26.07-21.6Z"/><path class="cls-6" d="M487.36,1049.66s-7.83-12.37-9.71-22.94c-1.34-7.55,2.51-35.53,30.63-31.5a38.13,38.13,0,0,1,15.84,6c6.11,4.12,14.92,13,5.06,37.44l-2.55,8.25Z"/><path class="cls-5" d="M521.79,1065.34s-35.33.58-35.36-21.43-4.6-36.76,18-38.06,27,7.09,28.75,14.44S531,1064.62,521.79,1065.34Z"/><path class="cls-6" d="M520.48,1005.31S510.81,1031.13,496,1035s-21.29-.16-21.29-.16A42.08,42.08,0,0,0,488.43,1010S513.18,993,520.48,1005.31Z"/><path class="cls-6" d="M518.08,1007.41s7.23,5.76,9,11.37,2.55,17.14,5.92,16.75c0,0,7.29-17.55-.91-27.48C523.4,997.52,518.08,1007.41,518.08,1007.41Z"/><path class="cls-8" d="M477.19,1519.34a349.21,349.21,0,0,0,22.27,62.48l11.66-.81s-5.72-27.18-5.39-63.91c.23-25.68,3.41-56,13.55-85,34.87-99.57,29.23-172,29.23-172L483,1267.73l-3.05.36c-.28,30.11-1,71-1.74,103-.6,28.75-1.12,50.28-1.12,50.28C464.43,1448.48,469,1486.8,477.19,1519.34Z"/><path class="cls-5" d="M400,1282.22l10.61,3.18s35-58.06,38.17-73.17c1-4.92,3.59-14.76,6.56-25.79,6.14-22.83,14.07-50.77,14.07-50.77l2.61-11.32,8.91-38.57s-17.06,1.74-27,5.91c-3.31,1.38-5.83,3-6.71,5-7.32,16.11-14.64,56.78-19.78,85.79-2.87,16.17-5.06,28.72-6.2,31.38C418,1221.24,408.26,1262.07,400,1282.22Z"/><path class="cls-9" d="M439.58,1513.7C443.35,1553.93,460,1580,460,1580l5.56,4s5.27-28.34,9-62.07c3.55-32.05,8.42-66,13.93-76.32,21.86-41.06,28.45-196,28.45-196l-66.48-3.3c-6.68,11.24-9.6,29.67-10.29,50.63-1.75,52.9,10.69,121.88,12.54,131.85a0,0,0,0,0,0,0,3.45,3.45,0,0,1-.44,2.23C439,1457.17,437.1,1487.12,439.58,1513.7Z"/><path class="cls-6" d="M519.43,1008.28s-6.9,27-25.63,35.7c0,0,18.73-16.61,20.32-34.46S519.43,1008.28,519.43,1008.28Z"/><path class="cls-10" d="M437.58,1272.76a15.55,15.55,0,0,0,.41,5.31c1.41,4.46,6.27,6.48,18,5.27,7.18-.75,10.38-12.78,11.81-23q6.46,22,18.15,24.65c11.38,2.54,68.81,9.52,72.57-17.78,4.13-30-8.25-83.19-8.93-111.86a140.92,140.92,0,0,0,2.08-26.56c-.48-20.42-6.47-31.87-11.08-36.47-1.3-1-2.61-1.63-7.85-2.53-2.68-.46-6.39-1-11.64-1.67a19.55,19.55,0,0,0-2.1-.17c1,1.74,14,21.43,13,26.5-1.06,5.3-47.19.53-50.37-2.39s-8.21-25.24-8.21-25.24-16.34,1.78-24.33,7.59l.09.1a6.76,6.76,0,0,0-2.1,2.21c-8.53,16.24-17,57.2-23,86.41,14.51,8,27.19,5.62,31.13,4.56C450,1221.3,438.34,1257.43,437.58,1272.76Z"/><path class="cls-5" d="M608.45,1148.69c0-1.09-.91-16.88,1.9-20.19s8.54-8,10.35-7.89,8.86,9.52,6.74,16.71-11.08,16.91-11.08,16.91Z"/><rect class="cls-11" x="599.15" y="1097.95" width="19.13" height="34.61" rx="1.03" transform="translate(871.65 2358.31) rotate(-163.32)"/><path class="cls-12" d="M599.82,1130.66l14.83,4.44a1.82,1.82,0,0,0,2.27-1.22l8.89-29.67a1.82,1.82,0,0,0-1.22-2.26l-14.84-4.45a1.82,1.82,0,0,0-2.26,1.22l-8.89,29.67A1.83,1.83,0,0,0,599.82,1130.66Z"/><path class="cls-5" d="M439.58,1513.7C443.35,1553.93,460,1580,460,1580l5.66,5.16s5.17-29.46,8.9-63.19C470.58,1522.21,453.26,1522.84,439.58,1513.7Z"/><path class="cls-13" d="M477.19,1519.34a349.21,349.21,0,0,0,22.27,62.48l11.66-.81s-5.72-27.18-5.39-63.91C501.78,1519.09,493.62,1521.11,477.19,1519.34Z"/><path class="cls-6" d="M492.75,1591.59h7.44c2.5-.39,4.34-1.12,6.89-1.45,3.88-.51,5.67,1.08,6,1.45l.07.07h31.6c.8-1.13,0-3.76-.71-5.7a4.51,4.51,0,0,0-3-2.7c-3.35-1-10-1.84-16-7.31-3.4-3.08-16.43-11.31-16.43-11.31l-.07,0c-.29,0-1.65.43-7.58,5.43-3.06,2.58-8.29-3.65-8.29-3.65a7.39,7.39,0,0,0-1.71,2.33,7.83,7.83,0,0,0-.68,4.85c.47,2.84-1.05,8.14-2.26,11.71-.74,2.17-1.36,3.71-1.36,3.71S486.36,1590.79,492.75,1591.59Z"/><path class="cls-14" d="M491,1568.73c1.78,1.25,5.53,3.71,8,4,3.36.44,9.64-8.13,9.64-8.13l-.07,0c-.29,0-1.65.43-7.58,5.43-3.06,2.58-8.29-3.65-8.29-3.65A7.39,7.39,0,0,0,491,1568.73Z"/><path class="cls-14" d="M492.75,1591.59h7.44c2.5-.39,4.34-1.12,6.89-1.45,3.88-.51,5.67,1.08,6,1.45l.07.07h31.6c.8-1.13,0-3.76-.71-5.7-1-.85-1.23,3.71-1.76,4.43s-25.78.27-27.24-.79-5.83-2.92-11.93-1.46c-5.31,1.27-13.13-2-15.06-2.85-.74,2.17-1.36,3.71-1.36,3.71S486.36,1590.79,492.75,1591.59Z"/><path class="cls-6" d="M453.06,1591.59h7.44c2.49-.39,4.33-1.12,6.88-1.45,3.89-.51,5.67,1.08,6,1.45l.07.07h31.6c.79-1.13,0-3.76-.72-5.7a4.48,4.48,0,0,0-3-2.7c-3.35-1-9.95-1.84-16-7.31-3.41-3.08-16.44-11.31-16.44-11.31l-.07,0c-.29,0-1.65.43-7.58,5.43-3.06,2.58-8.28-3.65-8.28-3.65a7.49,7.49,0,0,0-1.72,2.33,7.9,7.9,0,0,0-.67,4.85c.47,2.84-1.05,8.14-2.27,11.71-.74,2.17-1.36,3.71-1.36,3.71S446.66,1590.79,453.06,1591.59Z"/><path class="cls-14" d="M451.31,1568.73c1.78,1.25,5.53,3.71,8,4,3.35.44,9.63-8.13,9.63-8.13l-.07,0c-.29,0-1.65.43-7.58,5.43-3.06,2.58-8.28-3.65-8.28-3.65A7.49,7.49,0,0,0,451.31,1568.73Z"/><path class="cls-14" d="M453.06,1591.59h7.44c2.49-.39,4.33-1.12,6.88-1.45,3.89-.51,5.67,1.08,6,1.45l.07.07h31.6c.79-1.13,0-3.76-.72-5.7-1-.85-1.23,3.71-1.76,4.43s-25.78.27-27.24-.79-5.83-2.92-11.92-1.46c-5.31,1.27-13.13-2-15.07-2.85-.74,2.17-1.36,3.71-1.36,3.71S446.66,1590.79,453.06,1591.59Z"/><path class="cls-10" d="M538.63,1091.34s22,11.09,29.37,55.84c0,0-7.21,9.9-17.38,12.82a20.45,20.45,0,0,1-4.52.77C533.61,1161.43,538.63,1091.34,538.63,1091.34Z"/><path class="cls-5" d="M622.38,1121.83s-6.81-10.48-8.47-9.9c-2.38.83,6.17,14.13,6.17,14.13s-6.33-9.94-7.32-9.19c-2.26,1.7,1.33,8,4.89,12.73,0,0-6.37-5.83-6.58-4.78-.72,3.68,7,12.6,7,12.6l4.31-9.86Z"/><path class="cls-5" d="M627.49,1131.55c-.33-1.28-2-26.3-2.7-23.93s-2.41,15.5-2.41,15.5Z"/><path class="cls-1" d="M514.89,1052.27s.61,2.6,7.06,2.2c0,0,5.42-.34,5.25-3.19C527.2,1051.28,522,1049.25,514.89,1052.27Z"/><path class="cls-5" d="M400,1282.22s-12.79,8.5-14.75,12.09-6.52,16.79-6.52,16.79,3.26.49,6.52-5.22,14-5.21,17.6-8.31,7.76-12.17,7.76-12.17Z"/><path class="cls-5" d="M409.17,1288.2s-2.13,10-4.74,13-6.19,7.82-7.66,6.51,1.63-12.22,1.63-12.22Z"/><path class="cls-5" d="M387,1295.45c-.32.49-11.57,12.44-11.57,12.44s4.08,1.85,5.22,0S387,1295.45,387,1295.45Z"/><polygon class="cls-15" points="1313 705.94 1417.29 722.13 1348.54 674.02 1344.83 689.12 1319.37 693.41 1313 705.94"/><polygon class="cls-1" points="1417.29 722.13 1330.9 676.23 1245.75 670.9 1417.29 722.13"/><polygon class="cls-1" points="1348.54 674.02 1417.29 722.13 1364.53 647.61 1348.54 674.02"/><polygon class="cls-15" points="2839.86 1005.33 2754.46 1017.51 2811.13 978.89 2814.01 991.27 2834.78 995.03 2839.86 1005.33"/><polygon class="cls-1" points="2754.46 1017.51 2825.53 980.88 2895.17 977.37 2754.46 1017.51"/><polygon class="cls-1" points="2811.13 978.89 2754.46 1017.51 2798.33 957.15 2811.13 978.89"/><path class="cls-16" d="M701.06,910.71h519V1047H851v145.07h325.2V1328.4H851v263.86H701.06Z"/><path class="cls-16" d="M1445.84,924.21h134.58l284.34,668.19h-152.6l-60.66-148.8H1371l-60.66,148.8H1161.5Zm153.54,390.49-88.15-215.15-88.14,215.15Z"/><path class="cls-16" d="M2406.27,1534.22c-55.92,36-123.21,56.87-197.14,56.87-204.72,0-351.63-152.6-351.63-343.1,0-188.61,148.81-343.1,353.53-343.1s351.63,152.59,351.63,343.1c0,69.19-20.85,135.53-58.77,190.5l68.25,57.82-92.89,103.31Zm-108-95.73s66.22-34.07,93.83-97.62c12-27.62,18-57.81,18-92.88,0-113.74-83.4-208.51-200.93-208.51s-199,92.88-199,208.51c0,113.73,83.4,208.51,200.93,208.51C2243.25,1456.5,2272.64,1449.87,2298.23,1438.49Z"/><path class="cls-17" d="M2217.15,1238.05s-11.19,16.56-17.57,51.36c-5.58,30.47-10.48,41.73-18.55,48s-53,24.7-53,24.7l3.36,7.88s65.9-9,73.3-20,35.62-76.09,33.43-91.08S2217.15,1238.05,2217.15,1238.05Z"/><path class="cls-5" d="M2034.17,1586c-.67,6.42-9.75,6.21-20,4.69s-7.61,1.18-22,.94-19.25-5.17-19.89-7.26c-.56-1.84,6.43-3.17,13.92-4.75.94-.19,1.89-.4,2.83-.61,8.45-1.87,14.2-8,21.54-13.22,7-5,16.29-23.48,16.29-23.48l19.73-.28s-8.82,16.57-12.16,23.73c-2,4.21-1.35,9.48-.68,13.53A25.14,25.14,0,0,1,2034.17,1586Z"/><path class="cls-18" d="M2014.15,1590.66c-10.26-1.51-7.61,1.18-22,.94s-19.25-5.17-19.89-7.26c-.56-1.84,6.43-3.17,13.92-4.75l.09.14a40.48,40.48,0,0,0,21,4.45c9.71-.67,19.71-4.41,26.41-4.92a25.14,25.14,0,0,1,.48,6.71C2033.5,1592.39,2024.42,1592.18,2014.15,1590.66Z"/><path class="cls-19" d="M2248,1372.73s-129.34.63-153.49,15.87-79.1,172.19-79.1,172.19,4.28,5.63,9.59,6.36c8.53,1.18,13.37-2.15,13.37-2.15s73.65-73.26,77.57-93.26,3-37.86,11.89-38.34,120.19,13.53,137-16.12,2.92-59,2.92-59Z"/><path class="cls-5" d="M2102.88,1583c-.14,6.45-9.2,7-19.56,6.35s-7.48,1.81-21.88,2.77-19.62-3.54-20.43-5.56c-.72-1.79,6.14-3.7,13.47-5.9.93-.27,1.85-.56,2.77-.84,8.27-2.58,13.48-9.13,20.35-15,6.52-5.54,14.27-24.76,14.27-24.76l19.64-1.93s-7.4,17.26-10.13,24.67c-1.6,4.36-.55,9.56.46,13.54A25.22,25.22,0,0,1,2102.88,1583Z"/><path class="cls-18" d="M2083.32,1589.36c-10.35-.65-7.48,1.81-21.88,2.77s-19.62-3.54-20.43-5.56c-.72-1.79,6.14-3.7,13.47-5.9l.1.13a40.44,40.44,0,0,0,21.35,2.67c9.62-1.48,19.28-6,25.91-7.11a25.22,25.22,0,0,1,1,6.65C2102.74,1589.46,2093.68,1590,2083.32,1589.36Z"/><path class="cls-10" d="M2273.08,1380.68s-113.93,5.39-137.46,21.56S2079,1554.55,2079,1554.55s4.95,6.55,10,8.36c6.42,2.3,15.08-.3,15.08-.3s45.74-55.11,48.88-75.26,8-30.5,16.95-31.33,96.33,16.25,136.29-21.44C2331.05,1411.18,2273.08,1380.68,2273.08,1380.68Z"/><path class="cls-20" d="M2234.08,1228.94c-2.21-3.88-4.86-10.86-6.77-23.48.25,1.25,3.51,17.11,10.27,25.76,26.38,14.92,68.07,70.93,67.81,81.49,0,0,25.61-33.9,25.89-34.1,0,0,28.81-42.13-10-62.58-19.74-10.39-20.64-25.36-20.72-38.4s-9.77-68.59-46.78-51.42c0,0-6.28-2.31-9-1.72a7.49,7.49,0,0,1,3.47,1.38c-4.42,0-10.7.77-15.76,4.11C2219.08,1138.82,2211.36,1210.66,2234.08,1228.94Z"/><path class="cls-5" d="M2277.87,1219a129.24,129.24,0,0,0-21.22,0,68.22,68.22,0,0,0-18.41,4.63c-10,4.19-9,22,12.08,18.68S2279.35,1224.26,2277.87,1219Z"/><path class="cls-5" d="M2239.13,1232c-.13.06-3,15.29,10.79,14.68,9-.4,28.58-11.35,26.86-19.11-.82-3.69-7.66-13.25-9-35.07l-1.65.44-27.72,7.43s1.23,8.8,1.8,17.12C2240.66,1224.44,2240.68,1231.1,2239.13,1232Z"/><path class="cls-17" d="M2238.37,1200.32s1.23,8.8,1.8,17.12c15.69-1.49,23-16.38,25.92-24.55Z"/><path class="cls-20" d="M2268.79,1189.63s7.37-13.56,8.6-24.82c.88-8-5.13-37.22-34.44-31a40.23,40.23,0,0,0-16.25,7.42c-6.14,4.77-14.79,14.75-2.71,39.76l3.27,8.51Z"/><path class="cls-5" d="M2233.65,1208.56s37.23-1.87,35.71-25,2.26-39-21.57-38.8-27.87,9.36-29.25,17.21S2223.92,1208.44,2233.65,1208.56Z"/><path class="cls-20" d="M2230.81,1145.28s12,26.5,27.89,29.48,22.4-1.66,22.4-1.66a44.3,44.3,0,0,1-16.22-25.18S2237.63,1131.84,2230.81,1145.28Z"/><path class="cls-20" d="M2233.48,1147.32s-7.2,6.58-8.66,12.6-1.48,18.22-5.05,18c0,0-8.9-18-1-29C2227.2,1137.29,2233.48,1147.32,2233.48,1147.32Z"/><path class="cls-21" d="M2196.4,1374.67c3,3.6,12.42,4.71,22.47,6.36,7.91,1.31,16.22,3,22.13,6.42,13.42,7.88,57.27,34.51,70.13,33.3,5-.47,4-10,1-22.6-4.75-19.94-14.7-47.61-14.7-59.65,0-6.57-2.18-22.11-5.1-39.88-.24-1.44-.48-2.88-.72-4.34-5.78-34.55-13.77-75.29-13.77-75.29s-8.92,19.45-26.29,19.45-13.34-14.83-13.34-14.83-15.86,1.86-19.6,5.9-13.25,21.47-15.13,26.23c0,0-.39,6,14.6,8.93,0,0-3.65,16.43-4.08,27.38-.33,8.09,5.52,33.41,7.2,49.16.59,5.58.67,10-.24,11.94-1.16,2.54-4.91,5.08-9.17,7.56C2203.35,1365.64,2192.82,1370.39,2196.4,1374.67Z"/><path class="cls-6" d="M2211.82,1360.71c-9.62,16.4,26.08,21.33,32,24.8,13.42,7.88,54.46,36.45,67.32,35.24,5-.47,4-10,1-22.6-4.75-19.94-14.7-47.61-14.7-59.65,0-6.57-2.18-22.11-5.1-39.88l-15.47-14.86s-16.58,42.85-32.38,49.87a134,134,0,0,1-23.28,7.58c.59,5.58.67,10-.24,11.94C2219.83,1355.69,2216.08,1358.23,2211.82,1360.71Z"/><path class="cls-5" d="M2282.62,1231.81s13.23-8,26,7.21-9.09,124.16-28,129.75c-21,6.22-81.85-1-81.85-1l1.17-9.5s64.73-12.41,67.42-15.87S2275.9,1233.57,2282.62,1231.81Z"/><path class="cls-21" d="M2277.87,1219s27.16,2.46,35.05,11.39,10.2,33.14,10.2,33.14-23.93,19.32-52.75,11.82Z"/><path class="cls-5" d="M2205.2,1357.71s-21.08-4.08-23.46-3.06-15.63,12.92-14.27,15.3,6.8,4.08,12.91,2,19.38-3.06,21.76-6.12S2205.2,1357.71,2205.2,1357.71Z"/><rect class="cls-22" x="2188.24" y="1380.99" width="35.88" height="4.24" transform="translate(4412.36 2766.23) rotate(180)"/><path class="cls-22" d="M2195.86,1384.65c-.35-1.4-33-52.64-33-52.64h-72.61l36.42,51.27Z"/><path class="cls-20" d="M2192.8,1385.23c-.35-1.4-33.09-53.22-33.09-53.22h-69.44l34.65,53.22Z"/><path class="cls-22" d="M2131.58,1358.79a5.8,5.8,0,0,0,5.06,3.76c2.07,0,3.18-1.68,2.46-3.76a5.81,5.81,0,0,0-5-3.76C2132,1355,2130.87,1356.72,2131.58,1358.79Z"/><path class="cls-23" d="M2700.82,1207s17.32,9.85,22.17,9.85,23.89-3.68,29.19-1,14.91,13.62,16.72,17.18c3.24,6.41-13.05,3.58-20.75-1.88a4.85,4.85,0,0,0-3.84-.79c-4,.87-12.27,2.37-16.27.89-5.38-2-33.71-4.2-33.71-4.2Z"/><path class="cls-24" d="M2569,1072.86s18,127.63,47.7,139.06c14.67,5.64,79.51,18.43,98.69,19.72,0,0,4.7-3.82,3.56-19.33,0,0-67.94-24.94-77.59-38.51-14.36-20.18,8.92-82.47-9.11-101.43S2583.89,1045.27,2569,1072.86Z"/><path class="cls-6" d="M2575.08,1341.76a222,222,0,0,0,17.54,25.09c19.3,24.37,40.31,44.46,44,63.45a85,85,0,0,0,3.39,12.15c1.53,4.35,3.42,8.93,5.6,13.66,8.19,17.79,20.44,37.72,32.67,55.84,21.14,31.33,41,57.47,41,57.47l36.45-1.56c-1.46-3.65-17.36-46.9-38.63-99.76l-26.68-66.29-3.53-8.77-8-19.82c-20-49.63-35.88-89.15-35.88-89.15s-79.83-30.24-88.12-10.65C2548.07,1289.58,2553.64,1305.4,2575.08,1341.76Z"/><path class="cls-8" d="M2720.4,1562.79s1.87,30.08,7.69,30.51c.77.06,29.52.06,29.52.06l36.69-.21s-.24-8.85-11-10.72-28.68-9.4-35.18-23.58C2741.32,1543.94,2720.4,1562.79,2720.4,1562.79Z"/><path class="cls-8" d="M2590.87,1468.18s-27.25,12.89-25.49,18.46c.24.74,10.9,27.43,10.9,27.43l13.82,34s8.12-3.5,5.88-14.15-1.91-30.13,8.84-41.42C2616.13,1480.61,2590.87,1468.18,2590.87,1468.18Z"/><path class="cls-21" d="M2600.58,1498.2s-15.3-15.48-18.09-25.73c0,0,52.63-51.15,71.44-63.57,21.6-14.25,35.62-14.33,32.16-17.83-11.36-11.44-106.75-44.81-122.28-69a75,75,0,0,1-10-23.13c-3.52-14.75-.74-24.93-.74-24.93l118.66-3.43s88.22,91.51,87.72,126C2758.87,1433.79,2600.58,1498.2,2600.58,1498.2Z"/><path class="cls-5" d="M2639.23,1064.82c-24,6.2-63.8-16-63.8-16s15.45-10.38,21.18-33.2c.29-1.14.55-2.32.78-3.53l12.33-2.62,18.34,16.43a157.48,157.48,0,0,1-2.72,18.54q-.59,3.07-1.38,6.58A56.7,56.7,0,0,1,2639.23,1064.82Z"/><path class="cls-10" d="M2550,1164.32c3.44,46.24-1.08,116.57,2.82,128.75,3.37,10.51,41.72,4.26,57,.75,5.67-1.3,12.53-3.15,19.62-5.34,19.77-6.13,41.32-14.87,43.63-21.36a4.21,4.21,0,0,0,.21-.75,5.81,5.81,0,0,0,0-2.72c-.77-3.3-3.74-6.88-4.09-15.07-.39-9.15-.33-19.92-.67-31.5,0-1.31,0-2.73-.18-4v-.47c0-.25,0-.49,0-.74-.33-12.92-1-26.5-1.79-40-.49-8.46-1.07-16.84-1.73-24.86-1.73-20.72-4.05-39.14-7.13-50.78-5-19-16.11-31.37-26.19-40.45l-7.3-6.25c-8.14,1.77-17.77.59-26.48-3.53-9.42-4.48-12.68-7.68-14.32-6.47C2561.61,1056.33,2546,1107.78,2550,1164.32Z"/><path class="cls-24" d="M2629.48,1288.48c19.77-6.13,41.32-14.87,43.63-21.36a4.21,4.21,0,0,0,.21-.75c0-.9,0-1.81,0-2.72-.77-3.3-3.74-6.88-4.09-15.07-.39-9.15-.33-19.92-.67-31.5,0-1.31,0-2.73-.18-4v-.47c0-.25,0-.49,0-.74L2588.38,1110S2534.65,1221.89,2629.48,1288.48Z"/><path class="cls-23" d="M2628.06,1025.86a157.48,157.48,0,0,1-2.72,18.54c-17.9-5.78-26-22-28.73-28.82.29-1.14.55-2.32.78-3.53l12.33-2.62Z"/><path class="cls-5" d="M2630.46,1036.2s-39-6.52-34.61-30.77,2.38-41.43,27.5-38.29,28.25,13.27,28.74,21.72S2640.74,1037.27,2630.46,1036.2Z"/><rect class="cls-25" x="2798.71" y="1151.79" width="3.62" height="94.8" transform="translate(5093.27 3205.26) rotate(-162)"/><rect class="cls-25" x="2688.19" y="1237.81" width="99.48" height="5.95" transform="translate(5448.75 2539.76) rotate(-178.78)"/><path class="cls-5" d="M2690.13,1247.45s32,8.43,43.94,7.54,21.95-6.58,23.46-9.56,4.68-8.25-3.48-7.27-19.3,2.7-19.64,1.14,6.65-1.42,6.65-1.42,2.11-3.08-.55-3.19-10.43-2.22-13.32-.77-5.55,6.76-7.65,6.54-26.75-11.09-26.75-11.09Z"/><path class="cls-10" d="M2577,1078.1s3.78,128.83,32.07,143.47c14,7.23,77,27.08,95.92,30.47,0,0,5.09-3.27,5.66-18.81,0,0-64.77-32.28-72.87-46.83-12.05-21.65,18-81,2.14-101.81S2594.77,1052.31,2577,1078.1Z"/><path class="cls-21" d="M2596.61,1015.58s-.45-8.32,4.68-13.08c0,0-1.78-8.35,1.52-9.72s4,5.64,5.5,4.54,8.25-6.33,11.14-14,29.32,1.63,32.4,3,13-3.7,14.9-7.82c0,0-5.5-4.4-8-7.7s-19.81-25.58-44-19.26-27.5,17.88-26.13,27.78S2586.7,1012.26,2596.61,1015.58Z"/><g id="man"><path class="cls-5" d="M1849.49,1103.73c-2.66,7.14-7.26,15.43-12.09,17.49a18.64,18.64,0,0,0-7.76,5.63l-4.43-2.56-5.28-3.07s.13-.59.38-1.55.66-2.27,1.19-3.74a5.12,5.12,0,0,0,.63-4.7,10.91,10.91,0,0,1,.9-9.12c1.69-2.46,3.33-8.52,4.35-8.34,2.47.42-1.22,8.76-.16,10.31a1.84,1.84,0,0,0,2.37.81l.05,0c6.93-3,15.33-19.47,19-17.25C1850.08,1088.44,1850.62,1100.69,1849.49,1103.73Z"/><path class="cls-21" d="M1825.51,1113.67l8.68,6.1a1.37,1.37,0,0,0,1.9-.33l22.24-31.64a1.37,1.37,0,0,0-.33-1.9l-8.68-6.1a1.37,1.37,0,0,0-1.9.33l-22.24,31.64A1.37,1.37,0,0,0,1825.51,1113.67Z"/><path class="cls-6" d="M1833.46,1119.26l5.09,3.57a1,1,0,0,0,1.44-.25l22.62-32.17a1.05,1.05,0,0,0-.26-1.45l-5.09-3.57a1,1,0,0,0-1.44.25l-22.61,32.17A1,1,0,0,0,1833.46,1119.26Z"/><path class="cls-6" d="M1701,1068.27s44.17,77,60.2,91.22l58.75-43.81a21.42,21.42,0,0,1,12.26,11.17s-35.68,72.7-70.81,75.78-84.44-87.13-84.44-87.13Z"/><path class="cls-6" d="M1601,1592.26H1575.5c-3.21-1.74-6.07-5.73-7-11.69-1.24-8.22-10.46-12.7-12.45-19.43s8.22-16.19,8.22-16.19l1.71-2.2,1.78-2.29,16.93,4s.42,4,.68,9.18c.18,3.7.28,8,.07,11.75-.5,9,2.51,18.62,10.48,20.37C1601.83,1587,1601.57,1590.53,1601,1592.26Z"/><path class="cls-6" d="M1749.14,1592.26h-58.37c-2.8-3.42-1.77-16.06-1.34-20.19.08-.83.14-1.32.14-1.32s19.93-15.94,22.67-3.73c.09.38.19.76.3,1.13,3.45,11.41,18.92,16.6,27.85,18C1746.2,1587.14,1748.34,1590.16,1749.14,1592.26Z"/><path class="cls-10" d="M1738,1266.48s-3,37.76-6.58,83.14c-4.84,61.66-10.65,137.39-11.23,151.74-1,24.91-5,64.76-5,64.76s-9.46,9.47-28.4,5.48c0,0-16.87-56.89-21.69-117.08-.07-1-.15-2-.22-3-4.49-61.28-11.46-190.3-11.46-190.3Z"/><path class="cls-24" d="M1738,1266.48s-3,37.76-6.58,83.14l-66.3,104.9c-.07-1-.15-2-.22-3-4.49-61.28-11.46-190.3-11.46-190.3Z"/><path class="cls-10" d="M1724.2,1271s-54.55,136.75-90.42,201-47.07,82.2-47.07,82.2-20.55-8.22-22.42-13.83c0,0,13.71-124.06,37.73-154.3,13.58-17.09,29.52-68.37,30.27-86.31s4.85-53.43,4.85-53.43Z"/><path class="cls-5" d="M1710.62,1071.62c-21.32,6.72-58.2-11.43-58.2-11.43s19.65-14.75,18.62-45.42l16.49,13.28,11.19,9a132.35,132.35,0,0,1-1.27,14.64c-.32,2.45-.72,5.18-1.23,8.17A51,51,0,0,1,1710.62,1071.62Z"/><path class="cls-26" d="M1698.72,1037.08a132.35,132.35,0,0,1-1.27,14.64c-12.4-2.13-26.48-22.18-26.48-22.18a39.63,39.63,0,0,1,16.56-1.49Z"/><path class="cls-5" d="M1705.24,1036.57s-35.21,5.85-38.51-16.13-10.08-36,12.26-40.7,28,3.07,30.87,10.14S1714.31,1034.48,1705.24,1036.57Z"/><path class="cls-21" d="M1740.37,1269.62a3.42,3.42,0,0,1-2.24.86c-8-.11-31.35,4.34-51.1,2.31-16.65-1.6-31.39-6.53-47.21-13.63-2.1-.94-6.94-3.52-6.83-5.87.07-2.57.32-6.3.64-11,1.12-16.34,3.08-44.44,1.17-76.85q-.51-9.06-.54-17.92c-.16-43.93,8.55-82.57,26-95.65,1.5-1.07,10.68,3.41,19.11,7.57a34.88,34.88,0,0,0,22.95,2.78l7.36,6.51c9,8.33,18.79,19.64,23.06,36.83,3.63,14.62,5.76,41,6.94,68.31.53,12.39,1,24.88,1.07,36.73v.42c.1,1.17.1,2.46.1,3.63C1741.33,1245.07,1740.9,1269.19,1740.37,1269.62Z"/><path class="cls-6" d="M1633.63,1242.29c1.12-16.34,3.08-44.44,1.17-76.85q-.51-9.06-.54-17.92c7.29-17.69,13.25-30.52,13.25-30.52h18.38S1679.37,1209.05,1633.63,1242.29Z"/><path class="cls-6" d="M1539.48,1346.6l78.39,11.17a18.79,18.79,0,0,0,21.2-15.9l4.84-34a18.81,18.81,0,0,0-15.91-21.2l-78.39-11.17a18.8,18.8,0,0,0-21.19,15.91l-4.84,34A18.78,18.78,0,0,0,1539.48,1346.6Z"/><path class="cls-21" d="M1632.43,1296.83h0a18.87,18.87,0,0,0-13-11.35h0a17.55,17.55,0,0,0-1.81-.35l-15.61-2.22,1-7.33a6.21,6.21,0,0,0-5.27-7l-4.07-.58-16.39-2.34-3-.42a6.21,6.21,0,0,0-7,5.27l-1,7.33-26.94-3.84a18.86,18.86,0,0,0-21.27,16l-4.9,34.37a18.86,18.86,0,0,0,16,21.27l78.25,11.15a18.06,18.06,0,0,0,4.08.13h0a18.38,18.38,0,0,0,6.11-1.54,18.84,18.84,0,0,0,11.07-14.56l4.9-34.36A18.68,18.68,0,0,0,1632.43,1296.83ZM1571.2,1271a2.31,2.31,0,0,1,1.92-2,2.34,2.34,0,0,1,.7,0l3.48.49,12.9,1.85,7,1a2.32,2.32,0,0,1,2,2.62l-1,7.33-28-4Z"/><path class="cls-5" d="M1599.09,1245.45s-4.11,5.48-4.28,7.68c-1.1,14.85,5.68,16.9-11.89,25.15,0,0-7.5,2.86-7.62-3s5.2-5.92,4.23-14.07c-1.13-9.4-1-9.49,5.16-14.4l4.08-6.76Z"/><path class="cls-21" d="M1588.63,1249.65a60.3,60.3,0,0,0,13.79.77s19.65-60.7,22.18-66.24S1683,1113,1683,1113l-23.26-58.21s-60.39,100.88-66.52,115c-10.14,23.43-13.65,76-13.65,76A25.3,25.3,0,0,0,1588.63,1249.65Z"/><path class="cls-21" d="M1666.7,1018.32s3.61-.6,3-5.58-.58-11.48,3.47-10.27,4.25,4.45,5.91,2.56,1.69-9.86,13.73-10.41,16.93,3.63,22.53,1.17,5.9-10.94,5.9-10.94-1.6,3-4,4c0,0,9.34-12.77-1.48-21.53s-21.84-3-28.09-2.65c-13.79.83-22.7,1.66-27.2,10.72S1657.85,1009.6,1666.7,1018.32Z"/><path class="cls-5" d="M1592.6,1252s4,4.13,4.21,5.85c.81,5.52,2.65,7.91,1.73,8.51-1.92,1.24-4.46-2.84-5.68-6.51A16.8,16.8,0,0,1,1592.6,1252Z"/></g><rect class="cls-27" x="233.19" y="1591.61" width="2847.81" height="8" rx="3.32"/><path class="cls-6" d="M928.81,878c11.73,21.76,27.24,32.68,27.24,32.68h64.55S919.87,861.43,928.81,878Z"/><path class="cls-5" d="M973.77,1045.16a6,6,0,0,1,.89,6.4l0,0c-1.65,4.2-6.86,8.8-12.88,13.38-.77.59-1.46,1.12-2,1.62l-.47.39c-.12.1-.23.21-.35.3-5.64,4.92-3.6,6.14-13.76,16.15-11.58,11.42-19.34,11.42-21.52,10.29-1.84-1,2.12-7.07,6.51-14,.22-.33.43-.66.64-1,.59-.91,1.17-1.84,1.75-2.76,5.15-8.27,4-12.25,3.17-24.79C935,1041,921.41,994,921.41,994l21.69-3.13s5.48,37.32,12.49,43.23c3.75,3.15,8,3.31,11.65,5.67.26.16.51.33.75.5A28.23,28.23,0,0,1,973.77,1045.16Z"/><path class="cls-6" d="M973.77,1045.16a6,6,0,0,1,.89,6.4l0,0c-2,4.19-7.07,8.77-12.9,13.33-.76.6-1.43,1.15-2,1.67l-.47.39c-.12.1-.23.21-.35.3-5.64,4.92-3.6,6.14-13.76,16.15-11.58,11.42-19.34,11.42-21.52,10.29-1.84-1,2.12-7.07,6.51-14a47.89,47.89,0,0,0,20.48-14.24c7-8.47,11.85-19.47,16.64-25.78.26.16.51.33.75.5A28.23,28.23,0,0,1,973.77,1045.16Z"/><path class="cls-5" d="M800.1,1026.94c-1.52,6.62-11,5.25-21.52,2.37s-8.11.27-23.16-1.81-19.48-7.84-19.88-10.1c-.35-2,7.13-2.5,15.15-3.21,1-.08,2-.18,3-.28,9.07-.88,15.85-6.53,24.18-11.1,7.9-4.32,20-22.49,20-22.49l20.66,2.21s-11.32,16.21-15.71,23.27c-2.59,4.15-2.61,9.74-2.42,14.06A27.16,27.16,0,0,1,800.1,1026.94Z"/><path class="cls-6" d="M778.58,1029.31c-10.54-2.88-8.11.27-23.16-1.81s-19.48-7.84-19.88-10.1c-.35-2,7.13-2.5,15.15-3.21l.07.16a42.61,42.61,0,0,0,21.45,7.31c10.24.53,21.17-2.11,28.24-1.8a27.16,27.16,0,0,1-.35,7.08C798.58,1033.56,789.12,1032.19,778.58,1029.31Z"/><path class="cls-6" d="M883.07,896.68,901,949.3,924.43,1018a40.94,40.94,0,0,0,13.46-.86c6.09-1.59,13.16-6,13.16-6s-5-73.23-17-115.51C931,884.82,927.48,876,923.47,871,903.83,846.46,883.07,896.68,883.07,896.68Z"/><path class="cls-21" d="M905,814.48c12.8-3.74,48.83,2.5,85,10.6l7.95-12.34,78.66-4s24.33,58.14,9.16,94.35c-2.23,5.32-6.17,7.69-13.24,7.61h-1.4s-46.73.41-61.89,0c-39-1.07-81.91-29.86-87.51-31.14-9.18-2.1-13.37,16.26-23.13,35.38s-89.06,83.44-89.06,83.44-11.92-.2-16.79-2.18c-5.24-2.13-7.1-4.76-7.1-4.76S876.15,822.93,905,814.48Z"/><path class="cls-6" d="M1001.33,704.66c27.53,16.15,83.36,49.6,83.66,49.4,0,0,20.63,8.42,32.66.89,20.07-12.55,31.59-47.48-3.62-78.77-17.56-15.61-30.23-19.64-31.51-43.83-.7-13.12-17.42-56.83-47.27-53.64a44.94,44.94,0,0,1-7.51.29,27.84,27.84,0,0,0-15.2,3.48C995.43,592.05,959.59,697.56,1001.33,704.66Z"/><path class="cls-5" d="M1025.11,692.2c-.12.08,13.62,5.19,23,1.34,8.83-3.62,15.84-17.8,15.71-17.81-4-.3-8.23-3.89-11-26.75l-1.7.56L1022.45,659s1.81,9.18,2.91,17.9C1026.28,684.21,1026.69,691.21,1025.11,692.2Z"/><path class="cls-26" d="M1022.45,659s1.81,9.18,2.91,17.9c16.4-2.5,23.26-18.59,25.8-27.35Z"/><path class="cls-5" d="M1018,667.93s39-4.16,36.07-28.43.08-41.15-25-39.52-28.75,11.48-29.73,19.82S1007.74,668.39,1018,667.93Z"/><path class="cls-6" d="M1001.12,606.59s24.31,22.14,41.2,24.33,23.44-3.07,23.44-3.07a66.27,66.27,0,0,1-15.4-22.1,11.91,11.91,0,0,0-9.62-7.29C1028.68,597.09,1005.77,596,1001.12,606.59Z"/><path class="cls-6" d="M1016.73,605.09s-8.55,7.83-11.33,13.73c-2.69,5.7-3.83,19.46-2,25,0,0-12.29-25.58-4.61-37.64C1007,593.38,1016.73,605.09,1016.73,605.09Z"/><path class="cls-1" d="M990.8,748.6c-1,78.76-1.37,62.28,7,70,2,1.85,7.83,3.08,15.49,3.8,24.1,2.26,66.64-.56,68.38-5,6-15.28,2.19-20.19,7.47-43.69.56-2.5,1.23-5.21,2-8.15,4.32-16.13,8.24-21.55-4.79-48-11.82-24-24.24-43.48-25.43-42.82-33.41,18.62-35.61,2.14-35.61,2.14S991.27,710.18,990.8,748.6Z"/><path class="cls-21" d="M901,949.3,924.43,1018a40.94,40.94,0,0,0,13.46-.86c6.09-1.59,13.16-6,13.16-6s-5-73.23-17-115.51Z"/><path class="cls-1" d="M1025.36,676.89s-34,4.81-38.36,19.27-30.08,99.45-30.08,99.45,17.11,3.56,25.28-4.17,29.65-73,29.65-73Z"/><path class="cls-28" d="M1013.33,822.39c24.1,2.26,66.64-.56,68.38-5,6-15.28,2.19-20.19,7.47-43.69l-10.75-33.11s.93,36.57-10.09,45.88-44.59,17.33-50,25.21A29.44,29.44,0,0,0,1013.33,822.39Z"/><path class="cls-5" d="M1041.41,807.79s-23.67-5.95-27.57-3.94-13.51,9.45-14.75,12.09,8.61-1.8,11.79-2.56c2.07-.49,7.41,1.53,10.06,2.49,11.14,4,18.08,2.31,18.08,2.31Z"/><path class="cls-1" d="M1061,674.73s31.93,2.84,42.58,18.58c15,22.16,43.38,115.63,25.33,127.5C1108.56,834.18,1038,822,1038,822s-2.06-11.09,1.37-16.33,57-12.4,59.5-14.79-29.45-48.82-29.25-56.2S1061,674.73,1061,674.73Z"/><path class="cls-5" d="M1012.5,810.44s-5.16,6.3-6.82,7a4.91,4.91,0,0,1-2.71.5l3.53-6Z"/><path class="cls-5" d="M1013.84,803.85l-14.7,6.65a2.59,2.59,0,0,0,2.37,1c1.79,0,6.34-1.56,6.34-1.56Z"/><polygon class="cls-10" points="1005.41 827.33 890.65 824.2 858.46 737.41 973.05 740.53 1005.41 827.33"/><polygon class="cls-24" points="889.39 820.82 1040.94 824.95 1040.85 828.29 890.65 824.2 889.39 820.82"/><path class="cls-1" d="M920.79,782.07c-.79-3.05,1-5.44,4-5.36a7.82,7.82,0,0,1,6.88,5.65c.79,3-1,5.44-4,5.36A7.82,7.82,0,0,1,920.79,782.07Z"/></svg>