<?xml version="1.0" encoding="UTF-8"?> <svg xmlns="http://www.w3.org/2000/svg" id="Capa_1" data-name="Capa 1" viewBox="0 0 1185.65 693.8"><defs><style>.cls-1{fill:#d9eaff;}.cls-2{fill:#14345a;}.cls-3{fill:#dde7fe;}.cls-4{fill:#e07832;}.cls-5{fill:#5f45aa;}.cls-6{fill:#fff;}.cls-7{fill:#e3e6f4;}.cls-8{fill:#cde0fb;}.cls-9{fill:#91aff9;}.cls-10{fill:#f47362;}.cls-11{fill:#ff9841;}.cls-12{fill:#f9974e;}.cls-13{fill:#e66a00;}.cls-14{fill:#e8f2fa;}.cls-15{fill:#1f529f;}.cls-16{fill:#25468f;}.cls-17{fill:#3075c6;}.cls-18{fill:#0b3563;}.cls-19{fill:#fc7600;}.cls-20{fill:#ff912b;}.cls-21{fill:#e2521e;}.cls-22{fill:#ffae73;}.cls-23{fill:#f48f4e;}.cls-24{fill:#1e3865;}.cls-25{fill:#f99352;}.cls-26{fill:#2a3967;}.cls-27{fill:#f3953f;}.cls-28{fill:#d3714a;}.cls-29{fill:#ffc781;}.cls-30{fill:#bf5e1b;}.cls-31{fill:#d3e2f6;}.cls-32{fill:#c2d8fa;}.cls-33{fill:#618bbf;}.cls-34{fill:#2a4e94;}.cls-35{fill:#9ac1f1;}.cls-36{fill:#e1eefd;}.cls-37{fill:#e9f1f8;}.cls-38{fill:#fd9c55;}.cls-39{fill:#ffb864;}.cls-40{fill:#c3d2d7;}.cls-41{fill:#634553;}.cls-42{fill:#c26947;}.cls-43{fill:#233862;}.cls-44{fill:#ff9e55;}.cls-45{fill:#ffb27d;}.cls-46{fill:#2a4e96;}.cls-47{fill:#ed975d;}.cls-48{fill:#82b378;}.cls-49{fill:#a8d29f;}.cls-50{fill:#799ee8;}</style></defs><path class="cls-1" d="M1141.8,693.8H22.8c-65.71-309.18,18.27-550,154-596,25.14-8.51,87.27-22.28,187,31,47,25.51,117.49,53.49,193,37C661.06,143,670,58.42,787.8,17.8c85.86-29.59,198.56-25.13,276,35,27.45,21.32,54.57,52.81,79,111C1225.36,360.45,1167.82,601.53,1141.8,693.8Z"></path><rect class="cls-2" x="977.87" y="590.53" width="169.84" height="72.65"></rect><path class="cls-2" d="M1132.86,633.72h-16.29c-5.2,0-9.41,13.85-9.41,30.92s4.21,30.92,9.41,30.92h16.29c5.19,0,9.4-13.84,9.4-30.92S1138,633.72,1132.86,633.72Z"></path><path class="cls-3" d="M1139.7,666.45c0,12.47-2.93,22.58-6.55,22.58s-6.55-10.11-6.55-22.58,2.93-22.58,6.55-22.58S1139.7,654,1139.7,666.45Z"></path><path class="cls-4" d="M1136.41,495.23l-76.7-56V663h58.71V640.94a12.14,12.14,0,0,1,14.22-12l.26,0a14.49,14.49,0,0,1,12,14.28V663h8.78V568.78a14.22,14.22,0,0,0-.2-2.34l-10-59.69A18,18,0,0,0,1136.41,495.23Z"></path><path class="cls-5" d="M1159.76,567.62h-1.63a5.23,5.23,0,0,1-5.24-5.23V547.33a5.23,5.23,0,0,1,5.24-5.23h1.63a5.23,5.23,0,0,1,5.24,5.23v15.06A5.24,5.24,0,0,1,1159.76,567.62Z"></path><path class="cls-6" d="M1158.35,567.62h-1.63a5.23,5.23,0,0,1-5.24-5.23V547.33a5.23,5.23,0,0,1,5.24-5.23h1.63a5.23,5.23,0,0,1,5.24,5.23v15.06A5.24,5.24,0,0,1,1158.35,567.62Z"></path><path class="cls-2" d="M1119.45,497.94l-.67,57.83a2.17,2.17,0,0,0,1.81,2.17l24.61,4.11a2.18,2.18,0,0,0,2.51-2.5l-8.66-52.48a2.18,2.18,0,0,0-1-1.49l-15.27-9.47A2.17,2.17,0,0,0,1119.45,497.94Z"></path><path class="cls-7" d="M1129.59,569.76l-6.54-.82a2,2,0,0,1-1.72-2v-1.49l9.56,1.19v1.93A1.15,1.15,0,0,1,1129.59,569.76Z"></path><path class="cls-2" d="M1148.17,649.21l-1.4-.05c.71-18.6-8-20.87-8-20.89l-22.39-2.94V487h1.4V624.1l21.23,2.8C1139.44,627,1148.92,629.48,1148.17,649.21Z"></path><path class="cls-2" d="M797.35,593.23H771c-8.41,0-15.21,22.42-15.21,50.07s6.81,50.07,15.21,50.07h26.38c8.41,0,15.22-22.41,15.22-50.07S805.76,593.23,797.35,593.23Z"></path><path class="cls-3" d="M804.71,646.57c0,18.44-2.92,33.38-6.55,33.38s-6.55-14.94-6.55-33.38,2.93-33.38,6.55-33.38S804.71,628.14,804.71,646.57Z"></path><path class="cls-2" d="M966.21,593.23H939.83c-8.41,0-15.22,22.42-15.22,50.07s6.82,50.07,15.22,50.07h26.38c8.41,0,15.21-22.41,15.21-50.07S974.62,593.23,966.21,593.23Z"></path><ellipse class="cls-3" cx="967.03" cy="646.57" rx="6.55" ry="33.38"></ellipse><path class="cls-2" d="M838.59,592.17H812.2c-8.41,0-15.21,22.41-15.21,50.07s6.82,50.07,15.21,50.07h26.39c8.4,0,15.21-22.42,15.21-50.07S847,592.17,838.59,592.17Z"></path><ellipse class="cls-3" cx="839.41" cy="645.51" rx="6.55" ry="33.38"></ellipse><path class="cls-2" d="M1020.09,593.23H993.71c-8.41,0-15.22,22.42-15.22,50.07s6.82,50.07,15.22,50.07h26.38c8.41,0,15.22-22.41,15.22-50.07S1028.5,593.23,1020.09,593.23Z"></path><path class="cls-3" d="M1029.42,646.57c0,18.44-2.93,33.38-6.55,33.38s-6.55-14.94-6.55-33.38,2.93-33.38,6.55-33.38S1029.42,628.14,1029.42,646.57Z"></path><polygon class="cls-2" points="1104.15 463.44 1049.04 423.17 1049.04 646.97 1104.15 646.97 1104.15 463.44"></polygon><polygon class="cls-8" points="725.9 359.61 725.9 646.97 956.59 646.97 956.59 302.67 725.9 359.61"></polygon><polygon class="cls-2" points="948.19 315.64 733.42 368.65 733.42 647.24 948.19 647.24 948.19 315.64"></polygon><path class="cls-9" d="M956.59,302.67V647h32V602.56a16.13,16.13,0,0,1,18.86-15.89l9.19,1.59a18.37,18.37,0,0,1,15.26,18.11V647h69.31V407.68Z"></path><polygon class="cls-8" points="1101.19 439.46 956.59 349.74 956.59 448.8 1101.19 501.75 1101.19 439.46"></polygon><rect class="cls-2" x="1031.51" y="288.66" width="2.43" height="163.24" transform="translate(152.89 1025.65) rotate(-56.41)"></rect><rect class="cls-2" x="1033.31" y="503.35" width="2.43" height="136.04" transform="translate(322.14 1514.35) rotate(-81.84)"></rect><rect class="cls-2" x="1029.77" y="408.03" width="2.43" height="150.27" transform="translate(243.23 1305.24) rotate(-71.33)"></rect><polygon class="cls-2" points="1124.63 633.68 1039.97 624.14 1039.97 662.88 1124.63 662.88 1124.63 633.68"></polygon><polygon class="cls-2" points="1143.3 648.55 1143.3 665.13 1154.1 665.13 1154.1 649.43 1143.3 648.55"></polygon><polygon class="cls-2" points="1002.66 621.11 976.73 619.01 976.73 649.11 1002.66 649.11 1002.66 621.11"></polygon><path class="cls-2" d="M966.05,649.11h-242a6.72,6.72,0,0,1-6.71-6.71V625.71a6.71,6.71,0,0,1,6.71-6.71h242Z"></path><path class="cls-6" d="M966.05,623v-4h-242a6.73,6.73,0,0,0-6.13,4Z"></path><path class="cls-10" d="M748.32,635.86H733.5a4.87,4.87,0,0,1-4.86-4.86v-.1A4.87,4.87,0,0,1,733.5,626h14.82a4.87,4.87,0,0,1,4.86,4.86v.1A4.87,4.87,0,0,1,748.32,635.86Z"></path><path class="cls-10" d="M940.73,635.86H925.91a4.87,4.87,0,0,1-4.86-4.86v-.1a4.87,4.87,0,0,1,4.86-4.86h14.82a4.87,4.87,0,0,1,4.87,4.86v.1A4.87,4.87,0,0,1,940.73,635.86Z"></path><rect class="cls-11" x="737.31" y="504.77" width="105.67" height="109.63"></rect><polygon class="cls-6" points="832.52 603.63 828.7 599.14 824.88 603.63 826.85 603.63 826.85 611.57 830.54 611.57 830.54 603.63 832.52 603.63"></polygon><path class="cls-6" d="M822.24,611.46h-12v-12h12Zm-11-1.07h9.88v-9.88h-9.88Z"></path><path class="cls-6" d="M808.65,611.46h-12v-12h12Zm-11-1.07h9.89v-9.88h-9.89Z"></path><rect class="cls-11" x="763.72" y="417.36" width="77.19" height="80.07"></rect><polygon class="cls-11" points="834.52 469.25 826.46 459.77 818.38 469.25 822.56 469.25 822.56 472.14 830.35 472.14 830.35 469.25 834.52 469.25"></polygon><rect class="cls-12" x="845.34" y="449.72" width="77.19" height="163.94"></rect><rect class="cls-13" x="845.34" y="449.72" width="15.93" height="163.94"></rect><polygon class="cls-6" points="916.15 603.99 908.07 594.52 900 603.99 904.18 603.99 904.18 606.9 911.97 606.9 911.97 603.99 916.15 603.99"></polygon><path class="cls-14" d="M551.45,437.77h1.72v9.76h-1.72Z"></path><path class="cls-14" d="M555.78,437.77h1.59l5.22,6.75v-6.75h1.69v9.76h-1.44l-5.38-6.94v6.94h-1.68Z"></path><path class="cls-14" d="M566,437.77h1.9l2.94,7.5,2.93-7.5h1.85l-4.05,9.83H570Z"></path><path class="cls-14" d="M576.22,442.65a5.1,5.1,0,1,1,5.08,5.05A5,5,0,0,1,576.22,442.65Zm8.4,0a3.31,3.31,0,1,0-3.29,3.47A3.3,3.3,0,0,0,584.62,442.65Z"></path><path class="cls-14" d="M588.6,437.77h1.71v9.76H588.6Z"></path><path class="cls-14" d="M592.49,442.65a4.94,4.94,0,0,1,5-5,5.1,5.1,0,0,1,3.82,1.52l-1.1,1.27a3.91,3.91,0,0,0-2.74-1.21,3.48,3.48,0,0,0,0,6.94,3.85,3.85,0,0,0,2.81-1.27l1.1,1.12a5,5,0,0,1-4,1.73A4.91,4.91,0,0,1,592.49,442.65Z"></path><path class="cls-14" d="M603.21,437.77h7.23v1.53h-5.52v2.54h4.9v1.54h-4.9V446h5.59v1.53h-7.3Z"></path><path class="cls-15" d="M569.14,315.47c-7.75-2.57-13.1.67-13.1.67-22.29.92-23.12,23.76-20.5,32.27,3.67,11.94-9.33,21.35,5.09,26.19,16.73,5.6,30.77-3.25,29.81-.36C623.35,378.41,586.74,321.32,569.14,315.47Z"></path><path class="cls-16" d="M546,426.58a58.17,58.17,0,0,1-6,9c-4.63,5.8-28.93-8-26.84-9s13.93-34.64,18.94-40.59a21.3,21.3,0,0,1,11.09-6.77Z"></path><path class="cls-17" d="M628,663.84s6.71,6.12,5.4,10.47-7.36,7.25-8.18,12.57-4.09,8.21-7,8.21h-14s-2.17-3.74,3.07-4.87,7.2-7.37,6.88-13.17a101.71,101.71,0,0,1,.49-13.53l11.12-2.58Z"></path><path class="cls-17" d="M571.25,666.44s2.42,25.93-.53,27.38L533,693.74s0-4.34,6.05-5.31,16.69-4.51,18.49-12.4S571.25,666.44,571.25,666.44Z"></path><path class="cls-16" d="M600.24,409.09a150.56,150.56,0,0,1,0,17.42c-.37,6.3-6.74,14.73-7.64,16.82-2.27,5.23-4.83,6.08-4.83,6.08L568,454.26,561,456l-21.94-6.56s-10-27.89-6-43.59a120.55,120.55,0,0,1,10.14-26.6s14.91-3.35,41.21-1.49Z"></path><path class="cls-18" d="M602.13,426.73c-.38,6.3-8.63,14.51-9.53,16.6-2.27,5.23-4.83,6.08-4.83,6.08L568,454.26l-5.27-7.44s32-8.91,26-37.15Z"></path><path class="cls-19" d="M540.48,453.65S529.62,487.46,528.92,499s20.77,163.55,21.63,168.86c.82,5,7,8.19,7,8.19a9.4,9.4,0,0,0,6.93.53c5.65-1.6,7.44-3.51,7.44-3.51s8.46-108.44,3.23-147.17a612.49,612.49,0,0,1-5.3-72.23Z"></path><path class="cls-20" d="M586.51,452.64s16.58,22.23,18.12,37.27,2.43,67.82,5.72,82.48,15.38,42.85,15.38,88.55a9.15,9.15,0,0,1-5.14,4,41,41,0,0,1-4.52,1.25,7.1,7.1,0,0,1-7.94-3.77C600,646,573.91,592.88,572.57,581.86c-.94-7.8-9.16-59.42-27.1-89.7-4.31-7.28,2.64-36.19,2.64-36.19Z"></path><path class="cls-18" d="M538.75,448.43s4.36,3.45,13,3.62c10.34.21,36-2.64,36-2.64a21.2,21.2,0,0,1,1.09,6.55s-31.32,7.9-49.47,1.15C539.39,457.11,537.05,452.71,538.75,448.43Z"></path><path class="cls-6" d="M549.29,461c-2.6,0-4.72-2.4-4.72-5.35s2.12-5.34,4.72-5.34,4.72,2.4,4.72,5.34S551.9,461,549.29,461Zm0-9.13c-1.74,0-3.16,1.7-3.16,3.78s1.42,3.78,3.16,3.78,3.16-1.69,3.16-3.78S551,451.84,549.29,451.84Z"></path><polygon class="cls-21" points="571.92 470.69 524.85 471.13 501.68 416.69 548.75 416.25 571.92 470.69"></polygon><path class="cls-22" d="M565.76,446.09l-3.45-4.24s-2.33-2.08-4-2.44-5.27-2.41-5.62-1.83,2.75,4.73,2.75,4.73l.16,0c-3.55,2.67-12.53.31-13.64,1.4-1.34,1.33,1.85,4.18,3.56,5.79s6.61,4.28,10.43,3.09c2.79-.87,7.18-1.75,7.18-1.75Z"></path><path class="cls-22" d="M505.22,426.27s3-3.36,4.84-1.75-.49,9.55-2.28,8.74S504.19,427.26,505.22,426.27Z"></path><path class="cls-16" d="M584.46,377.73s15.7,1.1,21.72,15.73,17.07,38.7,14.7,48.79c-1,4-12.39,17.95-60.08,9.1,0,0,.39-5,3.61-7.33,0,0,33.61-10.78,33.55-12.93-.11-4.06-4.54-7.57-23.31-26.34C569.54,399.64,584.46,377.73,584.46,377.73Z"></path><path class="cls-22" d="M574.09,378.45c.46-.62-.13-2.6-.87-6.29a68.6,68.6,0,0,1-1.78-14.32l-1,.17-16.7,2.81s.38,4.46.39,8.67v.11c0,3.65-1,9.17.25,9.89C560.71,383.2,572.31,380.84,574.09,378.45Z"></path><path class="cls-23" d="M553.74,360.82s.33,6.3.34,10.5c9.35-.22,14.34-9.3,16.36-13.31Z"></path><path class="cls-22" d="M552.73,368.33s21.9-3.12,19.74-16.73-.77-23.17-14.84-21.75-16,7-16.35,11.75S547,368.79,552.73,368.33Z"></path><path class="cls-15" d="M547.63,331.1s8.52,15,18.07,15.91,13.14-2.2,13.14-2.2a26.29,26.29,0,0,1-10.94-14S550.93,322.79,547.63,331.1Z"></path><path class="cls-15" d="M549.32,332.16s-4.17,2.36-5.48,5.89a22.2,22.2,0,0,0-1,13s-6.24-10.13-2.15-17.08C545.06,326.57,549.32,332.16,549.32,332.16Z"></path><path class="cls-24" d="M691.39,693.59s0-6.48,1-8.64S696.93,674,696.93,674h14s2.61,8,2.77,10.63,0,9,0,9Z"></path><path class="cls-24" d="M780.42,693.59s0-6.48-1-8.64S774.87,674,774.87,674h-14s-2.61,8-2.77,10.63,0,9,0,9Z"></path><path class="cls-22" d="M724.24,329.57s-.49,14.44-2.45,20.91l-15.48,10.21,58.28,8.24-13.9-18.15s-4.19-19.36-2-26.52S724.24,329.57,724.24,329.57Z"></path><path class="cls-25" d="M724.16,331.57s4.6,10.48,13.29,10.25,10.66-9.51,10.66-9.51Z"></path><path class="cls-26" d="M719,323.08s-2.8-13.22-4.76-17.23-3.58-21.87,18.1-22.8c0,0,8.32.93,12.88-1.69,0,0,0,2.62-1.14,3.54a15,15,0,0,1,13.37,4.47c5.87,6.16-3.91,27.73-3.42,32.81Z"></path><path class="cls-22" d="M736.45,337.77c-6.29-.11-17.87-8-17.87-17.82v-15.3c0-3.57,2.64-6.5,5.87-6.5h24c3.23,0,5.87,2.93,5.87,6.5v14.43C754.32,329.36,743.67,337.89,736.45,337.77Z"></path><path class="cls-26" d="M718.58,312.82s0-9.19,7.74-10.6,24.95,4.48,27.39-2.22-33.33-6.59-35.13-2.31S718.58,312.82,718.58,312.82Z"></path><path class="cls-16" d="M693.14,469s2.46,70.78-1.21,111.16,0,96.59,0,96.59,11.73,6.11,24.45,0c0,0,13.94-78,13.85-96.59-.09-19.77,15.18-108.08,15.18-108.08Z"></path><path class="cls-16" d="M779.91,676.73s-11.73,6.12-24.45,0c0,0-13.94-78-13.86-96.58,0-8.35-2.66-28.93-5.79-49.91-4.29-28.7-9.39-58.16-9.39-58.16l54.33-3.21s-4.48,70.9-.81,111.28S779.91,676.73,779.91,676.73Z"></path><path class="cls-20" d="M780.1,480.76S756.94,485,735.81,485a228,228,0,0,1-27.2-2c-8.82-1.11-15.14-2.28-15.14-2.28s-4.69.39-1.92-21.48c2.11-16.65,1.45-31.68,1-47.14,0-1.72,0-3.75.1-6,.9-18,6.67-50.48,11.07-52.22,0,0,6.54-2.3,18.09-3.42,0,.22,6.71,9.48,14.66,10.52,4.95-1.85,8.83-3.43,14.24-10.22A163.8,163.8,0,0,1,773,354.85s.83,3.44,4,63.09C778.23,441.57,786.77,480.84,780.1,480.76Z"></path><path class="cls-24" d="M741.6,580.15c0-8.35-2.66-28.93-5.79-49.91,3.25-12.53,11.18-24.6,11.18-24.6C757,532.22,741.6,580.15,741.6,580.15Z"></path><path class="cls-20" d="M671.12,424.91c-.55.43,1.38,4.94,4.22,10.82,5.84,12.07,15.54,29.91,15.54,29.91a51.37,51.37,0,0,1-3,8.14c-16.32-12.11-26.84-22.42-33.55-30.32C644.94,432.35,643,426,643,426c36.33-69.87,61.9-72.45,61.9-72.45l-3,46.18S672.81,423.58,671.12,424.91Z"></path><path class="cls-22" d="M688.94,466.52s8.81-7.7,12.39-3.39,4.24,11.09,1.47,10.63-8.48-2.93-9.29-1.7-4.47,3.59-5.58,1.72S688.94,466.52,688.94,466.52Z"></path><path class="cls-22" d="M690.88,465.64a51.37,51.37,0,0,1-3,8.14c-16.32-12.11-26.84-22.42-33.55-30.32,5.06-.36,12.45-2.07,21-7.73C681.18,447.8,690.88,465.64,690.88,465.64Z"></path><path class="cls-20" d="M831.21,426s-1.94,6.38-11.38,17.49c-6.72,7.9-17.24,18.21-33.56,30.32a50.84,50.84,0,0,1-2.94-8.14s9.7-17.84,15.54-29.91c2.84-5.88,4.76-10.39,4.21-10.82-1.31-1-19.07-15.61-27-22.11l-3.77-3.1-1.81-45.49S794.87,356.1,831.21,426Z"></path><path class="cls-22" d="M785.26,466.52s-8.8-7.7-12.39-3.39-4.24,11.09-1.47,10.63,8.48-2.93,9.3-1.7,4.47,3.59,5.57,1.72S785.26,466.52,785.26,466.52Z"></path><path class="cls-22" d="M783.33,465.64a50.84,50.84,0,0,0,2.94,8.14c16.32-12.11,26.84-22.42,33.56-30.32-5.07-.36-12.46-2.07-21-7.73C793,447.8,783.33,465.64,783.33,465.64Z"></path><path class="cls-16" d="M722.6,347a6,6,0,0,0-3.32,3.79s10.38,10.09,17.17,10.25Z"></path><path class="cls-16" d="M736.45,361l13.4-14.55s2.77,1.72,2.73,4.55C752.58,351,742.22,361.38,736.45,361Z"></path><path class="cls-16" d="M734,359.93s-10.23,83.41-6.67,93.58a68.24,68.24,0,0,0,6.24,12.92,3.73,3.73,0,0,0,6.27,0c2.72-4.45,6.27-10.9,6.27-14.17,0-5.3-7.76-92.4-7.76-92.4Z"></path><path class="cls-16" d="M731.36,355.84a68,68,0,0,1,9.95-.23,1,1,0,0,1,.79,1.47c-1.05,1.79-3.2,4.9-5.45,4.9C733.48,362,728.56,356,731.36,355.84Z"></path><path class="cls-6" d="M731.44,327.92a7,7,0,0,0,5.38,2.41,6.48,6.48,0,0,0,5-2.41A35.86,35.86,0,0,0,731.44,327.92Z"></path><rect class="cls-27" x="219.71" y="451.88" width="92.4" height="120.66"></rect><rect class="cls-28" x="312.11" y="451.88" width="52.27" height="120.66" transform="translate(676.5 1024.43) rotate(180)"></rect><polygon class="cls-29" points="303.46 463.09 277.64 463.09 277.64 494.18 296.85 494.18 303.46 487.57 303.46 463.09"></polygon><polygon class="cls-30" points="296.85 494.18 303.46 487.57 296.85 487.57 296.85 494.18"></polygon><polygon class="cls-31" points="315.03 398.32 264.56 398.32 275.43 367.97 304.17 367.97 315.03 398.32"></polygon><path class="cls-31" d="M314.69,432.2a24.75,24.75,0,0,0-4.9-14.83A13.55,13.55,0,0,0,298.9,412H280.69a13.56,13.56,0,0,0-10.89,5.41,24.87,24.87,0,0,0,1.42,31.39,9.06,9.06,0,0,0,6.77,3h23.62a9.05,9.05,0,0,0,6.76-3A24.77,24.77,0,0,0,314.69,432.2Z"></path><path class="cls-32" d="M312.6,422.21a25.49,25.49,0,0,1,.27,3.62,24.8,24.8,0,0,1-6.32,16.57,9,9,0,0,1-6.76,3H272a9.18,9.18,0,0,1-3.75-.8,24.71,24.71,0,0,0,3,4.16,9.06,9.06,0,0,0,6.77,3h23.62a9.05,9.05,0,0,0,6.76-3,24.88,24.88,0,0,0,4.23-26.55Z"></path><path class="cls-6" d="M275.21,425.5a3.13,3.13,0,0,1-1.79-.56,3.17,3.17,0,0,1-.83-4.42c.16-.24.33-.48.5-.71a3.18,3.18,0,0,1,5.11,3.8c-.13.17-.24.33-.36.5A3.19,3.19,0,0,1,275.21,425.5Z"></path><path class="cls-6" d="M274.46,444.05a3.2,3.2,0,0,1-2.77-1.61,20.92,20.92,0,0,1-2.51-13,3.18,3.18,0,1,1,6.31.83,13.7,13.7,0,0,0-.13,1.93,14.45,14.45,0,0,0,1.87,7.1,3.18,3.18,0,0,1-1.2,4.34A3.15,3.15,0,0,1,274.46,444.05Z"></path><polygon class="cls-31" points="280.69 411.96 298.9 411.96 306.81 405.22 272.79 405.22 280.69 411.96"></polygon><path class="cls-32" d="M300.92,405.22a20.88,20.88,0,0,1-13.82,5.23h-8.19l1.78,1.51H298.9l7.91-6.74Z"></path><path class="cls-32" d="M315,398.32,304.17,368h-8.69l3.72,13.16a10,10,0,0,1-9.63,12.72H266.16l-1.6,4.47Z"></path><rect class="cls-33" x="287.28" y="398.32" width="5.03" height="6.9"></rect><polygon class="cls-34" points="292.31 398.32 287.26 403.38 287.26 398.32 292.31 398.32"></polygon><rect class="cls-32" x="347.99" y="632.64" width="74.12" height="61.13"></rect><rect class="cls-31" x="385.05" y="632.64" width="74.12" height="61.13"></rect><polygon class="cls-35" points="348.04 678.22 359.76 678.22 358.73 674.93 359.76 672.57 348.04 672.57 348.04 678.22"></polygon><polygon class="cls-36" points="385.05 651.52 396.78 651.52 395.74 648.23 396.78 645.87 385.05 645.87 385.05 651.52"></polygon><polygon class="cls-35" points="385.05 645.87 373.33 645.87 374.31 649.17 373.33 651.52 385.05 651.52 385.05 645.87"></polygon><polygon class="cls-36" points="459.18 678.88 447.4 678.88 448.44 682.18 447.4 684.58 459.18 684.58 459.18 678.88"></polygon><rect class="cls-6" x="432.99" y="636.78" width="21.33" height="8.29"></rect><rect class="cls-32" x="338.03" y="565.54" width="75.04" height="66.05"></rect><rect class="cls-32" x="413.07" y="565.54" width="42.45" height="66.05" transform="translate(868.6 1197.14) rotate(180)"></rect><rect class="cls-32" x="346.39" y="572.22" width="74.12" height="61.13"></rect><rect class="cls-31" x="383.45" y="572.22" width="74.12" height="61.13"></rect><polygon class="cls-35" points="346.43 617.85 358.16 617.85 357.12 614.51 358.16 612.15 346.43 612.15 346.43 617.85"></polygon><polygon class="cls-36" points="383.45 591.15 395.17 591.15 394.14 587.86 395.17 585.45 383.45 585.45 383.45 591.15"></polygon><polygon class="cls-35" points="383.45 585.45 371.68 585.45 372.71 588.8 371.68 591.15 383.45 591.15 383.45 585.45"></polygon><polygon class="cls-36" points="457.57 618.51 445.8 618.51 446.83 621.81 445.8 624.16 457.57 624.16 457.57 618.51"></polygon><rect class="cls-6" x="431.39" y="576.36" width="21.33" height="8.29"></rect><polygon class="cls-34" points="348.35 493.1 330.68 535.16 323.2 535.16 342.76 488.58 348.35 493.1"></polygon><polygon class="cls-32" points="309.89 488.58 317.38 488.58 342.76 488.58 323.2 535.16 297.81 535.16 290.33 535.16 309.89 488.58"></polygon><polygon class="cls-34" points="338.56 484.1 320.9 526.16 313.42 526.16 332.98 479.58 338.56 484.1"></polygon><polygon class="cls-37" points="300.11 479.58 307.59 479.58 332.98 479.58 313.42 526.16 288.03 526.16 280.55 526.16 300.11 479.58"></polygon><polygon class="cls-31" points="322.26 490.43 304.59 532.5 297.11 532.5 316.67 485.92 322.26 490.43"></polygon><polygon class="cls-32" points="283.81 485.92 291.29 485.92 316.67 485.92 297.11 532.5 271.72 532.5 264.24 532.5 283.81 485.92"></polygon><polygon class="cls-28" points="307.8 495.16 290.13 537.23 282.64 537.23 302.21 490.65 307.8 495.16"></polygon><polygon class="cls-38" points="269.34 490.65 276.82 490.65 302.21 490.65 282.64 537.23 257.26 537.23 249.78 537.23 269.34 490.65"></polygon><path class="cls-39" d="M229.26,488.17h0a41.87,41.87,0,0,1,52.46,27.47h0a2.44,2.44,0,0,1-.16,1.88l-53.75-28.14A2.47,2.47,0,0,1,229.26,488.17Z"></path><path class="cls-28" d="M227.65,491.26h0a2.44,2.44,0,0,1,.16-1.88l53.75,28.14a2.47,2.47,0,0,1-1.45,1.21h0A41.87,41.87,0,0,1,227.65,491.26Z"></path><path class="cls-6" d="M271.73,498.9a41,41,0,0,1,3.93,4.66l-4.47,8.53-5-2.62Z"></path><path class="cls-40" d="M271.19,512.09l-4.47,8.54a42.15,42.15,0,0,1-6.07-.58l5.54-10.58Z"></path><path class="cls-40" d="M233.71,503.34l4.47-8.53,5,2.62L237.64,508A42.08,42.08,0,0,1,233.71,503.34Z"></path><path class="cls-6" d="M242.65,486.27a42.15,42.15,0,0,1,6.07.58l-5.54,10.58-5-2.62Z"></path><path class="cls-6" d="M245.23,504l4.54-8.66a.62.62,0,1,0-1.09-.57l-4.54,8.66a.62.62,0,0,0,.26.83A.61.61,0,0,0,245.23,504Z"></path><path class="cls-6" d="M248.33,505.64l4.53-8.66a.62.62,0,1,0-1.09-.57l-4.54,8.66a.62.62,0,0,0,.26.83A.63.63,0,0,0,248.33,505.64Z"></path><path class="cls-6" d="M251.42,507.26,256,498.6a.62.62,0,1,0-1.09-.58l-4.53,8.66a.61.61,0,0,0,.26.84A.62.62,0,0,0,251.42,507.26Z"></path><path class="cls-6" d="M254.51,508.88l4.53-8.67a.61.61,0,0,0-.26-.83.62.62,0,0,0-.83.26l-4.53,8.66a.62.62,0,1,0,1.09.58Z"></path><path class="cls-6" d="M257.6,510.49l4.54-8.66a.62.62,0,0,0-1.1-.57l-4.53,8.66a.62.62,0,0,0,1.09.57Z"></path><path class="cls-6" d="M260.69,512.11l4.54-8.66a.62.62,0,0,0-.26-.83.61.61,0,0,0-.83.26l-4.54,8.66a.62.62,0,0,0,1.09.57Z"></path><rect class="cls-39" x="273.32" y="507.69" width="71.62" height="84.31" transform="translate(618.26 1099.7) rotate(-180)"></rect><polygon class="cls-27" points="287.11 539.9 344.94 539.9 344.94 507.69 273.32 507.69 287.11 539.9"></polygon><polygon class="cls-29" points="366.26 532.05 294.64 532.05 273.32 507.69 344.94 507.69 366.26 532.05"></polygon><rect class="cls-27" x="201.7" y="507.69" width="71.62" height="84.31"></rect><polygon class="cls-28" points="259.53 539.9 201.7 539.9 201.7 507.69 273.32 507.69 259.53 539.9"></polygon><polygon class="cls-29" points="180.38 532.05 252 532.05 273.32 507.69 201.7 507.69 180.38 532.05"></polygon><polygon class="cls-29" points="284.48 567.3 297.21 556.03 306.49 571.5 296.18 580.64 292 579.84 284.48 567.3"></polygon><polygon class="cls-30" points="296.18 580.64 292 579.84 294.42 577.7 296.18 580.64"></polygon><rect class="cls-39" x="198.33" y="592.63" width="102.94" height="99.96"></rect><rect class="cls-27" x="301.27" y="592.63" width="58.23" height="99.96" transform="translate(660.76 1285.23) rotate(180)"></rect><path class="cls-41" d="M325.23,681.17c0,.28-.13.5-.3.5s-.29-.22-.29-.5v-.89h-.41v.89c0,.66.31,1.2.7,1.2s.71-.54.71-1.2v-5h3.18c-.62-2.12-1.9-3.58-3.39-3.58s-2.76,1.46-3.38,3.58h3.18Z"></path><path class="cls-41" d="M340.25,669.32H320.3v16.33h29.63V669.32ZM330,684.67h-9.1V670.3H330Zm9.69,0h-9.1V670.3h9.1Zm9.68,0h-9.1V670.3h9.1Z"></path><polygon class="cls-41" points="332.49 681.52 333.97 681.52 333.97 675.11 334.87 675.11 333.23 671.75 331.58 675.11 332.49 675.11 332.49 681.52"></polygon><polygon class="cls-41" points="336.26 681.52 337.75 681.52 337.75 675.11 338.65 675.11 337 671.75 335.36 675.11 336.26 675.11 336.26 681.52"></polygon><rect class="cls-41" x="331.58" y="682.23" width="7.07" height="0.99"></rect><path class="cls-41" d="M344.56,678.68v2.4c0,.73-.35,1.32-.78,1.32h-.64v.82h3.32v-.82h-.64c-.43,0-.78-.59-.78-1.32v-2.4c1.1-.21,1.95-1.77,1.95-3.68v-3.25H342.6V675C342.6,676.91,343.46,678.47,344.56,678.68Z"></path><polygon class="cls-42" points="244.5 634.8 245.82 633.09 247.15 634.8 248.47 633.09 249.8 634.8 251.12 633.09 252.45 634.8 253.77 633.09 255.1 634.8 256.42 633.09 257.84 634.92 257.84 592.63 241.75 592.63 241.75 634.92 243.18 633.09 244.5 634.8"></polygon><polygon class="cls-42" points="330.32 634.8 331.05 633.09 331.77 634.8 332.5 633.09 333.23 634.8 333.95 633.09 334.68 634.8 335.41 633.09 336.13 634.8 336.86 633.09 337.64 634.92 337.64 592.63 328.81 592.63 328.81 634.92 329.59 633.09 330.32 634.8"></polygon><g id="P297LW"><path class="cls-43" d="M118.1,320.66s-6.51-13.72-1.41-22.16,25.32-9,25.32-9-1.76,1-1.85,1.85,5.81-2.29,9.85,4.84,3.85,13.78-.45,23.64S118.1,320.66,118.1,320.66Z"></path><path class="cls-44" d="M219.74,457.63c-3.9.9-21.56,1.12-34-1.67a38.52,38.52,0,0,1-6.9-2.15,10.73,10.73,0,0,1-5-3.77c-1.4-2.34-4-10.33-7-20.81-8.3-28.86-20-76.56-20-76.56s23.45,4.78,28.42,8.87,9.35,68.93,14,70.68c.68.26,1.87.8,3.39,1.55l.23.11,3,1.53c9.68,5,23.76,14.28,27.37,15.94C226.5,452.78,225.44,456.31,219.74,457.63Z"></path><path class="cls-44" d="M174.73,389.58a18.74,18.74,0,0,0-.31-3.32c-3-16.6-27-33.26-27.49-33.26h0c0,2.54-4,7.22-10.16,7.63-7.31.47-16.27-3.16-16.27-7.37,0,0-4.16,0-5.54.17-5.85.66-17.54,3.83-22.55,7.61-4.76,3.6,2,26.28,6.13,42.34,1.77,6.79,3.07,12.4,2.86,14.88-.11,1.22-1.2,17.7-2.17,32.62-.81,12.3-1.54,23.53-1.56,24.23,0,1.4,6.9,6.29,18.56,10a91.34,91.34,0,0,0,9.26,2.4,98.8,98.8,0,0,0,20.13,2q3.62,0,6.84-.35C169.12,487.53,174.83,468.54,174.73,389.58Z"></path><path class="cls-45" d="M219.77,457.59c-.56.14-1.33.21-2.31.35a123.6,123.6,0,0,1-14,.15c-8.63-.43-18.52-1.62-24.63-4.28,2.95-11.23,9.12-17,14.11-19.93,4.28,2.1,11.08,5.68,17.19,9.19h.07c6.52,3.65,11.24,7.64,13.19,8.28C226.64,452.41,225.46,456.33,219.77,457.59Z"></path><path class="cls-45" d="M120.44,352.54a141.55,141.55,0,0,1,.84-20.65L147,336.1s0,7.85-.11,16.56h0s.7,8.08-9.25,9.26S120.17,358.78,120.44,352.54Z"></path><path class="cls-43" d="M142,694.32c-3.24-2-1.34-16.75-1.34-16.75s15.16-12,17.2-2.77,14.31,13.46,21.29,14.62c4.82.8,6.3,3.48,6.76,5.06Z"></path><path class="cls-43" d="M95.53,694.32c-3.23-2-1.33-16.75-1.33-16.75s15.15-12,17.19-2.77,14.31,13.46,21.29,14.62c4.82.8,6.31,3.48,6.76,5.06Z"></path><path class="cls-46" d="M97.66,475.12c0,1.4,6.9,6.29,18.57,10,.93.3,1.91.59,2.91.86l0,0c1.09,12.77,4,30.81,6.69,48.22h0c.69,4.52,1.36,9,2,13.31,1.62,11.44,2.84,21.87,3,29.37V577c.05,3.44-2.85,12-3.07,14-.13,1.21-.24,2.5-.32,3.84a155.72,155.72,0,0,0,.24,18.51c1.91,29.6,9.73,67.47,12.52,69.08,5.54,3.2,15.64,0,20.77-.76a4.23,4.23,0,0,0,3.71-4.26c-2.5-49.12,4.69-117.53,10.07-159.58.14-1.1.28-2.17.42-3.22.64-5,1.07-9.59,1.34-13.77.24-3.66.36-7,.41-9.87,0-.9,0-1.76,0-2.57,0-2.63-2.08-19.86-2.18-98.82h0a3.33,3.33,0,0,0-3.32-3.32H123.13a8.37,8.37,0,0,0-8.36,8.49,135.82,135.82,0,0,1-1.45,22.45c-1.79,11-5.6,21.21-13.48,23.68h0c0,.08-.25.56-.59,1.36h0q-.1,3-.25,6.06c0,.41,0,.83,0,1.24,0,.25,0,.49,0,.73l-.06,1.26c0,.69-.07,1.39-.1,2.09s-.07,1.11-.1,1.67c-.05,1.06-.12,2.15-.19,3.24,0,.35,0,.69-.07,1.05-.09,1.41-.18,2.84-.29,4.28,0,.45-.07.89-.1,1.34,0,.21,0,.42,0,.64,0,.56-.09,1.13-.14,1.7l-.15,1.81C97.44,471.59,97.72,473.56,97.66,475.12Z"></path><path class="cls-43" d="M127.64,613.35c1.91,29.6,9.73,67.47,12.52,69.08,5.54,3.2,15.64,0,20.77-.76a4.23,4.23,0,0,0,3.71-4.26c-2.5-49.12,4.69-117.53,10.07-159.58.14-1.1.28-2.17.42-3.22.64-5,1.07-9.59,1.34-13.77-2.56-16.67-17-17.57-30.1,16.92,1.63,11.45-15.58,51.42-15.58,59.14V577c.05,3.44-2.85,12-3.07,14-.13,1.21-.24,2.5-.32,3.84A155.72,155.72,0,0,0,127.64,613.35Z"></path><path class="cls-46" d="M97.12,575.51c-.39,3.42-4.4,11.56-4.88,13.49-6.62,26.63-3,89.75.32,92.27,5.08,3.91,15.51,2.06,20.69,2a4.24,4.24,0,0,0,4.24-3.74c4.07-50.3,20.94-119.38,31.79-160A190.55,190.55,0,0,0,155.51,484s-50.69-31.06-56.18-14.09C94.48,484.9,100.18,549.24,97.12,575.51Z"></path><path class="cls-46" d="M113.22,353.67s14.94,17.41,15.81,32.59h-7.59a72.64,72.64,0,0,0-13.18-31.55Z"></path><path class="cls-46" d="M150.36,353.63a76.34,76.34,0,0,1,12,32.63h7.59c-.63-11.93-8-24.65-12.19-30.87h0C154.9,354.61,152.3,354,150.36,353.63Z"></path><path class="cls-44" d="M101.26,447.11c.38,17.82-1.85,53.31-1.85,53.31H88.9c-5-25-6.72-41-6.72-49.8,0-1.73,0-3.33,0-4.82.06-7.48.26-11.83.26-11.83-2-45.34,7.09-69.58,9.93-72.92s15.86-6.34,15.86-6.34a178.66,178.66,0,0,1,6,22.6c1.75,10.08-13.78,52.42-13.14,66.89Q101.23,445.55,101.26,447.11Z"></path><path class="cls-45" d="M100.62,476.61c-.49,12.84-1.19,23.79-1.19,23.79H88.9c-1.82-8.91-3.15-16.7-4.21-23.37-1.82-12.14-2.52-20.77-2.52-26.38,0-1.76,0-3.37.07-4.85a36.57,36.57,0,0,1,19,1.34C101.39,455.07,101,466.44,100.62,476.61Z"></path><path class="cls-45" d="M106.87,513.59c.14,2.88-12.42,9.47-16.21,7.72s-3.93-11.72-1.76-20.91,10.53,0,10.53,0S106.73,510.64,106.87,513.59Z"></path><path class="cls-45" d="M244.19,457.94H217.46l6-6.59s6.88,1.4,11.37,0S244.19,457.94,244.19,457.94Z"></path><path class="cls-47" d="M120.65,338.54s6.38,7.54,13.18,7.56c8.48,0,13.1-8.14,13.1-8.14Z"></path><path class="cls-45" d="M146.25,338.6c-2.5,2-9.84,3.93-12,4.15,0,0-10.87-2.42-12.84-3.61-3.06-1.86-2.87-5.61-3-10.83-.19-6.18-.81-11-.12-14.6.82-4.26,3.52-6.69,11.08-7.34,13.89-1.21,19.68,2.27,19.92,6.92.06,1.25.12,2.45.16,3.58C150,331.38,148.88,336.53,146.25,338.6Z"></path><path class="cls-43" d="M118.1,320.66s-1.15-12.4,6.15-12.4,17.14,9.32,21.54,3.34,3.77,8.26,3.77,8.26l.45-19.07-28.13-1.06-5.89,4.4Z"></path></g><path class="cls-48" d="M397.2,512.12s8.64-10.21.53-16.69c0,0-5.92-3.64-10.75-3.34,0,0,6.84,11.62,4.63,12.78s-6.7-13.51-6.7-13.51-13.49-1.32-17.82.79c0,0,11.52,9.55,9.1,10.12s-14.88-8.81-14.88-8.81-12.55,2.16-11.88,9.91,5,10.15,6.9,9.94,13-4.5,13.25-2.92-6.45,6.73-11.13,7c0,0,8.84,9.88,14.72,7s6.38-7.37,10.05-9.07,6.79-1.69,5.28,0-8.15,3.41-10.24,7.16-4,6.29,2.1,5.36,16-5.43,16.41-10.59Z"></path><path class="cls-48" d="M355.6,503.58s34.07-1.33,41.6,8.54a24.93,24.93,0,0,0,6.79,9.65l.79,2.2s-5.9-6.3-8-6.68C396.77,517.29,400.07,505.06,355.6,503.58Z"></path><path class="cls-48" d="M404,521.77A21.74,21.74,0,0,1,411.81,537l-1.33.12s-2.34-10.12-6.56-14.08S404,521.77,404,521.77Z"></path><path class="cls-49" d="M427.42,499.28s-13.75-7.8-7.33-18.38c0,0,5.13-6.5,10.63-8.17,0,0-2.94,15.78,0,16.15s2-17.82,2-17.82,14.49-7.05,20.17-6.5c0,0-9,15.41-6,15s13-16,13-16,14.85-2.78,17.23,6.13-1.46,13.37-3.66,13.93-16.32.37-15.95,2.22,9.9,4.83,15.22,3.16c0,0-5.87,14.67-13.57,13.93s-10.08-5.58-14.85-5.95-8.25.93-5.86,2.23,10.44.43,14.29,3.74,7,5.36-.18,6.84-20,.56-22.55-5Z"></path><path class="cls-48" d="M470.31,472.55s-38.49,12.62-42.89,26.73a30,30,0,0,1-3.67,13.55v2.79s4-9.47,6.23-10.77C430,504.85,421.37,492.6,470.31,472.55Z"></path><path class="cls-48" d="M423.75,512.83a26,26,0,0,0-2.55,20.25l1.53-.41s-1.49-12.25,1.62-18.41S423.75,512.83,423.75,512.83Z"></path><path class="cls-49" d="M405.55,488.53s18.12-10.28,9.66-24.23c0,0-6.76-8.57-14-10.77,0,0,3.86,20.8,0,21.29s-2.66-23.49-2.66-23.49S379.45,442,372,442.76c0,0,11.84,20.31,8,19.82s-17.15-21-17.15-21-19.58-3.67-22.72,8.07S342,467.23,344.89,468s21.51.49,21,2.94-13.05,6.36-20.06,4.16c0,0,7.73,19.33,17.88,18.35s13.29-7.34,19.57-7.83,10.88,1.22,7.74,2.94-13.78.56-18.85,4.93-9.18,7.06.24,9,26.34.73,29.72-6.61Z"></path><path class="cls-48" d="M349,453.28s50.75,16.65,56.55,35.25a39.31,39.31,0,0,0,4.83,17.86v3.67s-5.32-12.48-8.22-14.19C402.16,495.87,413.52,479.72,349,453.28Z"></path><path class="cls-48" d="M410.38,506.39s7.82,12,3.36,26.69l-2-.55s1.95-16.14-2.14-24.25S410.38,506.39,410.38,506.39Z"></path><path class="cls-50" d="M406.16,564.85a35.73,35.73,0,0,1-35.5-36h71A35.73,35.73,0,0,1,406.16,564.85Z"></path><path class="cls-50" d="M370.17,562.25h72a0,0,0,0,1,0,0v.28a4.15,4.15,0,0,1-4.15,4.15H374.32a4.15,4.15,0,0,1-4.15-4.15v-.28A0,0,0,0,1,370.17,562.25Z" transform="translate(812.31 1128.93) rotate(180)"></path><rect class="cls-50" x="369.85" y="528.9" width="72.97" height="1.1" transform="translate(812.67 1058.9) rotate(180)"></rect></svg> 