<?xml version="1.0" encoding="UTF-8"?> <svg xmlns="http://www.w3.org/2000/svg" id="Capa_1" data-name="Capa 1" viewBox="0 0 3653.8 2202.9"><defs><style>.cls-1{fill:#422c4f;}.cls-2{fill:none;stroke:#d0def9;stroke-miterlimit:10;stroke-width:9px;}.cls-3{fill:#d0def9;}.cls-4{fill:#c8d8fa;}.cls-5{fill:#d7e2f6;}.cls-6{fill:#a6c1f0;}.cls-7{fill:#e5effd;}.cls-8{fill:#fff;}.cls-9{fill:#de9547;}.cls-10{fill:#bd704d;}.cls-11{fill:#f9c785;}.cls-12{fill:#aa5e26;}.cls-13{fill:#6f8bbd;}.cls-14{fill:#eeb869;}.cls-15{fill:#ae694a;}.cls-16{fill:#5c4753;}.cls-17{fill:#3a4f92;}.cls-18{fill:#c5d6f9;}.cls-19{fill:#e1e9fb;}.cls-20{fill:#bdd1f0;}.cls-21{fill:#7ca566;}.cls-22{fill:#b3d09f;}.cls-23{fill:#a4c1fc;}.cls-24{fill:#495375;}.cls-25{fill:#d1f4f6;}.cls-26{fill:#ecf2f9;}.cls-27{fill:#e79c5a;}.cls-28{fill:#c7d2d7;}.cls-29{fill:#bf6f33;}.cls-30{fill:#ebaf7f;}.cls-31{fill:#d79560;}.cls-32{fill:#343d63;}.cls-33{fill:#d38041;}</style></defs><rect class="cls-1" x="-7.57" y="2190.02" width="3674.45" height="12.12"></rect><rect class="cls-2" x="1944.97" y="933.19" width="636.57" height="1250.13"></rect><rect class="cls-3" x="2025.65" y="1013.88" width="475.31" height="1088.87"></rect><path class="cls-3" d="M2008.71,996.94V2119.69h509.53V996.94ZM2501.3,2102.63H2025.65V1013.88H2501.3Z"></path><rect class="cls-4" x="1636.41" y="1945.72" width="294.59" height="243.09"></rect><rect class="cls-5" x="1783.71" y="1945.72" width="294.59" height="243.09"></rect><polygon class="cls-6" points="1636.75 2126.78 1683.22 2126.78 1679.21 2113.51 1683.22 2104.12 1636.75 2104.12 1636.75 2126.78"></polygon><polygon class="cls-7" points="1783.71 2020.57 1830.52 2020.57 1826.17 2007.3 1830.52 1998.26 1783.71 1998.26 1783.71 2020.57"></polygon><polygon class="cls-6" points="1783.71 1998.26 1737.24 1998.26 1741.13 2011.19 1737.24 2020.57 1783.71 2020.57 1783.71 1998.26"></polygon><polygon class="cls-7" points="1940.96 2146.58 1901.36 2146.58 1904.68 2157.8 1901.36 2166.04 1940.96 2166.04 1940.96 2146.58"></polygon><rect class="cls-8" x="1974.15" y="1961.86" width="84.58" height="32.73"></rect><rect class="cls-9" x="1777.87" y="1911.5" width="210.24" height="274.68"></rect><rect class="cls-10" x="1988.23" y="1911.5" width="118.8" height="274.68"></rect><polygon class="cls-11" points="1964.08 1933.48 1898.84 1933.48 1898.84 2011.99 1947.48 2011.99 1964.08 1995.39 1964.08 1933.48"></polygon><polygon class="cls-12" points="1947.48 2011.99 1964.08 1995.39 1947.48 1995.39 1947.48 2011.99"></polygon><rect class="cls-9" x="1200.02" y="1418.91" width="298.14" height="389.24"></rect><rect class="cls-10" x="1498.16" y="1418.91" width="168.47" height="389.24"></rect><polygon class="cls-11" points="1470 1455.31 1386.91 1455.31 1386.91 1555.34 1448.83 1555.34 1470 1534.16 1470 1455.31"></polygon><polygon class="cls-12" points="1448.83 1555.34 1470 1534.16 1448.83 1534.16 1448.83 1555.34"></polygon><polygon class="cls-5" points="2851.29 1268.76 2447.28 1268.76 2534.38 1025.78 2764.54 1025.78 2851.29 1268.76"></polygon><path class="cls-4" d="M2851.29,1268.76l-87.1-243.09h-69.58l29.87,105.52a80.37,80.37,0,0,1-55.39,99,74.16,74.16,0,0,1-21.63,2.86H2460.22l-12.59,35.59,403.66.12Z"></path><rect class="cls-13" x="2617.7" y="1268.76" width="40.29" height="859.86"></rect><polygon class="cls-13" points="2657.98 1268.76 2617.7 1309.04 2617.7 1268.76 2657.98 1268.76"></polygon><polygon class="cls-5" points="2629.14 2128.27 2489.74 2160.32 2809.17 2160.32 2669.43 2128.27 2629.14 2128.27"></polygon><path class="cls-4" d="M2685.34,1469.39V1268.76H2681v200.51a19.32,19.32,0,0,0-4.69,14.42c0,8.7,2.86,15.11,6.86,15.11s6.87-6.87,6.87-15.11A17.28,17.28,0,0,0,2685.34,1469.39Z"></path><rect class="cls-4" x="1596.81" y="1678.94" width="298.14" height="262.55"></rect><rect class="cls-4" x="1894.95" y="1678.94" width="168.47" height="262.55"></rect><rect class="cls-14" x="1942.45" y="1466.75" width="244.81" height="237.6"></rect><rect class="cls-9" x="2187.25" y="1466.75" width="138.6" height="237.6"></rect><polygon class="cls-15" points="2052.32 1566.9 2055.52 1562.89 2058.73 1566.9 2061.59 1562.89 2064.91 1566.9 2068.11 1562.89 2071.32 1566.9 2074.18 1562.89 2077.5 1566.9 2080.7 1562.89 2083.91 1567.24 2083.91 1466.75 2045.8 1466.75 2045.8 1567.24 2049 1562.89 2052.32 1566.9"></polygon><polygon class="cls-15" points="2256.38 1566.9 2258.21 1562.89 2260.04 1566.9 2261.88 1562.89 2263.25 1566.9 2265.08 1562.89 2266.91 1566.9 2268.63 1562.89 2270.12 1566.9 2271.95 1562.89 2274.12 1567.24 2274.12 1466.75 2252.83 1466.75 2252.83 1567.24 2254.66 1562.89 2256.38 1566.9"></polygon><polygon class="cls-10" points="2325.97 1638.54 2187.26 1674.25 2187.26 1704.47 2325.97 1704.47 2325.97 1638.54"></polygon><polygon class="cls-9" points="1942.45 1704.47 2187.26 1704.47 2187.26 1674.25 1942.45 1704.47"></polygon><path class="cls-16" d="M2244.14,1677.46c0,.68-.35,1-.69,1s-.69-.35-.69-1v-2.18h-.68v2.18c0,1.48.68,2.86,1.83,2.86s1.83-1.49,1.83-2.86v-11.91h7.55c-1.49-5-4.35-8.7-7.9-8.7s-6.52,3.55-7.89,8.7h7.55Z"></path><path class="cls-16" d="M2280.19,1649.42h-47.5v38.91h70.62v-38.91Zm-24.49,36.28h-21.64v-33.77h21.64Zm23,0h-21.63v-33.77h21.63Zm23.12,0h-21.63v-33.77h21.63Z"></path><polygon class="cls-16" points="2261.42 1678.14 2265.08 1678.14 2265.08 1663.04 2267.26 1663.04 2263.25 1654.8 2259.36 1663.04 2261.42 1663.04 2261.42 1678.14"></polygon><polygon class="cls-16" points="2270.46 1678.14 2274.12 1678.14 2274.12 1663.04 2276.18 1663.04 2272.29 1654.8 2268.28 1663.04 2270.46 1663.04 2270.46 1678.14"></polygon><rect class="cls-16" x="2259.36" y="1679.97" width="16.94" height="2.17"></rect><path class="cls-16" d="M2290.26,1671.28V1677c0,1.83-.69,3.2-1.83,3.2h-1.49V1682h7.9v-1.83h-1.49c-1,0-1.83-1.49-1.83-3.2v-5.72c2.52-.35,4.69-4.35,4.69-8.7V1655h-10.42v7.56C2285.57,1667.38,2287.74,1670.93,2290.26,1671.28Z"></path><polygon class="cls-5" points="1507.54 1246.1 1344.68 1246.1 1379.7 1148.13 1472.52 1148.13 1507.54 1246.1"></polygon><path class="cls-5" d="M1506.4,1355.51a81.44,81.44,0,0,0-15.45-47.84,42.22,42.22,0,0,0-35.25-17.28h-59.06a44.8,44.8,0,0,0-35.25,17.28,79.94,79.94,0,0,0,4.69,101.17,29.22,29.22,0,0,0,22,9.73h76.33a30.12,30.12,0,0,0,22-9.73A81.12,81.12,0,0,0,1506.4,1355.51Z"></path><path class="cls-4" d="M1499.53,1323.12a67,67,0,0,1,.69,11.56,78.63,78.63,0,0,1-20.49,53.33,30,30,0,0,1-22,9.73h-89.62a28.29,28.29,0,0,1-12.24-2.52,80.53,80.53,0,0,0,9.72,13.28,29.22,29.22,0,0,0,22,9.73h76.68a30.1,30.1,0,0,0,22-9.73,78.88,78.88,0,0,0,13.28-85.38Z"></path><path class="cls-8" d="M1378.9,1334a10,10,0,0,1-5.72-1.83,10.38,10.38,0,0,1-2.86-14.08h0l1.48-2.17a10.35,10.35,0,0,1,16.94,11.9l-.34.35-1,1.48A11.08,11.08,0,0,1,1378.9,1334Z"></path><path class="cls-8" d="M1376.38,1393.74a10.84,10.84,0,0,1-9-5.38,67.4,67.4,0,0,1-8.7-33.08,83.11,83.11,0,0,1,.69-9c.34-5.72,5.38-9.73,11.22-9.39s9.72,5.38,9.38,11.22v1a37.08,37.08,0,0,0-.34,6.07,48.66,48.66,0,0,0,6.06,23,10.26,10.26,0,0,1-4,14.08h0A8.86,8.86,0,0,1,1376.38,1393.74Z"></path><polygon class="cls-5" points="1396.64 1290.39 1455.24 1290.39 1480.87 1268.41 1371 1268.41 1396.64 1290.39"></polygon><path class="cls-4" d="M1461.76,1268.41a67.64,67.64,0,0,1-44.63,16.94H1390.8l5.73,5h58.71l25.52-21.63Z"></path><path class="cls-4" d="M1507.54,1246.1l-34.91-98h-28l11.91,42.46a32.46,32.46,0,0,1-22.32,39.94,36.71,36.71,0,0,1-8.7,1h-75.65l-5,14.42Z"></path><rect class="cls-13" x="1417.81" y="1246.1" width="16.25" height="22.32"></rect><polygon class="cls-17" points="1434.06 1246.1 1417.81 1262.69 1417.81 1246.1 1434.06 1246.1"></polygon><path class="cls-18" d="M3103.42,936.05H2930.6a14.51,14.51,0,0,1-14.42-14.42V755a14.52,14.52,0,0,1,14.42-14.42h172.82A14.51,14.51,0,0,1,3117.84,755h0V921.75A14.41,14.41,0,0,1,3103.42,936.05Z"></path><path class="cls-19" d="M3095.87,927.81H2938.16c-7.21,0-12.94-5.72-13.28-13.27V762.21c0-7.22,5.72-12.94,13.28-13.28h157.71a13.21,13.21,0,0,1,13.27,13.28V914.54A14,14,0,0,1,3095.87,927.81Z"></path><path class="cls-20" d="M3012.66,766.78a4.35,4.35,0,1,1,4.35,4.35A4.42,4.42,0,0,1,3012.66,766.78Z"></path><path class="cls-20" d="M3046.08,772.62a4.18,4.18,0,1,1,1.49,5.72A4.58,4.58,0,0,1,3046.08,772.62Z"></path><path class="cls-20" d="M3075.27,795.62c1.83-1,4.69-.68,5.72,1.49,1,1.83.69,4.69-1,5.72s-4.69.69-5.72-1.48C3072.75,799.29,3073.09,796.77,3075.27,795.62Z"></path><path class="cls-20" d="M3089.69,830.87a4.35,4.35,0,1,1-4.35,4.35A4.22,4.22,0,0,1,3089.69,830.87Z"></path><path class="cls-20" d="M3082.13,872.31a4.21,4.21,0,0,1,0,5.72,4,4,0,0,1-5.72-1,4,4,0,0,1,0-4.69A4.47,4.47,0,0,1,3082.13,872.31Z"></path><path class="cls-20" d="M3055.81,898.63a4.67,4.67,0,0,1,0,6.06,4.21,4.21,0,0,1-5.72,0,4.67,4.67,0,0,1,0-6.06A4.21,4.21,0,0,1,3055.81,898.63Z"></path><path class="cls-20" d="M3012.66,912.25a4.35,4.35,0,1,1,4.35,4.35A4.42,4.42,0,0,1,3012.66,912.25Z"></path><path class="cls-20" d="M2987.14,772.62a4.25,4.25,0,1,0-1.83,5.72h0A4.36,4.36,0,0,0,2987.14,772.62Z"></path><path class="cls-20" d="M2958.3,795.62c-1.83-1-4.69-.68-5.72,1.49-1,1.83-.69,4.69,1,5.72a4.38,4.38,0,0,0,5.72-1.48c1.14-2.06.8-4.58-1-5.73Z"></path><path class="cls-20" d="M2943.88,830.87a4.35,4.35,0,1,0,4.35,4.35A4.21,4.21,0,0,0,2943.88,830.87Z"></path><path class="cls-20" d="M2951.09,872.31a4,4,0,1,0,5.72,0C2955.44,870.93,2952.92,870.93,2951.09,872.31Z"></path><path class="cls-20" d="M2977.41,898.63a4.29,4.29,0,1,0,6.07,6.06,4.43,4.43,0,0,0-.69-6.06A4.61,4.61,0,0,0,2977.41,898.63Z"></path><path class="cls-20" d="M3015.52,835.22a4.35,4.35,0,1,1,4.35,4.35A4.21,4.21,0,0,1,3015.52,835.22Z"></path><rect class="cls-20" x="3019.19" y="783.03" width="1.03" height="52.19"></rect><rect class="cls-20" x="3015.63" y="822.67" width="35.25" height="3.55" transform="translate(138.61 2049.76) rotate(-38.15)"></rect><rect class="cls-4" x="2130.72" y="1945.72" width="294.59" height="243.09"></rect><rect class="cls-5" x="2278.01" y="1945.72" width="294.59" height="243.09"></rect><polygon class="cls-6" points="2130.72 2126.78 2177.53 2126.78 2173.64 2113.51 2177.53 2104.12 2130.72 2104.12 2130.72 2126.78"></polygon><polygon class="cls-7" points="2278.01 2020.57 2324.82 2020.57 2320.47 2007.3 2324.82 1998.26 2278.01 1998.26 2278.01 2020.57"></polygon><polygon class="cls-6" points="2278.01 1998.26 2231.2 1998.26 2235.55 2011.19 2231.2 2020.57 2278.01 2020.57 2278.01 1998.26"></polygon><polygon class="cls-7" points="2360.07 2146.58 2320.47 2146.58 2324.14 2157.8 2320.47 2166.04 2360.07 2166.04 2360.07 2146.58"></polygon><rect class="cls-8" x="2468.46" y="1961.86" width="84.58" height="32.73"></rect><rect class="cls-4" x="1889.11" y="1705.5" width="294.59" height="243.09"></rect><rect class="cls-5" x="2036.41" y="1705.5" width="294.59" height="243.09"></rect><polygon class="cls-6" points="1889.11 1886.67 1935.92 1886.67 1931.69 1873.74 1935.92 1864.01 1889.11 1864.01 1889.11 1886.67"></polygon><polygon class="cls-7" points="2036.41 1780.8 2082.88 1780.8 2078.87 1767.41 2082.88 1758.14 2036.41 1758.14 2036.41 1780.8"></polygon><polygon class="cls-6" points="2036.41 1758.14 1989.6 1758.14 1993.61 1771.42 1989.6 1780.8 2036.41 1780.8 2036.41 1758.14"></polygon><polygon class="cls-7" points="2331 1889.53 2284.19 1889.53 2288.09 1902.46 2284.19 1911.85 2331 1911.85 2331 1889.53"></polygon><rect class="cls-8" x="2226.85" y="1722.09" width="84.58" height="32.73"></rect><rect class="cls-14" x="2183.71" y="1866.18" width="332.02" height="322.63"></rect><rect class="cls-9" x="2504.62" y="1866.18" width="187.93" height="322.63"></rect><path class="cls-16" d="M2582,2152.08c0,.68-.34,1.48-1,1.48s-1-.68-1-1.48v-2.86h-1v2.86c0,2.17,1,4,2.17,4s2.18-1.83,2.18-4v-16.26h10.41c-2.17-6.86-6.06-11.55-10.75-11.55s-9,4.69-10.76,11.55h10.07v16.26Z"></path><path class="cls-16" d="M2630.29,2113.85H2566.2v52.53H2662v-52.53Zm-33.19,49.33h-29.53v-46.47h29.53Zm31.36,0h-29.53v-46.47h29.53Zm31.36,0h-29.53v-46.47h29.18Z"></path><polygon class="cls-16" points="2605.45 2153.11 2610.14 2153.11 2610.14 2132.62 2613.01 2132.62 2607.63 2121.75 2602.48 2132.62 2605.45 2132.62 2605.45 2153.11"></polygon><polygon class="cls-16" points="2617.7 2153.11 2622.39 2153.11 2622.39 2132.62 2625.25 2132.62 2619.76 2121.75 2614.38 2132.62 2617.7 2132.62 2617.7 2153.11"></polygon><rect class="cls-16" x="2329.3" y="2175.7" width="17" height="2.5"></rect><path class="cls-16" d="M2644.25,2144.06v7.56c0,2.17-1,4.35-2.52,4.35h-2.17v2.86h10.76v-2.52h-2.18c-1.49,0-2.52-1.83-2.52-4.35v-7.55c3.55-.69,6.07-5.72,6.07-11.9v-10.42h-14.08v10.42C2637.84,2138.34,2640.7,2143.38,2644.25,2144.06Z"></path><polygon class="cls-15" points="2332.72 2002.26 2337.07 1996.88 2341.42 2002.26 2345.77 1996.88 2350 2002.26 2354.01 1996.88 2358.36 2002.26 2362.59 1996.88 2366.94 2002.26 2371.29 1996.88 2375.98 2002.95 2375.98 1866.18 2324.14 1866.18 2324.14 2002.95 2328.49 1996.88 2332.72 2002.26"></polygon><polygon class="cls-15" points="2598.24 2002.26 2600.76 1996.88 2602.93 2002.26 2605.45 1996.88 2607.63 2002.26 2610.14 1996.88 2612.2 2002.26 2614.72 1996.88 2616.9 2002.26 2619.41 1996.88 2621.93 2002.95 2621.93 1866.18 2593.55 1866.18 2593.55 2002.95 2596.07 1996.88 2598.24 2002.26"></polygon><rect class="cls-14" x="1130.89" y="1866.18" width="332.02" height="322.63"></rect><rect class="cls-9" x="1462.79" y="1866.18" width="187.93" height="322.63"></rect><path class="cls-16" d="M1540.27,2152.08c0,.68-.34,1.48-1,1.48s-1-.68-1-1.48v-2.86h-1.48v2.86c0,2.17,1,4,2.17,4s2.17-1.83,2.17-4v-16.26h10.42c-2.18-6.86-6.07-11.55-10.76-11.55s-9,4.69-10.76,11.55H1540v16.26Z"></path><path class="cls-16" d="M1588.91,2113.85h-64.43v52.53h95.79v-52.53Zm-33.19,49.33H1526.2v-46.47h29.52Zm31.36,0h-29.52v-46.47h29.52Zm30.9,0h-29.52v-46.47h29.18Z"></path><polygon class="cls-16" points="1563.62 2153.11 1568.66 2153.11 1568.66 2132.62 1571.63 2132.62 1566.14 2121.75 1560.76 2132.62 1563.62 2132.62 1563.62 2153.11"></polygon><polygon class="cls-16" points="1575.87 2153.11 1580.9 2153.11 1580.9 2132.62 1583.76 2132.62 1578.38 2121.75 1573.01 2132.62 1575.87 2132.62 1575.87 2153.11"></polygon><rect class="cls-16" x="1549" y="2175.7" width="17" height="2.5"></rect><path class="cls-16" d="M1602.53,2144.06v7.56c0,2.17-1,4.35-2.51,4.35h-2.18v2.86h10.76v-2.52h-2.17c-1.49,0-2.52-1.83-2.52-4.35v-7.55c3.55-.69,6.06-5.72,6.06-11.9v-10.42H1595.9v10.42C1596.47,2138.34,1599.33,2143.38,1602.53,2144.06Z"></path><polygon class="cls-15" points="1279.9 2002.26 1284.25 1996.88 1288.6 2002.26 1292.49 1996.88 1296.84 2002.26 1301.19 1996.88 1305.54 2002.26 1309.77 1996.88 1314.12 2002.26 1318.47 1996.88 1322.82 2002.95 1322.82 1866.18 1270.97 1866.18 1270.97 2002.95 1275.55 1996.88 1279.9 2002.26"></polygon><polygon class="cls-15" points="1556.87 2002.26 1558.93 1996.88 1561.45 2002.26 1563.62 1996.88 1566.14 2002.26 1568.31 1996.88 1570.83 2002.26 1573.35 1996.88 1575.52 2002.26 1577.7 1996.88 1580.56 2002.95 1580.56 1866.18 1551.72 1866.18 1551.72 2002.95 1554.35 1996.88 1556.87 2002.26"></polygon><path class="cls-21" d="M1658.73,1424.64c12.93,31,36.74,65.12,65.12,95.45,14.08,15.11,28.84,28.84,42.8,41.43s27,24.83,39.6,36.39a132.43,132.43,0,0,0-18.77-52.87,290.18,290.18,0,0,0-37.76-49.33C1721.33,1465.72,1688.6,1439.86,1658.73,1424.64Z"></path><path class="cls-21" d="M1922,1430.82c-46.81,28-98.65,92.93-115.94,144.78C1853.18,1547.44,1905,1482.66,1922,1430.82Z"></path><path class="cls-21" d="M1798.81,1307.67c-27.35,72.79-27.35,191.24,0,263.92C1826.17,1498.46,1826.17,1380.35,1798.81,1307.67Z"></path><path class="cls-22" d="M1712.75,1342.92a211.7,211.7,0,0,0-.35,61.92,293.15,293.15,0,0,0,49.68,129.21,224.69,224.69,0,0,0,41.77,45.78c-6.87-37.08-21.63-79.54-37.43-121.66C1750.17,1416.4,1732.2,1375,1712.75,1342.92Z"></path><path class="cls-22" d="M1876.53,1354.48c-19.12,29.87-36.06,69.81-49.68,110.56-14.07,40.74-24.83,82.06-28,117.77,25.53-24.5,49-63.41,63.41-105.53S1881.9,1389.39,1876.53,1354.48Z"></path><polygon class="cls-23" points="1891.29 1543.09 1709.89 1543.09 1750.17 1674.94 1851 1674.94 1891.29 1543.09"></polygon><path class="cls-23" d="M1867.6,1543.09l-18.31,59.74a67,67,0,0,1-64.1,47.16h-42.11l7.55,24.49h100.49l40.28-131.73Z"></path><polygon class="cls-24" points="2500.96 1866.18 2428.17 2163.18 2440.42 2180.12 2513.21 1883.46 2500.96 1866.18"></polygon><polygon class="cls-13" points="2276.64 1866.18 2259.36 1866.18 2186.57 2163.18 2204.19 2163.18 2428.17 2163.18 2500.96 1866.18 2276.64 1866.18"></polygon><polygon class="cls-24" points="2279.5 1891.7 2219.3 2137.66 2229.03 2137.66 2289.23 1891.7 2279.5 1891.7"></polygon><polygon class="cls-25" points="2468.46 1891.7 2289.23 1891.7 2229.03 2137.66 2408.37 2137.66 2468.46 1891.7"></polygon><polygon class="cls-8" points="2380.33 1891.7 2259.7 2012.33 2246.65 2066.7 2421.3 1891.7 2380.33 1891.7"></polygon><polygon class="cls-8" points="2467.08 1896.74 2230.17 2133.65 2229.03 2137.66 2247.45 2137.66 2460.22 1924.78 2467.08 1896.74"></polygon><polygon class="cls-8" points="2437.55 2018.06 2317.96 2137.66 2374.84 2137.66 2419.13 2093.36 2437.55 2018.06"></polygon><polygon class="cls-17" points="1614.78 1548.59 1557.9 1684.32 1533.75 1684.32 1596.81 1534.16 1614.78 1548.59"></polygon><polygon class="cls-4" points="1490.95 1534.16 1515.1 1534.16 1596.81 1534.16 1533.75 1684.32 1452.03 1684.32 1427.54 1684.32 1490.95 1534.16"></polygon><polygon class="cls-17" points="1583.42 1519.4 1526.2 1655.14 1502.05 1655.14 1565.45 1504.98 1583.42 1519.4"></polygon><polygon class="cls-26" points="1459.24 1504.98 1483.39 1504.98 1565.45 1504.98 1502.05 1655.14 1420.33 1655.14 1396.18 1655.14 1459.24 1504.98"></polygon><polygon class="cls-5" points="1530.89 1539.89 1473.66 1675.62 1449.52 1675.62 1512.92 1525.47 1530.89 1539.89"></polygon><polygon class="cls-4" points="1406.71 1525.47 1430.74 1525.47 1512.92 1525.47 1449.52 1675.62 1367.8 1675.62 1343.65 1675.62 1406.71 1525.47"></polygon><polygon class="cls-10" points="1484.08 1555.34 1427.2 1691.19 1403.05 1691.19 1466.11 1540.57 1484.08 1555.34"></polygon><polygon class="cls-27" points="1359.9 1540.57 1383.94 1540.57 1466.11 1540.57 1403.05 1691.19 1320.99 1691.19 1296.84 1691.19 1359.9 1540.57"></polygon><path class="cls-14" d="M1230.57,1532.68h0a135,135,0,0,1,169.27,88.58h0a9,9,0,0,1-.34,6.07L1226,1536.57A10.08,10.08,0,0,1,1230.57,1532.68Z"></path><path class="cls-10" d="M1225.54,1542.75h0a7.39,7.39,0,0,1,.68-6.07l173.51,90.76a8.61,8.61,0,0,1-4.69,4h0a135.27,135.27,0,0,1-169.5-88.7Z"></path><path class="cls-8" d="M1367.8,1567.24a98.11,98.11,0,0,1,12.59,15.11L1366,1610l-16.25-8.69Z"></path><path class="cls-28" d="M1366,1609.7l-14.42,27.35a111.35,111.35,0,0,1-19.46-1.83l18-33.87Z"></path><path class="cls-28" d="M1245,1581.66l14.42-27.7,16.26,8.7-18,33.88A177.43,177.43,0,0,1,1245,1581.66Z"></path><path class="cls-8" d="M1273.84,1526.61a112.3,112.3,0,0,1,19.45,1.83l-18,33.88-16.25-8.7Z"></path><path class="cls-8" d="M1282.08,1583.84l14.76-28a1.9,1.9,0,0,0-1-2.52,2.14,2.14,0,0,0-2.52.68l-14.76,28a2.08,2.08,0,1,0,3.55,2.18Z"></path><path class="cls-8" d="M1292.15,1588.87l14.76-28a1.84,1.84,0,1,0-3.2-1.83l-14.77,28a2.08,2.08,0,0,0,3.55,2.18c-.34,0-.34,0-.34-.35Z"></path><path class="cls-8" d="M1302.22,1594.25l14.76-28a1.84,1.84,0,1,0-3.2-1.83l-14.77,28a2.08,2.08,0,1,0,3.55,2.17l-.34-.34Z"></path><path class="cls-8" d="M1312.29,1599.29l14.76-28a1.89,1.89,0,0,0-1-2.52,2.45,2.45,0,0,0-2.51.69l-14.77,28a2.08,2.08,0,1,0,3.55,2.17C1312,1599.63,1312,1599.63,1312.29,1599.29Z"></path><path class="cls-8" d="M1322,1604.67l14.76-28a1.89,1.89,0,0,0-1-2.52,2.46,2.46,0,0,0-2.52.68l-14.76,28A2.08,2.08,0,1,0,1322,1605Z"></path><path class="cls-8" d="M1332.09,1609.7l14.76-28a1.84,1.84,0,1,0-3.2-1.83l-14.76,28a2.08,2.08,0,1,0,3.54,2.17c-.34.12-.34.12-.34-.34Z"></path><rect class="cls-14" x="1372.83" y="1595.74" width="231.19" height="272.16"></rect><polygon class="cls-9" points="1417.47 1699.77 1604.02 1699.77 1604.02 1595.74 1372.83 1595.74 1417.47 1699.77"></polygon><polygon class="cls-11" points="1672.81 1674.25 1441.62 1674.25 1372.83 1595.74 1604.02 1595.74 1672.81 1674.25"></polygon><rect class="cls-9" x="1141.65" y="1595.74" width="231.19" height="272.16"></rect><polygon class="cls-10" points="1328.54 1699.77 1141.65 1699.77 1141.65 1595.74 1372.83 1595.74 1328.54 1699.77"></polygon><polygon class="cls-11" points="1072.86 1674.25 1304.05 1674.25 1372.83 1595.74 1141.65 1595.74 1072.86 1674.25"></polygon><polygon class="cls-11" points="1408.77 1788.01 1449.86 1751.62 1479.73 1801.63 1446.65 1831.16 1432.92 1828.3 1408.77 1788.01"></polygon><polygon class="cls-12" points="1446.65 1831.16 1432.92 1828.3 1440.82 1821.43 1446.65 1831.16"></polygon><rect class="cls-19" x="482.08" y="888.9" width="145.81" height="206.35"></rect><rect class="cls-19" x="663.25" y="888.9" width="145.81" height="206.35"></rect><rect class="cls-19" x="482.08" y="1118.6" width="145.81" height="206.35"></rect><rect class="cls-19" x="663.25" y="1118.6" width="145.81" height="206.35"></rect><rect class="cls-19" x="482.08" y="1355.17" width="145.81" height="206.35"></rect><rect class="cls-19" x="663.25" y="1355.17" width="145.81" height="206.35"></rect><rect class="cls-29" x="932.09" y="1172.28" width="263.23" height="217.11"></rect><rect class="cls-27" x="1063.48" y="1172.28" width="263.23" height="217.11"></rect><polygon class="cls-12" points="932.09 1333.99 973.86 1333.99 970.32 1322.43 973.86 1314.19 932.09 1314.19 932.09 1333.99"></polygon><polygon class="cls-30" points="1063.48 1239.23 1105.25 1239.23 1101.7 1227.67 1105.25 1219.09 1063.48 1219.09 1063.48 1239.23"></polygon><polygon class="cls-12" points="1063.48 1219.09 1021.7 1219.09 1025.37 1230.99 1021.7 1239.23 1063.48 1239.23 1063.48 1219.09"></polygon><polygon class="cls-30" points="1218.67 1336.51 1176.9 1336.51 1180.56 1348.3 1176.9 1356.65 1218.67 1356.65 1218.67 1336.51"></polygon><rect class="cls-8" x="1125.85" y="1187.04" width="75.65" height="29.53"></rect><path class="cls-30" d="M1094.49,1380c6.53-4.35,20.83-13.27,21.63-11.21a9.17,9.17,0,0,1-2.17,6.86c8.7-2.86,17.28-4.69,37.77,0,4,.69,7.55,3.55,9.73,6.87a6.8,6.8,0,0,1-1,9.38,6.33,6.33,0,0,1-1.83,1c-10.76,6.07-7.56,2.18-22.32,11.22s-32.73,10.42-43.26,3.55l-14.08-2.86-.69-23.35C1077.9,1381.49,1086.25,1381.15,1094.49,1380Z"></path><path class="cls-30" d="M833.78,1137.71s40.28,33.08,79.54,8.7c0,0,5-23.8,2.18-39.6-.35-2.17-.69-4-1-5.72-3.2-18.31-4.34-28.5-4.34-28.5h0c-2.18-.34-69.47-14.42-68.79-12.24C851.06,1109.22,833.78,1137.71,833.78,1137.71Z"></path><path class="cls-31" d="M837.78,1070.76c8.24,10.07,32.74,28,64.78,30.21-3.2-18.31-4.35-28.49-4.35-28.49h0C896.5,1072.13,835.27,1067.9,837.78,1070.76Z"></path><path class="cls-30" d="M910.92,1068.24S844,1098.11,826,1056c-17.63-42.12-38.57-66.61,3.54-87.56s57.23-8.24,66.61,4.35C905.54,985,927.86,1059.2,910.92,1068.24Z"></path><path class="cls-17" d="M830.69,1067.1c-.69.68-15.11,8.24-54.37-43.26A49.77,49.77,0,0,1,771,977.71c7.21-19.11,41.77-39.6,71.64-50.81A60.68,60.68,0,0,1,880,925.07a23.6,23.6,0,0,1,16.59,28.49v.35c-5.72,19.8-19.46,31.7-37.08,31.36-11.9-.35-11.22,23.8-10.76,29.87s0,10.76-15.11,8.24c-12.59-2.18-5.38,14.76-1.48,22.32a20.53,20.53,0,0,1,2.86,12.24A15.62,15.62,0,0,1,830.69,1067.1Z"></path><path class="cls-32" d="M728,2188.36H684.77c-9,0-19.12-9-21.64-25.53s-21.28-25.52-25.17-39.25,16.59-32.73,16.59-32.73l3.55-4.35,3.55-4.7,34.22,7.9s.68,8.24,1.48,18.77c.35,7.9.35,15.8,0,23.81-1,18,5,37.76,21.29,41.08C734.55,2176.91,728,2188.36,728,2188.36Z"></path><path class="cls-32" d="M1040.47,2188.36H926a7,7,0,0,1-2.51-.69c-7.56-4-5.38-33.08-4.35-42.12a6.37,6.37,0,0,1,.34-2.52s40.29-32.38,45.78-7.55a5.28,5.28,0,0,0,.69,2.18h0c6.86,23,38.11,33.53,56.54,36.39C1036.12,2176.11,1039.79,2184.12,1040.47,2188.36Z"></path><path class="cls-27" d="M1017.47,1527s-6.07,76.34-13.28,168.13c-9.72,125-21.63,278-22.66,307.18-2.17,50.36-10.07,131-10.07,131s-19.11,19.11-57.57,11.21c0,0-33.87-115.25-43.95-236.91,0-2.17-.34-4-.34-6.06-9-123.84-23-385.24-23-385.24Z"></path><path class="cls-33" d="M994.69,1521.92s4,47.5-18,137.22c-16.26,65.58-106.56,248.47-106.56,248.47,0-2.17-.34-4-.34-6.06-9-123.84-23-385.24-23-385.24Z"></path><path class="cls-27" d="M994.69,1521.92S879.1,1812.85,806.77,1942.86s-95.45,166.3-95.45,166.3-41.78-16.6-45.32-28c0,0,27.69-251,76.33-312.22,27.36-34.91,59.75-138.6,61.23-175s10.08-108,10.08-108Z"></path><path class="cls-17" d="M1000.53,1516.08c-16.25,1-186.89-5.38-186.89-15.11,0-33.07-7.21-86.75-15.8-152-1.49-12.25-2.86-24.15-3.55-36.06a594.11,594.11,0,0,1,0-87.89c4.35-50,25.53-90.42,47.16-109.42,2.86-2.51,13.27,5.73,31,12.59,16.25,6.53,29.19,1.83,43.95-2.17l18.77,16.59a179.08,179.08,0,0,1,40.29,56.54C975.35,1199.63,1001.9,1516.08,1000.53,1516.08Z"></path><path class="cls-27" d="M975.35,1199.63l-46.81,10.76-64.09,173.5a63.44,63.44,0,0,1-59.4,41.43h0l5.72,85.73,206.7,15.45Z"></path><path class="cls-17" d="M1198.53,1393.05c1.49-13.73-5.38-16.25-5.38-16.25s-137.23-30.56-149-34.57c-11.56-4.35-108-112.73-108-112.73s-36.74-45-68.79-36.74c-27.69,7.21-39.25,28-43.6,48.64A60.35,60.35,0,0,0,849.23,1304c46.12,30.56,138.25,91.44,160.23,98.65,49,16.6,182.54,8.24,182.54,8.24A37,37,0,0,0,1198.53,1393.05Z"></path><path class="cls-33" d="M880.24,1160.37c-10.75-10.07-45.77-37.76-45.77-37.76l6.52-6.53c4.69-1,40.74,26,52.53,36.74,14.42,12.59,54.36,53.33,54.36,53.33l-19.45,4.7C928.54,1210.39,893.18,1172.28,880.24,1160.37Z"></path><rect class="cls-13" x="2187.4" y="2160.5" width="253.02" height="15.37"></rect></svg> 