<?xml version="1.0" encoding="UTF-8"?> <svg xmlns="http://www.w3.org/2000/svg" id="_Layer_" data-name="&lt;Layer&gt;" viewBox="0 0 2628.46 1520.9"><defs><style>.cls-1{fill:#afcdfb;}.cls-2{fill:#d9eaff;}.cls-3{fill:#fff;}.cls-4{fill:#f78248;}.cls-5{fill:#91aff9;}.cls-6{fill:#cde0fb;}.cls-7{fill:#7c9af2;}.cls-8{fill:#95c48a;}.cls-9{fill:#d8702a;}.cls-10{fill:#ff9e55;}.cls-11{fill:#c15e1b;}.cls-12{fill:#ffb27d;}.cls-13{fill:#ed975d;}.cls-14{fill:#2a4e96;}.cls-15{fill:#2c3a64;}.cls-16{fill:#ed823a;}.cls-17{fill:#dd732c;}.cls-18{fill:#f2ccaa;}.cls-19{fill:#f9ddbf;}.cls-20{fill:#618dc1;}.cls-21{fill:#f99746;}.cls-22{fill:#e07e34;}.cls-23{fill:#97bf8e;}.cls-24{fill:#a8d29f;}.cls-25,.cls-62{fill:none;stroke-miterlimit:10;}.cls-25{stroke:#334e8f;stroke-width:2px;}.cls-26{fill:#f2a263;}.cls-27{fill:#dd8447;}.cls-28{fill:#82b378;}.cls-29{fill:#799ee8;}.cls-30{fill:#c3dafc;}.cls-31{fill:#d4e4f8;}.cls-32{fill:#14345a;}.cls-33{fill:#dde7fe;}.cls-34{fill:#e07832;}.cls-35{fill:#5f45aa;}.cls-36{fill:#e3e6f4;}.cls-37{fill:#f47362;}.cls-38{fill:#ff9841;}.cls-39{fill:#f9974e;}.cls-40{fill:#e66a00;}.cls-41{fill:#ebf3fa;}.cls-42{fill:#dfebfd;}.cls-43{fill:#212d4c;}.cls-44{fill:#aec3ff;}.cls-45{fill:#233862;}.cls-46{fill:#ed7d2b;}.cls-47{fill:#ed985f;}.cls-48{fill:#eac3a2;}.cls-49{fill:#dfebfa;}.cls-50{fill:#2b478b;}.cls-51{fill:#163560;}.cls-52{fill:#4168b5;}.cls-53{fill:#9dc3f3;}.cls-54{fill:#e3f0ff;}.cls-55{fill:#35488b;}.cls-56{fill:#ea9c68;}.cls-57{fill:#e28242;}.cls-58{fill:#ef8c42;}.cls-59{fill:#ffa561;}.cls-60{fill:#f1a34f;}.cls-61{fill:#cc662e;}.cls-62{stroke:#000;stroke-width:8px;}</style></defs><rect class="cls-1" x="546.88" y="236.5" width="746.9" height="1243.4"></rect><rect class="cls-1" x="981.08" y="377.1" width="215.6" height="309.2"></rect><path class="cls-2" d="M1323.1,424.4s2.3,103.1-99.3,183v-183Z" transform="translate(-242.72 -47.3)"></path><path class="cls-2" d="M1344.4,424.4s-2.2,103.1,95,183v-183Z" transform="translate(-242.72 -47.3)"></path><rect class="cls-3" x="1088.88" y="377.1" width="5.4" height="309.2"></rect><rect class="cls-3" x="981.08" y="468.6" width="215.6" height="4.3"></rect><rect class="cls-3" x="981.08" y="580.7" width="215.6" height="4.3"></rect><path class="cls-3" d="M1444.3,738.4H1219V419.5h225.3Zm-215.6-9.8h205.8V429.3H1228.7Z" transform="translate(-242.72 -47.3)"></path><rect class="cls-1" x="642.08" y="377.1" width="215.6" height="309.2"></rect><path class="cls-2" d="M984,424.4s2.3,103.1-99.3,183v-183Z" transform="translate(-242.72 -47.3)"></path><path class="cls-2" d="M1005.3,424.4s-2.2,103.1,95,183v-183Z" transform="translate(-242.72 -47.3)"></path><rect class="cls-3" x="749.78" y="377.1" width="5.4" height="309.2"></rect><rect class="cls-3" x="642.08" y="468.6" width="215.6" height="4.3"></rect><rect class="cls-3" x="642.08" y="580.7" width="215.6" height="4.3"></rect><path class="cls-3" d="M1105.2,738.4H879.9V419.5h225.3V738.4Zm-215.6-9.8h205.8V429.3H889.6Z" transform="translate(-242.72 -47.3)"></path><rect class="cls-1" x="981.08" y="841.3" width="215.6" height="309.2"></rect><path class="cls-2" d="M1323.1,888.6s2.3,103.1-99.3,183v-183Z" transform="translate(-242.72 -47.3)"></path><path class="cls-2" d="M1344.4,888.6s-2.2,103.1,95,183v-183Z" transform="translate(-242.72 -47.3)"></path><rect class="cls-3" x="1088.88" y="841.3" width="5.4" height="309.2"></rect><rect class="cls-3" x="981.08" y="932.8" width="215.6" height="4.3"></rect><rect class="cls-3" x="981.08" y="1044.9" width="215.6" height="4.3"></rect><path class="cls-3" d="M1444.3,1202.7H1219v-319h225.3Zm-215.6-9.8h205.8V893.5H1228.7Z" transform="translate(-242.72 -47.3)"></path><rect class="cls-1" x="642.08" y="841.3" width="215.6" height="309.2"></rect><path class="cls-2" d="M984,888.6s2.3,103.1-99.3,183v-183Z" transform="translate(-242.72 -47.3)"></path><path class="cls-2" d="M1005.3,888.6s-2.2,103.1,95,183v-183Z" transform="translate(-242.72 -47.3)"></path><rect class="cls-3" x="749.78" y="841.3" width="5.4" height="309.2"></rect><rect class="cls-3" x="642.08" y="932.8" width="215.6" height="4.3"></rect><rect class="cls-3" x="642.08" y="1044.9" width="215.6" height="4.3"></rect><path class="cls-3" d="M1105.2,1202.7H879.9v-319h225.3v319Zm-215.6-9.8h205.8V893.5H889.6Z" transform="translate(-242.72 -47.3)"></path><polygon class="cls-4" points="1321.88 279.9 522.58 279.9 565.18 92.4 1279.28 92.4 1321.88 279.9"></polygon><rect class="cls-5" x="885.98" y="148.1" width="73.3" height="72.6"></rect><path class="cls-6" d="M1125.4,192v79.3h80.1V192Zm73.3,72.6h-66.5V198.7h66.5Z" transform="translate(-242.72 -47.3)"></path><rect class="cls-6" x="919.44" y="148.06" width="6.6" height="72.6"></rect><rect class="cls-6" x="867.28" y="131.1" width="106.1" height="15.2"></rect><rect class="cls-5" x="685.78" y="148.1" width="73.3" height="72.6"></rect><path class="cls-6" d="M925.1,192v79.3h80.1V192Zm73.3,72.6H931.9V198.7h66.5Z" transform="translate(-242.72 -47.3)"></path><rect class="cls-6" x="719.2" y="148.11" width="6.6" height="72.6"></rect><rect class="cls-6" x="666.98" y="131.1" width="106.1" height="15.2"></rect><rect class="cls-7" x="1093.78" y="25" width="93.4" height="184.7"></rect><rect class="cls-6" x="1093.78" y="35.2" width="93.4" height="184.7"></rect><rect class="cls-5" x="1110.68" width="17.4" height="25"></rect><rect class="cls-5" x="1152.98" width="17.4" height="25"></rect><rect class="cls-5" x="1087.88" y="25" width="105.2" height="13.9"></rect><path class="cls-5" d="M789.6,1338.4h757.3v196.5l-757.62,1.54Q789.45,1437.41,789.6,1338.4Z" transform="translate(-242.72 -47.3)"></path><rect class="cls-2" x="537.88" y="739.7" width="764.3" height="32.9"></rect><rect class="cls-2" x="620.38" y="691.9" width="259.5" height="18.7"></rect><rect class="cls-2" x="959.18" y="691.9" width="259.5" height="18.7"></rect><rect class="cls-2" x="961.88" y="1154.5" width="259.5" height="18.7"></rect><rect class="cls-2" x="620.08" y="1154.5" width="259.5" height="18.7"></rect><path class="cls-8" d="M242.72,1540.81H1404.4c-130.83-85.5-235-100.79-306.93-98.33-70.35,2.41-100.79,21.47-196.41,19.2-59.83-1.43-78.19-9.61-220.82-37.66-227.32-44.7-261.93-39.89-292.22-28.55C351.9,1409,293.08,1442.58,242.72,1540.81Z" transform="translate(-242.72 -47.3)"></path><rect class="cls-9" x="392.72" y="1078.94" width="109.79" height="86.6"></rect><rect class="cls-10" x="447.62" y="1078.94" width="109.79" height="86.6"></rect><polygon class="cls-11" points="392.85 1135.56 410.24 1135.56 408.64 1138.89 410.24 1143.58 392.85 1143.58 392.85 1135.56"></polygon><polygon class="cls-12" points="447.62 1097.69 465.01 1097.69 463.53 1101.02 465.01 1105.71 447.62 1105.71 447.62 1097.69"></polygon><polygon class="cls-11" points="447.62 1105.71 430.23 1105.71 431.71 1102.38 430.23 1097.69 447.62 1097.69 447.62 1105.71"></polygon><polygon class="cls-12" points="557.41 1152.59 540.01 1152.59 541.62 1149.25 540.01 1144.57 557.41 1144.57 557.41 1152.59"></polygon><rect class="cls-3" x="518.61" y="1084.84" width="31.58" height="11.72"></rect><path class="cls-12" d="M741.53,1209.88l.37,9.37,5.93,1.11c4.31,2.72,11.84,2.1,18-1.48s4.93-2,9.37-4.44c2.22-1.23,2-2.84,1.11-4.19a6.09,6.09,0,0,0-4.07-2.84c-8.51-1.85-12.21-1.11-15.79,0,.74-1.11,1.11-2.1.86-2.71-.24-.87-6.29,2.83-9,4.44C744.86,1209.63,741.53,1209.88,741.53,1209.88Z" transform="translate(-242.72 -47.3)"></path><path class="cls-12" d="M597.57,1081.46c-.12-.74,27.88,4.81,28.75,4.94h0s.49,4.07,1.85,11.34c.12.74.24,1.61.37,2.35,1.23,6.54-.87,15.91-.87,15.91-16.28,9.75-33.18-3.45-33.18-3.45S601.65,1101.07,597.57,1081.46Z" transform="translate(-242.72 -47.3)"></path><path class="cls-13" d="M626.19,1086.52h0s.5,4.07,1.85,11.35c-13.44-.87-23.8-8.14-27.13-12.09C599.92,1084.54,625.33,1086.4,626.19,1086.52Z" transform="translate(-242.72 -47.3)"></path><path class="cls-12" d="M625.45,1046.55c-3.94-5.06-10.36-10-27.88-1.73s-8.88,18.14-1.48,34.91,35.41,4.94,35.41,4.94C638.53,1081.21,629.28,1051.61,625.45,1046.55Z" transform="translate(-242.72 -47.3)"></path><path class="cls-14" d="M599.55,1080.47a8.65,8.65,0,0,0-1.24-4.93c-1.85-3-4.81-9.75.5-8.88,6.17.86,6.41-1,6.29-3.33s-.37-12,4.56-11.85c7.41.25,13.2-4.56,15.55-12.45a9.26,9.26,0,0,0-6.79-11.48,26.64,26.64,0,0,0-15.66.74c-12.34,4.57-26.77,12.71-29.86,20.36a19.62,19.62,0,0,0,2.35,18.38c16.4,20.6,22.32,17.64,22.69,17.27A4.71,4.71,0,0,0,599.55,1080.47Z" transform="translate(-242.72 -47.3)"></path><path class="cls-15" d="M551.32,1525.8c-6.79-1.36-9.26-9.13-8.89-16.41a79.23,79.23,0,0,0,0-9.5c-.24-4.19-.61-7.4-.61-7.4l-14.31-3.21-1.48,1.85-1.48,1.73s-8.64,7.65-6.91,13.08,9.37,9,10.48,15.66,5.19,10.24,9,10.24h18S557.85,1527.15,551.32,1525.8Z" transform="translate(-242.72 -47.3)"></path><path class="cls-15" d="M673.07,1526c-7.52-1.11-20.6-5.3-23.56-14.55h0c-.12-.25-.12-.62-.25-.87-2.34-9.86-19.12,3-19.12,3a6.56,6.56,0,0,1-.12,1.12c-.37,3.7-1.36,15.41,1.85,16.9.12.12.49.12,1,.24h47.86C680.35,1530.24,678.87,1527,673.07,1526Z" transform="translate(-242.72 -47.3)"></path><path class="cls-10" d="M599.8,1263.66s5.79,104.24,9.62,153.71c.12.74.12,1.6.24,2.34,4.07,48.6,18.26,94.62,18.26,94.62,15.91,3.2,23.93-4.45,23.93-4.45s3.33-32.19,4.2-52.3c.49-11.6,5.42-72.78,9.5-122.62,3-36.64,5.55-67.1,5.55-67.1Z" transform="translate(-242.72 -47.3)"></path><path class="cls-16" d="M599.67,1263.78s5.8,104.24,9.62,153.71c.13.74.13,1.6.25,2.34,0,0,37.75-73,44.53-99.18,9.13-35.77,7.53-54.77,7.53-54.77Z" transform="translate(-242.72 -47.3)"></path><path class="cls-10" d="M586,1251.57s-3.45,28.74-4.07,43.18-14.06,55.88-25.54,69.69c-20.23,24.43-31.82,124.6-31.82,124.6,1.48,4.56,18.87,11.22,18.87,11.22s9.38-14.43,39.72-66.36,78.46-168,78.46-168Z" transform="translate(-242.72 -47.3)"></path><path class="cls-14" d="M653.46,1137.22c-3.46-7.9-10.37-16.78-16.9-22.58l-7.78-6.53c-6,1.6-11.47,3.45-18.25.86-7.4-2.84-11.72-6-13-5.06-9,7.53-17.88,23.69-19.73,43.67a220.65,220.65,0,0,0,.12,35c.37,4.82,1,9.63,1.6,14.44,3.58,25.9,6.42,47.37,6.54,60.57,0,3.82,71.18,6.41,78,6C664.56,1263.54,653.46,1137.22,653.46,1137.22Z" transform="translate(-242.72 -47.3)"></path><path class="cls-10" d="M671.1,1267.73l-86.35-6.17-2.35-34.17h0c11,0,21-6.53,24.8-16.53L634,1141.54l19.49-4.32Z" transform="translate(-242.72 -47.3)"></path><path class="cls-14" d="M743.63,1222s-55.63,3.2-76.11-3.33c-9.13-3-47.62-27.14-66.86-39.48-8.51-5.55-12.83-15.42-10.61-25,1.85-8.14,6.66-16.41,18.26-19.37,13.32-3.33,28.74,14.56,28.74,14.56s40.34,43.3,45.15,44.9S744.37,1208,744.37,1208s3,1,2.35,6.41A17,17,0,0,1,743.63,1222Z" transform="translate(-242.72 -47.3)"></path><path class="cls-16" d="M634.09,1141.54l8.14-1.11s-16.65-16.66-22.7-21.84c-5.06-4.32-20-15-22-14.68l-2.71,2.59s14.43,11,19,15C619.29,1126.24,634.09,1141.54,634.09,1141.54Z" transform="translate(-242.72 -47.3)"></path><rect class="cls-16" x="539.39" y="1390.41" width="116.8" height="96.3"></rect><rect class="cls-10" x="480.99" y="1390.41" width="116.8" height="96.3"></rect><polygon class="cls-17" points="656.09 1465.31 637.59 1465.31 639.19 1460.11 637.59 1456.31 656.09 1456.31 656.09 1465.31"></polygon><polygon class="cls-12" points="597.79 1423.21 579.29 1423.21 580.89 1418.01 579.29 1414.31 597.79 1414.31 597.79 1423.21"></polygon><polygon class="cls-17" points="597.79 1414.31 616.29 1414.31 614.69 1419.51 616.29 1418.21 597.79 1423.21 597.79 1414.31"></polygon><polygon class="cls-12" points="480.99 1466.31 499.49 1466.31 497.89 1471.51 499.49 1475.21 480.99 1475.21 480.99 1466.31"></polygon><rect class="cls-3" x="488.63" y="1399.95" width="33.6" height="13.1"></rect><rect class="cls-18" x="638.6" y="1362.94" width="150.6" height="124.2"></rect><rect class="cls-19" x="713.9" y="1362.94" width="150.6" height="124.2"></rect><polygon class="cls-14" points="638.73 1455.63 662.53 1455.63 660.43 1448.93 662.53 1444.13 638.73 1444.13 638.73 1455.63"></polygon><polygon class="cls-20" points="713.93 1401.33 737.73 1401.33 735.63 1394.63 737.73 1389.83 713.93 1389.83 713.93 1401.33"></polygon><polygon class="cls-14" points="713.93 1389.83 690.03 1389.83 692.13 1396.63 690.03 1401.33 713.93 1401.33 713.93 1389.83"></polygon><polygon class="cls-20" points="864.53 1456.93 840.63 1456.93 842.73 1463.73 840.63 1468.43 864.53 1468.43 864.53 1456.93"></polygon><rect class="cls-3" x="811.33" y="1371.33" width="43.3" height="16.9"></rect><path class="cls-21" d="M833.16,1367.64c-.6,2.5-2,6.4-3.6,11.1-.6,1.6-1.2,3.3-1.8,5-1.4,3.7-2.7,7.6-4.4,11.6-2.5,6.4-5,12.9-7.1,18.1-2.7,7.2-4.9,12.3-4.9,12.3l3.1,7.4-25.9-5.9,5.9-5.5s.3-5.5.8-13.2c.4-5.7.9-12.7,1.4-19.6.3-4.2.7-8.4,1-12.2.3-3.2.6-6.3.9-8.9.4-3.4.8-6.1,1.1-8a15.21,15.21,0,0,1,1.9-5c4.5-7.4,14.3-8.9,15.2-12.7.1-.7.2-1.4.3-2q.45-9,0-18l17,3.8a157.57,157.57,0,0,0-7.8,16,14.16,14.16,0,0,0-.7,2.2c-.8,3.8,7.4,9.4,8.2,18A16.32,16.32,0,0,1,833.16,1367.64Z" transform="translate(-242.72 -47.3)"></path><path class="cls-3" d="M1194.79,1370c-.6,2.5-2,6.4-3.6,11.1-.6,1.6-1.2,3.3-1.8,5-.2,0-9.1,1.8-30-6.9h0c.3-3.2.6-6.3.9-8.9.4-3.4.8-6.1,1.1-8a15.21,15.21,0,0,1,1.9-5,75.74,75.74,0,0,0,32.1,7.3A16,16,0,0,1,1194.79,1370Z" transform="translate(-242.72 -47.3)"></path><path class="cls-21" d="M1190.19,1383.92s-1.2-1-3.4-2.7c-1.1-.9-1.9-.4-3,0a5.63,5.63,0,0,1-3.8.8,5.07,5.07,0,0,1-3-1.7,4.17,4.17,0,0,0-4.3-1.5,6.55,6.55,0,0,1-6.7-2.1l-1.1-1a4.39,4.39,0,0,0-5.1-.6l-.2-.19a4.83,4.83,0,0,1,5.5.6l1.1,1a6.19,6.19,0,0,0,6.4,2.09,4.52,4.52,0,0,1,4.6,1.6,5.85,5.85,0,0,0,2.7,1.7,5.35,5.35,0,0,0,3.7-.8c1.1-.6,2.1-1.1,3.3,0l3.4,2.7Z" transform="translate(-242.72 -47.3)"></path><path class="cls-21" d="M1190.59,1382.22l-3.4-2.7c-1.1-.9-1.9-.4-3,0a5.9,5.9,0,0,1-3.9.8,5.07,5.07,0,0,1-3-1.7,4.49,4.49,0,0,0-4.4-1.59,6.22,6.22,0,0,1-6.6-2.1l-1.1-1a4.21,4.21,0,0,0-5.1-.5l-.2-.31a4.85,4.85,0,0,1,5.5.6c.4.4.8.7,1.1,1a6.19,6.19,0,0,0,6.4,2.1,4.52,4.52,0,0,1,4.6,1.6,5.21,5.21,0,0,0,2.7,1.7,5.35,5.35,0,0,0,3.7-.8c1.1-.6,2.1-1.1,3.3,0,2.2,1.8,3.4,2.7,3.4,2.7Z" transform="translate(-242.72 -47.3)"></path><path class="cls-21" d="M1169,1374a1.08,1.08,0,1,1,.8,1.3A1.11,1.11,0,0,1,1169,1374Z" transform="translate(-242.72 -47.3)"></path><path class="cls-21" d="M1179.89,1376.52a1.08,1.08,0,1,1,.8,1.3A1.21,1.21,0,0,1,1179.89,1376.52Z" transform="translate(-242.72 -47.3)"></path><path class="cls-21" d="M1173.59,1381a1.07,1.07,0,0,1,1.3-.8h0a1,1,0,0,1,.8,1.2v.1a1.07,1.07,0,0,1-1.3.8h0A1,1,0,0,1,1173.59,1381Z" transform="translate(-242.72 -47.3)"></path><path class="cls-21" d="M1184.19,1383.42a1.06,1.06,0,1,1,2.1.3v.1a1.07,1.07,0,0,1-1.3.8.88.88,0,0,1-.8-1.2Z" transform="translate(-242.72 -47.3)"></path><path class="cls-21" d="M1161.59,1377.22a1.08,1.08,0,1,1,.8,1.3A1.15,1.15,0,0,1,1161.59,1377.22Z" transform="translate(-242.72 -47.3)"></path><path class="cls-21" d="M1188.79,1378.52a1.08,1.08,0,1,1,.8,1.3,1,1,0,0,1-.8-1.3Z" transform="translate(-242.72 -47.3)"></path><path class="cls-21" d="M1193.29,1373.62l-3.5-2.7c-1.1-.9-2-.5-3.2,0a6.19,6.19,0,0,1-4,.8,5.41,5.41,0,0,1-3.1-1.8,5,5,0,0,0-4.6-1.6,6.84,6.84,0,0,1-7-2.2l-1.1-1a4.83,4.83,0,0,0-5.5-.59v-.2a5,5,0,0,1,5.7.7l1.1,1a6.85,6.85,0,0,0,6.7,2.19,5.1,5.1,0,0,1,4.9,1.7,5.07,5.07,0,0,0,3,1.7,5.63,5.63,0,0,0,3.8-.8c1.2-.6,2.2-1.1,3.5,0l3.5,2.7Z" transform="translate(-242.72 -47.3)"></path><path class="cls-21" d="M1193.79,1371.92s-1.3-1-3.6-2.7c-1.1-.9-2-.5-3.2,0a6.19,6.19,0,0,1-4,.8,5.46,5.46,0,0,1-3.1-1.8,5,5,0,0,0-4.6-1.6,6.84,6.84,0,0,1-7-2.2l-1.1-1a4.83,4.83,0,0,0-5.5-.6l-.2-.2a5,5,0,0,1,5.7.7l1.2,1a6.88,6.88,0,0,0,6.7,2.2,4.91,4.91,0,0,1,4.8,1.7,5.07,5.07,0,0,0,3,1.7,6,6,0,0,0,3.9-.8c1.2-.6,2.2-1.1,3.5,0l3.5,2.7Z" transform="translate(-242.72 -47.3)"></path><path class="cls-21" d="M1171,1363.52a1.08,1.08,0,1,1,2.1.5,1.07,1.07,0,0,1-1.3.8h0A1.15,1.15,0,0,1,1171,1363.52Z" transform="translate(-242.72 -47.3)"></path><path class="cls-21" d="M1182.39,1366.12a1,1,0,0,1,1.3-.8,1,1,0,0,1,.8,1.3,1.17,1.17,0,0,1-1.3.8A1.15,1.15,0,0,1,1182.39,1366.12Z" transform="translate(-242.72 -47.3)"></path><path class="cls-21" d="M1175.89,1370.62a1.07,1.07,0,0,1,1.3-.8h0a1,1,0,0,1,.8,1.3,1.08,1.08,0,1,1-2.1-.5Z" transform="translate(-242.72 -47.3)"></path><path class="cls-21" d="M1187,1373.12a1.17,1.17,0,0,1,1.3-.8,1,1,0,0,1,.8,1.3,1.07,1.07,0,0,1-1.3.8h0a1.15,1.15,0,0,1-.8-1.3Z" transform="translate(-242.72 -47.3)"></path><path class="cls-21" d="M1163.29,1366.62a1.17,1.17,0,0,1,1.3-.8,1,1,0,0,1,.8,1.3,1.07,1.07,0,0,1-1.3.8h0A1.15,1.15,0,0,1,1163.29,1366.62Z" transform="translate(-242.72 -47.3)"></path><path class="cls-21" d="M1191.79,1368.22a1.07,1.07,0,0,1,1.3-.8,1.13,1.13,0,0,1,.9,1.3h0a1,1,0,0,1-1.3.8A1.13,1.13,0,0,1,1191.79,1368.22Z" transform="translate(-242.72 -47.3)"></path><path class="cls-22" d="M870.59,1375.35l-26.24-4.17,5.52-5.88a44.84,44.84,0,0,0,17.22,2.77Z" transform="translate(-242.72 -47.3)"></path><path class="cls-14" d="M801.49,1373.54v-14.2s9.5-7.8,19.8-6.1,24.7-1.1,29.3,6.1a42.31,42.31,0,0,1,5.5,13.6l-3,1.3Z" transform="translate(-242.72 -47.3)"></path><path class="cls-16" d="M782.11,1373.06s11.9-6.9,19.9-4.6,6.2,4.2,6.2,4.2S782.21,1372.56,782.11,1373.06Z" transform="translate(-242.72 -47.3)"></path><path class="cls-18" d="M1174.63,1446.35h66.9a4.65,4.65,0,0,0,4.6-4.1l5.5-61.6a4.66,4.66,0,0,0-4.2-5h-78.2a4.65,4.65,0,0,0-4.6,4.6v.4l5.5,61.6A4.33,4.33,0,0,0,1174.63,1446.35Z" transform="translate(-242.72 -47.3)"></path><path class="cls-19" d="M782.16,1443.74h66.9a4.65,4.65,0,0,0,4.6-4.2l5.5-61.6a4.67,4.67,0,0,0-4.2-5h-78.1a4.65,4.65,0,0,0-4.6,4.6v.3l5.5,61.6A4.17,4.17,0,0,0,782.16,1443.74Z" transform="translate(-242.72 -47.3)"></path><path class="cls-14" d="M1162.1,1385.44h20.7a2.69,2.69,0,0,0,2.7-2.7h0a2.68,2.68,0,0,0-2.7-2.69h-20.7a2.68,2.68,0,0,0-2.7,2.69h0A2.69,2.69,0,0,0,1162.1,1385.44Z" transform="translate(-242.72 -47.3)"></path><path class="cls-23" d="M1497.47,1353.51l10.1-19.1q.45-5.25.9-10.2c.5-5.8.8-11.6,1.1-17.5l-12.1,16.6,12.9-40c.1-12.6-.2-25.3-1.2-37.9l-15.2,24.1,13.6-41.2c-.5-4.6-1.2-9.3-1.9-13.9-1.4-9.3-3.3-18.7-6.9-27.4l-7.7,12.5,3.2-21.5c-.8-1.3-1.6-2.6-2.5-3.8a37.11,37.11,0,0,0-4.9-5.6l-11.9,39.3,2.7-46.1c-7.1-3.9-15.2-5.6-23.1-3.7a32.35,32.35,0,0,0-15.7,9.7l5,18.3-9.4-12.4a39.72,39.72,0,0,0-2,3.5,58.8,58.8,0,0,0-5.5,18.9l23.7,46.5-24.3-23.8a203.43,203.43,0,0,0,5.8,37l23.4,22.2-20.6-11.6c.7,2.5,1.4,5,2.2,7.5l33.7,31.7-29.9-19.3c.4,1.4.9,2.8,1.3,4.1,3.5,10.8,7.2,21.7,11.6,32.3l22.8,11.7-18.6-2.4a127.84,127.84,0,0,0,19.6,30.3c6.8,7.7,17,18.2,22.9,4.5a84.62,84.62,0,0,0,5.6-21.3Z" transform="translate(-242.72 -47.3)"></path><path class="cls-24" d="M1505.47,1348.11l-11.2-21.2c-.4-3.8-.6-7.6-.9-11.3-.5-6.4-.9-12.9-1.3-19.3l13.4,18.4-14.2-44.3c-.1-14,.3-28,1.3-41.9l16.8,26.7-15-45.6c.6-5.1,1.3-10.2,2.1-15.4,1.6-10.3,3.7-20.7,7.6-30.4l8.5,13.8-3.5-23.9c.9-1.4,1.8-2.8,2.8-4.2a53.32,53.32,0,0,1,5.4-6.2l13.2,43.5-3-51.1c7.9-4.4,16.9-6.2,25.6-4.1a35.71,35.71,0,0,1,17.3,10.7l-5.5,20.2,10.4-13.8c.8,1.3,1.5,2.5,2.2,3.8a65.42,65.42,0,0,1,6.1,20.9l-26.2,51.5,27-26.4a227.49,227.49,0,0,1-6.4,40.9l-25.9,24.6,22.8-12.9c-.8,2.8-1.6,5.5-2.4,8.3l-37.4,35.1,33.1-21.4c-.5,1.5-1,3.1-1.5,4.6-3.8,11.9-7.9,24.1-12.9,35.8l-25.2,13,20.6-2.7a146.78,146.78,0,0,1-21.7,33.5c-7.6,8.6-18.9,20.1-25.4,5-3.2-7.4-5-15.4-6.3-23.6Z" transform="translate(-242.72 -47.3)"></path><path class="cls-25" d="M1534.87,1198.81a1349,1349,0,0,0-28.5,251.8" transform="translate(-242.72 -47.3)"></path><path class="cls-25" d="M1470.87,1218.81a1224.44,1224.44,0,0,1,25.8,227.4" transform="translate(-242.72 -47.3)"></path><polygon class="cls-26" points="1209.55 1383.21 1309.35 1383.21 1301.05 1483.01 1217.95 1483.01 1209.55 1383.21"></polygon><path class="cls-27" d="M1543.77,1530.31h-83.1l-6.6-78.8a29.3,29.3,0,0,0,3.2,6.4c10.6,15.2,27.5,25.8,45.2,31,14.4,4.2,29.3,5.5,44.4,5.4Z" transform="translate(-242.72 -47.3)"></path><path class="cls-28" d="M1228.09,1213.72s10.7-12.6.7-20.6c0,0-7.3-4.5-13.3-4.1,0,0,8.5,14.4,5.7,15.8s-8.3-16.7-8.3-16.7-16.6-1.6-22,1c0,0,14.2,11.8,11.2,12.5s-18.4-10.9-18.4-10.9-15.5,2.7-14.7,12.2,6.2,12.5,8.5,12.3,16.1-5.6,16.4-3.6-8,8.3-13.7,8.6c0,0,10.9,12.2,18.2,8.7s7.9-9.1,12.4-11.2,8.4-2.1,6.5,0-10.1,4.2-12.6,8.8-4.9,7.8,2.6,6.6,19.7-6.7,20.3-13.1Z" transform="translate(-242.72 -47.3)"></path><path class="cls-28" d="M1176.69,1203.22s42.1-1.6,51.4,10.5a31.6,31.6,0,0,0,8.4,11.9l1,2.7s-7.3-7.8-9.9-8.3C1227.59,1220.12,1231.69,1205,1176.69,1203.22Z" transform="translate(-242.72 -47.3)"></path><path class="cls-28" d="M1236.49,1225.72a27.23,27.23,0,0,1,9.7,18.9l-1.6.1s-2.9-12.5-8.1-17.4S1236.49,1225.72,1236.49,1225.72Z" transform="translate(-242.72 -47.3)"></path><path class="cls-24" d="M1265.39,1197.92s-17-9.6-9.1-22.7c0,0,6.3-8,13.1-10.1,0,0-3.6,19.5,0,19.9s2.5-22,2.5-22,17.9-8.7,24.9-8c0,0-11.1,19-7.5,18.6s16.1-19.7,16.1-19.7,18.3-3.4,21.3,7.6-1.8,16.5-4.5,17.2-20.1.5-19.7,2.8,12.2,6,18.8,3.9c0,0-7.2,18.1-16.8,17.2s-12.5-6.9-18.3-7.3-10.2,1.1-7.2,2.8,12.9.5,17.7,4.6,8.6,6.6-.2,8.4-24.7.7-27.8-6.2Z" transform="translate(-242.72 -47.3)"></path><path class="cls-28" d="M1318.39,1164.92s-47.5,15.6-53,33a37.33,37.33,0,0,1-4.5,16.7v3.4s5-11.7,7.7-13.3C1268.59,1204.82,1258,1189.62,1318.39,1164.92Z" transform="translate(-242.72 -47.3)"></path><path class="cls-28" d="M1260.89,1214.62s-7.3,11.3-3.2,25l1.9-.5s-1.8-15.1,2-22.7S1260.89,1214.62,1260.89,1214.62Z" transform="translate(-242.72 -47.3)"></path><path class="cls-24" d="M1238.39,1184.62s22.4-12.7,11.9-29.9c0,0-8.4-10.6-17.3-13.3,0,0,4.8,25.7,0,26.3s-3.3-29-3.3-29-23.6-11.5-32.8-10.6c0,0,14.6,25.1,9.8,24.5s-21.2-26-21.2-26-24.2-4.5-28,10,2.4,21.8,6,22.7,26.6.6,26,3.6-16.1,7.9-24.8,5.1c0,0,9.5,23.9,22.1,22.7s16.4-9.1,24.2-9.7,13.4,1.5,9.5,3.6-17,.7-23.3,6.1-11.3,8.7.3,11.1,32.5.9,36.7-8.2Z" transform="translate(-242.72 -47.3)"></path><path class="cls-28" d="M1168.59,1141.12s62.7,20.6,69.8,43.5a48.64,48.64,0,0,0,6,22.1v4.5s-6.6-15.4-10.1-17.5C1234.19,1193.72,1248.29,1173.72,1168.59,1141.12Z" transform="translate(-242.72 -47.3)"></path><path class="cls-28" d="M1244.39,1206.72s9.7,14.9,4.2,33l-2.5-.7s2.4-19.9-2.6-30S1244.39,1206.72,1244.39,1206.72Z" transform="translate(-242.72 -47.3)"></path><path class="cls-29" d="M1239.19,1278.92c-24.2,0-43.8-19.9-43.8-44.4h87.7C1283,1259,1263.39,1278.92,1239.19,1278.92Z" transform="translate(-242.72 -47.3)"></path><path class="cls-29" d="M1194.69,1281.12h88.9v-1.2a4.27,4.27,0,0,0-4.3-4.3H1199a4.27,4.27,0,0,0-4.3,4.3v1.2Z" transform="translate(-242.72 -47.3)"></path><rect class="cls-29" x="951.67" y="1187.09" width="90.1" height="1.4"></rect><rect class="cls-30" x="862.3" y="1326.22" width="190.6" height="159.2"></rect><rect class="cls-31" x="957.58" y="1326.22" width="190.6" height="159.2"></rect><polygon class="cls-14" points="862.37 1445.02 892.57 1445.02 889.97 1436.41 892.57 1430.32 862.37 1430.32 862.37 1445.02"></polygon><polygon class="cls-20" points="957.57 1375.52 987.77 1375.52 985.17 1366.91 987.77 1360.71 957.57 1360.71 957.57 1375.52"></polygon><polygon class="cls-14" points="957.57 1360.71 927.37 1360.71 930.07 1369.32 927.37 1375.52 957.57 1375.52 957.57 1360.71"></polygon><polygon class="cls-20" points="1148.17 1446.71 1117.97 1446.71 1120.67 1455.32 1117.97 1461.52 1148.17 1461.52 1148.17 1446.71"></polygon><rect class="cls-3" x="1080.87" y="1337.02" width="54.8" height="21.6"></rect><rect class="cls-16" x="965.77" y="1233.92" width="110.4" height="92.2"></rect><rect class="cls-10" x="910.57" y="1233.92" width="110.4" height="92.2"></rect><polygon class="cls-17" points="1076.17 1302.71 1058.67 1302.71 1060.17 1297.82 1058.67 1294.21 1076.17 1294.21 1076.17 1302.71"></polygon><polygon class="cls-12" points="1020.97 1262.41 1003.47 1262.41 1005.07 1257.52 1003.47 1253.91 1020.97 1253.91 1020.97 1262.41"></polygon><polygon class="cls-17" points="1020.97 1253.91 1038.47 1253.91 1036.97 1258.91 1038.47 1262.41 1020.97 1262.41 1020.97 1253.91"></polygon><polygon class="cls-12" points="910.57 1303.71 928.07 1303.71 926.47 1308.71 928.07 1312.32 910.57 1312.32 910.57 1303.71"></polygon><rect class="cls-16" x="1063.87" y="1375.52" width="131.6" height="109.9"></rect><rect class="cls-10" x="998.07" y="1375.52" width="131.6" height="109.9"></rect><polygon class="cls-17" points="1195.37 1457.52 1174.47 1457.52 1176.37 1451.62 1174.47 1447.32 1195.37 1447.32 1195.37 1457.52"></polygon><polygon class="cls-12" points="1129.67 1409.52 1108.77 1409.52 1110.57 1403.52 1108.77 1399.32 1129.67 1399.32 1129.67 1409.52"></polygon><polygon class="cls-17" points="1129.67 1399.32 1150.47 1399.32 1148.67 1405.21 1150.47 1409.52 1129.67 1409.52 1129.67 1399.32"></polygon><polygon class="cls-12" points="998.07 1458.71 1018.87 1458.71 1017.07 1464.62 1018.87 1468.91 998.07 1468.91 998.07 1458.71"></polygon><path class="cls-21" d="M1395.89,1321.42c-.8,3.3-2.6,8.5-4.8,14.9-.8,2.1-1.6,4.4-2.4,6.7-1.8,4.9-3.8,10.3-5.8,15.6-3.3,8.6-6.7,17.2-9.4,24.3-3.8,9.7-6.6,16.5-6.6,16.5l4.1,10-34.4-7.9,7.9-7.2s.4-7.3,1.1-17.6c.5-7.7,1.2-17,1.9-26.3.4-5.6.9-11.2,1.4-16.4.4-4.3.8-8.4,1.2-12,.5-4.5,1-8.2,1.5-10.7a20.63,20.63,0,0,1,2.5-6.6c6-9.9,19-11.9,20.1-17a15.62,15.62,0,0,0,.4-2.7c.7-8-.2-24.1-.2-24.1l22.5,5.2s-7.5,13.9-10.3,21.4a29.9,29.9,0,0,0-.9,2.9c-1.1,5.1,9.8,12.6,10.9,24.1A21.83,21.83,0,0,1,1395.89,1321.42Z" transform="translate(-242.72 -47.3)"></path><path class="cls-3" d="M1395.89,1321.42c-.8,3.3-2.6,8.5-4.8,14.9-.8,2.1-1.6,4.4-2.4,6.7-.2,0-12,2.5-40-9.2h0c.4-4.3.8-8.4,1.2-12,.5-4.5,1-8.2,1.5-10.7a20.63,20.63,0,0,1,2.5-6.6s20.3,10.4,42.6,9.8A19.72,19.72,0,0,1,1395.89,1321.42Z" transform="translate(-242.72 -47.3)"></path><path class="cls-21" d="M1389.79,1339.92s-1.6-1.3-4.5-3.7c-1.4-1.2-2.5-.6-4,.1a7.48,7.48,0,0,1-5.1,1.1,7.1,7.1,0,0,1-4-2.3c-1.2-1.3-2.4-2.5-5.8-2-5.2.6-6.5-.6-8.8-2.9l-1.4-1.4a6,6,0,0,0-6.8-.8l-.2-.3a6.17,6.17,0,0,1,7.2.8,19.2,19.2,0,0,0,1.5,1.4c2.2,2.2,3.5,3.4,8.5,2.8,3.6-.4,4.9.9,6.1,2.2a6.47,6.47,0,0,0,3.7,2.2,6.93,6.93,0,0,0,4.9-1.1c1.5-.8,2.8-1.4,4.4-.1,2.8,2.4,4.4,3.6,4.5,3.7Z" transform="translate(-242.72 -47.3)"></path><path class="cls-21" d="M1390.29,1337.62s-1.6-1.3-4.5-3.7c-1.4-1.2-2.5-.6-4,.1a7.48,7.48,0,0,1-5.1,1.1,7.1,7.1,0,0,1-4-2.3c-1.2-1.3-2.4-2.5-5.8-2-5.2.6-6.5-.6-8.8-2.9l-1.4-1.4a6,6,0,0,0-6.8-.8l-.2-.3a6.17,6.17,0,0,1,7.2.8,19.2,19.2,0,0,0,1.5,1.4c2.2,2.2,3.5,3.4,8.5,2.8,3.6-.4,4.9.9,6.1,2.2a6.47,6.47,0,0,0,3.7,2.2,6.93,6.93,0,0,0,4.9-1.1c1.5-.8,2.8-1.4,4.4-.1,2.8,2.4,4.4,3.6,4.5,3.7Z" transform="translate(-242.72 -47.3)"></path><path class="cls-21" d="M1361.59,1326.72a1.39,1.39,0,0,1,1.7-1.1,1.47,1.47,0,0,1,1.1,1.7,1.39,1.39,0,0,1-1.7,1.1A1.52,1.52,0,0,1,1361.59,1326.72Z" transform="translate(-242.72 -47.3)"></path><path class="cls-21" d="M1376.19,1330a1.39,1.39,0,0,1,1.7-1.1,1.47,1.47,0,0,1,1.1,1.7,1.39,1.39,0,0,1-1.7,1.1A1.35,1.35,0,0,1,1376.19,1330Z" transform="translate(-242.72 -47.3)"></path><path class="cls-21" d="M1367.69,1336.12a1.39,1.39,0,0,1,1.7-1.1,1.47,1.47,0,0,1,1.1,1.7,1.39,1.39,0,0,1-1.7,1.1A1.44,1.44,0,0,1,1367.69,1336.12Z" transform="translate(-242.72 -47.3)"></path><path class="cls-21" d="M1381.69,1339.32a1.39,1.39,0,0,1,1.7-1.1,1.47,1.47,0,0,1,1.1,1.7,1.39,1.39,0,0,1-1.7,1.1A1.47,1.47,0,0,1,1381.69,1339.32Z" transform="translate(-242.72 -47.3)"></path><path class="cls-21" d="M1351.89,1330.92a1.39,1.39,0,0,1,1.7-1.1,1.47,1.47,0,0,1,1.1,1.7,1.39,1.39,0,0,1-1.7,1.1A1.35,1.35,0,0,1,1351.89,1330.92Z" transform="translate(-242.72 -47.3)"></path><path class="cls-21" d="M1387.89,1332.72a1.39,1.39,0,0,1,1.7-1.1,1.47,1.47,0,0,1,1.1,1.7,1.43,1.43,0,1,1-2.8-.6Z" transform="translate(-242.72 -47.3)"></path><path class="cls-21" d="M1394,1326.22s-1.7-1.3-4.7-3.7c-1.5-1.2-2.7-.6-4.2.1a8.08,8.08,0,0,1-5.4,1.1,7.8,7.8,0,0,1-4.2-2.4c-1.3-1.3-2.5-2.5-6.1-2.1-5.4.6-6.8-.7-9.3-3a19.2,19.2,0,0,1-1.5-1.4,6,6,0,0,0-7.1-.8l-.2-.3a6.69,6.69,0,0,1,7.6.9c.6.5,1.1,1,1.5,1.4,2.4,2.2,3.7,3.4,8.9,2.9,3.7-.4,5.1.9,6.4,2.2a7.72,7.72,0,0,0,4,2.3,8.09,8.09,0,0,0,5.1-1c1.6-.8,2.9-1.4,4.6,0,3,2.4,4.7,3.7,4.7,3.7Z" transform="translate(-242.72 -47.3)"></path><path class="cls-21" d="M1394.49,1323.92s-1.7-1.3-4.7-3.7c-1.5-1.2-2.7-.6-4.2.1a8.08,8.08,0,0,1-5.4,1.1,7.44,7.44,0,0,1-4.2-2.4c-1.3-1.3-2.6-2.5-6.1-2.1-5.4.6-6.8-.7-9.3-3a19.2,19.2,0,0,1-1.5-1.4,6,6,0,0,0-7.1-.8l-.2-.3a6.69,6.69,0,0,1,7.6.9c.6.5,1.1,1,1.5,1.4,2.4,2.2,3.7,3.4,8.9,2.9,3.7-.4,5.1.9,6.4,2.2a7.72,7.72,0,0,0,4,2.3,8.09,8.09,0,0,0,5.1-1c1.6-.8,2.9-1.4,4.6,0,3,2.4,4.7,3.7,4.7,3.7Z" transform="translate(-242.72 -47.3)"></path><path class="cls-21" d="M1364.29,1312.62a1.57,1.57,0,0,1,1.8-1.1,1.44,1.44,0,0,1,1.1,1.7,1.57,1.57,0,0,1-1.8,1.1A1.44,1.44,0,0,1,1364.29,1312.62Z" transform="translate(-242.72 -47.3)"></path><path class="cls-21" d="M1379.59,1316.12a1.57,1.57,0,0,1,1.8-1.1,1.44,1.44,0,0,1,1.1,1.7,1.57,1.57,0,0,1-1.8,1.1A1.44,1.44,0,0,1,1379.59,1316.12Z" transform="translate(-242.72 -47.3)"></path><path class="cls-21" d="M1370.69,1322a1.57,1.57,0,0,1,1.8-1.1,1.44,1.44,0,0,1,1.1,1.7,1.57,1.57,0,0,1-1.8,1.1A1.49,1.49,0,0,1,1370.69,1322Z" transform="translate(-242.72 -47.3)"></path><path class="cls-21" d="M1385.49,1325.42a1.57,1.57,0,0,1,1.8-1.1,1.44,1.44,0,0,1,1.1,1.7,1.57,1.57,0,0,1-1.8,1.1A1.49,1.49,0,0,1,1385.49,1325.42Z" transform="translate(-242.72 -47.3)"></path><path class="cls-21" d="M1354.09,1316.72a1.57,1.57,0,0,1,1.8-1.1,1.44,1.44,0,0,1,1.1,1.7,1.57,1.57,0,0,1-1.8,1.1A1.42,1.42,0,0,1,1354.09,1316.72Z" transform="translate(-242.72 -47.3)"></path><path class="cls-21" d="M1391.89,1318.92a1.57,1.57,0,0,1,1.8-1.1,1.44,1.44,0,0,1,1.1,1.7,1.57,1.57,0,0,1-1.8,1.1A1.35,1.35,0,0,1,1391.89,1318.92Z" transform="translate(-242.72 -47.3)"></path><path class="cls-22" d="M1370.89,1409.32l-34.4-7.9,7.9-7.2a60.53,60.53,0,0,0,22.5,5.2Z" transform="translate(-242.72 -47.3)"></path><path class="cls-14" d="M1280.09,1347.42v-19.1s12.6-10.4,26.3-8.1,32.8-1.4,38.8,8.1a53.93,53.93,0,0,1,7.4,18.2l-4,1.7Z" transform="translate(-242.72 -47.3)"></path><path class="cls-16" d="M1399.59,1328.52s15.8-9.3,26.5-6.2,8.2,5.7,8.2,5.7S1399.79,1327.92,1399.59,1328.52Z" transform="translate(-242.72 -47.3)"></path><path class="cls-18" d="M1338.09,1422.82h88.8a6,6,0,0,0,6-5.6l7.3-82.5a6.13,6.13,0,0,0-6-6.7h-103.3a6,6,0,0,0-6,6.7l7.3,82.5A5.92,5.92,0,0,0,1338.09,1422.82Z" transform="translate(-242.72 -47.3)"></path><path class="cls-19" d="M1285.59,1422.82h88.8a6,6,0,0,0,6-5.6l7.3-82.5a6.13,6.13,0,0,0-6-6.7h-103.4a6,6,0,0,0-6,6.7l7.3,82.5A5.94,5.94,0,0,0,1285.59,1422.82Z" transform="translate(-242.72 -47.3)"></path><path class="cls-14" d="M1313.59,1344.32h29a2.9,2.9,0,0,0,2.9-2.9v-1.7a2.9,2.9,0,0,0-2.9-2.9h-29a2.9,2.9,0,0,0-2.9,2.9v1.7A2.9,2.9,0,0,0,1313.59,1344.32Z" transform="translate(-242.72 -47.3)"></path><rect class="cls-32" x="2013.87" y="1302.75" width="104.42" height="244.15" transform="translate(351.88 3410.64) rotate(-88.7)"></rect><path class="cls-32" d="M2169.07,1440l-23.34-.53c-7.52-.17-14,19.65-14.52,44.06s5,44.5,12.5,44.67l23.34.53c7.52.17,14-19.65,14.52-44.06S2176.59,1440.19,2169.07,1440Z" transform="translate(-242.72 -47.3)"></path><path class="cls-33" d="M2175.16,1484.29c-.41,18-4.88,32.3-10.1,32.18s-9-14.8-8.63-32.61,4.88-32.29,10.1-32.17C2171.76,1451.65,2175.57,1466.33,2175.16,1484.29Z" transform="translate(-242.72 -47.3)"></path><path class="cls-34" d="M2176.16,1238.1l-108.4-82.95-7.31,321.46,84.43,1.92.72-31.62a17.45,17.45,0,0,1,20.81-16.73h.3a20.91,20.91,0,0,1,16.88,21l-.64,28.25,12.59.29,3.08-135.4a24.14,24.14,0,0,0-.23-3.39l-12.32-86.14A26.94,26.94,0,0,0,2176.16,1238.1Z" transform="translate(-242.72 -47.3)"></path><path class="cls-35" d="M2207.25,1343l-2.3,0a7.55,7.55,0,0,1-7.35-7.7l.49-21.64a7.53,7.53,0,0,1,7.7-7.35l2.3,0a7.54,7.54,0,0,1,7.35,7.69l-.49,21.65A7.55,7.55,0,0,1,2207.25,1343Z" transform="translate(-242.72 -47.3)"></path><path class="cls-3" d="M2205.26,1342.9l-2.31-.05a7.54,7.54,0,0,1-7.35-7.69l.5-21.65a7.53,7.53,0,0,1,7.69-7.35l2.3,0a7.53,7.53,0,0,1,7.35,7.7l-.49,21.64A7.53,7.53,0,0,1,2205.26,1342.9Z" transform="translate(-242.72 -47.3)"></path><path class="cls-32" d="M2151.66,1241.39l-2.81,83a3,3,0,0,0,2.54,3.13l35.17,6.63a3,3,0,0,0,3.61-3.45l-10.71-75.66a3,3,0,0,0-1.34-2.18l-21.64-14.16A3.31,3.31,0,0,0,2151.66,1241.39Z" transform="translate(-242.72 -47.3)"></path><path class="cls-36" d="M2163.89,1345l-9.33-1.44a2.82,2.82,0,0,1-2.4-2.82l.05-2.15,13.62,2-.06,2.77A1.84,1.84,0,0,1,2163.89,1345Z" transform="translate(-242.72 -47.3)"></path><path class="cls-32" d="M2188,1459.7l-2,0c1.68-26.69-10.83-30.2-10.83-30.35l-32-5,4.52-198.8,2,0-4.49,197.11,30.46,4.69C2176.15,1427.48,2189.72,1431.48,2188,1459.7Z" transform="translate(-242.72 -47.3)"></path><path class="cls-32" d="M1700.56,1389.63l-37.92-.87c-12.12-.27-22.53,31.74-23.43,71.5s8.18,72.23,20.16,72.5l37.91.86c12.13.28,22.54-31.74,23.44-71.5C1721.78,1422.36,1712.69,1389.9,1700.56,1389.63Z" transform="translate(-242.72 -47.3)"></path><path class="cls-33" d="M1709.41,1466.62c-.6,26.41-5.24,47.81-10.46,47.69s-8.87-21.71-8.27-48.11,5.23-47.8,10.45-47.69S1710,1440.07,1709.41,1466.62Z" transform="translate(-242.72 -47.3)"></path><path class="cls-32" d="M1943.24,1389.27l-37.92-.87c-12.12-.27-22.53,31.75-23.43,71.51s8.18,72.22,20.16,72.49l37.91.86c12.13.28,22.54-31.74,23.44-71.5S1955.22,1389.54,1943.24,1389.27Z" transform="translate(-242.72 -47.3)"></path><ellipse class="cls-33" cx="1942.59" cy="1471.93" rx="47.91" ry="9.37" transform="translate(184.11 3333.22) rotate(-88.7)"></ellipse><path class="cls-32" d="M1759.82,1391l-37.92-.86c-12.13-.27-22.53,31.74-23.44,71.5s8.19,72.22,20.16,72.5l37.92.86c12.13.28,22.53-31.74,23.44-71.5S1771.94,1391.25,1759.82,1391Z" transform="translate(-242.72 -47.3)"></path><ellipse class="cls-33" cx="1759.3" cy="1467.76" rx="47.91" ry="9.37" transform="translate(9.16 3145.9) rotate(-88.7)"></ellipse><path class="cls-32" d="M2005.25,1389l-37.91-.86c-12.13-.28-22.54,31.74-23.44,71.5s8.18,72.22,20.16,72.5l37.92.86c12.12.27,22.53-31.74,23.43-71.5S2017.38,1389.28,2005.25,1389Z" transform="translate(-242.72 -47.3)"></path><path class="cls-33" d="M2016.89,1473.62c-.6,26.41-5.23,47.81-10.45,47.69s-8.88-21.71-8.27-48.11,5.23-47.81,10.45-47.69S2017.5,1447.07,2016.89,1473.62Z" transform="translate(-242.72 -47.3)"></path><polygon class="cls-32" points="1902.94 1167.53 1825.04 1107.85 1817.73 1429.31 1896.94 1431.12 1902.94 1167.53"></polygon><polygon class="cls-6" points="1362.9 1005.95 1353.5 1418.74 1684.94 1426.29 1696.2 931.67 1362.9 1005.95"></polygon><polygon class="cls-32" points="1683.64 949.97 1373.35 1019.09 1364.23 1419.45 1672.8 1426.47 1683.64 949.97"></polygon><path class="cls-5" d="M1938.92,979l-11.26,494.62,45.9,1,1.45-63.86a23.11,23.11,0,0,1,27.54-22.26l13.15,2.61a26.48,26.48,0,0,1,21.36,26.44l-1.33,58.34,99.64,2.26,7.82-343.56Z" transform="translate(-242.72 -47.3)"></path><polygon class="cls-6" points="1899.43 1132.89 1694.66 999.21 1691.41 1141.67 1897.39 1222.39 1899.43 1132.89"></polygon><rect class="cls-32" x="2044.39" y="961.23" width="3.53" height="234.63" transform="translate(-251.78 2092.42) rotate(-55.1)"></rect><rect class="cls-32" x="2040.32" y="1269.69" width="3.53" height="195.48" transform="matrix(0.16, -0.99, 0.99, 0.16, 114.84, 3109.65)"></rect><rect class="cls-32" x="2038.14" y="1132.63" width="3.53" height="215.9" transform="translate(-65.56 2686.75) rotate(-70.03)"></rect><polygon class="cls-32" points="1898.87 1407.2 1790.07 1395.97 1789.26 1431.73 1898.25 1434.22 1898.87 1407.2"></polygon><polygon class="cls-32" points="1938.24 1411.32 1937.7 1435.11 1953.21 1435.47 1953.72 1412.9 1938.24 1411.32"></polygon><polygon class="cls-32" points="1736.6 1390.3 1699.36 1386.53 1698.38 1429.67 1735.68 1430.52 1736.6 1390.3"></polygon><path class="cls-32" d="M1941.1,1477l-347.71-7.92a9.62,9.62,0,0,1-9.45-9.89l.54-24a9.64,9.64,0,0,1,9.89-9.45l347.71,7.92Z" transform="translate(-242.72 -47.3)"></path><path class="cls-3" d="M1942,1439.51l.13-5.68-347.71-7.92a9.34,9.34,0,0,0-8.88,5.48Z" transform="translate(-242.72 -47.3)"></path><path class="cls-37" d="M1628.82,1450.81l-21.34-.48a7,7,0,0,1-6.9-7.07v-.16a7.05,7.05,0,0,1,7.23-6.9l21.33.49a7.05,7.05,0,0,1,6.91,7.22v.15A7.11,7.11,0,0,1,1628.82,1450.81Z" transform="translate(-242.72 -47.3)"></path><path class="cls-37" d="M1905.15,1457.1l-21.34-.48a6.88,6.88,0,0,1-6.75-7.07v-.15a7,7,0,0,1,7.07-6.91l21.34.49a7,7,0,0,1,6.9,7.22v.16A7,7,0,0,1,1905.15,1457.1Z" transform="translate(-242.72 -47.3)"></path><rect class="cls-38" x="1612.65" y="1266.64" width="157.55" height="151.86" transform="translate(67.98 2955.7) rotate(-88.7)"></rect><polygon class="cls-3" points="1508.12 1360.06 1502.74 1353.48 1497.07 1359.81 1499.99 1359.87 1499.73 1371.23 1504.95 1371.35 1505.2 1359.99 1508.12 1360.06"></polygon><path class="cls-3" d="M1735.7,1418.23l-17.2-.4.4-17.19,17.19.39Zm-15.63-1.9,14.13.33.32-14.13-14.12-.32Z" transform="translate(-242.72 -47.3)"></path><path class="cls-3" d="M1716.2,1417.78l-17.19-.39.39-17.19,17.19.39Zm-15.62-1.89,14.12.32.32-14.12-14.12-.32Z" transform="translate(-242.72 -47.3)"></path><rect class="cls-38" x="1654.68" y="1140.7" width="115.01" height="110.87" transform="translate(234.67 2833.35) rotate(-88.7)"></rect><polygon class="cls-38" points="1515.28 1167 1504.08 1153.08 1492.1 1166.47 1498.09 1166.61 1497.99 1170.75 1509.2 1171.01 1509.29 1166.86 1515.28 1167"></polygon><rect class="cls-39" x="1709.26" y="1250.14" width="235.55" height="110.87" transform="translate(237.5 3055.12) rotate(-88.7)"></rect><rect class="cls-40" x="1665.28" y="1293.13" width="235.55" height="22.88" transform="translate(195.52 3010.17) rotate(-88.7)"></rect><polygon class="cls-3" points="1628.16 1363.25 1616.96 1349.33 1604.98 1362.72 1610.97 1362.86 1610.87 1367.01 1622.08 1367.26 1622.17 1363.12 1628.16 1363.25"></polygon><rect class="cls-41" x="1979.14" y="1345.66" width="6.9" height="10.2"></rect><path class="cls-13" d="M2829.85,1438.58a66.7,66.7,0,0,1-.7,14.1c-2.9,23.2-12.3,60.2-12.3,60.2l-11.8,1.4c.9-6.5-1.6-31.6-4.9-59.4-4.9-41.9-11.7-90-11.7-90s25.7-21.3,40.9-15.4S2828.15,1422.28,2829.85,1438.58Z" transform="translate(-242.72 -47.3)"></path><path class="cls-42" d="M2829.25,1452.68c-2.9,23.2-12.3,60.2-12.3,60.2l-11.8,1.4c.9-6.5-1.6-31.6-4.9-59.4,4.2.7,15.6,2.2,25.1-1.4A10.06,10.06,0,0,1,2829.25,1452.68Z" transform="translate(-242.72 -47.3)"></path><path class="cls-15" d="M2818.45,1192.78a16.81,16.81,0,0,0-13.2,0c-7,3-12.1,15.8-8.9,27.7s-7.4,12.1-2.5,21.6c1.7,3.4,24.7,6.3,25.5-6.9.5-8.2-6.9-8.6-4.7-17.4S2818.45,1192.78,2818.45,1192.78Z" transform="translate(-242.72 -47.3)"></path><path class="cls-12" d="M2851.35,1436a81.7,81.7,0,0,1-.2,18.5c-2,23.6-8.4,57.4-8.4,57.4l-11.7,2.7c.5-6.5-3.4-30.8-8.2-58-7.5-42.3-17.4-91.7-17.4-91.7s24.3-22.8,39.8-17.9C2860.85,1352.08,2848.55,1419.88,2851.35,1436Z" transform="translate(-242.72 -47.3)"></path><path class="cls-43" d="M2805.25,1511.88a13.86,13.86,0,0,1-8.2,6.4,12.89,12.89,0,0,0-8,5,3.18,3.18,0,0,0,.7,4.4,3,3,0,0,0,1.8.6l27.3-.2a3.93,3.93,0,0,0,3.9-4v-.3c-.2-2-.4-4.4-.5-6.2a13.15,13.15,0,0,0-4.4-7.5,24.54,24.54,0,0,1-5.2,2.4A16.72,16.72,0,0,1,2805.25,1511.88Z" transform="translate(-242.72 -47.3)"></path><path class="cls-12" d="M2800.05,1249.58s-19.1,33.6-22.7,58.1c0,0,10,8.2,13.5-.2S2819.55,1255.48,2800.05,1249.58Z" transform="translate(-242.72 -47.3)"></path><path class="cls-15" d="M2803.45,1196.38a36.51,36.51,0,0,1,23-15.4,21.76,21.76,0,0,1,25,18,4.33,4.33,0,0,0,.1.5c1.9,12.1,0,27.9-19.8,33.6Z" transform="translate(-242.72 -47.3)"></path><path class="cls-12" d="M2807.05,1250.48l22.3,13.3,5.9-15.8a43.37,43.37,0,0,1-3.6-15,52.93,52.93,0,0,1,.4-13.2l-19.4,8.5a32.93,32.93,0,0,1,.5,4.4,31.3,31.3,0,0,1-1,10.1A13.88,13.88,0,0,1,2807.05,1250.48Z" transform="translate(-242.72 -47.3)"></path><path class="cls-13" d="M2812.15,1242.78c10.7.4,19.5-9.7,19.5-9.7l-18.6-.4A28.69,28.69,0,0,1,2812.15,1242.78Z" transform="translate(-242.72 -47.3)"></path><path class="cls-12" d="M2807.35,1236.38s21,7,29.4-9.5c9.1-17.9,1.2-31.8-6-33.2-14.3-2.7-23.1,2.3-26,7.9S2795.75,1232.68,2807.35,1236.38Z" transform="translate(-242.72 -47.3)"></path><path class="cls-3" d="M2816.45,1227.38s-1,2.2-6.6.5c0,0-4.7-1.3-4-3.8A15.61,15.61,0,0,1,2816.45,1227.38Z" transform="translate(-242.72 -47.3)"></path><path class="cls-21" d="M2860.45,1421.38c-6.1,5.8-50.8,17.8-76.1,9.2-4.5-1.6,2.7-141.6,7-168.6a17.08,17.08,0,0,1,14.5-14.2c1.3-.2,2.9-.5,4.4-.6-.3,3.3.5,6.6,6.3,7.7,7.7,1.5,15-3.4,18.7-6.7a71.62,71.62,0,0,1,14.3,3.7,12.63,12.63,0,0,1,7.6,13.3l-1.4,10.7-4.6,34a46.45,46.45,0,0,0,0,12.9c2,12.9,5.1,44.4,7.2,68.4C2860,1407.88,2860.85,1421.08,2860.45,1421.38Z" transform="translate(-242.72 -47.3)"></path><path class="cls-15" d="M2822.05,1195.68s-2,19.7,16.7,26.7c7.4,2.7,11.3-27.3-4.2-33.4s-30.8,1.1-32.7,11.6-.4,12.7-.4,12.7S2808.65,1193.38,2822.05,1195.68Z" transform="translate(-242.72 -47.3)"></path><path class="cls-21" d="M2794.35,1254.88l-9.7,16.7s1.3,7.7,8.5,8.5S2794.35,1254.88,2794.35,1254.88Z" transform="translate(-242.72 -47.3)"></path><path class="cls-15" d="M2845.25,1192.88a15.27,15.27,0,0,1,13.2,0c7,3.4,12.1,17.7,8.9,31.1s7.4,13.6,2.5,24.4c-1.7,3.8-24.5,7.1-25.4-7.8-.5-9.2,6.9-9.7,4.7-19.7S2845.25,1192.88,2845.25,1192.88Z" transform="translate(-242.72 -47.3)"></path><path class="cls-3" d="M2851.15,1454.58c-2,23.6-8.4,57.4-8.4,57.4l-11.7,2.7c.5-6.5-3.4-30.8-8.2-58A75,75,0,0,0,2851.15,1454.58Z" transform="translate(-242.72 -47.3)"></path><path class="cls-15" d="M2830.75,1511.88a13.86,13.86,0,0,1-8.2,6.4,12.89,12.89,0,0,0-8,5,3.18,3.18,0,0,0,.7,4.4,3,3,0,0,0,1.8.6l27.3-.2a3.93,3.93,0,0,0,3.9-4v-.3c-.2-2-.4-4.4-.5-6.2a13.15,13.15,0,0,0-4.4-7.5,24.54,24.54,0,0,1-5.2,2.4A16.72,16.72,0,0,1,2830.75,1511.88Z" transform="translate(-242.72 -47.3)"></path><path class="cls-44" d="M2812.85,1305.48v25.3c0,3-3.4,5.5-7.6,5.5h-22.7c-4.2,0-7.6-2.5-7.6-5.5v-25.3Z" transform="translate(-242.72 -47.3)"></path><path class="cls-24" d="M2787.15,1305.48c0-.3-3.6-27.3-17.6-40.7l.4-.4c14.1,13.6,17.8,40.9,17.8,41.1Z" transform="translate(-242.72 -47.3)"></path><path class="cls-24" d="M2793.65,1305.48c-.6-17.2,3.9-53.2,4-53.5h.5c0,.4-4.6,36.3-4,53.4Z" transform="translate(-242.72 -47.3)"></path><path class="cls-24" d="M2802.15,1305.48h-.5a20.77,20.77,0,0,1,10.4-15.8,31.72,31.72,0,0,1,9.2-3.7v.5a29.84,29.84,0,0,0-9.1,3.6A20.47,20.47,0,0,0,2802.15,1305.48Z" transform="translate(-242.72 -47.3)"></path><path class="cls-24" d="M2771.55,1266.38s-1.2-10.3-6.4-10.4a45.3,45.3,0,0,0-10.4,1,22.73,22.73,0,0,1,5.5,4.3C2762.15,1263.38,2771.55,1266.38,2771.55,1266.38Z" transform="translate(-242.72 -47.3)"></path><path class="cls-24" d="M2775,1270.58s-6.5-.9-9,1-1.6,7.7-1.6,7.7a22.1,22.1,0,0,0,5.5-2.3,10.24,10.24,0,0,0,4.2-4.3Z" transform="translate(-242.72 -47.3)"></path><path class="cls-28" d="M2787.45,1304.68s-8.8-5-13.3-3.6-6.5,10.1-6.5,10.1a33.07,33.07,0,0,0,8.9-.3,14.75,14.75,0,0,0,8.4-3.8Z" transform="translate(-242.72 -47.3)"></path><path class="cls-28" d="M2797.75,1252.18c.2,0-2.7-5.5-6.1-4.7a21,21,0,0,0-7.1,3.7,51.3,51.3,0,0,1,6.6,1.3C2793.25,1253.18,2796.75,1251.28,2797.75,1252.18Z" transform="translate(-242.72 -47.3)"></path><path class="cls-24" d="M2820.15,1286.58c0,.2-2.3-5.8,0-6.9a13.83,13.83,0,0,1,6.7-.5,32.34,32.34,0,0,0-2.7,4.4C2823.45,1285.08,2820.15,1285.28,2820.15,1286.58Z" transform="translate(-242.72 -47.3)"></path><path class="cls-28" d="M2797.75,1252.18a4.25,4.25,0,0,1,2.7-3.6,4.16,4.16,0,0,1,0,2.7C2800,1252.28,2797.75,1252.18,2797.75,1252.18Z" transform="translate(-242.72 -47.3)"></path><path class="cls-24" d="M2807,1293.88a4,4,0,0,1-2.7-3.5,3.67,3.67,0,0,1,2.5.7C2807.65,1291.88,2807,1293.88,2807,1293.88Z" transform="translate(-242.72 -47.3)"></path><path class="cls-28" d="M2797.75,1254.08a8.72,8.72,0,0,1,3.9-.7c1.5.2,3.1,4.1,3.1,4.1a20.07,20.07,0,0,1-4.2-.5C2799.35,1256.48,2798.65,1254,2797.75,1254.08Z" transform="translate(-242.72 -47.3)"></path><path class="cls-24" d="M2812.35,1290a8.07,8.07,0,0,1,3.7-1.5c1.5,0,3.8,3.4,3.8,3.4a19.92,19.92,0,0,1-4.2.4C2814.55,1292.08,2813.25,1289.68,2812.35,1290Z" transform="translate(-242.72 -47.3)"></path><path class="cls-24" d="M2797,1260.08a8.38,8.38,0,0,0-13.8,2,16.29,16.29,0,0,0,5.8.8,14.23,14.23,0,0,0,5.5-2.4C2795.05,1259.88,2797,1260.08,2797,1260.08Z" transform="translate(-242.72 -47.3)"></path><path class="cls-28" d="M2796.25,1259.28a3,3,0,0,0-.6-3l-1.6-1.6a5.28,5.28,0,0,0,0,2.5A6.42,6.42,0,0,0,2796.25,1259.28Z" transform="translate(-242.72 -47.3)"></path><path class="cls-24" d="M2796.25,1267.08s6.6-3.5,10.9-1a15,15,0,0,1,5.8,8.2s-7.7-.2-10.2-2.1-2.3-4.9-3.5-5A10.07,10.07,0,0,0,2796.25,1267.08Z" transform="translate(-242.72 -47.3)"></path><path class="cls-24" d="M2795.05,1281.48s2-4.6,5.2-5.2a9.18,9.18,0,0,1,6.4,1.9,16.25,16.25,0,0,1-6.2,3c-2.2,0-3.2-1.5-3.9-1.1A19.2,19.2,0,0,0,2795.05,1281.48Z" transform="translate(-242.72 -47.3)"></path><path class="cls-24" d="M2804.15,1297.38s8.8-4.6,14.6-1.4a19.37,19.37,0,0,1,7.7,10.9s-10.2-.2-13.6-2.7-3.1-6.4-4.6-6.7A28.08,28.08,0,0,0,2804.15,1297.38Z" transform="translate(-242.72 -47.3)"></path><path class="cls-24" d="M2818.25,1286.88s6.6-3.5,10.9-1a15,15,0,0,1,5.8,8.2s-7.7-.2-10.2-2.1-2.3-4.9-3.4-5S2819.25,1286.88,2818.25,1286.88Z" transform="translate(-242.72 -47.3)"></path><path class="cls-28" d="M2795.65,1270.58a5,5,0,0,0-3.9-4.1c-3.3-.5-6.6,4.1-6.6,4.1a20.53,20.53,0,0,0,4.8,1c1.7,0,3.5-2.7,4.4-2.2C2794.75,1269.78,2795.25,1270.18,2795.65,1270.58Z" transform="translate(-242.72 -47.3)"></path><path class="cls-24" d="M2795.05,1285.78s-5.1-6.1-11.9-3.4-8.2,15-8.2,15a41.52,41.52,0,0,0,10.3-3.4c3.3-1.9,3.7-9.1,6-8.9C2792.45,1285.28,2793.75,1285.48,2795.05,1285.78Z" transform="translate(-242.72 -47.3)"></path><path class="cls-28" d="M2804.65,1297.58s.5-3.9-2.1-5.2-6.8,2.7-6.8,2.7a13,13,0,0,0,3.8,2.2c1.5.4,3.8-2,4.3-1.1C2804.15,1296.68,2804.35,1297.08,2804.65,1297.58Z" transform="translate(-242.72 -47.3)"></path><path class="cls-12" d="M2842.75,1265.38s-.3,41.7-5.2,46.3-25.4,14.9-25.4,14.9l1.8,6.1s24.5-2.7,33.9-9.7,12.6-44,12.3-47.8C2860.05,1271.48,2842.75,1265.38,2842.75,1265.38Z" transform="translate(-242.72 -47.3)"></path><path class="cls-21" d="M2852.25,1253.28a20.19,20.19,0,0,1,7.9,10.9c2.2,7.6,1.9,24.7,1.9,24.7a29.91,29.91,0,0,1-23.2-3C2826.15,1279.08,2852.25,1253.28,2852.25,1253.28Z" transform="translate(-242.72 -47.3)"></path><path class="cls-12" d="M2812.45,1326.48a8.34,8.34,0,0,0-4.6-1.7c-2.3.1-6.9-1-6.9.1s2.6,1.8,2.7,2.5-2.3,2.7-4.1,3.3-4.8.4-4.2,2.4,5.5,3.4,9.4,3.3a44,44,0,0,0,11.7-4.1Z" transform="translate(-242.72 -47.3)"></path><path class="cls-12" d="M2773.55,1315s-2.7,4.8-1.7,7.7a4.47,4.47,0,0,0,6.1,1.8c.2-.1.3-.2.5-.3,1.7-1.1-.5-4.2-1.3-6.1S2775.55,1313.08,2773.55,1315Z" transform="translate(-242.72 -47.3)"></path><path class="cls-45" d="M2265.12,1492.28s-7.9,7.3-6.4,12.4,8.7,8.6,9.7,14.9,4.8,9.7,8.2,9.7h16.6s2.6-4.4-3.6-5.8-8.5-8.8-8.2-15.6a123.2,123.2,0,0,0-.5-16.1l-13.2-3.1Z" transform="translate(-242.72 -47.3)"></path><path class="cls-45" d="M2332.32,1496.08s-2.7,30.8.6,32.5h44.6s0-5.2-7.2-6.3-19.7-5.5-21.8-14.7S2332.32,1496.08,2332.32,1496.08Z" transform="translate(-242.72 -47.3)"></path><path class="cls-46" d="M2368.62,1242.88s12.8,40.1,13.6,53.8-24.5,194.1-25.6,200.4-8.2,9.7-8.2,9.7a11.08,11.08,0,0,1-8.2.6,20.92,20.92,0,0,1-8.8-4.1s-10-128.7-3.8-174.6a701.29,701.29,0,0,0,6.2-85.7Z" transform="translate(-242.72 -47.3)"></path><path class="cls-21" d="M2314.22,1241.68s-19.6,26.4-21.4,44.2-2.7,80.5-6.8,97.9-18.2,50.8-18.2,105.1a10.26,10.26,0,0,0,6.1,4.7,49.45,49.45,0,0,0,5.5,1.5,8.46,8.46,0,0,0,9.4-4.5c9.7-19.5,40.5-82.6,42-95.6,1.1-9.3,10.9-70.5,32-106.3,5.1-8.6-3.1-42.9-3.1-42.9Z" transform="translate(-242.72 -47.3)"></path><path class="cls-15" d="M2311.32,1050.68c-.5-1.1-6-13.3-24.5-6.7,0,0,9.5-2.5,12.5,1,0,0-8-2.7-12.5,1s-4,13.9-2.9,16.9,7.4,11.5,10.9,11.1a9.78,9.78,0,0,0,3.8-1.5,48.53,48.53,0,0,0-.8,5.5c-1.6,18.5,11.6,30.8,17.2,26.6,3.6-2.7,7.3,4,7.3,4l26.7-47.8C2349.22,1060.68,2323.72,1036,2311.32,1050.68Z" transform="translate(-242.72 -47.3)"></path><path class="cls-12" d="M2361.52,1163.18c-25.3,11.7-44.4-29.6-42.7-30,2.5-3,5.2-13.6,3.3-28.7h1.3l22,1.7s.4,7.1,1.1,13.6a37,37,0,0,0,2.1,10.3,21.66,21.66,0,0,0,5,1.3C2354,1131.88,2368.12,1160.08,2361.52,1163.18Z" transform="translate(-242.72 -47.3)"></path><path class="cls-19" d="M2379.42,1176.08c1.6,6.2,3,11.8,3.7,15.5,3.1,17.3,1.5,105.2,1.5,105.2-44.7,17.1-98.1-4.9-98.1-4.9-1.7-16.4,4.7-52.8,8.6-85.2.9-7.9,1.7-15.6,2.2-22.7a153.47,153.47,0,0,1,2-16.6c6.4-34.7,22.9-38.4,22.9-38.4,7.7,15.5,32.1,19.7,32.1,19.7a88,88,0,0,0-2.5-19.8c3.1.4,13.5,1.7,16.4,3.1,8.4,4.2,28.1,39.2,28.1,39.2S2401.42,1168.58,2379.42,1176.08Z" transform="translate(-242.72 -47.3)"></path><path class="cls-47" d="M2345.42,1106.28s.3,7.1,1.1,13.6c-12.1,1.2-19.8-9.4-23.1-15.3Z" transform="translate(-242.72 -47.3)"></path><path class="cls-12" d="M2350.22,1112s-28.4,4.1-30.6-14.2-7.3-30.2,10.7-33.6,22.4,3.2,24.5,9.1S2357.52,1110.48,2350.22,1112Z" transform="translate(-242.72 -47.3)"></path><path class="cls-15" d="M2352.82,1063.18c-5-5-8.2-3.4-9.9-1.4a19.77,19.77,0,0,0-25.1,7.5,36.05,36.05,0,0,1-8.6,22.1s5.6,2.7,17.2-2a20.72,20.72,0,0,0,8.9-8.2,69.81,69.81,0,0,1-9.7,15.9c13.5-8.6,16.8-30,17.1-32.2a21.56,21.56,0,0,1,7.2,7.8c2,4.5,3.7,14,6.4,13.4C2356.22,1086,2360.42,1070.68,2352.82,1063.18Z" transform="translate(-242.72 -47.3)"></path><path class="cls-48" d="M2322.12,1123.38a10.41,10.41,0,0,0-3.4,7s5.2,14.7,35.6,18.1C2354.32,1148.48,2325.32,1134.28,2322.12,1123.38Z" transform="translate(-242.72 -47.3)"></path><path class="cls-48" d="M2347.92,1129.38s6.7,12.1,6.4,19.1c0,0,.5-16.1-.6-19.8s-7-6.9-7-6.9Z" transform="translate(-242.72 -47.3)"></path><path class="cls-3" d="M2341.22,1102.38a7.86,7.86,0,0,0,5.9,1.6,3.44,3.44,0,0,0,3.2-3.2,14.08,14.08,0,0,0-4.1,0A29.11,29.11,0,0,0,2341.22,1102.38Z" transform="translate(-242.72 -47.3)"></path><path class="cls-24" d="M2378.72,1188s-2-29.3-18.9-51.2c-1.8-2.3-4.9-1.1-4.9,2a101.62,101.62,0,0,0,14.9,52.9C2388.42,1221.18,2378.72,1188,2378.72,1188Z" transform="translate(-242.72 -47.3)"></path><path class="cls-28" d="M2377.22,1183.68s-5.8-22.2-21.8-36.6c-1.7-1.5-3.9,0-3.5,2.2a79.69,79.69,0,0,0,19.1,38.5C2389.32,1207.68,2377.22,1183.68,2377.22,1183.68Z" transform="translate(-242.72 -47.3)"></path><path class="cls-21" d="M2412.62,1232h-31.5a23.81,23.81,0,0,1-23.8-23.9v-28.9a1.32,1.32,0,0,1,1.3-1.3h77.9v30a24.07,24.07,0,0,1-23.9,24.1Z" transform="translate(-242.72 -47.3)"></path><path class="cls-12" d="M2316.72,1164c-9-4-15.4,4.3-13.6,14,4.7,27.1,15.8,65.9,24.8,68.7,13.6,4.1,62.7-27.3,62.7-27.3l-5.6-8.2s-42,12.5-42.7,10.6-15.7-53.3-15.7-53.3Z" transform="translate(-242.72 -47.3)"></path><path class="cls-19" d="M2320.82,1143.18s-12.1,4.6-16.4,10.9-4.7,26.5,1.8,52.8c0,0,24.9-7.9,37.8-21.3C2344.12,1185.58,2334,1139.38,2320.82,1143.18Z" transform="translate(-242.72 -47.3)"></path><rect class="cls-49" x="2436.3" y="950.5" width="0.9" height="5.1"></rect><rect class="cls-41" x="2433.3" y="1062.1" width="6.9" height="10.2"></rect><rect class="cls-41" x="2482.1" y="1108.4" width="6.9" height="10.2"></rect><path class="cls-45" d="M2601.52,1528.5h57.3c4.1-2.7-1.1-30-1.1-30s-15.6-5.9-18.3,6.1-19.9,15.9-29,17.4C2604.12,1523,2602.12,1526.4,2601.52,1528.5Z" transform="translate(-242.72 -47.3)"></path><path class="cls-45" d="M2686.22,1528.5h57.3c4.1-2.7-1.1-30-1.1-30s-15.6-5.9-18.3,6.1-19.9,15.9-29,17.4C2688.82,1523,2686.82,1526.4,2686.22,1528.5Z" transform="translate(-242.72 -47.3)"></path><path class="cls-50" d="M2616.92,1250.6s2.6,32.1,5.5,70.9c4.1,52.5,15.2,182.7,15.2,182.7s7.3,6.2,23.3,2.7a514.38,514.38,0,0,0,17.8-96.2,10.55,10.55,0,0,1,.2-2.5c3.8-52.2,9.7-162.1,9.7-162.1Z" transform="translate(-242.72 -47.3)"></path><path class="cls-45" d="M2616,1239.5s3.4,43.3,6.5,81.8l56.3,89.3a10.55,10.55,0,0,1,.2-2.5c3.8-52.2,9.7-162.1,9.7-162.1Z" transform="translate(-242.72 -47.3)"></path><path class="cls-50" d="M2632.42,1239.5s40.9,101.9,53.9,140.6c9.3,27.5,35.4,124.1,35.4,124.1a26.79,26.79,0,0,0,21-3.2s9.7-98.6-10-126.4c-10.4-14.8-2.6-153.4-45-154.6S2632.42,1239.5,2632.42,1239.5Z" transform="translate(-242.72 -47.3)"></path><path class="cls-12" d="M2650.62,1089.3a25.59,25.59,0,0,0,17.6,2.4,39.08,39.08,0,0,0,11.9-5,42.91,42.91,0,0,0,4.8-3.6l-.6-.9c-1.8-3.2-7.4-14.5-4.9-32.7a13.67,13.67,0,0,0-4.5.7c-8.2,1.9-24.4,6.6-25.1,6.8h0s-.2,3.8-.9,10.7a13.66,13.66,0,0,1-.2,1.9c-.1.7-.2,1.7-.3,2.5A59.31,59.31,0,0,0,2650.62,1089.3Z" transform="translate(-242.72 -47.3)"></path><path class="cls-13" d="M2648.92,1067.5c12.1,2.7,30-15.1,30-15.1a19.08,19.08,0,0,0-4.1-2.4c-8.2,1.9-24.4,6.6-25.1,6.8h0S2649.62,1060.7,2648.92,1067.5Z" transform="translate(-242.72 -47.3)"></path><path class="cls-19" d="M2610.52,1222.4c.9,11.7,3.3,20,8.7,20a181.09,181.09,0,0,0,52.6,8.7,123.61,123.61,0,0,0,20.1-2.2c6.7-1.1,12.1-2.3,12.1-2.3,5.8-1.3,12.1-4.9,11.3-11.5-.4-3.5-.8-8-1-13.2v-1c-.6-15.3-.5-36.3-.6-56.5,0-12.4-.2-24.4-.6-34.5,0,0,5.6-39.8-.6-46.3-7.4-7.6-29-10-30.3-9.7l-1.2-.2s-18.4,10.4-32.1,2.7l-.4-.4c-3.2,1.1-19.9,4.8-25.6,10.9a53.45,53.45,0,0,0-10.1,29c-.3,19.7.5,42.1.5,42.1-.2,3.2-.5,7.3-.9,12s-.8,10.7-1.2,16.6c-.2,3-.4,6-.5,9.1A183.05,183.05,0,0,0,2610.52,1222.4Z" transform="translate(-242.72 -47.3)"></path><path class="cls-18" d="M2682,1073.9s-20.4,21.1-34.9,16.8c0,0-1.9-2.9,4.6-3.8S2665.32,1086.3,2682,1073.9Z" transform="translate(-242.72 -47.3)"></path><path class="cls-12" d="M2644.82,1055.9a56.3,56.3,0,0,0,11.3,2.7c9.3,1.3,21.5.5,25.3-10.7,6.5-18.9,14.7-30.3-4.3-38-10.2-4.1-16.7-4.3-21.1-2.7a15.27,15.27,0,0,0-7.8,6.8C2644.62,1019.5,2637.12,1052.5,2644.82,1055.9Z" transform="translate(-242.72 -47.3)"></path><path class="cls-51" d="M2646.82,1002.3c-4.3,1-6.2,7.8-2.1,10.6,7.3,5,16.4,3.1,19.5,4.5,4.7,2.1,5.5,10.1,5.6,12.6s.4,4.7,6.8,3.2a3,3,0,0,1,2.3,0c2.7,1.6-.8,9.2-1.8,10.9,0,0-1.5,5.5,1.8,8.2.4.3,6.8,3.1,22.3-20.7a21.88,21.88,0,0,0,1-20.2,34.13,34.13,0,0,0-29.3-18.1C2662,993.4,2655.92,1000.1,2646.82,1002.3Z" transform="translate(-242.72 -47.3)"></path><path class="cls-3" d="M2644.62,1043.6s-.4,2.5,5.3,4.4c0,0,4.8,1.6,5.6-.9A16.57,16.57,0,0,0,2644.62,1043.6Z" transform="translate(-242.72 -47.3)"></path><path class="cls-18" d="M2658.52,1199.5c-2,3.8,6.7,8.9,6.7,8.9s24.2,11.6,49.1,13.6v-1c-.7-15.3-.5-36.3-.6-56.5C2713.62,1164.5,2661.92,1193.2,2658.52,1199.5Z" transform="translate(-242.72 -47.3)"></path><rect class="cls-16" x="2349.7" y="1072.8" width="94.6" height="95.6"></rect><rect class="cls-10" x="2302.3" y="1072.8" width="94.6" height="95.6"></rect><polygon class="cls-50" points="2444.1 1144.2 2429.2 1144.2 2430.5 1139 2429.2 1135.3 2444.1 1135.3 2444.1 1144.2"></polygon><polygon class="cls-52" points="2396.9 1102.4 2381.9 1102.4 2383.3 1097.2 2381.9 1093.5 2396.9 1093.5 2396.9 1102.4"></polygon><polygon class="cls-50" points="2396.9 1093.5 2411.9 1093.5 2410.6 1098.7 2411.9 1102.4 2396.9 1102.4 2396.9 1093.5"></polygon><path class="cls-12" d="M2542,1157.5a5.45,5.45,0,0,1,4-4.6c3-.8,7.3-1.3,7.8,1.4.8,4.2-4.8,14.8-8.5,14.8C2542.62,1169.1,2541.52,1162.3,2542,1157.5Z" transform="translate(-242.72 -47.3)"></path><path class="cls-12" d="M2665.22,1208.4s-15.3,10.1-21.2,10.9c-4,.4-19.9-.2-20-2.2,0-2.7,9.7-5.8,12.2-7s4.6-2.5,4.5-3.6-9.8,2.5-8.8,0,10.1-6.6,12.3-7,9.3,2,12,.7C2659.12,1199,2665.22,1208.4,2665.22,1208.4Z" transform="translate(-242.72 -47.3)"></path><path class="cls-19" d="M2707.12,1079.8s10.5,4.5,23,27.8,24.3,72.9,19.2,80.9-47.6,26.5-84.7,21.6c0,0-9.2-8.4-7.3-11.7,0,0,62.2-25.4,62.2-28.5s-28-50.2-29.3-63.3C2688.92,1093.7,2707.12,1079.8,2707.12,1079.8Z" transform="translate(-242.72 -47.3)"></path><polygon class="cls-53" points="2228.5 1450.74 2244.4 1450.74 2243 1444.64 2244.4 1440.35 2228.5 1440.35 2228.5 1450.74"></polygon><polygon class="cls-54" points="2278.5 1401.44 2294.4 1401.44 2293 1395.35 2294.4 1391.05 2278.5 1391.05 2278.5 1401.44"></polygon><polygon class="cls-53" points="2278.5 1391.05 2262.7 1391.05 2264.1 1397.14 2262.7 1401.44 2278.5 1401.44 2278.5 1391.05"></polygon><polygon class="cls-52" points="2322.6 1145.85 2337.6 1145.85 2336.3 1150.94 2337.6 1154.74 2322.6 1154.74 2322.6 1145.85"></polygon><path class="cls-15" d="M2559.12,1527.45l-44.7-.2a56.27,56.27,0,0,1,.2-13.6,4.33,4.33,0,0,1,1.1-2,16.35,16.35,0,0,0,10.7,0,20.25,20.25,0,0,0,7.9-4.9c.5.5,9.7,9.4,13.9,9.4a10,10,0,0,1,10.8,9.3A4.44,4.44,0,0,1,2559.12,1527.45Z" transform="translate(-242.72 -47.3)"></path><path class="cls-55" d="M2539.72,1509.15s-17.9,8.5-28.3,2.7c0,0-4.1-14.6-9-35.9-4.1-17.6-8.6-39.7-11.9-61.9-.2-1.2-.4-2.5-.5-3.8-2.7-22.3-2.3-69.2,42.8-56.6Z" transform="translate(-242.72 -47.3)"></path><path class="cls-15" d="M2502.42,1475.85c-4.1-17.6-8.6-39.7-11.9-61.9a35.33,35.33,0,0,1-.5-3.8c2.7-15.7,7.1-28.2,12.2-29.7C2502.12,1380.45,2519.62,1456.35,2502.42,1475.85Z" transform="translate(-242.72 -47.3)"></path><path class="cls-15" d="M2498.62,1527.25l-44.7-.2a56.27,56.27,0,0,1,.2-13.6,3.09,3.09,0,0,1,1.1-2,16.35,16.35,0,0,0,10.7,0,21.49,21.49,0,0,0,7.9-4.9c.5.4,9.7,9.3,13.9,9.4a10.07,10.07,0,0,1,10.8,9.2A4.8,4.8,0,0,1,2498.62,1527.25Z" transform="translate(-242.72 -47.3)"></path><path class="cls-12" d="M2508.62,1249.45l-23.6,12-4.7-16.4a51.85,51.85,0,0,0,4.4-15,56.37,56.37,0,0,0,.5-13.6l19.1,10a33.92,33.92,0,0,0-.8,4.4,35.6,35.6,0,0,0,.3,10.3A15.17,15.17,0,0,0,2508.62,1249.45Z" transform="translate(-242.72 -47.3)"></path><path class="cls-56" d="M2504,1241.25c-10.9-.4-19.2-11.2-19.2-11.2l18.9.8A36.18,36.18,0,0,0,2504,1241.25Z" transform="translate(-242.72 -47.3)"></path><path class="cls-12" d="M2509.52,1235.15s-21.8,5.7-29.3-11.8c-8-18.8.9-32.4,8.3-33.3,14.8-1.8,23.3,3.9,25.9,9.9S2521.42,1232.15,2509.52,1235.15Z" transform="translate(-242.72 -47.3)"></path><path class="cls-15" d="M2483.92,1229.45a41.09,41.09,0,0,1-2.2-11.6s-5.6-7.3-2.3-9.1,5.1,2.5,5.9,1.7,2-15.1,6-14.7,18.9,5.2,25.5-.5-9.2-27.8-36.1-19.4C2453.72,1184.45,2459.12,1214.45,2483.92,1229.45Z" transform="translate(-242.72 -47.3)"></path><path class="cls-3" d="M2501.52,1226.55a5.78,5.78,0,0,0,4.1,2,12,12,0,0,0,6.4-1.4,8.89,8.89,0,0,0,.8-3.1A33.72,33.72,0,0,0,2501.52,1226.55Z" transform="translate(-242.72 -47.3)"></path><path class="cls-55" d="M2451.62,1352.75c-1.9.3,5.1,85.9,1,101.9s-.3,59.5-.3,59.5a53.73,53.73,0,0,0,31.5-1.7s5.5-52,9.7-67c9.5-32.1,14.6-89.8,14.6-89.8Z" transform="translate(-242.72 -47.3)"></path><polygon class="cls-12" points="2286.9 1222.14 2300.8 1258.55 2281.7 1260.94 2277.8 1231.24 2286.9 1222.14"></polygon><path class="cls-44" d="M2536,1364.15a196.53,196.53,0,0,1-46.5,4.3,356.4,356.4,0,0,1-41.2-3.8c.5,0,4.4-81.2,4.4-81.2l-2.3-25.5c7.1-8.9,20.5-11.6,30-12.9,3.6,3.7,10.6,9.2,18.6,8.2,5.9-.7,7.1-3.6,7-7,12.5,2.1,21.2,12.5,21.2,12.5Z" transform="translate(-242.72 -47.3)"></path><path class="cls-12" d="M2450.82,1256.65s-24.8,46.8-21.6,59.6,38.4,17.7,38.4,17.7l2.3-6.8s-26.2-17.7-23.2-20.7a131.5,131.5,0,0,0,14.6-25.5C2462,1278.05,2459.12,1257.55,2450.82,1256.65Z" transform="translate(-242.72 -47.3)"></path><path class="cls-44" d="M2462.52,1249.35a35.09,35.09,0,0,0-15.9,12.3,120.41,120.41,0,0,0-10.6,19.7s9.4,10.9,22.9,10.8S2462.52,1249.35,2462.52,1249.35Z" transform="translate(-242.72 -47.3)"></path><path class="cls-44" d="M2514.92,1249.45s9.9,4.2,13.6,11.5a180.68,180.68,0,0,1,8.5,23.3,47,47,0,0,1-9.9.5C2521.52,1284.65,2514.92,1249.45,2514.92,1249.45Z" transform="translate(-242.72 -47.3)"></path><path class="cls-50" d="M2501.32,1308.45l-12.2-22.9a3.6,3.6,0,0,1-.2-2.7h0a11.28,11.28,0,0,0-1.4-8.6,2.67,2.67,0,0,0-3.7-1,.1.1,0,0,0-.1.1,2.65,2.65,0,0,0-1,3.7c0,.1.1.1.1.2a6.19,6.19,0,0,1,.8,4c0,.3-.4,1.2-2.2,2a4.56,4.56,0,0,1-6.1-2.2,1.42,1.42,0,0,1-.2-.6,2.82,2.82,0,0,0-5.2,2.2,11.9,11.9,0,0,0,5.9,6h0a5.87,5.87,0,0,1,3,2.6l12.2,23Z" transform="translate(-242.72 -47.3)"></path><path class="cls-50" d="M2512.62,1307.45l-2.7-13.6a1.74,1.74,0,0,1,.3-1.4h0a6.16,6.16,0,0,0,.7-4.6,1.49,1.49,0,0,0-1.8-1.1h0a1.49,1.49,0,0,0-1.1,1.8,3.36,3.36,0,0,1-.2,2.2,1.91,1.91,0,0,1-1.4.7,2.4,2.4,0,0,1-2.7-2.2v-.2a1.46,1.46,0,0,0-1.6-1.3,1.5,1.5,0,0,0-1.3,1.7,6.55,6.55,0,0,0,2.1,4h0a3.07,3.07,0,0,1,1.1,1.8l2.7,13.6Z" transform="translate(-242.72 -47.3)"></path><path class="cls-28" d="M2553.42,1315.75l9.5-20.6a2.84,2.84,0,0,1,1.8-1.6h0a9.87,9.87,0,0,0,5.3-5.5,2.46,2.46,0,1,0-4.4-2.2c-.1.1-.1.3-.2.4a4.89,4.89,0,0,1-2.4,2.7,2.78,2.78,0,0,1-2.5-.5,3.92,3.92,0,0,1-1.7-5.4c.1-.1.2-.3.3-.4a2.42,2.42,0,0,0-4.2-2.4h0a10.26,10.26,0,0,0-1,7.3h0a5.62,5.62,0,0,1-.2,3.4l-9.5,20.6Z" transform="translate(-242.72 -47.3)"></path><rect class="cls-57" x="2512.53" y="1293.28" width="58" height="70.1" transform="translate(959.4 3816.74) rotate(-89.75)"></rect><rect class="cls-58" x="2477.42" y="1293.09" width="58" height="70.1" transform="translate(924.63 3781.44) rotate(-89.75)"></rect><polygon class="cls-59" points="2298.8 1251.94 2284.9 1267.14 2215.7 1266.85 2228.8 1251.64 2298.8 1251.94"></polygon><polygon class="cls-60" points="2333.6 1295.35 2322.5 1295.35 2323.5 1292.14 2322.6 1289.94 2333.7 1289.94 2333.6 1295.35"></polygon><polygon class="cls-61" points="2298.8 1258.44 2313.5 1273.35 2333.7 1273.44 2333.8 1252.05 2298.8 1251.94 2298.8 1258.44"></polygon><polygon class="cls-59" points="2333.9 1252.05 2349.6 1267.44 2314.5 1267.24 2298.8 1251.94 2333.9 1252.05"></polygon><path class="cls-12" d="M2469.32,1327s6-3.8,8.8-2.4,7.6,6.6,5,7.6-6.4.7-7.8,1.5a10.3,10.3,0,0,1-7.9.2C2464,1332.65,2469.32,1327,2469.32,1327Z" transform="translate(-242.72 -47.3)"></path><path class="cls-12" d="M2457.5,1568.2a34.23,34.23,0,0,0,1.3-3.4c0-.9.9-.5,1,.5a22.45,22.45,0,0,1,0,2.7Z" transform="translate(-242.72 -47.3)"></path><line class="cls-62" x1="204.39" y1="1491.71" x2="2628.45" y2="1484.13"></line></svg> 