<?xml version="1.0" encoding="utf-8"?>
<!-- Generator: Adobe Illustrator 24.3.0, SVG Export Plug-In . SVG Version: 6.00 Build 0)  -->
<svg version="1.1" id="Capa_1" xmlns="http://www.w3.org/2000/svg" xmlns:xlink="http://www.w3.org/1999/xlink" x="0px" y="0px"
	 viewBox="0 0 750 500" style="enable-background:new 0 0 750 500;" xml:space="preserve">
<style type="text/css">
	.st0{fill:#AFCDFB;}
	.st1{fill:#D9EAFF;}
	.st2{fill:#FFFFFF;}
	.st3{fill:#F78248;}
	.st4{fill:#91AFF9;}
	.st5{fill:#CDE0FB;}
	.st6{fill:#7C9AF2;}
	.st7{fill:#F9E5CF;}
	.st8{fill:#A8D29F;}
	.st9{fill:#54CED1;}
	.st10{fill:#14345A;}
	.st11{fill:#D3A479;}
	.st12{fill:#B27C4F;}
	.st13{fill:#FF9841;}
	.st14{fill:#CE5700;}
	.st15{fill:#189FB1;}
	.st16{fill:#F0CD95;}
	.st17{fill:#DDE7FE;}
	.st18{fill:#E07832;}
	.st19{fill:#5F45AA;}
	.st20{fill:#E3E6F4;}
	.st21{fill:#F47362;}
	.st22{fill:#F9974E;}
	.st23{fill:#E66A00;}
	.st24{fill:#CC6A27;}
	.st25{fill:#F99746;}
	.st26{fill:#8C9DF4;}
	.st27{fill:#6BA6F1;}
	.st28{fill:#E79A2E;}
	.st29{fill:none;}
	.st30{fill:#B0D4FF;}
	.st31{fill:#D2E3FC;}
	.st32{fill:#AAC8E8;}
	.st33{fill:#9FC3F7;}
	.st34{fill:#8BB3EE;}
	.st35{fill:#77A4E5;}
	.st36{fill:#FFB27D;}
	.st37{fill:#ED975D;}
	.st38{fill:#2A4E96;}
	.st39{fill:#2C3A64;}
	.st40{fill:#FF9E55;}
	.st41{fill:#ED823A;}
	.st42{fill:#A9453D;}
	.st43{fill:#FFAE73;}
	.st44{fill:#F9924F;}
	.st45{fill:#214D9A;}
	.st46{fill:#2A3967;}
	.st47{fill:#FB7C1D;}
	.st48{fill:#202E51;}
</style>
<g>
	<rect x="23.7" y="104.8" class="st0" width="287.6" height="290.1"/>
</g>
<g>
	<g>
		<g>
			<g>
				<g>
					<rect x="190.9" y="158.9" class="st0" width="83" height="119"/>
				</g>
				<g>
					<path class="st1" d="M229.1,158.9c0,0,0.9,39.7-38.2,70.5v-70.5H229.1z"/>
				</g>
				<g>
					<path class="st1" d="M237.3,158.9c0,0-0.8,39.7,36.6,70.5v-70.5H237.3z"/>
				</g>
			</g>
			<g>
				<rect x="232.4" y="158.9" class="st2" width="2.1" height="119"/>
			</g>
			<g>
				<rect x="190.9" y="194.1" class="st2" width="83" height="1.7"/>
			</g>
			<g>
				<rect x="190.9" y="237.3" class="st2" width="83" height="1.7"/>
			</g>
			<g>
				<path class="st2" d="M275.8,279.8H189V157h86.8V279.8z M192.8,276H272V160.8h-79.2V276z"/>
			</g>
		</g>
	</g>
	<g>
		<g>
			<g>
				<g>
					<rect x="60.3" y="158.9" class="st0" width="83" height="119"/>
				</g>
				<g>
					<path class="st1" d="M98.6,158.9c0,0,0.9,39.7-38.2,70.5v-70.5H98.6z"/>
				</g>
				<g>
					<path class="st1" d="M106.8,158.9c0,0-0.8,39.7,36.6,70.5v-70.5H106.8z"/>
				</g>
			</g>
			<g>
				<rect x="101.8" y="158.9" class="st2" width="2.1" height="119"/>
			</g>
			<g>
				<rect x="60.3" y="194.1" class="st2" width="83" height="1.7"/>
			</g>
			<g>
				<rect x="60.3" y="237.3" class="st2" width="83" height="1.7"/>
			</g>
			<g>
				<path class="st2" d="M145.2,279.8H58.5V157h86.8V279.8z M62.2,276h79.2V160.8H62.2V276z"/>
			</g>
		</g>
	</g>
</g>
<g>
	<polygon class="st3" points="322.1,121.5 14.4,121.5 30.8,49.3 305.7,49.3 	"/>
</g>
<g>
	<g>
		<rect x="154.3" y="70.7" class="st4" width="28.2" height="27.9"/>
	</g>
	<g>
		<g>
			<path class="st5" d="M153,69.4V100h30.8V69.4H153z M181.2,97.4h-25.6V72h25.6V97.4z"/>
		</g>
	</g>
	<g>
		
			<rect x="154.4" y="83.4" transform="matrix(-1.836970e-16 1 -1 -1.836970e-16 253.0986 -83.6872)" class="st5" width="27.9" height="2.6"/>
	</g>
	<g>
		<rect x="147.1" y="64.2" class="st5" width="40.9" height="5.9"/>
	</g>
</g>
<g>
	<g>
		<rect x="77.2" y="70.7" class="st4" width="28.2" height="27.9"/>
	</g>
	<g>
		<g>
			<path class="st5" d="M75.9,69.4V100h30.8V69.4H75.9z M104.1,97.4H78.5V72h25.6V97.4z"/>
		</g>
	</g>
	<g>
		
			<rect x="77.3" y="83.4" transform="matrix(-1.836970e-16 1 -1 -1.836970e-16 176.0031 -6.5916)" class="st5" width="27.9" height="2.6"/>
	</g>
	<g>
		<rect x="70" y="64.2" class="st5" width="40.9" height="5.9"/>
	</g>
</g>
<g>
	<g>
		<rect x="234.3" y="23.4" class="st6" width="36" height="71.1"/>
	</g>
	<g>
		<rect x="234.3" y="27.3" class="st5" width="36" height="71.1"/>
	</g>
	<g>
		<rect x="240.8" y="13.7" class="st4" width="6.7" height="9.6"/>
	</g>
	<g>
		<rect x="257" y="13.7" class="st4" width="6.7" height="9.6"/>
	</g>
	<g>
		<rect x="232" y="23.4" class="st4" width="40.5" height="5.4"/>
	</g>
</g>
<g>
	<rect x="52" y="280.1" class="st1" width="99.9" height="7.2"/>
</g>
<g>
	<rect x="182.4" y="280.1" class="st1" width="99.9" height="7.2"/>
</g>
<path class="st7" d="M513,427.2c-68.3,0-129.3,2-169.2,5.2c-33.6-1-77.5-1.6-125.5-1.6c-105.8,0-191.6,3-191.6,6.7
	s85.8,6.7,191.6,6.7c28.4,0,55.4-0.2,79.7-0.6c3.4,1.4,9.9,2.7,19.1,4c-7.9,1.9-12.8,4.5-12.8,7.2c0,5.9,21.2,10.6,47.4,10.6
	c26.2,0,47.4-4.8,47.4-10.6c0-0.5-0.1-0.9-0.4-1.4c33.2,1.3,72.4,2.1,114.3,2.1c120.2,0,217.6-6.3,217.6-14.2S633.2,427.2,513,427.2
	z"/>
<g>
	<path class="st7" d="M623.3,414.5H15.8c-2.2,0-3.9-1.8-3.9-3.9v-0.1c0-2.2,1.8-3.9,3.9-3.9h607.5c2.2,0,3.9,1.8,3.9,3.9v0.1
		C627.2,412.8,625.5,414.5,623.3,414.5z"/>
</g>
<g>
	<g>
		<path class="st8" d="M68.3,169.1c1.3-6.8,7.9-13.1,5.2-19.5c-1.8-4.1-6.9-6.1-8.6-10.3c-1.8-4.5,0.3-11.1-4.6-12.9
			c-2.7-1-5.7,0.4-7.1,2.9c-3.8,7.3-5.5,15.7-5,23.9c0.3,5.1-1.9,10-6,13.1c-6.9,5.2-11.1,14.2-10,22.9c-8.1,7.2-12.5,18.2-11.7,29
			c0.7,8.2,4.4,16.1,10.3,22c2.8,2.8,3.8,6.9,2.7,10.8c-0.8,2.9-0.7,5.9,0.2,8.7c1.1,3.4,3.5,6.3,6.5,8.2c2.3,1.4,3.6,3.9,4,6.6
			c0.5,3.7,3.3,7.2,6.9,8.5c5.2,1.8,11.2-0.4,14.9-4.5c3.7-4,5.4-9.6,5.8-15.1c0.3-3.4,0.2-7,1.2-10.3c1.7-5.4,6.2-9.4,8.7-14.5
			c3.4-6.9,2.3-15.6-2.2-21.7c-1.4-2-1.6-4.6-0.4-6.8c1.8-3.4,1.8-7.8,0.7-11.5c-1.6-5.2-5-9.6-7.8-14.2
			C69.6,179.8,67.3,174.4,68.3,169.1z"/>
	</g>
	<g>
		<g>
			<g>
				<path class="st9" d="M36.3,200.4c-0.2-0.1-0.2-0.3-0.1-0.5c0.1-0.2,0.3-0.2,0.5-0.1c0.2,0.1,0.2,0.3,0.1,0.5
					C36.7,200.4,36.4,200.5,36.3,200.4z"/>
			</g>
		</g>
		<g>
			<g>
				<path class="st9" d="M35.1,204.1c-0.3-0.2-0.4-0.6-0.2-0.9s0.6-0.4,1-0.2s0.4,0.6,0.2,0.9C35.9,204.2,35.4,204.3,35.1,204.1z"/>
			</g>
		</g>
		<g>
			<g>
				<path class="st9" d="M49,194c0.4,0.3,0.4,0.9,0.1,1.2s-0.9,0.4-1.2,0.1c-0.4-0.3-0.4-0.9-0.1-1.2C48,193.7,48.6,193.7,49,194z"
					/>
			</g>
		</g>
		<g>
			<g>
				<path class="st9" d="M49.4,199.2c0.5,0.4,0.5,1.1,0.1,1.6c-0.4,0.5-1.1,0.5-1.6,0.1c-0.5-0.4-0.5-1.1-0.1-1.6
					C48.3,198.9,49,198.8,49.4,199.2z"/>
			</g>
		</g>
		<g>
			<g>
				<path class="st9" d="M51.2,191.8c0.4,0.4,0.5,1.1,0.1,1.5s-1.1,0.5-1.5,0.1s-0.5-1.1-0.1-1.5S50.7,191.4,51.2,191.8z"/>
			</g>
		</g>
		<g>
			<g>
				<path class="st9" d="M64.5,185.8c0.3,0.3,0.4,0.8,0.1,1.1c-0.3,0.3-0.8,0.4-1.1,0.1c-0.3-0.3-0.4-0.8-0.1-1.1
					C63.7,185.6,64.2,185.5,64.5,185.8z"/>
			</g>
		</g>
		<g>
			<g>
				<path class="st9" d="M64.8,197.9c0.2,0.2,0.2,0.4,0,0.6c-0.2,0.2-0.4,0.2-0.6,0s-0.2-0.4,0-0.6
					C64.4,197.8,64.7,197.7,64.8,197.9z"/>
			</g>
		</g>
		<g>
			<g>
				<path class="st9" d="M64,201.6c0.3,0.3,0.4,0.8,0.1,1.1c-0.3,0.3-0.8,0.4-1.1,0.1c-0.3-0.3-0.4-0.8-0.1-1.1
					C63.2,201.4,63.7,201.4,64,201.6z"/>
			</g>
		</g>
		<g>
			<g>
				<path class="st9" d="M69.2,203.6c0.4,0.4,0.4,1,0.1,1.4c-0.4,0.4-1,0.4-1.4,0.1s-0.4-1-0.1-1.4
					C68.2,203.3,68.8,203.2,69.2,203.6z"/>
			</g>
		</g>
		<g>
			<g>
				<path class="st9" d="M37.3,185.8c-0.3-0.4-0.2-0.9,0.2-1.1c0.4-0.3,0.9-0.2,1.1,0.2c0.3,0.4,0.2,0.9-0.2,1.1
					C38.1,186.2,37.6,186.1,37.3,185.8z"/>
			</g>
		</g>
		<g>
			<g>
				<path class="st9" d="M34.1,194.5c-0.2-0.3-0.2-0.7,0.2-1c0.3-0.2,0.7-0.2,1,0.1c0.2,0.3,0.2,0.7-0.2,1
					C34.8,194.9,34.4,194.8,34.1,194.5z"/>
			</g>
		</g>
		<g>
			<g>
				<path class="st9" d="M36.8,190.8c-0.5-0.7-0.4-1.7,0.3-2.2c0.7-0.5,1.7-0.4,2.2,0.3c0.5,0.7,0.4,1.7-0.3,2.2
					C38.3,191.6,37.3,191.5,36.8,190.8z"/>
			</g>
		</g>
		<g>
			<g>
				<path class="st9" d="M45,192.8c0.4,0.4,0.5,1,0.1,1.4s-1,0.4-1.4,0.1s-0.5-1-0.1-1.4S44.6,192.4,45,192.8z"/>
			</g>
		</g>
		<g>
			<g>
				<path class="st9" d="M51.6,202.5c0.6,0.6,0.7,1.5,0.1,2.1c-0.5,0.6-1.5,0.7-2.1,0.1s-0.7-1.5-0.1-2.1
					C50,202,51,201.9,51.6,202.5z"/>
			</g>
		</g>
		<g>
			<g>
				<path class="st9" d="M71.1,194.4c0.4,0.3,0.4,0.9,0.1,1.2s-0.9,0.4-1.2,0.1c-0.4-0.3-0.4-0.9-0.1-1.2
					C70.2,194.1,70.8,194.1,71.1,194.4z"/>
			</g>
		</g>
		<g>
			<g>
				<path class="st9" d="M65.4,204.7c0.7,0.6,0.7,1.6,0.1,2.3c-0.6,0.7-1.6,0.7-2.3,0.1c-0.7-0.6-0.7-1.6-0.1-2.3
					C63.7,204.2,64.7,204.1,65.4,204.7z"/>
			</g>
		</g>
		<g>
			<g>
				<path class="st9" d="M74.7,200c0.3,0.3,0.4,0.8,0.1,1.1c-0.3,0.3-0.8,0.4-1.1,0.1c-0.3-0.3-0.4-0.8-0.1-1.1
					C73.8,199.7,74.4,199.7,74.7,200z"/>
			</g>
		</g>
		<g>
			<g>
				<path class="st9" d="M38.1,252.9c0.3,0.3,0.4,0.8,0.1,1.1c-0.3,0.3-0.8,0.4-1.1,0.1c-0.3-0.3-0.4-0.8-0.1-1.1
					C37.3,252.6,37.8,252.6,38.1,252.9z"/>
			</g>
		</g>
		<g>
			<g>
				<path class="st9" d="M45.8,225.4c-0.5-0.7-0.4-1.7,0.3-2.2c0.7-0.5,1.7-0.4,2.2,0.4c0.5,0.7,0.4,1.7-0.3,2.2
					C47.3,226.3,46.3,226.1,45.8,225.4z"/>
			</g>
		</g>
		<g>
			<g>
				<path class="st9" d="M29.7,201.4c-0.4-0.2-0.6-0.8-0.3-1.2c0.2-0.4,0.8-0.6,1.2-0.3c0.4,0.2,0.6,0.8,0.3,1.2
					C30.6,201.5,30.1,201.6,29.7,201.4z"/>
			</g>
		</g>
		<g>
			<g>
				<path class="st9" d="M39.7,258.1c0-0.3,0.2-0.5,0.5-0.6c0.3,0,0.5,0.2,0.6,0.5c0,0.3-0.2,0.5-0.5,0.6
					C40,258.6,39.7,258.4,39.7,258.1z"/>
			</g>
		</g>
		<g>
			<g>
				<path class="st9" d="M37.6,240.1c0-0.6,0.4-1.1,1-1.1c0.6-0.1,1.1,0.4,1.1,1c0,0.6-0.4,1.1-1,1.1
					C38.2,241.1,37.7,240.7,37.6,240.1z"/>
			</g>
		</g>
		<g>
			<g>
				<path class="st9" d="M48.1,264.9c0-0.5,0.3-0.9,0.8-1s1,0.3,1,0.9c0,0.5-0.3,0.9-0.8,1C48.6,265.8,48.2,265.4,48.1,264.9z"/>
			</g>
		</g>
		<g>
			<g>
				<path class="st9" d="M50.1,258c0-0.6,0.4-1.2,1.1-1.3c0.7,0,1.2,0.4,1.3,1.1s-0.4,1.2-1.1,1.3C50.7,259.2,50.1,258.7,50.1,258z"
					/>
			</g>
		</g>
		<g>
			<g>
				<path class="st9" d="M44.8,264.9c0-0.6,0.4-1.2,1-1.2c0.6-0.1,1.2,0.4,1.2,1c0,0.6-0.4,1.2-1,1.2
					C45.4,266,44.9,265.6,44.8,264.9z"/>
			</g>
		</g>
		<g>
			<g>
				<path class="st9" d="M34,233.9c0-0.5,0.3-0.9,0.8-0.9c0.5,0,0.9,0.3,0.9,0.8c0,0.5-0.3,0.9-0.8,0.9
					C34.5,234.8,34.1,234.4,34,233.9z"/>
			</g>
		</g>
		<g>
			<g>
				<path class="st9" d="M37.7,229.7c0-0.2,0.2-0.5,0.4-0.5s0.5,0.2,0.5,0.4s-0.2,0.5-0.4,0.5C37.9,230.1,37.7,229.9,37.7,229.7z"/>
			</g>
		</g>
		<g>
			<g>
				<path class="st9" d="M41.1,227.4c0-0.5,0.3-0.9,0.8-0.9c0.5,0,0.9,0.3,0.9,0.8c0,0.5-0.3,0.9-0.8,0.9
					C41.5,228.3,41.1,227.9,41.1,227.4z"/>
			</g>
		</g>
		<g>
			<g>
				<path class="st9" d="M38.5,222.1c0-0.6,0.4-1.1,1-1.1c0.6-0.1,1.1,0.4,1.1,1c0,0.6-0.4,1.1-1,1.1
					C39.1,223.2,38.6,222.7,38.5,222.1z"/>
			</g>
		</g>
		<g>
			<g>
				<path class="st9" d="M33.7,227.2c0-0.5,0.3-0.9,0.8-0.9c0.5,0,0.9,0.3,0.9,0.8S35,228,34.6,228
					C34.1,228.1,33.7,227.7,33.7,227.2z"/>
			</g>
		</g>
		<g>
			<g>
				<path class="st9" d="M33.2,213c0-0.4,0.3-0.8,0.7-0.8c0.4,0,0.8,0.3,0.8,0.7s-0.3,0.8-0.7,0.8C33.5,213.7,33.2,213.4,33.2,213z"
					/>
			</g>
		</g>
		<g>
			<g>
				<path class="st9" d="M31.2,218.3c-0.1-0.9,0.6-1.7,1.5-1.8c0.9-0.1,1.7,0.6,1.8,1.5c0.1,0.9-0.6,1.7-1.5,1.8
					S31.3,219.2,31.2,218.3z"/>
			</g>
		</g>
		<g>
			<g>
				<path class="st9" d="M44.5,256.7c0-0.6,0.4-1.1,1-1.1c0.6-0.1,1.1,0.4,1.1,1c0,0.6-0.4,1.1-1,1.1S44.5,257.2,44.5,256.7z"/>
			</g>
		</g>
		<g>
			<g>
				<path class="st9" d="M50.8,254c-0.1-0.9,0.6-1.6,1.5-1.7c0.9-0.1,1.6,0.6,1.7,1.4s-0.6,1.6-1.5,1.7
					C51.6,255.5,50.9,254.9,50.8,254z"/>
			</g>
		</g>
		<g>
			<g>
				<path class="st9" d="M34.1,230.7c0-0.5,0.3-0.9,0.8-1c0.5,0,1,0.3,1,0.9c0,0.5-0.3,0.9-0.8,1C34.5,231.6,34.1,231.2,34.1,230.7z
					"/>
			</g>
		</g>
		<g>
			<g>
				<path class="st9" d="M46.2,215.7c-0.1-0.9,0.6-1.8,1.6-1.8c0.9-0.1,1.8,0.6,1.8,1.6s-0.6,1.8-1.6,1.8
					C47,217.4,46.2,216.7,46.2,215.7z"/>
			</g>
		</g>
		<g>
			<g>
				<path class="st9" d="M35.6,212.5c0-0.5,0.3-0.9,0.8-0.9c0.5,0,0.9,0.3,0.9,0.8c0,0.5-0.3,0.9-0.8,0.9
					C36,213.4,35.6,213,35.6,212.5z"/>
			</g>
		</g>
		<g>
			<g>
				<path class="st9" d="M36,209.4c0-0.3,0.2-0.6,0.5-0.6c0.3,0,0.6,0.2,0.6,0.5c0,0.3-0.2,0.6-0.5,0.6
					C36.3,209.9,36,209.7,36,209.4z"/>
			</g>
		</g>
		<g>
			<g>
				<path class="st9" d="M26.8,212.7c0-0.6,0.4-1.2,1-1.2c0.6-0.1,1.2,0.4,1.2,1c0,0.6-0.4,1.1-1,1.2
					C27.4,213.8,26.8,213.4,26.8,212.7z"/>
			</g>
		</g>
		<g>
			<g>
				<path class="st9" d="M29.2,223.3c-0.1-0.7,0.5-1.4,1.2-1.4s1.4,0.5,1.4,1.2c0.1,0.7-0.5,1.4-1.2,1.4
					C29.9,224.6,29.3,224,29.2,223.3z"/>
			</g>
		</g>
	</g>
	<g>
		<path class="st10" d="M55.8,215.2v54.7c-2-0.5-2.6-1.5-3.2-3.8l-1.2,0.3c0.6,2.7,1.5,4.1,4.4,4.8v115.2h1.2V276.6c4-1,7-4,8.7-8.9
			l-1.2-0.4c-1.6,4.4-4.1,7-7.6,8v-49.9c7.8-0.4,11.7-8.6,13.9-14.8l-1.2-0.4c-3.4,9.3-7.3,13.6-12.8,13.9v-23.1
			c2.2-0.9,4.6-3.3,7.3-7.7l-1-0.7c-2.4,3.8-4.5,6.1-6.3,7V169h-1.2v17c-1.4-0.2-3.1-3-4.3-5.2l-1.1,0.6c1.6,3,3.4,5.7,5.4,5.9v26.7
			c-5.7-2-9.7-6.3-12.3-13l-1.2,0.4C45.1,208.5,49.7,213.2,55.8,215.2z"/>
	</g>
</g>
<g>
	<g>
		<g>
			<rect x="1022.5" y="316.5" class="st11" width="25.7" height="57"/>
		</g>
		<g>
			<polygon class="st12" points="1022.5,327.8 1022.5,373.5 1048.1,373.5 1048.1,352.4 			"/>
		</g>
	</g>
	<g>
		<g>
			<polygon class="st0" points="970.8,295.8 1114.2,438.2 1086,438.2 1086,582.8 855.6,582.8 855.6,438.2 827.3,438.2 			"/>
		</g>
		<g>
			<polygon class="st5" points="970.8,313.4 1096.5,438.2 1114.2,438.2 970.8,295.8 827.3,438.2 845,438.2 			"/>
		</g>
		<g>
			<polygon class="st5" points="972.4,297.4 972.4,315 1096.5,438.2 1114.2,438.2 			"/>
		</g>
	</g>
	<g>
		<g>
			<g>
				<g>
					<rect x="922.8" y="440.8" class="st5" width="43.6" height="146.2"/>
				</g>
				<g>
					<rect x="970.1" y="440.8" class="st5" width="43.6" height="146.2"/>
				</g>
			</g>
			<g>
				<g>
					<rect x="922.8" y="454.7" class="st0" width="43.6" height="132.3"/>
				</g>
				<g>
					<rect x="970.1" y="454.7" class="st0" width="43.6" height="132.3"/>
				</g>
			</g>
		</g>
		<g>
			<rect x="894.2" y="419.6" class="st5" width="145.2" height="13.8"/>
		</g>
		<g>
			<g>
				<g>
					<g>
						<rect x="898.2" y="441.4" class="st2" width="20.4" height="20.4"/>
					</g>
					<g>
						<rect x="873.9" y="441.4" class="st2" width="20.4" height="20.4"/>
					</g>
				</g>
				<g>
					<g>
						<rect x="898.2" y="465.6" class="st2" width="20.4" height="20.4"/>
					</g>
					<g>
						<rect x="873.9" y="465.6" class="st2" width="20.4" height="20.4"/>
					</g>
				</g>
			</g>
			<g>
				<g>
					<g>
						<rect x="1042.1" y="441.4" class="st2" width="20.4" height="20.4"/>
					</g>
					<g>
						<rect x="1017.8" y="441.4" class="st2" width="20.4" height="20.4"/>
					</g>
				</g>
				<g>
					<g>
						<rect x="1042.1" y="465.6" class="st2" width="20.4" height="20.4"/>
					</g>
					<g>
						<rect x="1017.8" y="465.6" class="st2" width="20.4" height="20.4"/>
					</g>
				</g>
			</g>
		</g>
	</g>
</g>
<g>
	<g>
		<g>
			<path class="st8" d="M311.3,131.5c1.3-6.8,7.9-13.2,5.2-19.5c-1.8-4.2-6.9-6.1-8.6-10.3c-1.8-4.5,0.3-11.1-4.6-12.9
				c-2.7-1-5.7,0.4-7.1,2.9c-3.8,7.3-5.5,15.7-5,23.9c0.3,5.1-1.9,10-6,13.1c-6.9,5.2-11.1,14.2-10,22.9c-8.1,7.2-12.5,18.2-11.7,29
				c0.7,8.2,4.5,16.1,10.3,22c2.8,2.8,3.8,6.9,2.7,10.8c-0.8,2.9-0.7,5.9,0.2,8.7c1.1,3.4,3.5,6.3,6.5,8.2c2.3,1.4,3.6,3.9,4,6.6
				c0.5,3.7,3.3,7.2,6.9,8.5c5.2,1.8,11.2-0.4,14.9-4.5c3.7-4.1,5.4-9.6,5.8-15.1c0.3-3.4,0.2-7,1.2-10.3c1.7-5.4,6.2-9.4,8.7-14.5
				c3.4-6.9,2.3-15.6-2.2-21.7c-1.4-2-1.6-4.6-0.4-6.8c1.8-3.4,1.8-7.8,0.7-11.5c-1.6-5.2-5-9.6-7.8-14.2
				C312.5,142.2,310.3,136.8,311.3,131.5z"/>
		</g>
		<g>
			<path class="st10" d="M300,237.8v-49.9c7.8-0.4,11.7-8.6,13.9-14.8l-1.2-0.4c-3.4,9.3-7.3,13.6-12.8,13.9v-23.2
				c2.2-0.9,4.6-3.3,7.4-7.7l-1-0.7c-2.4,3.8-4.5,6.1-6.3,7v-30.8h-1.2v17c-1.4-0.2-3.1-3-4.3-5.2l-1.1,0.6c1.6,3,3.4,5.7,5.4,5.9
				v26.7c-5.6-2-9.7-6.3-12.3-13l-1.2,0.4c2.8,7.1,7.3,11.8,13.5,13.9v54.7c-2-0.5-2.6-1.5-3.2-3.8l-1.2,0.3
				c0.6,2.7,1.5,4.1,4.4,4.8v30.5h1.2v-25.1c4-1,7-4,8.7-8.9l-1.2-0.4C306,234.1,303.5,236.8,300,237.8z"/>
		</g>
	</g>
	<g>
		<g>
			<g>
				<g>
					<path class="st9" d="M284.1,220.5c0.7-0.1,1.3,0.4,1.4,1.1c0.1,0.7-0.4,1.3-1,1.4c-0.7,0.1-1.3-0.4-1.4-1.1
						C283,221.2,283.5,220.6,284.1,220.5z"/>
				</g>
			</g>
			<g>
				<g>
					<path class="st9" d="M290.5,224.8c0.9-0.1,1.7,0.5,1.9,1.4s-0.5,1.7-1.4,1.9s-1.7-0.5-1.9-1.4
						C289,225.7,289.6,224.9,290.5,224.8z"/>
				</g>
			</g>
			<g>
				<g>
					<path class="st9" d="M283.7,216c0.8-0.1,1.6,0.4,1.7,1.3c0.1,0.8-0.5,1.6-1.3,1.7c-0.8,0.1-1.6-0.4-1.7-1.3
						C282.3,216.9,282.9,216.1,283.7,216z"/>
				</g>
			</g>
			<g>
				<g>
					<path class="st9" d="M292.2,216.7c0.6-0.1,1.2,0.3,1.3,1c0.1,0.6-0.3,1.2-1,1.3c-0.6,0.1-1.2-0.3-1.3-1
						C291.1,217.4,291.6,216.8,292.2,216.7z"/>
				</g>
			</g>
			<g>
				<g>
					<path class="st9" d="M294.1,211.1c0.3-0.1,0.7,0.2,0.7,0.5c0,0.3-0.2,0.7-0.5,0.7c-0.3,0.1-0.7-0.2-0.7-0.5
						S293.8,211.1,294.1,211.1z"/>
				</g>
			</g>
			<g>
				<g>
					<path class="st9" d="M301.8,225.6c0.6-0.1,1.2,0.3,1.3,1c0.1,0.6-0.3,1.2-1,1.3c-0.6,0.1-1.2-0.3-1.3-1
						C300.7,226.3,301.1,225.7,301.8,225.6z"/>
				</g>
			</g>
			<g>
				<g>
					<path class="st9" d="M308.7,221.6c0.8-0.1,1.5,0.4,1.6,1.2c0.1,0.8-0.4,1.5-1.2,1.6c-0.8,0.1-1.5-0.4-1.6-1.2
						C307.4,222.5,307.9,221.7,308.7,221.6z"/>
				</g>
			</g>
			<g>
				<g>
					<path class="st9" d="M284.4,203.5c0.6-0.1,1.2,0.3,1.3,1c0.1,0.6-0.3,1.2-1,1.3c-0.6,0.1-1.2-0.3-1.3-1
						C283.3,204.2,283.7,203.6,284.4,203.5z"/>
				</g>
			</g>
			<g>
				<g>
					<path class="st9" d="M275.4,193.6c0.5-0.1,1,0.3,1.1,0.8c0.1,0.5-0.3,1-0.8,1.1c-0.5,0.1-1-0.3-1.1-0.8
						C274.4,194.2,274.8,193.7,275.4,193.6z"/>
				</g>
			</g>
			<g>
				<g>
					<path class="st9" d="M278.3,199.5c1.2-0.2,2.4,0.6,2.6,1.9c0.2,1.2-0.6,2.4-1.9,2.6c-1.2,0.2-2.4-0.6-2.6-1.9
						C276.2,200.9,277,199.7,278.3,199.5z"/>
				</g>
			</g>
			<g>
				<g>
					<path class="st9" d="M281.8,209.6c0.8-0.1,1.5,0.4,1.6,1.2c0.1,0.8-0.4,1.5-1.2,1.6c-0.8,0.1-1.5-0.4-1.6-1.2
						C280.5,210.5,281,209.8,281.8,209.6z"/>
				</g>
			</g>
			<g>
				<g>
					<path class="st9" d="M295.2,220.9c1.2-0.2,2.3,0.6,2.5,1.8s-0.6,2.3-1.8,2.5c-1.2,0.2-2.3-0.6-2.5-1.8
						C293.2,222.2,294,221.1,295.2,220.9z"/>
				</g>
			</g>
			<g>
				<g>
					<path class="st9" d="M304.2,214.6c0.7-0.1,1.3,0.4,1.4,1.1c0.1,0.7-0.4,1.3-1,1.4c-0.7,0.1-1.3-0.4-1.4-1.1
						C303,215.4,303.5,214.8,304.2,214.6z"/>
				</g>
			</g>
			<g>
				<g>
					<path class="st9" d="M293.9,235.2c1.3-0.2,2.5,0.7,2.7,2c0.2,1.3-0.7,2.5-2,2.7s-2.5-0.7-2.7-2
						C291.7,236.6,292.6,235.4,293.9,235.2z"/>
				</g>
			</g>
			<g>
				<g>
					<path class="st9" d="M309.7,212.2c0.6-0.1,1.2,0.3,1.3,1c0.1,0.6-0.3,1.2-1,1.3c-0.6,0.1-1.2-0.3-1.3-1
						S309.1,212.3,309.7,212.2z"/>
				</g>
			</g>
			<g>
				<g>
					<path class="st9" d="M308.4,203.9c0.6-0.1,1.2,0.3,1.3,1c0.1,0.6-0.3,1.2-1,1.3c-0.6,0.1-1.2-0.3-1.3-1
						C307.3,204.6,307.7,204,308.4,203.9z"/>
				</g>
			</g>
			<g>
				<g>
					<path class="st9" d="M295.8,201.8c0.8-0.1,1.6,0.4,1.7,1.3c0.1,0.8-0.4,1.6-1.3,1.7c-0.8,0.1-1.6-0.4-1.7-1.3
						C294.3,202.7,294.9,201.9,295.8,201.8z"/>
				</g>
			</g>
			<g>
				<g>
					<path class="st9" d="M305.9,167.8c0.6-0.4,1.4-0.2,1.7,0.4c0.4,0.6,0.2,1.4-0.4,1.7c-0.6,0.4-1.4,0.2-1.7-0.4
						C305.1,169,305.3,168.2,305.9,167.8z"/>
				</g>
			</g>
			<g>
				<g>
					<path class="st9" d="M283.2,177.7c0.2,0.1,0.4,0.4,0.3,0.7c-0.1,0.2-0.4,0.4-0.7,0.3c-0.2-0.1-0.4-0.4-0.3-0.7
						S282.9,177.6,283.2,177.7z"/>
				</g>
			</g>
			<g>
				<g>
					<path class="st9" d="M284.2,172.1c0.5,0.2,0.8,0.8,0.5,1.3s-0.8,0.8-1.3,0.5s-0.8-0.8-0.5-1.3S283.6,171.9,284.2,172.1z"/>
				</g>
			</g>
			<g>
				<g>
					<path class="st9" d="M288.7,184.5c0.5,0.2,0.6,0.7,0.5,1.1c-0.2,0.4-0.7,0.6-1.1,0.5c-0.5-0.2-0.6-0.7-0.5-1.1
						C287.7,184.5,288.3,184.3,288.7,184.5z"/>
				</g>
			</g>
			<g>
				<g>
					<path class="st9" d="M290.9,189.3c0.6,0.2,0.8,0.9,0.6,1.5s-0.9,0.8-1.5,0.6c-0.6-0.2-0.8-0.9-0.6-1.5S290.3,189.1,290.9,189.3
						z"/>
				</g>
			</g>
			<g>
				<g>
					<path class="st9" d="M290.1,181.7c0.5,0.2,0.8,0.9,0.6,1.4s-0.9,0.8-1.4,0.6s-0.8-0.9-0.6-1.4
						C288.9,181.7,289.5,181.4,290.1,181.7z"/>
				</g>
			</g>
			<g>
				<g>
					<path class="st9" d="M294.9,185.2c0.4,0.2,0.6,0.6,0.4,1.1c-0.2,0.4-0.6,0.6-1.1,0.4c-0.4-0.2-0.6-0.6-0.4-1.1
						C294,185.2,294.4,185,294.9,185.2z"/>
				</g>
			</g>
			<g>
				<g>
					<path class="st9" d="M296.8,190.1c0.2,0.1,0.3,0.4,0.2,0.6c-0.1,0.2-0.4,0.3-0.6,0.2c-0.2-0.1-0.3-0.4-0.2-0.6
						C296.4,190.1,296.6,190,296.8,190.1z"/>
				</g>
			</g>
			<g>
				<g>
					<path class="st9" d="M297.2,193.9c0.4,0.2,0.6,0.6,0.4,1.1c-0.2,0.4-0.6,0.6-1.1,0.4c-0.4-0.2-0.6-0.6-0.4-1.1
						C296.4,193.9,296.8,193.8,297.2,193.9z"/>
				</g>
			</g>
			<g>
				<g>
					<path class="st9" d="M302.8,194.1c0.5,0.2,0.8,0.8,0.5,1.3s-0.8,0.8-1.3,0.5s-0.8-0.8-0.5-1.3S302.3,193.9,302.8,194.1z"/>
				</g>
			</g>
			<g>
				<g>
					<path class="st9" d="M295.7,178.9c0.8,0.3,1.2,1.2,0.8,2.1c-0.3,0.8-1.2,1.2-2,0.8c-0.8-0.3-1.2-1.2-0.8-2.1
						C294,178.9,294.9,178.6,295.7,178.9z"/>
				</g>
			</g>
			<g>
				<g>
					<path class="st9" d="M284.6,184.6c0.5,0.2,0.8,0.8,0.5,1.3s-0.8,0.8-1.3,0.5s-0.8-0.8-0.5-1.3
						C283.5,184.6,284.1,184.4,284.6,184.6z"/>
				</g>
			</g>
			<g>
				<g>
					<path class="st9" d="M293.9,191.7c0.8,0.3,1.1,1.2,0.8,2c-0.3,0.8-1.2,1.1-2,0.8c-0.8-0.3-1.1-1.2-0.8-2
						C292.3,191.7,293.2,191.4,293.9,191.7z"/>
				</g>
			</g>
			<g>
				<g>
					<path class="st9" d="M297.6,186.6c0.4,0.2,0.6,0.7,0.5,1.1s-0.7,0.6-1.1,0.5c-0.4-0.2-0.6-0.7-0.5-1.1
						C296.6,186.6,297.1,186.4,297.6,186.6z"/>
				</g>
			</g>
			<g>
				<g>
					<path class="st9" d="M306.9,188.9c0.4,0.2,0.6,0.6,0.4,1.1c-0.2,0.4-0.6,0.6-1.1,0.4c-0.4-0.2-0.6-0.6-0.4-1.1
						C306,188.9,306.4,188.7,306.9,188.9z"/>
				</g>
			</g>
			<g>
				<g>
					<path class="st9" d="M308.1,195.1c0.4,0.2,0.6,0.6,0.4,1.1c-0.2,0.4-0.6,0.6-1.1,0.4c-0.4-0.2-0.6-0.6-0.4-1.1
						C307.2,195.2,307.7,195,308.1,195.1z"/>
				</g>
			</g>
			<g>
				<g>
					<path class="st9" d="M302.4,177.6c0.5,0.2,0.8,0.9,0.6,1.4s-0.9,0.8-1.4,0.6s-0.8-0.9-0.6-1.4
						C301.2,177.7,301.8,177.4,302.4,177.6z"/>
				</g>
			</g>
			<g>
				<g>
					<path class="st9" d="M292.4,175.1c0.6,0.3,0.9,1,0.7,1.6s-1,0.9-1.6,0.7c-0.6-0.3-0.9-1-0.7-1.6
						C291,175.1,291.8,174.8,292.4,175.1z"/>
				</g>
			</g>
		</g>
	</g>
</g>
<g>
	<path class="st8" d="M89.3,290.1c-0.1-1-1.8-1.2-2.4-2.1c-0.9-1.5-2.3-2.3-4.1-2.2c-1.5,0.1-3-0.2-3.9,1.2
		c-0.9,1.4-2.1,2.5-2.9,3.9c-0.6,1-2.6,1.5-2.3,2.8c0.2,1.4,1.3,2.1,0.8,3.6c-0.3,0.8-0.7,1.5-0.8,2.3c-0.8,0-1.5,0-2.3,0.1
		c-2.1,0.2-4.1,0.1-6.2,0.8c-1.6,0.5-2.9,0.6-4.4,1.6c-1.4,1-2.7,2.2-4.2,3c-1.6,0.9-1.3,1.7-1.6,3.3c-0.3,1.6-2.7,1.1-3,2.9
		c-0.3,1.7-0.9,3.1-1.3,4.8c-0.4,2,0.1,4.3-0.5,6.3c-0.5,1.6-1,2.4,0.6,3.4c2,1.3,0.3,2.1,1.1,3.8c-2.4-0.7-4.4-0.5-6.1,1.6
		c-0.8,0.9-1.4,1.6-1.9,2.7c-0.5,1-1.4,1.2-2.2,1.9c-0.9,0.9,0,2.2-0.2,3.2c-0.2,1.2-1.6,1.9-1.2,3.2c0.4,1.3,0.8,2,0.4,3.4
		c-0.4,1.4-0.1,2.8,0,4.3c-1-0.9-2.7-0.9-3.8-1.5c-1.5-0.8-3.3-0.2-4.8,0.4c-1.9,0.7-2,1.7-3.2,2.9c-0.9,0.9-3.2-0.3-3.4,1.4
		c-0.2,1.6,0.3,2.4-1,3.7c-1.4,1.4-0.4,2.4-0.8,4c-0.4,1.6-0.4,3.6-0.7,5.4c-0.2,1.3-1.9,1.9-2.2,3.4c-0.4,1.9-0.3,2.3,0.9,3.7
		c0.8,1.1,0.6,3.2,0.5,4.5c-0.2,1.8-0.3,2.3-1.4,3.6c-1,1.1-0.2,3.7,0.3,5c0.5,1.3,1,2.1,1.8,3.3c1,1.6-1.1,2.6,1.2,3.4
		c1.1,0.4,2.8,0.4,3.9,0.4c1.5,0,2.3-1.1,4-0.8c1.3,0.2,2.6-0.1,4-0.1c1.2,0,1.5,1.4,2.7,1.4c1.3,0,1.4-1.7,2.7-1.7
		c1.6,0,2.9,0.3,4.5,0c1.5-0.2,1.6,0.5,2.6,1.4c0.8,0.8,2.5,0.2,3.5,0.2c0.9,0,3-0.3,3.6-0.9c1-0.9,1.8-1.5,3-0.3
		c0.9,0.9,1.8,0.7,2.8,0.2c1.4-0.7,2.4,0.4,3.8,0.4c1.3,0,2.7,0,4-0.2c1.6-0.1,3.3,0.7,4.8,0.3c1.3-0.3,2.1-0.7,3.4-0.1
		c1.3,0.6,2.5-0.1,3.8-0.1c1.3,0,2.1,1,3.4,0.6c1.4-0.4,3-0.9,4.5-0.9c1.2,0,2.2,0.5,3.4,0.3c1.1-0.2,2.1-0.5,3.2,0
		c0.9,0.4,2.4,0.6,3.4,0.6c1.5-0.1,0.3-2,0-2.9c-0.3-1.2,0.6-2.1,0.5-3.3c-0.1-1.2-0.4-2.9-1.1-3.9c-0.8-1.3-0.4-2,0-3.3
		c0.4-1.6-1.2-2.9-0.2-4.4c0.6-1,1.1-1.7,0.2-2.7c-0.7-0.8-1.4-1.5-0.6-2.5c2-2.6,0.1-4.2-0.1-7.1c-0.2-3-1.1-5.8-1.3-8.8
		c-0.2-3.2-0.7-6.5-0.9-9.7c-0.1-1.1,1.4-1.7,1.3-2.8c-0.1-1.5-0.3-3-0.4-4.4c-0.1-1.3-1-2.3-1.1-3.5c-0.1-1.8-0.1-3.6-0.2-5.3
		c-0.2-2.6,2-4.9-0.5-6.8c-2-1.6,1.1-4.8,0.2-7.2c-0.9-2.5-1.9-5.4-1.8-8.1c0.1-2.8,1.6-6.5-0.3-8.7c-1.1-1.3,0-2.3-0.1-3.7
		c-0.1-1.4-0.5-2.6-0.2-4C93.2,287.1,90.6,287.3,89.3,290.1C89.2,289.1,89.8,288.9,89.3,290.1z"/>
</g>
<g>
	<g>
		<rect x="38.3" y="350.3" class="st11" width="45.9" height="47.9"/>
	</g>
	<g>
		<polygon class="st12" points="84.2,362.7 48.7,398.2 84.2,398.2 		"/>
	</g>
</g>
<g>
	<g>
		<rect x="92.4" y="328.1" class="st13" width="46.9" height="68.6"/>
	</g>
	<g>
		<polygon class="st14" points="92.4,391.6 92.4,396.7 139.3,396.7 139.3,344.7 		"/>
	</g>
</g>
<g>
	<g>
		<g>
			<g>
				<rect x="125.4" y="306.2" class="st15" width="349.1" height="102"/>
			</g>
		</g>
		<g>
			<g>
				<g>
					<rect x="453.2" y="297.6" class="st2" width="21.3" height="111.6"/>
				</g>
			</g>
			<g>
				<g>
					<rect x="429.7" y="297.6" class="st2" width="20.7" height="111.6"/>
				</g>
			</g>
			<g>
				<g>
					<rect x="406.1" y="297.6" class="st2" width="20.7" height="111.6"/>
				</g>
			</g>
			<g>
				<g>
					<rect x="382.5" y="297.6" class="st2" width="20.7" height="111.6"/>
				</g>
			</g>
			<g>
				<g>
					<rect x="359" y="297.6" class="st2" width="20.7" height="111.6"/>
				</g>
			</g>
			<g>
				<g>
					<rect x="335.4" y="297.6" class="st2" width="20.7" height="111.6"/>
				</g>
			</g>
			<g>
				<g>
					<rect x="311.8" y="297.6" class="st2" width="20.7" height="111.6"/>
				</g>
			</g>
			<g>
				<g>
					<rect x="288.3" y="297.6" class="st2" width="20.7" height="111.6"/>
				</g>
			</g>
			<g>
				<g>
					<rect x="264.7" y="297.6" class="st2" width="20.7" height="111.6"/>
				</g>
			</g>
			<g>
				<g>
					<rect x="241.1" y="297.6" class="st2" width="20.7" height="111.6"/>
				</g>
			</g>
			<g>
				<g>
					<rect x="217.6" y="297.6" class="st2" width="20.7" height="111.6"/>
				</g>
			</g>
			<g>
				<g>
					<rect x="194" y="297.6" class="st2" width="20.7" height="111.6"/>
				</g>
			</g>
			<g>
				<g>
					<rect x="170.4" y="297.6" class="st2" width="20.7" height="111.6"/>
				</g>
			</g>
			<g>
				<g>
					<rect x="146.9" y="297.6" class="st2" width="20.7" height="111.6"/>
				</g>
			</g>
			<g>
				<g>
					<rect x="125.4" y="297.6" class="st2" width="18.7" height="111.6"/>
				</g>
			</g>
		</g>
		<g>
			<g>
				<g>
					<rect x="453.2" y="300.8" class="st7" width="21.3" height="108.4"/>
				</g>
			</g>
			<g>
				<g>
					<rect x="429.7" y="300.8" class="st7" width="20.7" height="108.4"/>
				</g>
			</g>
			<g>
				<g>
					<rect x="406.1" y="300.8" class="st7" width="20.7" height="108.4"/>
				</g>
			</g>
			<g>
				<g>
					<rect x="382.5" y="300.8" class="st7" width="20.7" height="108.4"/>
				</g>
			</g>
			<g>
				<g>
					<rect x="359" y="300.8" class="st7" width="20.7" height="108.4"/>
				</g>
			</g>
			<g>
				<g>
					<rect x="335.4" y="300.8" class="st7" width="20.7" height="108.4"/>
				</g>
			</g>
			<g>
				<g>
					<rect x="311.8" y="300.8" class="st7" width="20.7" height="108.4"/>
				</g>
			</g>
			<g>
				<g>
					<rect x="288.3" y="300.8" class="st7" width="20.7" height="108.4"/>
				</g>
			</g>
			<g>
				<g>
					<rect x="264.7" y="300.8" class="st7" width="20.7" height="108.4"/>
				</g>
			</g>
			<g>
				<g>
					<rect x="241.1" y="300.8" class="st7" width="20.7" height="108.4"/>
				</g>
			</g>
			<g>
				<g>
					<rect x="217.6" y="300.8" class="st7" width="20.7" height="108.4"/>
				</g>
			</g>
			<g>
				<g>
					<rect x="194" y="300.8" class="st7" width="20.7" height="108.4"/>
				</g>
			</g>
			<g>
				<g>
					<rect x="170.4" y="300.8" class="st7" width="20.7" height="108.4"/>
				</g>
			</g>
			<g>
				<g>
					<rect x="146.9" y="300.8" class="st7" width="20.7" height="108.4"/>
				</g>
			</g>
			<g>
				<g>
					<rect x="125.4" y="300.8" class="st7" width="18.7" height="108.4"/>
				</g>
			</g>
		</g>
		<g>
			<g>
				<g>
					<rect x="453.2" y="394.8" class="st11" width="21.3" height="14.4"/>
				</g>
			</g>
			<g>
				<g>
					<rect x="429.7" y="394.8" class="st11" width="20.7" height="14.4"/>
				</g>
			</g>
			<g>
				<g>
					<rect x="406.1" y="394.8" class="st11" width="20.7" height="14.4"/>
				</g>
			</g>
			<g>
				<g>
					<rect x="382.5" y="394.8" class="st11" width="20.7" height="14.4"/>
				</g>
			</g>
			<g>
				<g>
					<rect x="359" y="394.8" class="st11" width="20.7" height="14.4"/>
				</g>
			</g>
			<g>
				<g>
					<rect x="335.4" y="394.8" class="st11" width="20.7" height="14.4"/>
				</g>
			</g>
			<g>
				<g>
					<rect x="311.8" y="394.8" class="st11" width="20.7" height="14.4"/>
				</g>
			</g>
			<g>
				<g>
					<rect x="288.3" y="394.8" class="st11" width="20.7" height="14.4"/>
				</g>
			</g>
			<g>
				<g>
					<rect x="264.7" y="394.8" class="st11" width="20.7" height="14.4"/>
				</g>
			</g>
			<g>
				<g>
					<rect x="241.1" y="394.8" class="st11" width="20.7" height="14.4"/>
				</g>
			</g>
			<g>
				<g>
					<rect x="217.6" y="394.8" class="st11" width="20.7" height="14.4"/>
				</g>
			</g>
			<g>
				<g>
					<rect x="194" y="394.8" class="st11" width="20.7" height="14.4"/>
				</g>
			</g>
			<g>
				<g>
					<rect x="170.4" y="394.8" class="st11" width="20.7" height="14.4"/>
				</g>
			</g>
			<g>
				<g>
					<rect x="146.9" y="394.8" class="st11" width="20.7" height="14.4"/>
				</g>
			</g>
			<g>
				<g>
					<rect x="125.4" y="394.8" class="st11" width="18.7" height="14.4"/>
				</g>
			</g>
		</g>
	</g>
</g>
<g>
	<g>
		<g>
			<polygon class="st0" points="652.6,216.4 693.2,264.3 693.2,247.7 711,247.7 711,285.2 732.6,310.8 716.9,310.8 716.9,391.4 
				588.3,391.4 588.3,310.8 572.6,310.8 			"/>
		</g>
		<g>
			<g>
				<g>
					<rect x="692.8" y="311.4" class="st0" width="14.4" height="14.4"/>
				</g>
				<g>
					<rect x="675.6" y="311.4" class="st0" width="14.4" height="14.4"/>
				</g>
			</g>
			<g>
				<g>
					<rect x="692.8" y="328.5" class="st0" width="14.4" height="14.4"/>
				</g>
				<g>
					<rect x="675.6" y="328.5" class="st0" width="14.4" height="14.4"/>
				</g>
			</g>
		</g>
	</g>
	<g>
		<g>
			<g>
				<rect x="659.8" y="353.1" class="st0" width="76.7" height="52.3"/>
			</g>
		</g>
		<g>
			<g>
				<rect x="732.8" y="350.4" class="st0" width="5.3" height="55.6"/>
			</g>
		</g>
		<g>
			<g>
				<rect x="722.4" y="350.4" class="st0" width="5.3" height="55.6"/>
			</g>
		</g>
		<g>
			<g>
				<rect x="712" y="350.4" class="st0" width="5.3" height="55.6"/>
			</g>
		</g>
		<g>
			<g>
				<rect x="701.6" y="350.4" class="st0" width="5.3" height="55.6"/>
			</g>
		</g>
		<g>
			<g>
				<rect x="691.2" y="350.4" class="st0" width="5.3" height="55.6"/>
			</g>
		</g>
		<g>
			<g>
				<rect x="680.7" y="350.4" class="st0" width="5.3" height="55.6"/>
			</g>
		</g>
		<g>
			<g>
				<rect x="670.3" y="350.4" class="st0" width="5.3" height="55.6"/>
			</g>
		</g>
		<g>
			<g>
				<rect x="660.2" y="350.4" class="st0" width="4.8" height="55.6"/>
			</g>
		</g>
	</g>
</g>
<g>
	<path class="st10" d="M438.4,377.4c-1.1-1.1-0.5-3.1,0.8-4s1.2-0.7,4.4-1.6c1.8-0.5,3.4-1.6,6.3-4.8c3,0.4,6.1,0.5,9.2,0.1
		c0.8,3.2,1,6.5,0.8,9.7C452.8,377.3,445.6,377.5,438.4,377.4z"/>
</g>
<g>
	<g>
		<g>
			<g>
				<g>
					<g>
						<g>
							<g>
								<path class="st15" d="M330.9,331.4c-0.3,2-0.2,8.9-0.5,10.9l32.5-0.1c-0.1-0.7-1.4-9.2-1.6-9.9c-1.8-6-1.4-8.1-1.6-14.4
									c-0.2-7,1.2-9.8,2.8-16.5c0.8-3.3,0.9-6.7-2.6-11c-2.5-3.1-3.3-4.5-6.4-10c-1.7-3-5.1-1.5-8.4-2c-1.4-0.2-3.8,2-5,2.8
									c-0.9,0.6-2.4,3.1-2.8,4.1c-1,2.7-1.4,5.9-1.7,8.7c-0.8,7.8,1.1,11.1,0.5,18.9C335.5,319.4,332.1,324.3,330.9,331.4z"/>
							</g>
						</g>
					</g>
				</g>
			</g>
		</g>
	</g>
</g>
<g>
	<rect x="366.8" y="276.8" class="st11" width="45.4" height="48"/>
</g>
<g>
	<path class="st16" d="M357,297.5c-1.1-2.9-2-4.6-3-8.8c-0.7-3-2.1-8-4.9-8.9s-6.3,0-7.9,2.6c-1.3,2.2-1,5.1-0.5,7.6
		c1,5,2.6,9.9,4.8,14.4c3.8,7.8,8.9,12.5,15.8,17.3c6.9,4.9,13.2,7.7,23.8,10.6c0.9-1.7,1.9-3.9,2.7-5.6
		C375.1,320,362.4,311.4,357,297.5z"/>
</g>
<g>
	<path class="st10" d="M489.4,270.5c-3.9,2-8.2,3-12.5,3.4c-1.3,0.1-2.7,0.2-3.8-0.4c-1.1-0.6-1.9-2.1-1.3-3.2
		c10.7-1.5,20.8-6.6,28.4-14.3c0.9,1.6,0.1,3.7-0.9,5.3C496.9,265.1,493.4,268.3,489.4,270.5z"/>
</g>
<g>
	<path class="st9" d="M489.4,271c-0.6-1.2-1.1-2.4-1.5-3.7l1-0.3c0.3,1.2,0.8,2.4,1.4,3.5L489.4,271z"/>
</g>
<g>
	<path class="st9" d="M477.1,276.8c-0.9-2-1.4-4.2-1.4-6.5l1,0c0,2.1,0.4,4.1,1.3,6L477.1,276.8z"/>
</g>
<g>
	<path class="st10" d="M346.8,316c2,2.6,4.3,5.1,7,6.9c0.9,0.6,1.8,1.1,2.8,1.2c1,0.1,2.1-0.1,2.8-0.9c0.9-1,0.8-2.5,0.5-3.8
		c-2.7-13.6-16.9-22.6-19.8-36.2c-2.5,5.3-2.7,11.5-1.3,17.2S343.2,311.4,346.8,316z"/>
</g>
<g>
	<g>
		<g>
			<g>
				<rect x="539" y="340.5" class="st10" width="159" height="68"/>
			</g>
			<g>
				<g>
					<path class="st10" d="M684,380.9c-3.3,0-12,0-15.2,0c-4.9,0-8.8,13-8.8,28.9s3.9,28.9,8.8,28.9c3.3,0,12,0,15.2,0
						c4.9,0,8.8-13,8.8-28.9C692.8,393.9,688.9,380.9,684,380.9z"/>
				</g>
				<g>
					<path class="st17" d="M690.4,411.5c0,11.7-2.7,21.1-6.1,21.1c-3.4,0-6.1-9.5-6.1-21.1s2.7-21.1,6.1-21.1
						S690.4,399.9,690.4,411.5z"/>
				</g>
			</g>
			<g>
				<path class="st18" d="M687.4,251.3l-71.8-52.4v209.4h55v-20.6c0-7,6.3-12.4,13.3-11.2l0.2,0c6.5,1.1,11.3,6.8,11.3,13.4v18.4
					h8.2v-88.2c0-0.7-0.1-1.5-0.2-2.2l-9.3-55.9C693.3,257.8,690.9,253.9,687.4,251.3z"/>
			</g>
			<g>
				<g>
					<path class="st19" d="M709.2,319h-1.5c-2.7,0-4.9-2.2-4.9-4.9v-14.1c0-2.7,2.2-4.9,4.9-4.9h1.5c2.7,0,4.9,2.2,4.9,4.9v14.1
						C714.1,316.9,711.9,319,709.2,319z"/>
				</g>
				<g>
					<path class="st2" d="M707.9,319h-1.5c-2.7,0-4.9-2.2-4.9-4.9v-14.1c0-2.7,2.2-4.9,4.9-4.9h1.5c2.7,0,4.9,2.2,4.9,4.9v14.1
						C712.8,316.9,710.6,319,707.9,319z"/>
				</g>
			</g>
			<g>
				<path class="st10" d="M671.5,253.8l-0.6,54.1c0,1,0.7,1.9,1.7,2l23,3.8c1.4,0.2,2.6-1,2.3-2.3l-8.1-49.1
					c-0.1-0.6-0.4-1.1-0.9-1.4l-14.3-8.9C673.2,251.3,671.5,252.2,671.5,253.8z"/>
			</g>
			<g>
				<path class="st20" d="M681,321l-6.1-0.8c-0.9-0.1-1.6-0.9-1.6-1.8v-1.4l9,1.1l0,1.8C682.2,320.6,681.6,321.1,681,321z"/>
			</g>
			<g>
				<g>
					<path class="st10" d="M698.4,395.4l-1.3,0c0.7-17.4-7.5-19.5-7.5-19.5l-21-2.8V243.6h1.3v128.4l19.9,2.6
						C690.2,374.6,699.1,376.9,698.4,395.4z"/>
				</g>
			</g>
		</g>
		<g>
			<g>
				<path class="st10" d="M380,357c-5.3,0-19.4,0-24.7,0c-7.9,0-14.2,21-14.2,46.9s6.4,46.9,14.2,46.9c5.3,0,19.4,0,24.7,0
					c7.9,0,14.2-21,14.2-46.9C394.3,378,387.9,357,380,357z"/>
			</g>
			<g>
				<path class="st17" d="M386.9,406.9c0,17.2-2.7,31.2-6.1,31.2c-3.4,0-6.1-14-6.1-31.2s2.7-31.2,6.1-31.2
					C384.2,375.7,386.9,389.7,386.9,406.9z"/>
			</g>
		</g>
		<g>
			<g>
				<path class="st10" d="M538.1,357c-5.3,0-19.4,0-24.7,0c-7.9,0-14.2,21-14.2,46.9s6.4,46.9,14.2,46.9c5.3,0,19.4,0,24.7,0
					c7.9,0,14.2-21,14.2-46.9C552.3,378,545.9,357,538.1,357z"/>
			</g>
			<g>
				<ellipse class="st17" cx="538.8" cy="406.9" rx="6.1" ry="31.2"/>
			</g>
		</g>
		<g>
			<g>
				<path class="st10" d="M418.6,357c-5.3,0-19.4,0-24.7,0c-7.9,0-14.2,21-14.2,46.9s6.4,46.9,14.2,46.9c5.3,0,19.4,0,24.7,0
					c7.9,0,14.2-21,14.2-46.9C432.9,378,426.5,357,418.6,357z"/>
			</g>
			<g>
				<ellipse class="st17" cx="419.4" cy="406.9" rx="6.1" ry="31.2"/>
			</g>
		</g>
		<g>
			<g>
				<path class="st10" d="M578.5,357c-5.3,0-19.4,0-24.7,0c-7.9,0-14.2,21-14.2,46.9s6.4,46.9,14.2,46.9c5.3,0,19.4,0,24.7,0
					c7.9,0,14.2-21,14.2-46.9C592.7,378,586.4,357,578.5,357z"/>
			</g>
			<g>
				<path class="st17" d="M587.2,406.9c0,17.2-2.7,31.2-6.1,31.2c-3.4,0-6.1-14-6.1-31.2s2.7-31.2,6.1-31.2
					C584.5,375.7,587.2,389.7,587.2,406.9z"/>
			</g>
		</g>
		<g>
			<g>
				<g>
					<polygon class="st10" points="667.2,236.6 615.6,198.9 615.6,408.3 667.2,408.3 					"/>
				</g>
				<g>
					<polygon class="st5" points="313.2,139.4 313.2,408.3 529.1,408.3 529.1,86.1 					"/>
				</g>
				<g>
					<polygon class="st10" points="521.2,98.2 320.2,147.8 320.2,408.6 521.2,408.6 					"/>
				</g>
			</g>
			<g>
				<path class="st4" d="M529.1,86.1v322.2H559v-41.6c0-9.4,8.4-16.5,17.7-14.9l8.6,1.5c8.2,1.4,14.3,8.6,14.3,17v38h64.9v-224
					L529.1,86.1z"/>
			</g>
			<g>
				<polygon class="st5" points="664.4,214.1 529.1,130.1 529.1,222.8 664.4,272.4 				"/>
			</g>
			<g>
				<g>
					
						<rect x="599.2" y="73" transform="matrix(0.5533 -0.833 0.833 0.5533 143.756 566.7765)" class="st10" width="2.3" height="152.8"/>
				</g>
			</g>
			<g>
				<g>
					
						<rect x="600.9" y="273.9" transform="matrix(0.1419 -0.9899 0.9899 0.1419 182.4398 885.5762)" class="st10" width="2.3" height="127.3"/>
				</g>
			</g>
			<g>
				<g>
					
						<rect x="597.6" y="184.7" transform="matrix(0.3201 -0.9474 0.9474 0.3201 165.4652 740.57)" class="st10" width="2.3" height="140.6"/>
				</g>
			</g>
		</g>
		<g>
			<polygon class="st10" points="668.1,392.7 597.1,386.9 597.1,410.3 668.1,410.3 			"/>
		</g>
		<g>
			<polygon class="st10" points="693.8,394.8 693.8,410.3 703.9,410.3 703.9,395.6 			"/>
		</g>
		<g>
			<polygon class="st10" points="562.2,384.1 537.9,382.1 537.9,410.3 562.2,410.3 			"/>
		</g>
		<g>
			<g>
				<path class="st10" d="M537.9,410.3H311.4c-3.5,0-6.3-2.8-6.3-6.3v-15.6c0-3.5,2.8-6.3,6.3-6.3h226.5V410.3z"/>
			</g>
			<g>
				<path class="st2" d="M537.9,385.9v-3.7H311.4c-2.6,0-4.8,1.5-5.7,3.7H537.9z"/>
			</g>
			<g>
				<path class="st21" d="M334.1,397.9h-13.9c-2.5,0-4.5-2-4.5-4.5v-0.1c0-2.5,2-4.5,4.5-4.5h13.9c2.5,0,4.5,2,4.5,4.5v0.1
					C338.7,395.9,336.7,397.9,334.1,397.9z"/>
			</g>
			<g>
				<path class="st21" d="M514.2,397.9h-13.9c-2.5,0-4.5-2-4.5-4.5v-0.1c0-2.5,2-4.5,4.5-4.5h13.9c2.5,0,4.5,2,4.5,4.5v0.1
					C518.8,395.9,516.7,397.9,514.2,397.9z"/>
			</g>
		</g>
	</g>
	<g>
		<g>
			<g>
				<rect x="323.9" y="275.2" class="st13" width="98.9" height="102.6"/>
			</g>
			<g>
				<polygon class="st2" points="413,367.8 409.4,363.5 405.8,367.8 407.6,367.8 407.6,375.2 411.1,375.2 411.1,367.8 				"/>
			</g>
		</g>
		<g>
			<path class="st2" d="M403.3,375.1h-11.2v-11.2h11.2V375.1z M393.1,374.1h9.2v-9.2h-9.2V374.1z"/>
		</g>
		<g>
			<path class="st2" d="M390.6,375.1h-11.2v-11.2h11.2V375.1z M380.4,374.1h9.2v-9.2h-9.2V374.1z"/>
		</g>
	</g>
	<g>
		<g>
			<rect x="348.6" y="193.4" class="st13" width="72.2" height="74.9"/>
		</g>
		<g>
			<polygon class="st13" points="414.8,242 407.3,233.1 399.7,242 403.6,242 403.6,244.7 410.9,244.7 410.9,242 			"/>
		</g>
	</g>
	<g>
		<rect x="425" y="223.7" class="st22" width="72.2" height="153.4"/>
		<g>
			<rect x="425" y="223.7" class="st23" width="14.9" height="153.4"/>
		</g>
		<g>
			<polygon class="st2" points="491.2,368.1 483.7,359.2 476.1,368.1 480,368.1 480,370.8 487.3,370.8 487.3,368.1 			"/>
		</g>
	</g>
</g>
<g>
	<g>
		<g>
			<g>
				<g>
					<g>
						<g>
							<g>
								<g>
									<path class="st16" d="M-307.5,131.8c-0.1-0.2-0.1-0.5,0-0.8c1.3-4.8,3.5-12.2,4.8-17c2.2,0.6,3.7,3.4,6,3.3
										c-0.6,5.5,0.8,10,1.4,15.5c-4.7-0.4-6.7-0.4-11.4-0.8C-307,132.1-307.4,132-307.5,131.8z"/>
								</g>
							</g>
						</g>
					</g>
				</g>
			</g>
		</g>
		<g>
			<g>
				<g>
					<g>
						<g>
							<g>
								<g>
									<path class="st16" d="M-303.9,104.8c1.3-2.2,3.6-3.8,6-4.2s6.7,0.8,8.6,2.5c1,0.9,1.1,3.3,1.2,4.6c0.1,1.1-0.4,1.8-0.2,2.8
										c0.1,1.1,0.2,1.1,0.4,1.7c0.3,1,0.4,2,0.3,3.1c-0.4,2.9-2.4,5.2-3.5,7.9c-0.3,0.8-1.2,1.2-2,0.9c-3.6-1.3-7.1-3.3-9.5-6.5
										C-305.4,114.1-306.2,108.7-303.9,104.8z"/>
								</g>
							</g>
						</g>
					</g>
				</g>
			</g>
		</g>
		<g>
			<g>
				<g>
					<g>
						<g>
							<g>
								<g>
									<path class="st10" d="M-286.3,103.4c-0.1,2.5-1.9,4.8-4.2,5.4c0.1-0.3,0.2-0.5,0.3-0.8c-1.1,2-3.2,3.4-5.4,3.7
										c0.1-0.3,0.3-0.6,0.4-0.9c-0.7,1.6-2.3,2.5-3.8,3.4c-1.5,0.8-3.1,1.8-3.7,3.5c-2.1-1.2-3.6-3.4-4.5-5.8
										c-0.8-2.4-0.9-5-0.6-7.5c0.2-2,0.8-4.1,2.3-5.3c1.8-1.5,0.8-0.8,2.9-1.8C-293.6,92.7-286.2,100.9-286.3,103.4z"/>
								</g>
							</g>
						</g>
					</g>
				</g>
			</g>
		</g>
		<g>
			<path class="st21" d="M-303.3,106.1c0.4-0.9,0.8-1.8,1-2.7s-0.1-2-0.7-2.7c-0.7-0.7-1.9-0.9-2.6-0.2
				C-303.9,101.8-302.9,104-303.3,106.1z"/>
		</g>
		<g>
			<g>
				<g>
					<g>
						<g>
							<g>
								<g>
									<path class="st16" d="M-293.8,112.7c0.2-0.6,0.2-1.2,0.1-1.8c-0.1-0.6-0.5-1.1-1-1.4c-0.7-0.4-1.6,0-2.2,0.6
										c-0.5,0.6-0.8,1.5-0.9,2.3c-0.1,1-0.1,2.2,0.5,3c0.6,0.9,1.8,1.3,2.6,0.6L-293.8,112.7z"/>
								</g>
							</g>
						</g>
					</g>
				</g>
			</g>
		</g>
		<g>
			<g>
				<g>
					<g>
						<g>
							<g>
								<g>
									<path class="st10" d="M-305.9,111.6c-0.7-1.8-1.6-3.6-1.5-5.5c0.1-1.7,1.1-3.3,2.6-4.2c0.6-0.4,0.4-1.4-0.4-1.5
										c-1.4-0.1-2.9,0.5-3.9,1.5c-1.7,1.6-2.5,4-2.9,6.3c-0.3,2.4-0.2,4.8-0.5,7.1c-0.4,4.6-2.2,9.4-5.8,12
										c2.6,0.6,5.4,1.3,7.9,0.4c2.8-1,4.8-3.9,5.4-6.9C-304.2,117.7-304.8,114.5-305.9,111.6z"/>
								</g>
							</g>
						</g>
					</g>
				</g>
			</g>
		</g>
	</g>
	<g>
		<g>
			<g>
				<g>
					<g>
						<g>
							<g>
								<g>
									<g>
										<g>
											<path class="st16" d="M-311,238.2h14.6c-3.3,16.2-6.4,33-9.3,49c-0.6,3.3-0.1,5.9,1.5,8c0,0,2.4,1.4,2.4,1.4
												c3.8,1.1,7.6,2.4,5.7,4.3c-3.2,2.6-8.1,3.6-12.4,2.8c-1.6-0.3-3.8,0.7-4.3,0.1c-0.6-0.7-0.5-2.2-0.3-3.5
												c0.2-1.4,0.5-2.8,0.7-4.3c0.4-2.2,0.5-4.4,0.2-6.3C-314.5,274.1-314.1,256.5-311,238.2z"/>
										</g>
									</g>
								</g>
							</g>
						</g>
					</g>
				</g>
				<g>
					<g>
						<g>
							<g>
								<g>
									<g>
										<g>
											<path class="st10" d="M-298.2,297.8c-0.6,1-1.6,1.9-2.8,2.5c-1.8,1-4.3,0.9-6,0.8c-2-0.2-4-0.9-6.1-0.8
												c-0.2,1.4-0.4,2.9,0.3,3.5c0.5,0.5,2.7-0.5,4.3-0.1c4.3,0.8,9.2-0.2,12.4-2.8C-294.8,299.7-296.1,298.7-298.2,297.8z"/>
										</g>
									</g>
								</g>
							</g>
						</g>
					</g>
				</g>
			</g>
			<g>
				<path class="st18" d="M-296.9,283.8c-3.8-18.2,2.5-38.5,2.9-57.2c0.3-12.9,2.8-26.2,3.8-39.1c-8.4,0.3-16.8-0.2-25-1.6
					c-2.8,8.3-2.1,17.4-0.4,26.1c1.7,8.6,0.8,16.1,1.8,24.8c1.8,15.2-6.9,27-1.6,47.7C-309.8,284-302.5,284.4-296.9,283.8z"/>
			</g>
			<g>
				<path class="st24" d="M-306.1,279.4c0.3,1,0.6,2.1,1.6,2.8c1.9,1.5,4.9,0.7,7.3-0.2c-3.8-14.5,3.3-29.9,0.1-44.5
					c-2.4-10.7-10-20-13.3-30.5c0.3,7.2,0.1,12.4,1.4,18.3c1.3,5.9,2.6,7.8,2.8,15.4C-306.1,253.3-309.4,267.3-306.1,279.4z"/>
			</g>
		</g>
		<g>
			<g>
				<g>
					<g>
						<g>
							<g>
								<g>
									<g>
										<g>
											<path class="st16" d="M-300.7,273.9c-1.5-8.7-0.4-24.1-1.9-35.7h15.7c1.5,14.1-3,26.2-0.5,62.4c2.3,4,6.4,4.6,10.9,6.1
												c0.8,0.3,1.8,0.7,1.5,1.8c-0.1,0.5-0.5,1-0.9,1.3c-1.1,1-2.3,1.2-3.5,1.5c-6.1,1.2-7.3,0.2-10.3-0.2
												c-2.5-0.4-4,0.5-5.3-1.4c-0.5-0.8-0.3-2,0.1-3.4c0.5-1.8,1.2-4.2,0.8-5.7C-296.1,293.7-299.4,281.2-300.7,273.9z"/>
										</g>
									</g>
								</g>
							</g>
						</g>
					</g>
				</g>
				<g>
					<g>
						<g>
							<g>
								<g>
									<g>
										<g>
											<path class="st10" d="M-276.5,306.6c-0.4-0.1-0.9-0.3-1.3-0.5c-1.2,1.4-3,2.2-4.7,2.4c-3.9,0.4-9.3-0.3-12.4-2
												c-0.4,1.2-0.5,2.3,0,3.1c1.3,1.9,2.8,1.1,5.3,1.4c3,0.4,4.2,1.5,10.3,0.2c1.2-0.2,2.4-0.5,3.5-1.5
												c0.4-0.3,0.8-0.8,0.9-1.3C-274.7,307.3-275.8,306.9-276.5,306.6z"/>
										</g>
									</g>
								</g>
							</g>
						</g>
					</g>
				</g>
			</g>
			<g>
				<path class="st25" d="M-284.2,282.8c-3.8-18.2-1.1-30.7-0.6-49.3c0.3-12.9-0.1-33.8-0.6-44.9c-8.4,0.3-15.2-0.2-23.5-1.6
					c-2.8,8.3-2.1,17.4-0.4,26.1c1.7,8.6,4.4,17.1,5.4,25.8c1.8,15.2-1.5,31.1,2.8,45.8C-295.4,284-289.8,283.4-284.2,282.8z"/>
			</g>
			<g>
				<path class="st24" d="M-301.4,280.1v-1c5.2,0,10.4-0.6,15.4-1.9l0.2,1C-290.9,279.5-296.2,280.1-301.4,280.1z"/>
			</g>
		</g>
		<g>
			<path class="st24" d="M-316.8,192.8c10-0.7,20.1-1.4,30.1-2.1c0,1.1,0,2.1,0.1,3.2c-9.9,0.8-19.6,2.3-29.3,4.5
				C-316.8,196.7-317.1,194.7-316.8,192.8z"/>
		</g>
	</g>
	<g>
		<g>
			<g>
				<g>
					<g>
						<g>
							<g>
								<g>
									<g>
										<path class="st26" d="M-317.2,181.6c-1.8,9-0.9,11.4-1.2,13.3l33.8-2.6c-0.1-0.7-1-12.2-1.2-12.9c-1.8-6-1.4-8.1-1.6-14.4
											c-0.2-7,1.2-9.8,2.8-16.5c0.8-3.3,0.9-6.7-2.6-11c-2.5-3.1-2.3-4.5-5.4-10c-1.7-3-8-2.2-11.4-2.7
											c-1.4-0.2-2.9,2.6-4.1,3.5c-1,0.7-2.3,3.9-2.6,4.8c-0.8,2.7-1.6,6.6-1.9,9.5c-0.8,7.8,1.3,13.3,0.7,21.1
											C-312.5,170-315.8,174.5-317.2,181.6z"/>
									</g>
								</g>
							</g>
						</g>
					</g>
				</g>
			</g>
		</g>
		<g>
			<path class="st24" d="M-318.5,193.5l0-1c11.1-0.2,22.3-0.9,33.3-2.1l0.1,1C-296.1,192.5-307.4,193.3-318.5,193.5z"/>
		</g>
		<g>
			<path class="st9" d="M-292.7,127.8c0,0-0.1,0-0.2,0c-4.3-1.4-9.1-1.6-13.5-0.5c-0.3,0.1-0.5-0.1-0.6-0.4
				c-0.1-0.3,0.1-0.5,0.4-0.6c4.6-1.1,9.6-0.9,14,0.5c0.3,0.1,0.4,0.4,0.3,0.6C-292.3,127.7-292.5,127.8-292.7,127.8z"/>
		</g>
	</g>
	<g>
		<g>
			<g>
				<rect x="-286" y="128.4" class="st16" width="45.4" height="48"/>
			</g>
			<g>
				<rect x="-286" y="130.2" class="st11" width="45.4" height="48"/>
			</g>
			<g>
				<path class="st12" d="M-240.6,178.2c-17.2-2.1-34-7.3-45.3-20v20H-240.6z"/>
			</g>
			<g>
				<polygon class="st24" points="-245.6,165 -249.1,160.8 -252.7,165 -250.9,165 -250.9,172.5 -247.4,172.5 -247.4,165 				"/>
			</g>
		</g>
		<g>
			<g>
				<path class="st10" d="M-293.8,137.5c-0.7-3.2-2.2-8.5-5.2-9.4c-3-1-6.7,0-8.3,2.8c-1.4,2.4-1.1,5.4-0.6,8.1
					c0.5,2.4,1.1,4.9,1.9,7.2c4.3-2.1,8.7-3.6,13.4-4C-293,140.9-293.3,139.5-293.8,137.5z"/>
			</g>
			<g>
				<path class="st16" d="M-247.3,176.9c-0.1-0.2-0.4-0.3-0.7-0.3c-1,0.1-1.9,0.6-2.8,1c-2.6,1.2-5.8,1-8.2-0.4
					c2,0.6,4.1,0.8,6.2,0.8c0.3,0,0.6,0,0.8-0.2c0.2-0.2,0.1-0.6-0.1-0.8c-0.4-0.5-1.1-0.8-1.7-0.9c-0.7-0.1-1.3-0.1-2-0.3
					c-1-0.3-1.9-1-2.9-1.3s-2.1-0.1-3.1,0.1c-0.9,0.2-1.9,0.3-2.8,0.5c-0.6,0.1-0.9,0-1.6-0.1c-12.5-5.6-21-13.4-25.2-28.5
					c-0.5-1.7-0.8-2.9-1.2-4.3c-4.6,0.4-9.1,1.9-13.4,4c0.9,2.7,2,5.4,3.2,8c4,8.2,9.4,13.1,16.7,18.3c7.2,5.1,16,7.7,21.6,7.9
					c0.9,0.1,1.6,0.2,2.2,0.4c0.9,0.3,1.8,0.8,2.7,1.1s1.9,0.6,2.8,0.4c0.2,0,0.4-0.1,0.6-0.2c1.3-0.3,2.7-0.6,4-0.9
					c0.5-0.1,0.9-0.2,1.3-0.4c0.4-0.2,0.7-0.4,1-0.7c0.6-0.4,1.2-0.9,1.7-1.3c0.3-0.2,0.6-0.5,0.5-0.9c0,0,0-0.1-0.1-0.1
					c0.1-0.1,0.1-0.1,0.2-0.2C-247.3,177.4-247.2,177.1-247.3,176.9z"/>
			</g>
		</g>
	</g>
</g>
<path class="st27" d="M-146.4-225.1c5.2,0,10.3,0.1,15.5,0c4.5-0.1,8.8-0.9,12.9-2.8c5.3-2.5,8.2-6.5,8-12.5c-0.1-2.9,0-5.9,0-8.9
	c0-4.2,2.3-6.9,6.5-7.8c7.5-1.6,15-1.7,22.6-0.3c1.7,0.3,3.3,0.8,4.9,1.5c3.3,1.4,4.9,4.1,5,7.7c0.2,7.9,0.5,15.9,0.8,23.8
	c0.3,6.7,1.1,13.3,3.7,19.6c2.4,5.9,2,12,0.3,18c-2.1,7.1-3.2,14.4-2.8,21.8c0.1,1.8,0.2,3.6,0.6,5.4c1,4.7-2.4,7.5-7.4,5.6
	c-4.7-1.8-6.8-5.4-6.8-10.3c-0.1-6.1-0.1-12.2,0-18.4c0-1.1-0.4-1.7-1.4-2.2c-7.9-4.2-15.8-8.5-23.7-12.8c-0.8-0.5-1.5-0.4-2.3,0
	c-7.9,4.3-15.9,8.5-23.9,12.7c-1.1,0.6-1.4,1.2-1.4,2.4c0.1,5.9,0,11.9,0,17.9c0,2.7-0.6,5.3-2.1,7.6c-1.5,2.2-3.6,3.4-6.2,3.6
	c-2.9,0.3-5-1.8-5-5.1c0-5.2,0-10.5,0-15.7c0-0.6-0.2-1.7-0.5-1.7c-0.6-0.1-1.4,0.1-2,0.4c-4.4,2.4-8.8,5-13.3,7.2
	c-3.2,1.6-6.8,1.5-10.1-0.2c-1-0.5-1.9-1.6-2.5-2.6c-1.1-2.1-0.5-4.1,1.7-5.6c6-4.1,12-8.2,18-12.3c1.4-1,2.9-2,4.3-3
	c0.3-0.2,0.4-0.7,0.6-1c-0.4-0.1-0.9-0.4-1.3-0.3c-4.2,0.8-8.4,1.8-12.7,2.4c-2.4,0.3-4.8,0.1-7.2-0.2c-1.8-0.2-3.1-1.5-4-3.1
	c-1.6-2.9-0.6-5.7,2.5-6.8c5.8-2,11.6-3.9,17.4-5.8c3.3-1.1,6.6-2.2,9.9-3.4c0.5-0.2,0.8-0.7,1.2-1c-0.5-0.3-0.9-0.7-1.4-0.7
	c-3.2-0.4-6.4-0.5-9.6-0.9c-1.9-0.3-3.9-0.6-5.7-1.4c-2.5-1-3.9-3-4.2-5.8c-0.2-3.1,1.4-4.9,4.5-4.9
	C-157.6-225.1-152-225.1-146.4-225.1C-146.4-225.1-146.4-225.1-146.4-225.1z"/>
<path class="st28" d="M-115.3-158.6c0-5.4,0-10.7,0-16.1c4.2,0,8.4,0,12.7,0c0,5.4,0,10.7,0,16.1
	C-106.9-158.6-111.1-158.6-115.3-158.6z"/>
<rect x="-201.6" y="-147.1" class="st29" width="185.1" height="38.4"/>
<text transform="matrix(1 0 0 1 -185.9541 -133.0146)" class="st27" style="font-family:'ArialMT'; font-size:19.8339px;">CARE FULL MOVES</text>
<text transform="matrix(1 0 0 1 -185.9541 -133.0146)" style="fill:none;stroke:#6BA6F1;stroke-width:4;stroke-miterlimit:10; font-family:'ArialMT'; font-size:19.8339px;">CARE FULL MOVES</text>
<text transform="matrix(1 0 0 1 -152.2642 -115.4033)" class="st28" style="font-family:'ArialMT'; font-size:19.8339px;">vancouver</text>
<g>
	<path class="st30" d="M388.2,250.7c0,1.8-5.8,6.1-14.9,11.6c-1.6,1-3.3,2-5.1,3c-31,18.3-119.5,60.6-125.5,62.1
		c-8.3,2-55.8-62.9-55.8-62.9s44.3-20.8,79.5-37.2c12.1-5.6,54.1-24.9,61.9-28.4C340.6,193.5,388.2,247.7,388.2,250.7z"/>
	<path class="st31" d="M371.7,247c0,0-35.8-43-38.7-46.6c-1.3-1.6-2.9-1.7-4.4-1.3c2.3-1.3,4.1-2.1,4.1-2.1
		c4.7-2.1,10.3-1.1,13.8,2.7c7.7,8.2,22.7,23.8,37.1,39.2C383.2,239.1,371.7,247,371.7,247z"/>
	<path class="st31" d="M474.4,253.1c3.4,13.3-7.4,27.6-22,34.2l-29,13.1l-29.9-72.2c0,0,23.9-20.9,34.2-16.6c9,3.8,37.2,22.1,45,37
		C473.4,250.1,474,251.6,474.4,253.1z"/>
	<path class="st0" d="M474.4,253.1c3.4,13.3-7.4,27.6-22,34.2l-14.2,6.4C445,283.8,445.7,262.5,474.4,253.1z"/>
	<path class="st32" d="M377.4,243.8c0,0,31.2-35.2,43.8-27.1c6.7,4.3,28.5,23.8,36.2,38.7c7.5,14.5-2.7,30.9-17.7,37.6L413,305
		L377.4,243.8z"/>
	<path class="st33" d="M452.6,272.8c-0.3,0.5-0.6,1-0.9,1.6c-3.9,6.5-9.9,12.9-17.4,18.6c-5.7,4.3-12.3,8.3-19.7,11.5l-12.7,5.7
		l-0.2,0.1l-60.1,27.1l-34.4,15.5l-0.5,0.2l0,0l-3.8-5.3l-37.5-54.1c0,0,149.4-71.2,164.7-70.2c7.1,0.5,16,11.6,24,24.7
		C458.4,255.2,457.4,263.9,452.6,272.8z"/>
	<path class="st34" d="M452.6,272.8c-0.3,0.5-0.6,1-0.9,1.6c-3.9,6.5-9.9,12.9-17.4,18.6c-5.7,4.3-12.3,8.3-19.7,11.5l-12.7,5.7
		l-0.2,0.1l-60.1,27.1l-34.4,15.5l-0.5,0.2l-3.8-5.3c19.4-13.3,46.8-30.4,77.4-43.8C409.5,291.1,433.9,280.1,452.6,272.8z"/>
	<path class="st31" d="M327.7,320c3,13-6.4,26.4-19.7,32.4l-26.7,12L251,291.7c0,0,21.9-19.3,31.7-14.7c8.5,4,35.4,23,43,37.9
		C326.6,316.5,327.2,318.3,327.7,320z"/>
	<path class="st0" d="M327.7,320c3,13-6.4,26.4-19.7,32.4l-21.3,9.6C293.9,351.6,300,329,327.7,320z"/>
	<path class="st35" d="M312.6,327.4c1.1,5.2,0.2,10.4-2.2,15.2l0,0c-1.4,2.9-3.3,5.5-5.5,8c-2.8,3-6.1,5.5-9.9,7.5
		c-0.2,0.1-0.4,0.2-0.6,0.3c-0.2,0.1-0.3,0.2-0.5,0.2c-0.3,0.1-0.5,0.3-0.8,0.4c-0.1,0.1-0.3,0.1-0.4,0.2l-26.7,12.1l0,0
		c-0.5,0.2-1,0.5-1.5,0.7c-2.7,1.3-5.6,2.6-8.2,3.8c-0.4,0.2-0.9,0.4-1.3,0.6c-0.2,0.1-0.3,0.2-0.5,0.2c-2.6,1.2-4.9,2.3-6.6,3
		c-2.3,1-4.6,1.9-6.8,2.5c-2.8,0.8-5.6,1.3-8.2,1.5c-0.5,0-0.9,0-1.4,0c-0.5,0-0.9,0-1.4,0c-1.2-0.1-2.5-0.2-3.7-0.4
		c-3.1-0.6-6.1-1.8-9-3.6c-2-1.3-4-2.8-6-4.7c-2.4-2.3-4.8-5.1-7.1-8.3c-0.1-0.1-0.1-0.2-0.2-0.3c-1.1-1.5-2.1-3.1-3.2-4.8
		c-0.5-0.8-1-1.6-1.5-2.4c-1.7-2.9-3.4-6.1-5.1-9.6c-0.2-0.3-0.3-0.6-0.4-0.9c0-0.1-0.1-0.1-0.1-0.2c-1.3-2.8-2.7-5.7-4-8.9
		c-0.6-1.4-1.2-2.8-1.8-4.2c-0.3-0.7-0.5-1.3-0.8-2c-1.3-3.4-2.7-6.9-4.1-10.7c-0.6-1.7-1.2-3.4-1.9-5.1c-2.6-7.2-5.2-15.1-7.9-23.7
		c-3.1-9.7-4.7-16.8-3.6-19c1.7-3.4,6.9-6.8,10.6-8.9l0,0c2.3-1.3,4.1-2.1,4.1-2.1c0.1,0,0.2-0.1,0.3-0.1c0.1,0,0.1,0,0.2-0.1
		c0.2,0,0.3-0.1,0.4-0.2c0.1,0,0.2-0.1,0.3-0.1c0.1,0,0.1,0,0.2-0.1c0.1,0,0.2-0.1,0.3-0.1c0.2,0,0.3-0.1,0.5-0.1
		c0.1,0,0.2,0,0.3-0.1l0,0c0.1,0,0.2,0,0.2,0c0.2,0,0.3-0.1,0.4-0.1c0.1,0,0.2,0,0.3,0c0.1,0,0.1,0,0.2,0c0.8-0.1,1.7-0.1,2.5,0
		c2.9,0.3,5.6,1.6,7.7,3.8c7.2,7.7,20,21.4,33.4,35.8c0.1,0.1,0.1,0.2,0.2,0.2c0.8,0.8,1.5,1.7,2.3,2.5c0.1,0.1,0.2,0.2,0.2,0.3
		c0,0,0.1,0.1,0.1,0.1c0.3-0.3,0.5-0.6,0.8-0.9c0,0,0,0,0,0c1.1-1.2,2.4-2.5,3.9-3.8l0,0c0.7-0.7,1.5-1.4,2.3-2.2
		c2.2-2.1,4.7-4.2,7.2-6.3c1.1-0.9,2.3-1.8,3.4-2.7c1.5-1.1,3-2.1,4.4-3.1c0,0,0.1-0.1,0.1-0.1c0.2-0.1,0.3-0.2,0.5-0.3
		c1.1-0.7,2.1-1.2,3.1-1.8l0,0c5.3-2.7,10.2-3.8,13.7-1.5c1.3,0.8,3.2,2.3,5.4,4.1c4.6,3.8,10.8,9.5,16.6,15.8
		c5.8,6.2,11.1,12.9,14.2,18.9C311.5,323.5,312.2,325.4,312.6,327.4z"/>
	<path class="st31" d="M223.6,313.8c0,0-35.8-43-38.7-46.6c-1.3-1.6-2.9-1.7-4.4-1.3c2.3-1.3,4.1-2.1,4.1-2.1
		c4.7-2.1,10.3-1.1,13.8,2.7c7.7,8.2,21.8,23.3,36.2,38.7C234.3,305.3,223.6,313.8,223.6,313.8z"/>
</g>
<path class="st36" d="M454.4,268.9c-0.2,0-3.9,3.6-5.1,4.3c-1.1,0.6-5.5,2-6.6,1.3c-0.1-0.1,4.4-3.1,4.8-4c0.2-0.4,1.2-2.3,2.6-3
	s2-1.2,2-1.2L454.4,268.9z"/>
<g>
	<path class="st36" d="M172,271.8c0,0,4.8,7.9,12.8,6.1c0,0,2.2-3.7,2.7-6.5c0.1-0.3,0.1-0.7,0.2-1c0.5-3.2,0.9-5,0.9-5l0,0
		c-0.3-0.2-10.8-6.5-10.8-6.1C176.6,268,172,271.8,172,271.8z"/>
	<path class="st37" d="M178.5,261.5c0.8,2.2,3.9,6.6,9.1,8.8c0.5-3.2,0.9-5,0.9-5l0,0C188.2,265.1,178.3,260.8,178.5,261.5z"/>
	<path class="st36" d="M190.8,265.3c0,0-13,1.1-13.5-7c-0.5-8.1-2.6-13.4,5.7-14.4s10.1,2,10.9,4.6
		C194.7,251.1,194.1,264.8,190.8,265.3z"/>
	<path class="st38" d="M177.5,260.4c-0.2,0.1-3,0.5-6.6-10.4c-0.6-1.7-0.6-5.2,1.7-8c2.3-2.8,9.3-4.2,15-4.4
		c5.7-0.2,6.5,3.1,7.3,6.4c0.9,3.5,4.4,6.8,4.4,6.8c-5.1,1.9-10.3-2.7-12.3-2.4c-2.1,0.3-3.2,3.3-3.6,4.3c-0.3,1-0.7,1.8-3,0.5
		c-2.3-1.3-1.7,3.4-1.4,4.3C179.1,257.5,179.1,259.7,177.5,260.4z"/>
</g>
<g>
	<path class="st39" d="M184.8,460.6h-20.3c-0.2,0-0.3-0.1-0.4-0.1c-1.3-0.7-0.9-5.9-0.8-7.5c0-0.3,0.1-0.5,0.1-0.5s7.1-5.7,8.1-1.3
		c0,0.1,0.1,0.3,0.1,0.4l0,0c1.2,4.1,6.8,6,10,6.5C184,458.5,184.6,459.9,184.8,460.6z"/>
	<path class="st39" d="M131.4,460.6h-7.7c-1.6,0-3.4-1.6-3.8-4.6c-0.4-2.9-3.7-4.6-4.5-7c-0.7-2.4,2.9-5.8,2.9-5.8l0.6-0.8l0.6-0.8
		l6.1,1.4c0,0,0.2,1.4,0.2,3.3c0.1,1.3,0.1,2.9,0,4.2c-0.2,3.2,0.9,6.7,3.8,7.3C132.6,458.5,131.4,460.6,131.4,460.6z"/>
	<path class="st40" d="M180.7,343.4c0,0-1.1,13.5-2.4,29.8c-1.7,22.1-3.8,49.3-4,54.4c-0.4,8.9-1.8,23.2-1.8,23.2s-3.4,3.4-10.2,2
		c0,0-6.1-20.4-7.8-42c0-0.3-0.1-0.7-0.1-1.1c-1.6-22-4.1-68.2-4.1-68.2L180.7,343.4z"/>
	<path class="st41" d="M175.2,346.1c0,0,2.1,4.9-1.8,20.7c-2.9,11.6-18.9,44-18.9,44c0-0.3-0.1-0.7-0.1-1.1
		c-1.6-22-4.1-68.2-4.1-68.2L175.2,346.1z"/>
	<path class="st40" d="M176.6,342.5c0,0-20.5,51.6-33.3,74.6c-12.9,23-16.9,29.5-16.9,29.5s-7.4-2.9-8-4.9c0,0,4.9-44.5,13.5-55.3
		c4.9-6.1,10.6-24.5,10.8-31c0.3-6.4,1.7-19.2,1.7-19.2L176.6,342.5z"/>
	<path class="st38" d="M177.7,344.8c-2.8-0.8-30.9-11.8-30.4-13.4c1.9-5.6,3.9-14.9,6.2-26.3c0.4-2.1,0.9-4.2,1.5-6.3
		c1.4-5.3,3.1-10.3,5.1-14.7c3.6-8.1,9.6-13.6,14.3-15.5c0.6-0.2,1.9,1.7,4.4,3.9c2.3,2.1,4.8,2,7.5,2.2l2.2,3.8
		c1.8,3.3,3.3,8,3.4,11.8C191.9,290.4,177.9,344.9,177.7,344.8z"/>
	<path class="st40" d="M191.9,290.4l-8.4-0.9l-20.9,25.3c-3,3.6-8,5-12.4,3.5l0,0l-5.8,17.9l35.4,11.4L191.9,290.4z"/>
	<path class="st41" d="M178.3,278.3c-1.2-2.3-5.4-9-5.4-9s0.5-0.3,0.7-0.4c0.2-0.1,0.8-0.3,0.8-0.3c0.8,0.1,5.3,6.7,6.7,9.2
		c1.7,3,5.7,12,5.7,12l-3.2-0.3C183.5,289.5,179.8,281,178.3,278.3z"/>
</g>
<g>
	<path class="st36" d="M190.2,342.8c0,0,2.1,1.1,3.3,1.1s2.1,0.1,4,0.5c1.8,0.4,1.9,1,0.6,1.3c-1.4,0.3-2.9-0.3-2.2,0.5
		c0.7,0.7,7.3,1.4,7.2,2.2c-0.1,0.8-6.1,3.3-8.3,2.5c-2.2-0.8-7.3-5.3-7.3-5.3L190.2,342.8z"/>
	<path class="st38" d="M190,345.5c1.9-1.5,1.4-2.7,1.4-2.7s-13-21.2-14-23.2c-0.9-2,1-27.6,1-27.6s1.2-10.2-3.8-13.3
		c-4.3-2.6-5.8-4.8-8.9-2.9c-3.7,2.3-6.9,10.9-6.1,15.2c1.8,9.7,4,28,5.8,31.7c3.9,8.3,21.4,24.3,21.4,24.3S188.5,346.6,190,345.5z"
		/>
</g>
<g>
	<path class="st36" d="M487,193.9c0,0-7.2,5.8-14.1,1.6c0,0-0.9-4.2-0.4-7.1c0.1-0.3,0.1-0.7,0.2-1c0.6-3.2,0.8-5.1,0.8-5.1l0,0
		c0.4-0.1,12.3-2.6,12.2-2.2C483.9,188.8,487,193.9,487,193.9z"/>
	<path class="st37" d="M484.3,182c-1.4,1.8-5.8,4.9-11.5,5.4c0.6-3.2,0.8-5.1,0.8-5.1l0,0C473.9,182.3,484.7,181.5,484.3,182z"/>
	<path class="st36" d="M471.3,181.5c0,0,11.9,5.3,15.1-2.2c3.2-7.5,6.8-11.8-0.6-15.5s-10.2-1.4-11.8,0.8
		C472.2,166.9,468.3,180,471.3,181.5z"/>
	<path class="st42" d="M485.5,181.4c0.2,0.1,2.7,1.5,9.6-7.7c1.1-1.4,2.3-4.8,1-8.1c-1.3-3.4-7.4-7-12.7-9.1c-5.3-2.1-7.2,0.8-9,3.6
		c-1.9,3-6.4,4.9-6.4,4.9c4.2,3.5,10.6,0.8,12.5,1.8c1.8,1,2,4.2,1.9,5.2c-0.1,1,0,1.9,2.7,1.5c2.6-0.4,0.5,3.7-0.1,4.5
		C485,178,484.3,180.2,485.5,181.4z"/>
	<path class="st39" d="M503.7,380.1h7.7c1.6,0,3.4-1.6,3.8-4.6c0.4-2.9,3.7-4.6,4.5-7c0.7-2.4-2.9-5.8-2.9-5.8l-0.6-0.8l-0.6-0.8
		l-6.1,1.4c0,0-0.2,1.4-0.2,3.3c-0.1,1.3-0.1,2.9,0,4.2c0.2,3.2-0.9,6.7-3.8,7.3C502.5,378,503.7,380.1,503.7,380.1z"/>
	<path class="st39" d="M450.4,380.1h20.3c0.2,0,0.3-0.1,0.4-0.1c1.4-0.7,0.9-5.9,0.8-7.5c0-0.3-0.1-0.5-0.1-0.5s-7.1-5.7-8.1-1.3
		c0,0.1-0.1,0.3-0.1,0.4l0,0c-1.2,4.1-6.8,6-10,6.5C451.2,377.9,450.5,379.3,450.4,380.1z"/>
	<path class="st40" d="M454.5,262.9c0,0,1.1,13.5,2.4,29.8c1.7,22.1,3.8,49.3,4,54.4c0.3,8.9,1.8,23.2,1.8,23.2s3.4,3.4,10.2,2
		c0,0,6.1-20.4,7.8-42c0-0.3,0.1-0.7,0.1-1.1c1.6-22,4.1-68.2,4.1-68.2L454.5,262.9z"/>
	<path class="st41" d="M458.5,262c0,0-0.7,8.5,3.2,24.3c2.9,11.6,18.9,44,18.9,44c0-0.3,0.1-0.7,0.1-1.1c1.6-22,4.1-68.2,4.1-68.2
		L458.5,262z"/>
	<path class="st40" d="M458.5,262c0,0,20.5,51.6,33.3,74.6c12.8,23,16.9,29.5,16.9,29.5s7.4-2.9,8-4.9c0,0-4.9-44.5-13.5-55.3
		c-4.9-6.1-10.6-24.5-10.8-31c-0.3-6.4-1.7-19.2-1.7-19.2L458.5,262z"/>
	<path class="st38" d="M457.5,261c2.9,0.2,33.1-1,33.1-2.7c0-5.9,1.3-15.4,2.8-26.9c0.3-2.2,0.5-4.3,0.7-6.4
		c0.4-5.5,0.4-10.8,0-15.6c-0.8-8.9-4.5-16-8.4-19.4c-0.5-0.4-2.4,1-5.5,2.3c-2.9,1.2-5.2,0.3-7.8-0.4l-3.3,2.9
		c-2.8,2.6-5.7,6.5-7.2,10C461.9,204.9,457.2,261,457.5,261z"/>
	<path class="st40" d="M461.9,204.9l8.3,1.9l11.4,30.8c1.6,4.4,5.8,7.3,10.6,7.3l0,0l-1,15.2l-36.7,2.7L461.9,204.9z"/>
	<path class="st38" d="M452.3,267.4c-1.7-1.7-1-2.8-1-2.8s15.4-19.6,16.5-21.5c1.1-1.9,2.1-27.6,2.1-27.6s0-10.3,5.3-12.8
		c4.6-2.1,8.6-0.5,11.4,1.7c3.4,2.7,4.8,7.3,3.6,11.5c-2.9,9.4-8.7,28.1-10.9,31.6c-4.9,7.8-24.1,21.6-24.1,21.6
		S453.6,268.8,452.3,267.4z"/>
	<path class="st41" d="M478.8,197.9c1.9-1.8,8.1-6.7,8.1-6.7s-0.5-0.5-0.7-0.7c-0.1-0.1-0.5-0.4-0.5-0.4c-0.8-0.2-7.2,4.6-9.3,6.5
		c-2.6,2.3-9.4,9.5-9.4,9.5l3.2,0.8C470.2,206.8,476.5,200,478.8,197.9z"/>
</g>
<g>
	<g>
		
			<rect x="70.6" y="268.6" transform="matrix(-1 -1.224647e-16 1.224647e-16 -1 184.0761 572.5579)" class="st23" width="42.8" height="35.3"/>
		
			<rect x="92" y="268.6" transform="matrix(-1 -1.224647e-16 1.224647e-16 -1 226.861 572.5579)" class="st13" width="42.8" height="35.3"/>
		<polygon class="st14" points="70.7,295 77.5,295 76.9,293.1 77.5,291.7 70.7,291.7 		"/>
		<polygon class="st43" points="92,279.6 98.8,279.6 98.2,277.6 98.8,276.3 92,276.3 		"/>
		<polygon class="st14" points="92,276.3 85.3,276.3 85.9,278.2 85.3,279.6 92,279.6 		"/>
		<polygon class="st43" points="134.8,295.4 128,295.4 128.6,297.3 128,298.6 134.8,298.6 		"/>
		<rect x="119.7" y="271" class="st2" width="12.3" height="4.8"/>
	</g>
	<path class="st43" d="M114.6,302.4c1-0.7,3.4-2.2,3.5-1.8c0.1,0.3-0.1,0.7-0.4,1.1c1.4-0.5,2.8-0.7,6.1,0c0.7,0.2,1.3,0.6,1.6,1.1
		c0.3,0.5,0.4,1.2-0.4,1.7c-1.7,1-1.2,0.4-3.6,1.8c-2.4,1.4-5.3,1.7-7,0.6l-2.3-0.5l-0.1-3.8C112,302.7,113.3,302.6,114.6,302.4z"/>
	<path class="st43" d="M54.7,263c0,0,6.6,5.4,12.9,1.4c0,0,0.8-3.8,0.3-6.5c-0.1-0.3-0.1-0.6-0.2-0.9c-0.5-3-0.7-4.6-0.7-4.6
		s0,0,0,0c-0.3-0.1-11.3-2.3-11.2-2C57.5,258.4,54.7,263,54.7,263z"/>
	<path class="st44" d="M57.2,252.1c1.3,1.6,5.3,4.6,10.6,4.9c-0.5-3-0.7-4.6-0.7-4.6s0,0,0,0C66.7,252.4,56.8,251.7,57.2,252.1z"/>
	<path class="st43" d="M69.1,251.7c0,0-10.9,4.8-13.8-2c-2.9-6.8-6.3-10.8,0.6-14.2c6.8-3.4,9.3-1.3,10.8,0.7
		C68.2,238.3,71.9,250.3,69.1,251.7z"/>
	<path class="st45" d="M56,251.6c-0.1,0.1-2.5,1.3-8.8-7.1c-1-1.3-2.1-4.4-0.9-7.5c1.2-3.1,6.8-6.4,11.6-8.3
		c2.3-0.9,4.4-0.7,6.1-0.3c2,0.5,3.2,2.7,2.7,4.7c-0.9,3.2-3.2,5.2-6.1,5.1c-1.9-0.1-1.8,3.9-1.8,4.8c0,0.9,0,1.7-2.5,1.3
		c-2.1-0.3-0.9,2.4-0.2,3.6c0.3,0.6,0.5,1.3,0.5,2C56.7,250.6,56.5,251.1,56,251.6z"/>
	<path class="st46" d="M39.3,433.9h-7c-1.5,0-3.1-1.5-3.5-4.2c-0.4-2.7-3.4-4.2-4.1-6.4c-0.7-2.2,2.7-5.3,2.7-5.3l0.6-0.7l0.6-0.8
		l5.6,1.3c0,0,0.1,1.3,0.2,3c0.1,1.2,0.1,2.6,0,3.9c-0.2,3,0.8,6.1,3.4,6.7C40.4,432,39.3,433.9,39.3,433.9z"/>
	<path class="st46" d="M88.3,433.9H69.7c-0.2,0-0.3-0.1-0.4-0.1c-1.2-0.6-0.9-5.4-0.7-6.9c0-0.3,0-0.4,0-0.4s6.6-5.2,7.5-1.2
		c0,0.1,0.1,0.2,0.1,0.4v0c1.1,3.8,6.2,5.5,9.2,5.9C87.6,431.9,88.2,433.2,88.3,433.9z"/>
	<path class="st13" d="M84.5,326.3c0,0-1,12.4-2.2,27.4c-1.6,20.3-3.5,45.2-3.7,49.9c-0.3,8.2-1.6,21.3-1.6,21.3s-3.1,3.1-9.3,1.8
		c0,0-5.6-18.7-7.1-38.5c0-0.3,0-0.7-0.1-1c-1.5-20.2-3.8-62.6-3.8-62.6L84.5,326.3z"/>
	<path class="st47" d="M80.8,325.5c0,0,0.6,7.8-2.9,22.3c-2.6,10.7-17.3,40.4-17.3,40.4c0-0.3,0-0.7-0.1-1
		c-1.5-20.2-3.8-62.6-3.8-62.6L80.8,325.5z"/>
	<path class="st13" d="M80.8,325.5c0,0-18.8,47.3-30.6,68.4c-11.8,21.1-15.5,27-15.5,27s-6.8-2.7-7.4-4.5c0,0,4.5-40.8,12.4-50.8
		c4.5-5.6,9.7-22.5,10-28.4c0.2-5.9,1.6-17.6,1.6-17.6L80.8,325.5z"/>
	<path class="st45" d="M81.8,324.6c-2.6,0.2-30.4-0.9-30.4-2.4c0-5.4-1.2-14.1-2.6-24.7c-0.3-2-0.5-3.9-0.6-5.9
		c-0.4-5-0.4-9.9,0-14.3c0.7-8.1,4.2-14.7,7.7-17.8c0.5-0.4,2.2,0.9,5,2.1c2.6,1.1,4.7,0.3,7.1-0.4l3,2.7c2.5,2.4,5.2,6,6.6,9.2
		C77.7,273.1,82,324.6,81.8,324.6z"/>
	<path class="st13" d="M77.7,273.1l-7.6,1.8l-10.4,28.2c-1.5,4.1-5.4,6.7-9.7,6.7l0,0l0.9,13.9l33.6,2.5L77.7,273.1z"/>
	<path class="st45" d="M114,304.6c0.2-2.2-0.9-2.6-0.9-2.6s-22.3-4.9-24.2-5.6C87,295.6,71.3,278,71.3,278s-6-7.3-11.2-5.9
		c-4.5,1.2-6.4,4.6-7.1,7.9c-0.9,3.9,0.8,8,4.1,10.2c7.5,5,22.5,14.9,26.1,16.1c8,2.7,29.7,1.3,29.7,1.3S113.8,306.3,114,304.6z"/>
	<path class="st47" d="M62.3,266.7c-1.8-1.6-7.4-6.1-7.4-6.1l1.1-1c0.8-0.2,6.6,4.2,8.5,6c2.3,2.1,8.8,8.6,8.8,8.6l-3.2,0.7
		C70.1,274.9,64.3,268.6,62.3,266.7z"/>
</g>
<g>
	<path class="st4" d="M1354.1,104c-42.8-89.9-150.8-148.6-159.2-278.3c-0.9-13.9-0.4-27.3,1-40.4H769c-1.1,0-2,0.9-2,2v412.2
		c0,1.1,0.9,2,2,2H1370C1373.5,168.7,1368.4,134.2,1354.1,104z"/>
	<path class="st39" d="M767,208.1h602.1c1.8-12.3,2.3-24.9,1.6-37.5H767V208.1z"/>
	<g>
		<ellipse class="st48" cx="1020.7" cy="189.7" rx="76.6" ry="77.1"/>
	</g>
	<g>
		<g>
			<path class="st17" d="M1075.5,170.6c-7.9-22.8-29.5-39.2-54.8-39.2c-25.3,0-46.9,16.4-54.8,39.2c-2.1,6-3.2,12.5-3.2,19.2
				c0,4,0.4,7.9,1.2,11.7c0.5,2.2,1,4.4,1.7,6.6c7.6,23.3,29.4,40.1,55.1,40.1c25.6,0,47.5-16.9,55.1-40.1c0.7-2.1,1.3-4.3,1.7-6.6
				c0.8-3.8,1.2-7.7,1.2-11.7C1078.7,183.1,1077.6,176.6,1075.5,170.6z M1070,208.1c-1.9,5.2-4.6,10.1-8,14.4
				c-3.6,4.6-7.9,8.6-12.8,11.8c-5.9,3.8-12.5,6.5-19.7,7.7c-2.8,0.5-5.8,0.7-8.7,0.7c-3,0-5.9-0.2-8.7-0.7
				c-7.2-1.2-13.8-3.9-19.7-7.7c-4.9-3.2-9.2-7.2-12.8-11.8c-3.4-4.3-6.1-9.2-8.1-14.4c-0.8-2.1-1.4-4.3-2-6.6
				c-0.2-0.9-0.4-1.9-0.5-2.8c-0.5-2.9-0.7-5.9-0.7-8.9c0-2.9,0.2-5.8,0.7-8.6c0.6-3.7,1.6-7.2,2.9-10.6c1.8-4.5,4.1-8.8,7-12.6
				c3.6-4.8,7.9-8.9,12.8-12.2c6-4,12.8-6.8,20.1-8.1c2.9-0.5,5.9-0.8,9-0.8c3.1,0,6.1,0.3,9,0.8c7.3,1.3,14.2,4.1,20.1,8.1
				c4.9,3.3,9.3,7.5,12.8,12.2c2.9,3.8,5.2,8.1,7,12.6c1.3,3.4,2.3,6.9,2.9,10.6c0.5,2.8,0.7,5.7,0.7,8.6c0,3-0.3,6-0.7,8.9
				c-0.2,0.9-0.3,1.9-0.5,2.8C1071.4,203.7,1070.8,205.9,1070,208.1z"/>
		</g>
		<g>
			<path class="st17" d="M1038.9,189.8c0-10.1-8.1-18.3-18.2-18.3c-10,0-18.2,8.2-18.2,18.3c0,10.1,8.1,18.3,18.2,18.3
				C1030.7,208.1,1038.9,199.9,1038.9,189.8z"/>
		</g>
		<g>
			<polygon class="st17" points="1023.6,175.9 1029.9,136.1 1011.5,136.1 1018,175.9 			"/>
		</g>
		<g>
			<polygon class="st17" points="1034.1,182 1064.8,156.2 1050.9,144 1029.9,178.4 			"/>
		</g>
		<g>
			<polygon class="st17" points="1036.6,195.5 1076.4,199 1075.1,180.5 1036.2,189.9 			"/>
		</g>
		<g>
			<polygon class="st17" points="1007.3,182 976.7,156.2 990.6,144 1011.5,178.4 			"/>
		</g>
		<g>
			<polygon class="st17" points="1023.6,205.2 1029.9,245 1011.5,245 1018,205.2 			"/>
		</g>
		<g>
			<polygon class="st17" points="1034.1,198.9 1064.8,224.8 1050.9,237.1 1029.9,202.7 			"/>
		</g>
		<g>
			<polygon class="st17" points="1007.3,199 976.7,224.9 990.6,237.1 1011.5,202.7 			"/>
		</g>
		<g>
			<polygon class="st17" points="1004.8,195.5 965,199 966.3,180.5 1005.2,189.9 			"/>
		</g>
	</g>
	<g>
		<polygon class="st5" points="830.5,-152.9 1073.1,-152.9 1073.1,-165.5 815.2,-165.5 		"/>
	</g>
	<g>
		<polygon class="st5" points="830.5,-117.4 1073.1,-117.4 1073.1,-130 815.2,-130 		"/>
	</g>
</g>
</svg>
