<?xml version="1.0" encoding="utf-8"?>
<!-- Generator: Adobe Illustrator 24.3.0, SVG Export Plug-In . SVG Version: 6.00 Build 0)  -->
<svg version="1.1" id="Слой_1" xmlns="http://www.w3.org/2000/svg" xmlns:xlink="http://www.w3.org/1999/xlink" x="0px" y="0px"
	 viewBox="0 0 3200 2000" style="enable-background:new 0 0 3200 2000;" xml:space="preserve">
<style type="text/css">
	.st0{fill:#C8DBF4;}
	.st1{fill:#D4E4F8;}
	.st2{fill:#9FC1F4;}
	.st3{fill:#8CB4F4;}
	.st4{fill:#9ABFE2;}
	.st5{fill:#BAD4F4;}
	.st6{fill:#DFEBFD;}
	.st7{fill:#B7D3F3;}
	.st8{fill:#C0D8FB;}
	.st9{fill:#233862;}
	.st10{fill:#FFB27D;}
	.st11{fill:#0F2549;}
	.st12{fill:#2B478B;}
	.st13{fill:#ED975D;}
	.st14{fill:#FFFFFF;}
	.st15{fill:#EBF3FF;}
	.st16{fill:#ED7D2B;}
	.st17{fill:#F99746;}
	.st18{fill:#182D4F;}
	.st19{fill:#2E3552;}
	.st20{fill:#1B3051;}
	.st21{fill:#73A2E5;}
</style>
<g>
	<g>
		<path class="st0" d="M523.89,1136.48c0,0-38.34-44.72-2.36-73.13c0,0,26.28-15.91,47.7-14.62c0,0-30.36,50.91-20.54,55.97
			c9.82,5.06,29.74-59.16,29.74-59.16s59.79-5.8,79.03,3.45c0,0-51.12,41.83-40.35,44.32c10.77,2.49,65.98-38.57,65.98-38.57
			s55.65,9.47,52.68,43.42c-2.97,33.95-22.14,44.43-30.57,43.53c-8.43-0.9-57.73-19.72-58.8-12.82s28.6,29.47,49.38,30.53
			c0,0-39.23,43.27-65.31,30.78c-26.08-12.49-28.3-32.28-44.56-39.71c-16.25-7.42-30.13-7.41-23.42,0.17
			c6.71,7.57,36.13,14.93,45.42,31.37c9.3,16.44,17.64,27.53-9.34,23.47s-70.83-23.8-72.76-46.41
			C523.89,1136.48,523.89,1136.48,523.89,1136.48z"/>
		<g>
			<path class="st0" d="M708.42,1099.08c0,0-151.15-5.82-184.53,37.4c0,0-7.38,22.11-30.1,42.24l-3.54,9.65
				c0,0,26.19-27.62,35.56-29.29C525.82,1159.09,511.16,1105.53,708.42,1099.08z"/>
			<path class="st0" d="M493.79,1178.72c0,0-32.44,23.99-34.7,66.87l5.89,0.53c0,0,10.36-44.33,29.09-61.66
				C512.8,1167.12,493.79,1178.72,493.79,1178.72z"/>
		</g>
	</g>
	<g>
		<path class="st0" d="M389.86,1080.24c0,0,60.98-34.15,32.52-80.5c0,0-22.77-28.46-47.16-35.78c0,0,13.01,69.11,0,70.74
			c-13.01,1.63-8.94-78.06-8.94-78.06s-64.23-30.9-89.44-28.46c0,0,39.84,67.49,26.83,65.86c-13.01-1.63-57.73-69.93-57.73-69.93
			s-65.86-12.2-76.43,26.83c-10.57,39.03,6.5,58.54,16.26,60.98c9.76,2.44,72.37,1.63,70.74,9.76
			c-1.63,8.13-43.91,21.14-67.49,13.82c0,0,26.02,64.23,60.17,60.98c34.15-3.25,44.72-24.39,65.86-26.02
			c21.14-1.63,36.59,4.06,26.02,9.76c-10.57,5.69-46.35,1.87-63.42,16.38c-17.07,14.52-30.9,23.46,0.81,29.96
			c31.71,6.51,88.63,2.44,100.01-21.95C389.86,1080.24,389.86,1080.24,389.86,1080.24z"/>
		<g>
			<path class="st0" d="M199.59,963.15c0,0,170.75,55.29,190.26,117.09c0,0-0.81,27.65,16.26,59.36v12.2
				c0,0-17.89-41.47-27.64-47.16C378.47,1104.63,416.69,1050.97,199.59,963.15z"/>
			<path class="st0" d="M406.12,1139.59c0,0,26.33,39.99,11.32,88.66l-6.77-1.82c0,0,6.58-53.61-7.2-80.58
				C389.69,1118.89,406.12,1139.59,406.12,1139.59z"/>
		</g>
	</g>
	<g>
		<path class="st1" d="M486.88,1033.14c0,0-80.39-45.02-42.87-106.11c0,0,30.01-37.51,62.17-47.16c0,0-17.15,91.1,0,93.25
			c17.15,2.14,11.79-102.89,11.79-102.89s84.67-40.73,117.9-37.51c0,0-52.52,88.96-35.37,86.82c17.15-2.14,76.1-92.18,76.1-92.18
			s86.82-16.08,100.75,35.37c13.93,51.45-8.57,77.17-21.44,80.39c-12.86,3.22-95.39,2.14-93.25,12.86
			c2.14,10.72,57.88,27.87,88.96,18.22c0,0-34.3,84.67-79.31,80.39c-45.02-4.29-58.95-32.15-86.82-34.3
			c-27.87-2.14-48.23,5.36-34.3,12.86c13.93,7.5,61.09,2.46,83.6,21.59c22.51,19.13,40.73,30.92-1.07,39.5
			c-41.8,8.57-116.83,3.22-131.83-28.94C486.88,1033.14,486.88,1033.14,486.88,1033.14z"/>
		<g>
			<path class="st1" d="M737.68,878.8c0,0-225.08,72.88-250.8,154.34c0,0,1.07,36.44-21.44,78.24v16.08c0,0,23.58-54.66,36.44-62.17
				C501.88,1065.29,451.51,994.55,737.68,878.8z"/>
			<path class="st1" d="M465.44,1111.38c0,0-34.71,52.71-14.92,116.87l8.93-2.4c0,0-8.67-70.67,9.49-106.22
				C487.1,1084.1,465.44,1111.38,465.44,1111.38z"/>
		</g>
	</g>
	<path class="st1" d="M484.17,1367.4c86.96,0,157.46-70.5,157.46-157.46H326.7C326.7,1296.9,397.2,1367.4,484.17,1367.4z"/>
	<path class="st1" d="M643.8,1375.41H324.53v-2.24c0-9.49,7.7-17.19,17.19-17.19h284.9c9.49,0,17.19,7.7,17.19,17.19V1375.41z"/>
	<rect x="321.53" y="1209.93" class="st2" width="323.68" height="4.83"/>
</g>
<g>
	<g>
		<path class="st3" d="M1296.68,1886.8l0.78-0.01c6.36-0.12,11.28-5.32,10.68-11.3l-42.44-423.9l-37.04,3.3l60.95,426.18
			C1290.08,1884.4,1293.12,1886.86,1296.68,1886.8z"/>
	</g>
	<g>
		<path class="st3" d="M887.98,1886.8l-0.78-0.01c-6.36-0.12-11.28-5.32-10.68-11.3l42.44-423.9l37.04,3.3l-60.95,426.18
			C894.58,1884.4,891.53,1886.86,887.98,1886.8z"/>
	</g>
	<g>
		<path class="st3" d="M1596.13,1886.8l0.78-0.01c6.36-0.12,11.28-5.32,10.68-11.3l-42.44-423.9l-37.04,3.3l60.95,426.18
			C1589.52,1884.4,1592.57,1886.86,1596.13,1886.8z"/>
	</g>
	<path class="st3" d="M900.62,1389.92l-75.34-372.06c-9.67-50.38,32.07-96.44,86.27-95.2l145.3,3.32
		c50.13,1.14,93.71,34.69,107.64,82.86l110.23,381.09H900.62z"/>
	<path class="st3" d="M946.2,1389.92l-75.34-372.06c-9.67-50.38,32.07-96.44,86.27-95.2l145.3,3.32
		c50.13,1.14,93.71,34.69,107.64,82.86l110.23,381.09H946.2z"/>
	<path class="st3" d="M919.2,1457.78h579.72c10.22,0,18.58-8.36,18.58-18.58v-30.7c0-10.22-8.36-18.58-18.58-18.58h-598.3v49.28
		C900.62,1449.42,908.98,1457.78,919.2,1457.78z"/>
	<path class="st3" d="M1189.44,1457.78h370.37c8.23,0,14.97-6.74,14.97-14.97v-37.92c0-8.23-6.74-14.97-14.97-14.97h-370.37
		c-8.23,0-14.97,6.74-14.97,14.97v37.92C1174.47,1451.04,1181.21,1457.78,1189.44,1457.78z"/>
</g>
<g>
	<path class="st4" d="M729.09,1385.08v12.69c0,4.44-1.44,8.07-3.19,8.07H262.68c-1.76,0-3.19-3.63-3.19-8.07v-12.69
		c0-4.44,1.44-8.07,3.19-8.07h463.22C727.65,1377,729.09,1380.64,729.09,1385.08z"/>
	<path class="st5" d="M729.09,1385.08v12.69c0,4.44-1.32,8.07-2.93,8.07H358.41c-1.61,0-2.93-3.63-2.93-8.07v-12.69
		c0-4.44,1.32-8.07,2.93-8.07h367.74C727.77,1377,729.09,1380.64,729.09,1385.08z"/>
	<rect x="282.99" y="1405.85" class="st0" width="328.85" height="479.32"/>
	<rect x="375.15" y="1405.85" class="st6" width="328.85" height="479.32"/>
	<g>
		<g>
			<path class="st7" d="M686.34,1858.7H392.83v-439.32h293.51V1858.7z M395.99,1855.53h287.17v-432.98H395.99V1855.53z"/>
		</g>
		<g>
			<rect x="394.41" y="1564.72" class="st7" width="290.34" height="3.17"/>
		</g>
		<g>
			<rect x="394.41" y="1712.88" class="st7" width="290.34" height="3.17"/>
		</g>
		<path class="st7" d="M569.33,1447.72h-53.88c-2.61,0-4.75-2.14-4.75-4.75l0,0c0-2.61,2.14-4.75,4.75-4.75h53.88
			c2.61,0,4.75,2.14,4.75,4.75l0,0C574.09,1445.58,571.95,1447.72,569.33,1447.72z"/>
		<path class="st7" d="M569.33,1592.61h-53.88c-2.61,0-4.75-2.14-4.75-4.75l0,0c0-2.61,2.14-4.75,4.75-4.75h53.88
			c2.61,0,4.75,2.14,4.75,4.75l0,0C574.09,1590.47,571.95,1592.61,569.33,1592.61z"/>
		<path class="st7" d="M569.33,1743.64h-53.88c-2.61,0-4.75-2.14-4.75-4.75l0,0c0-2.61,2.14-4.75,4.75-4.75h53.88
			c2.61,0,4.75,2.14,4.75,4.75l0,0C574.09,1741.5,571.95,1743.64,569.33,1743.64z"/>
	</g>
</g>
<g>
	<path class="st8" d="M2022.08,544.02h-212.45c-8.47,0-15.39-6.93-15.39-15.39v-205.2c0-8.47,6.93-15.39,15.39-15.39h212.45
		c8.47,0,15.39,6.93,15.39,15.39v205.19C2037.47,537.1,2030.54,544.02,2022.08,544.02z"/>
	<path class="st6" d="M2012.87,533.8h-194.05c-7.73,0-14.06-6.33-14.06-14.06V332.32c0-7.73,6.33-14.06,14.06-14.06h194.05
		c7.73,0,14.06,6.33,14.06,14.06v187.42C2026.93,527.47,2020.6,533.8,2012.87,533.8z"/>
	<g>
		<g>
			<circle class="st7" cx="1915.85" cy="339.8" r="5.04"/>
			<path class="st7" d="M1951.47,346.92c1.35-2.43,4.42-3.31,6.85-1.96c2.43,1.35,3.31,4.42,1.96,6.85
				c-1.35,2.43-4.42,3.31-6.85,1.96C1950.99,352.42,1950.11,349.36,1951.47,346.92z"/>
			<path class="st7" d="M1986.3,374.6c2.34-1.51,5.46-0.84,6.97,1.5c1.51,2.34,0.84,5.46-1.5,6.97c-2.34,1.51-5.46,0.84-6.97-1.5
				C1983.29,379.22,1983.96,376.1,1986.3,374.6z"/>
			<path class="st7" d="M2003.55,417.43c2.78,0,5.04,2.26,5.04,5.04c0,2.78-2.26,5.04-5.04,5.04c-2.78,0-5.04-2.26-5.04-5.04
				C1998.51,419.68,2000.77,417.43,2003.55,417.43z"/>
			<path class="st7" d="M1994.74,467.14c1.97,1.97,1.97,5.16,0,7.13c-1.97,1.97-5.16,1.97-7.13,0c-1.97-1.97-1.97-5.16,0-7.13
				C1989.59,465.17,1992.78,465.17,1994.74,467.14z"/>
			<path class="st7" d="M1963.1,498.86c1.97,1.97,1.97,5.16,0,7.13c-1.97,1.97-5.16,1.97-7.13,0c-1.97-1.97-1.97-5.16,0-7.13
				C1957.94,496.89,1961.14,496.89,1963.1,498.86z"/>
			<path class="st7" d="M1910.81,515.21c0-2.78,2.25-5.04,5.04-5.04c2.78,0,5.04,2.26,5.04,5.04c0,2.78-2.26,5.04-5.04,5.04
				C1913.06,520.25,1910.81,517.99,1910.81,515.21z"/>
		</g>
		<g>
			<path class="st7" d="M1880.07,346.92c-1.35-2.43-4.42-3.31-6.85-1.96c-2.43,1.35-3.31,4.42-1.96,6.85
				c1.35,2.43,4.42,3.31,6.85,1.96C1880.54,352.42,1881.42,349.36,1880.07,346.92z"/>
			<path class="st7" d="M1845.24,374.6c-2.34-1.51-5.46-0.84-6.97,1.5c-1.51,2.34-0.84,5.46,1.5,6.97c2.34,1.51,5.46,0.84,6.97-1.5
				C1848.25,379.22,1847.58,376.1,1845.24,374.6z"/>
			<path class="st7" d="M1827.98,417.43c-2.78,0-5.04,2.26-5.04,5.04c0,2.78,2.26,5.04,5.04,5.04c2.78,0,5.04-2.26,5.04-5.04
				C1833.02,419.68,1830.77,417.43,1827.98,417.43z"/>
			<path class="st7" d="M1836.79,467.14c-1.97,1.97-1.97,5.16,0,7.13c1.97,1.97,5.16,1.97,7.13,0c1.97-1.97,1.97-5.16,0-7.13
				C1841.95,465.17,1838.76,465.17,1836.79,467.14z"/>
			<circle class="st7" cx="1872" cy="502.42" r="5.04"/>
		</g>
	</g>
	<g>
		<path class="st7" d="M1914.49,422.47c0-2.78,2.26-5.04,5.04-5.04c2.78,0,5.04,2.26,5.04,5.04c0,2.78-2.26,5.04-5.04,5.04
			C1916.75,427.51,1914.49,425.25,1914.49,422.47z"/>
		<g>
			<rect x="1918.84" y="359.52" class="st7" width="1.38" height="62.95"/>
		</g>
		<g>
			
				<rect x="1914.37" y="407.22" transform="matrix(0.7866 -0.6175 0.6175 0.7866 160.3475 1282.5088)" class="st7" width="42.42" height="4.13"/>
		</g>
	</g>
</g>
<g>
	<g>
		<path class="st9" d="M1401.43,1312.06c-31.1,54.13-70.22,75.02-70.22,75.02h-162.74
			C1168.47,1387.08,1425.15,1270.77,1401.43,1312.06z"/>
		<g>
			<path class="st10" d="M1602.14,1849.82c-1.76,17.07,21.99,21.48,49.53,23.15c27.54,1.67,19.15,7.22,56.85,14.47
				c37.69,7.24,52.94-2.93,55.72-8c2.48-4.5-15-11.77-33.62-19.97c-2.35-1.02-4.69-2.08-7.04-3.14
				c-20.96-9.49-32.57-28.5-48.81-46.19c-15.37-16.75-29.57-70.02-29.57-70.02l-51.2-11.51c0,0,13.9,47.95,18.68,68.41
				c2.81,12.03-1.67,25.4-5.64,35.58C1604.91,1838.14,1602.75,1843.81,1602.14,1849.82z"/>
			<path class="st11" d="M1651.67,1872.98c27.54,1.67,19.15,7.22,56.85,14.47c37.69,7.24,52.94-2.93,55.72-8
				c2.48-4.5-15-11.77-33.62-19.97l-0.3,0.32c0,0-26.65,8.73-57.21,0.07c-24.91-7.05-48.91-22.24-66.07-27.25
				c-2.14,5.53-4.29,11.2-4.91,17.22C1600.38,1866.9,1624.13,1871.31,1651.67,1872.98z"/>
			<path class="st9" d="M1524.57,1256.61c-27.55-19.35-209.8-53.84-302.81-63.81l-102.8-89.24c0,0-87.5,129.6-88.2,228.75
				c-0.32,46.23,20.97,50.82,20.98,50.83c0,0,329.55,2.44,343.99,3.93c23.64,2.44,54.83,61.34,62.63,114.99
				c7.79,53.65,145.21,271.86,145.21,271.86s28.66,9.18,41.91,8.4c14.25-0.84,20.85-5.61,20.85-5.61S1586.7,1300.24,1524.57,1256.61
				z"/>
			<path class="st10" d="M1516.9,1849.82c-1.76,17.07,21.99,21.48,49.53,23.15c27.54,1.67,19.15,7.22,56.85,14.47
				c37.69,7.24,52.94-2.93,55.73-8c2.48-4.5-15-11.77-33.63-19.97c-2.34-1.02-4.69-2.08-7.04-3.14
				c-20.96-9.49-32.57-28.5-48.81-46.19c-15.37-16.75-29.57-70.02-29.57-70.02l-51.2-11.51c0,0,13.9,47.95,18.68,68.41
				c2.81,12.03-1.67,25.4-5.64,35.58C1519.67,1838.14,1517.51,1843.81,1516.9,1849.82z"/>
			<path class="st9" d="M1566.43,1872.98c27.54,1.67,19.15,7.22,56.85,14.47c37.69,7.24,52.94-2.93,55.73-8
				c2.48-4.5-15-11.77-33.63-19.97l-0.29,0.32c0,0-26.65,8.73-57.21,0.07c-24.91-7.05-48.91-22.24-66.07-27.25
				c-2.14,5.53-4.29,11.2-4.91,17.22C1515.14,1866.9,1538.89,1871.31,1566.43,1872.98z"/>
			<path class="st12" d="M1438.57,1256.61c-23.94-16.81-95.93-29.84-175.39-39.51c-21.97-2.67-40.01-18.65-45.38-40.12l0,0
				l-184.84-73.42c0,0-87.5,129.6-88.2,228.75c-0.32,46.23,20.97,50.82,20.98,50.83c0,0,329.55,2.44,343.99,3.93
				c23.64,2.44,54.83,61.34,62.63,114.99c7.79,53.65,145.21,271.86,145.21,271.86s28.66,9.18,41.91,8.4
				c14.25-0.84,20.85-5.61,20.85-5.61S1500.71,1300.24,1438.57,1256.61z"/>
			<path class="st9" d="M1191.23,565.09c-25.4-13.34-64.05-15.14-70.33-15.99c-75.14-10.1-120.36,99.08-123.02,132.17
				c-4.9,60.98-37.16,70.27-82.56,108.46c-91.04,76.57-64.34,165.55-14.56,198.61c29.87,19.84,82.52,0,82.52,0
				c0.74,0.52,143.98-80.07,214.59-118.95C1303.72,854.34,1255.96,599.08,1191.23,565.09z"/>
			<path class="st10" d="M1175.56,831.83c0.33,0.17-33.39,15.5-57.72,7.46c-22.9-7.54-43.06-42.01-42.74-42.07
				c9.94-1.44,20.04-11.24,22.86-69.34l4.4,1.11l73.99,18.7c0,0-2.93,23.44-4.13,45.6C1171.2,811.91,1171.4,829.62,1175.56,831.83z"
				/>
			<path class="st13" d="M1176.35,747.7c0,0,0,4.82-2.77,26.63c-41.85-10.56-60.3-24.43-73.31-40.31L1176.35,747.7z"/>
			<path class="st10" d="M1192.14,750.65c0,0-97.84,15.93-106.83-45.15c-8.98-61.09-27.66-100.17,34.43-112.92
				c62.09-12.75,77.68,8.77,85.64,28.43C1213.34,640.66,1217.36,744.93,1192.14,750.65z"/>
			<path class="st9" d="M1192.23,590.01c0,0-44.43,70.14-84.1,86.75c-39.67,16.61-59.15,8.18-59.15,8.18s18.05-27.36,22.75-64.1
				c1.39-10.83,8.44-20.11,18.58-24.17C1118.76,585.27,1173.83,567.29,1192.23,590.01z"/>
			<path class="st9" d="M1153.2,596.79c0,0,26.04,13.35,36.77,25.87c10.35,12.08,22.3,44.84,21.45,59.56
				c0,0,12.85-70.52-13.91-94.76C1169.13,561.75,1153.2,596.79,1153.2,596.79z"/>
			<path class="st14" d="M1253.84,981.06c-2.97,198.89-0.82,157.33-22.57,176.2c-5.24,4.54-19.98,7.25-39.38,8.53
				c-60.98,4.05-168.19-6-172.27-17.27c-14.07-39-4.14-51.11-15.87-110.82c-1.22-6.35-2.74-13.22-4.51-20.71
				c-9.79-41.01-19.31-54.96,15.41-120.83c31.48-59.67,68.51-108.15,71.45-106.4c83.06,49.31,85.9,7.98,85.9,7.98
				S1255.29,884.05,1253.84,981.06z"/>
			<path class="st14" d="M1172,797.74c0,0,85.01,14.41,95.04,51.21c10.04,36.8,69.1,253.13,69.1,253.13s-43.45,7.81-63.52-12.27
				c-20.07-20.07-69.84-186.22-69.84-186.22L1172,797.74z"/>
			<path class="st15" d="M1191.89,1165.79c-60.98,4.05-168.19-6-172.27-17.27c-14.07-39-4.14-51.11-15.87-110.82l29.41-82.83
				c0,0-4.86,92.23,22.34,116.49c27.17,24.26,111.37,46.83,124.59,67.1C1186.48,1148.2,1190.67,1157.96,1191.89,1165.79z"/>
			<path class="st10" d="M1122.02,1127c0,0,60.17-13.4,69.87-8.06c9.71,5.34,33.43,24.78,36.4,31.55
				c2.97,6.77-21.61-5.14-29.61-7.28c-5.18-1.39-18.81,3.35-25.56,5.6c-28.4,9.47-45.8,4.6-45.8,4.6L1122.02,1127z"/>
			<path class="st14" d="M1086.09,789.76c0,0-85.15,4.98-113.12,43.98c-39.37,54.91-117.46,288.91-72.71,320.12
				c50.4,35.15,229.4,9.2,229.4,9.2s5.96-27.84-2.33-41.31c-8.29-13.47-142.97-35.22-149.18-41.44
				c-6.22-6.22,77.7-121.21,77.7-139.86C1055.85,921.8,1086.09,789.76,1086.09,789.76z"/>
			<path class="st10" d="M1194.81,1135.69c0,0,12.61,16.26,16.74,18.2s6.8,1.46,6.8,1.46l-8.49-15.29L1194.81,1135.69z"/>
			<path class="st10" d="M1191.89,1118.94l36.65,17.8c0,0-1.56,2.55-6.07,2.35c-4.51-0.21-15.9-4.37-15.9-4.37L1191.89,1118.94z"/>
		</g>
	</g>
</g>
<g>
	<path class="st16" d="M1326.91,1161.13h-170.23l0,0c0-7.49,6.07-13.57,13.57-13.57h156.66V1161.13z"/>
	<polygon class="st16" points="1326.42,975.74 1589.6,975.74 1526.48,1161.13 1261.59,1161.13 	"/>
	<polygon class="st17" points="1593.48,975.74 1530.35,1161.13 1265.46,1161.13 1330.3,975.74 	"/>
	<path class="st14" d="M1451.59,1066.72c-1.64,7.08-8.7,12.83-15.79,12.83s-11.5-5.74-9.86-12.83c1.64-7.08,8.7-12.83,15.79-12.83
		C1448.81,1053.9,1453.22,1059.64,1451.59,1066.72z"/>
</g>
<g>
	<path class="st18" d="M1096.83,1202.84H2252.2c4.29,0,7.77-3.48,7.77-7.77v-26.17c0-4.29-3.48-7.77-7.77-7.77H1096.83
		c-4.29,0-7.77,3.48-7.77,7.77v26.17C1089.06,1199.36,1092.54,1202.84,1096.83,1202.84z"/>
	<g>
		<path class="st18" d="M2279.43,1889.9l0.49-0.06c5.91-0.73,10.09-6,9.34-11.78l-102.78-695.7l-37.63,1.08l120.92,699.47
			C2270.56,1887.38,2274.82,1890.47,2279.43,1889.9z"/>
	</g>
	<g>
		<path class="st18" d="M1059.22,1889.9l-0.49-0.06c-5.91-0.73-10.09-6-9.35-11.78l102.78-695.7l37.63,1.08l-120.93,699.47
			C1068.09,1887.38,1063.84,1890.47,1059.22,1889.9z"/>
	</g>
	<g>
		<path class="st18" d="M1297.16,1889.9l-0.49-0.06c-5.91-0.73-10.09-6-9.35-11.78l102.78-695.7l37.63,1.08L1306.8,1882.9
			C1306.02,1887.38,1301.77,1890.47,1297.16,1889.9z"/>
	</g>
</g>
<path class="st19" d="M3196.14,1895.63H0.91c-2.13,0-3.86-1.74-3.86-3.86v-4.57c0-2.13,1.74-3.86,3.86-3.86h3195.23
	c2.13,0,3.86,1.74,3.86,3.86v4.57C3200,1893.89,3198.26,1895.63,3196.14,1895.63z"/>
<g>
	<path class="st9" d="M1903.5,1889.33h203.95c9.81-11.97,6.2-56.14,4.71-70.56c-0.31-2.9-0.52-4.6-0.52-4.6
		s-69.64-55.71-79.21-13.05c-0.29,1.34-0.64,2.65-1.03,3.94c-12.05,39.9-66.11,58.03-97.33,63.08
		C1913.78,1871.43,1906.28,1881.98,1903.5,1889.33z"/>
	<path class="st9" d="M2460,1226.63c-7.36,0-349.35,64.21-405.92,134.23c-28.26,34.98-32.46,438.97-32.46,438.97
		s34.96,43.35,110.47,18.18c0,0,55.36-276.41,51.27-360.24c-1.13-23.18,233.66-3.36,276.64-14.48
		c42.97-11.12,147.97-104.61,124.84-150.15C2561.7,1247.61,2460,1226.63,2460,1226.63z"/>
	<path class="st10" d="M2055.55,1127.71c0,0-68.98,0.93-85.3,7.92c-16.31,6.99-49.41,23.04-40.55,25.5
		c8.86,2.46,51.12-1.02,60.25,0.38c9.13,1.4,20.39-0.39,25.99-0.38c5.59,0,31.68,0,31.68,0L2055.55,1127.71z"/>
	<path class="st10" d="M1974.9,962.16c0,0-23.52-16.81-46.36-20.07c-13.03-1.86-25.69-4.18-33.35-6.88
		c-21.08-7.43-63.24-45.34-60.05-49.79c10.23-14.25,59.46,15.91,68.05,12.67c8.59-3.24-16.52-21.09-7.78-27.37
		c4.56-3.28,15.23,13.16,23.95,14.81c11.8,2.23,21.03,18.9,24.58,19.77c6.91,1.69,37.2,24.22,37.2,24.22L1974.9,962.16z"/>
	<path class="st16" d="M2425.94,765.89c0,0-52.51,16.28-104.25,158.75c-51.74,142.47-71.39,150.16-90.19,155.76
		c-18.81,5.59-183.88,38.46-183.88,38.46v42.28h254.35c0,0,95.38-90.73,123.97-151.8C2454.53,948.25,2425.94,765.89,2425.94,765.89z
		"/>
	<path class="st20" d="M1813.37,1889.33h203.95c9.81-11.97,6.2-56.14,4.71-70.56c-0.31-2.9-0.52-4.6-0.52-4.6
		s-69.64-55.71-79.21-13.05c-0.29,1.34-0.65,2.65-1.03,3.94c-12.05,39.9-66.11,58.03-97.33,63.08
		C1823.64,1871.43,1816.14,1881.98,1813.37,1889.33z"/>
	<path class="st12" d="M2359.22,1226.63c-7.36,0-349.35,64.21-405.92,134.23c-28.26,34.98-32.46,438.97-32.46,438.97
		s34.96,43.35,110.47,18.18c0,0,55.36-276.41,51.27-360.24c-1.13-23.18,233.66-3.36,276.64-14.48
		c42.97-11.12,147.97-104.61,124.84-150.15C2460.93,1247.61,2359.22,1226.63,2359.22,1226.63z"/>
	<path class="st10" d="M2380.63,811.04c24.6-2.03,50.4-8.59,72.69-15.82c27.87-9.04,50.33-22.26,35.86-47.73
		c-13.34-23.47-34.93-75.92-33.47-119.36l-51.86,41.79l-35.23,28.38c0,0,0.15,16.73,4,46.06c0.7,5.35,1.53,11.12,2.5,17.28
		c0.78,4.98-1.51,9.96-5.79,12.62c-0.27,0.16-0.53,0.33-0.79,0.5C2351.02,785.76,2360.02,812.74,2380.63,811.04z"/>
	<path class="st13" d="M2368.62,691.4c0,0-1.8,6.08,1.29,28.51c31.4-5.12,60.76-30.17,60.76-30.17
		c-15.99-4.39-21.81-21.67-33.71-20.05L2368.62,691.4z"/>
	<path class="st10" d="M2339.57,696.51c0,0,120.8,20.07,132.14-55.35c11.34-75.42,34.57-123.62-42.08-139.63
		c-76.65-16-95.99,10.52-105.9,34.77C2313.82,560.56,2308.44,689.35,2339.57,696.51z"/>
	<path class="st12" d="M2305.96,502.93c-5.19,18.16,8.69,40.28,32,47.57c34.59,10.81,26.95,53.24,42.52,52.67
		c15.57-0.58,21.85-24.39,35.75-5.36c11.86,16.23-9.87,35.47-8.38,44.37c2.57,15.28,26.5,46.54,48.07,44.97
		c21.57-1.57,61.93-104.07,53.85-135.78c-8.07-31.71-40.36-65.15-70.92-69.76c-30.56-4.61-72.99,8.58-82.8,8.58
		S2308.76,493.12,2305.96,502.93z"/>
	<path class="st17" d="M2586.45,870.57c-17.46-70.27-65.72-144.01-98.35-143.95c-55.6,0.11-135.53,14.78-167.8,94.39
		c-23.77,58.63-55.47,395.91-19.64,419.9c81.91,54.84,271.77,166.77,305.49,52.62C2637.06,1188.93,2616.75,992.53,2586.45,870.57z"
		/>
	<path class="st17" d="M2451.41,800.63c-15.86-41.26-67.02-55.52-101.91-28.38c-18.87,14.68-41.98,35.59-69.89,65.31
		c-103.76,110.49-124.85,109.81-144.34,107.53c-19.49-2.28-184.13-37.23-184.13-37.23s-8.43,6.22-13.39,16.27
		c-6.63,13.43-3.29,22.58-3.29,22.58c-6.45-4.17,58.36,40.51,90.62,58.32c42.6,23.52,106.8,45.58,132.37,53.95
		c7.25,2.37,15.06,2.25,22.24-0.33c37.95-13.68,165.4-63.52,269.15-150.02C2476.16,885.85,2466.11,838.89,2451.41,800.63z"/>
	<path class="st14" d="M2493.7,727.29l-12.59-28.36c0,0-112.68,9.19-131.62,73.32C2349.5,772.25,2436.84,728.67,2493.7,727.29z"/>
</g>
<g>
	<g>
		<path class="st3" d="M2767.27,1886.8l0.78-0.01c6.36-0.12,11.28-5.32,10.68-11.3l-42.45-423.9l-37.04,3.3l60.95,426.18
			C2760.67,1884.4,2763.71,1886.86,2767.27,1886.8z"/>
	</g>
	<g>
		<path class="st3" d="M2548.8,1886.8l0.78-0.01c6.36-0.12,11.28-5.32,10.68-11.3l-42.44-423.9l-37.04,3.3l60.95,426.18
			C2542.19,1884.4,2545.24,1886.86,2548.8,1886.8z"/>
	</g>
	<g>
		<path class="st21" d="M2138.65,1886.8l-0.78-0.01c-6.36-0.12-11.28-5.32-10.68-11.3l42.45-423.9l37.04,3.3l-60.95,426.18
			C2145.25,1884.4,2142.21,1886.86,2138.65,1886.8z"/>
	</g>
	<path class="st3" d="M2755.27,1391.53l40.29-354.04c5.28-51.02-11.79-100.98-85.42-104.85l-129.53-7.89
		c-76.77-3.17-111.43,60.73-121.15,109.91l-76.89,389.18L2755.27,1391.53z"/>
	<path class="st21" d="M2736.05,1457.78h-579.72c-10.22,0-18.58-8.36-18.58-18.58v-30.7c0-10.22,8.36-18.58,18.58-18.58h598.3v49.28
		C2754.63,1449.42,2746.27,1457.78,2736.05,1457.78z"/>
	<path class="st3" d="M2740.2,1457.78H2397c-7.94,0-14.43-6.49-14.43-14.43v-39c0-7.94,6.49-14.43,14.43-14.43h357.63v53.43
		C2754.63,1451.29,2748.13,1457.78,2740.2,1457.78z"/>
</g>
</svg>
