<?xml version="1.0" encoding="UTF-8"?> <svg xmlns="http://www.w3.org/2000/svg" id="Слой_1" data-name="Слой 1" viewBox="0 0 3653.8 2202.9"><defs><style>.cls-1{fill:#c3dafc;}.cls-2{fill:#d4e4f8;}.cls-3{fill:#9dc3f3;}.cls-4{fill:#e3f0ff;}.cls-5{fill:#fff;}.cls-6{fill:#c1d8f4;}.cls-7{fill:#d5e5fb;}.cls-8{fill:#699dee;}.cls-9{fill:#a9c8ed;}.cls-10{fill:#2a4e96;}.cls-11{fill:#618dc1;}.cls-12{fill:#ed823a;}.cls-13{fill:#ff9e55;}.cls-14{fill:#dd732c;}.cls-15{fill:#ffb27d;}.cls-16{fill:#233862;}.cls-17{fill:#ed975d;}.cls-18{fill:#d8702a;}.cls-19{fill:#c15e1b;}.cls-20{fill:#a9453d;}.cls-21{fill:#2c3a64;}.cls-22{fill:#163560;}.cls-23{fill:#ed7d2b;}.cls-24{fill:#234884;}.cls-25{fill:#ed985f;}.cls-26{fill:#183e7a;}.cls-27{fill:#1f437c;}.cls-28{fill:#80b4ff;}</style></defs><rect class="cls-1" x="679.9" y="1189.5" width="187.5" height="152.1"></rect><rect class="cls-2" x="773.6" y="1189.5" width="187.5" height="152.1"></rect><polygon class="cls-3" points="680 1303.1 709.7 1303.1 707.1 1294.8 709.7 1289 680 1289 680 1303.1"></polygon><polygon class="cls-4" points="773.6 1236.6 803.3 1236.6 800.7 1228.4 803.3 1222.5 773.6 1222.5 773.6 1236.6"></polygon><polygon class="cls-3" points="773.6 1222.5 743.9 1222.5 746.5 1230.7 743.9 1236.6 773.6 1236.6 773.6 1222.5"></polygon><polygon class="cls-4" points="961.2 1304.7 931.4 1304.7 934.1 1312.9 931.4 1318.8 961.2 1318.8 961.2 1304.7"></polygon><rect class="cls-5" x="894.9" y="1199.9" width="54" height="20.6"></rect><rect class="cls-1" x="1876" y="1239.2" width="125" height="101.4"></rect><rect class="cls-2" x="1938.5" y="1239.2" width="125" height="101.4"></rect><polygon class="cls-3" points="1876.1 1314.9 1895.9 1314.9 1894.2 1309.4 1895.9 1305.5 1876.1 1305.5 1876.1 1314.9"></polygon><polygon class="cls-4" points="1938.5 1270.6 1958.4 1270.6 1956.6 1265.1 1958.4 1261.2 1938.5 1261.2 1938.5 1270.6"></polygon><polygon class="cls-3" points="1938.5 1261.2 1918.7 1261.2 1920.5 1266.7 1918.7 1270.6 1938.5 1270.6 1938.5 1261.2"></polygon><polygon class="cls-4" points="2063.6 1316 2043.8 1316 2045.5 1321.5 2043.8 1325.4 2063.6 1325.4 2063.6 1316"></polygon><rect class="cls-5" x="2019.4" y="1246.1" width="36" height="13.8"></rect><rect class="cls-1" x="1601.6" y="1209.2" width="162.1" height="131.4"></rect><rect class="cls-2" x="1682.6" y="1209.2" width="162.1" height="131.4"></rect><polygon class="cls-3" points="1601.7 1307.3 1627.3 1307.3 1625.1 1300.2 1627.3 1295.1 1601.7 1295.1 1601.7 1307.3"></polygon><polygon class="cls-4" points="1682.6 1249.9 1708.3 1249.9 1706 1242.8 1708.3 1237.7 1682.6 1237.7 1682.6 1249.9"></polygon><polygon class="cls-3" points="1682.6 1237.7 1656.9 1237.7 1659.2 1244.8 1656.9 1249.9 1682.6 1249.9 1682.6 1237.7"></polygon><polygon class="cls-4" points="1844.7 1308.7 1819 1308.7 1821.3 1315.8 1819 1320.9 1844.7 1320.9 1844.7 1308.7"></polygon><rect class="cls-5" x="1787.4" y="1218.1" width="46.6" height="17.8"></rect><rect class="cls-1" x="348.7" y="1189.5" width="187.5" height="152.1"></rect><rect class="cls-2" x="442.4" y="1189.5" width="187.5" height="152.1"></rect><polygon class="cls-3" points="348.8 1303.1 378.5 1303.1 375.9 1294.8 378.5 1289 348.8 1289 348.8 1303.1"></polygon><polygon class="cls-4" points="442.4 1236.6 472.2 1236.6 469.5 1228.4 472.2 1222.5 442.4 1222.5 442.4 1236.6"></polygon><polygon class="cls-3" points="442.4 1222.5 412.7 1222.5 415.3 1230.7 412.7 1236.6 442.4 1236.6 442.4 1222.5"></polygon><polygon class="cls-4" points="630 1304.7 600.3 1304.7 602.9 1312.9 600.3 1318.8 630 1318.8 630 1304.7"></polygon><rect class="cls-5" x="563.7" y="1199.9" width="54" height="20.6"></rect><rect class="cls-6" x="2641.4" y="1453.9" width="798.3" height="732.5"></rect><rect class="cls-4" x="2666.4" y="1476.5" width="748.3" height="71.8"></rect><rect class="cls-4" x="2666.4" y="1618.8" width="748.3" height="71.8"></rect><rect class="cls-2" x="2666.4" y="1547.7" width="748.3" height="71.8"></rect><rect class="cls-4" x="2666.4" y="1761.1" width="748.3" height="71.8"></rect><rect class="cls-2" x="2666.4" y="1690" width="748.3" height="71.8"></rect><rect class="cls-4" x="2666.4" y="1901.9" width="748.3" height="71.8"></rect><rect class="cls-2" x="2666.4" y="1830.8" width="748.3" height="71.8"></rect><rect class="cls-2" x="2666.4" y="1972.4" width="748.3" height="71.8"></rect><rect class="cls-4" x="2666.4" y="2044.2" width="748.3" height="71.8"></rect><rect class="cls-2" x="2666.4" y="2114.7" width="748.3" height="71.8"></rect><rect class="cls-7" x="2641.4" y="1265.8" width="798.3" height="136"></rect><rect class="cls-1" x="227.4" y="1341.6" width="72.1" height="846.2"></rect><rect class="cls-1" x="1018.2" y="1341.6" width="60" height="846.2"></rect><rect class="cls-8" x="299.5" y="1341.6" width="778.6" height="22"></rect><rect class="cls-8" x="299.5" y="1742.7" width="778.6" height="22"></rect><rect class="cls-8" x="299.5" y="2079.1" width="778.6" height="22"></rect><rect class="cls-9" x="692.9" y="1585.5" width="193.9" height="157.2"></rect><rect class="cls-2" x="789.8" y="1585.5" width="193.9" height="157.2"></rect><polygon class="cls-3" points="693 1702.8 723.7 1702.8 721 1694.3 723.7 1688.3 693 1688.3 693 1702.8"></polygon><polygon class="cls-4" points="789.8 1634.1 820.5 1634.1 817.8 1625.6 820.5 1619.6 789.8 1619.6 789.8 1634.1"></polygon><polygon class="cls-3" points="789.8 1619.6 759.1 1619.6 761.8 1628.1 759.1 1634.1 789.8 1634.1 789.8 1619.6"></polygon><polygon class="cls-4" points="983.7 1704.5 952.9 1704.5 955.7 1713 952.9 1719.1 983.7 1719.1 983.7 1704.5"></polygon><rect class="cls-5" x="915.2" y="1596.1" width="55.8" height="21.3"></rect><rect class="cls-1" x="444" y="1585.5" width="193.9" height="157.2"></rect><rect class="cls-2" x="541" y="1585.5" width="193.9" height="157.2"></rect><polygon class="cls-3" points="444.1 1702.8 474.9 1702.8 472.2 1694.3 474.9 1688.3 444.1 1688.3 444.1 1702.8"></polygon><polygon class="cls-4" points="541 1634.1 571.7 1634.1 569 1625.6 571.7 1619.6 541 1619.6 541 1634.1"></polygon><polygon class="cls-3" points="541 1619.6 510.3 1619.6 513 1628.1 510.3 1634.1 541 1634.1 541 1619.6"></polygon><polygon class="cls-4" points="734.9 1704.5 704.1 1704.5 706.8 1713 704.1 1719.1 734.9 1719.1 734.9 1704.5"></polygon><polygon class="cls-4" points="734.9 1617.5 704.1 1617.5 706.8 1626 704.1 1632.1 734.9 1632.1 734.9 1617.5"></polygon><rect class="cls-5" x="560.6" y="1691.1" width="90.9" height="34.8"></rect><rect class="cls-1" x="692.9" y="1942.7" width="167.6" height="135.9"></rect><rect class="cls-2" x="776.6" y="1942.7" width="167.6" height="135.9"></rect><polygon class="cls-3" points="692.9 2044.1 719.5 2044.1 717.2 2036.8 719.5 2031.5 692.9 2031.5 692.9 2044.1"></polygon><polygon class="cls-4" points="776.6 1984.7 803.2 1984.7 800.8 1977.4 803.2 1972.1 776.6 1972.1 776.6 1984.7"></polygon><polygon class="cls-3" points="776.6 1972.1 750.1 1972.1 752.4 1979.5 750.1 1984.7 776.6 1984.7 776.6 1972.1"></polygon><polygon class="cls-4" points="944.2 2045.6 917.7 2045.6 920 2052.9 917.7 2058.2 944.2 2058.2 944.2 2045.6"></polygon><rect class="cls-5" x="885" y="1951.9" width="48.2" height="18.5"></rect><rect class="cls-1" x="374.6" y="1921.3" width="193.9" height="157.2"></rect><rect class="cls-2" x="471.5" y="1921.3" width="193.9" height="157.2"></rect><polygon class="cls-10" points="374.7 2038.7 405.4 2038.7 402.7 2030.2 405.4 2024.1 374.7 2024.1 374.7 2038.7"></polygon><polygon class="cls-11" points="471.5 1970 502.2 1970 499.5 1961.5 502.2 1955.4 471.5 1955.4 471.5 1970"></polygon><polygon class="cls-10" points="471.5 1955.4 440.8 1955.4 443.5 1963.9 440.8 1970 471.5 1970 471.5 1955.4"></polygon><polygon class="cls-11" points="665.4 2040.4 634.7 2040.4 637.4 2048.9 634.7 2055 665.4 2055 665.4 2040.4"></polygon><rect class="cls-5" x="596.9" y="1932" width="55.8" height="21.3"></rect><rect class="cls-1" x="429.2" y="1464.5" width="148.2" height="120.2"></rect><rect class="cls-2" x="503.3" y="1464.5" width="148.2" height="120.2"></rect><polygon class="cls-3" points="429.2 1554.3 452.7 1554.3 450.7 1547.8 452.7 1543.1 429.2 1543.1 429.2 1554.3"></polygon><polygon class="cls-4" points="503.3 1501.7 526.8 1501.7 524.7 1495.2 526.8 1490.6 503.3 1490.6 503.3 1501.7"></polygon><polygon class="cls-3" points="503.3 1490.6 479.8 1490.6 481.8 1497.1 479.8 1501.7 503.3 1501.7 503.3 1490.6"></polygon><polygon class="cls-4" points="651.5 1555.5 628 1555.5 630.1 1562.1 628 1566.7 651.5 1566.7 651.5 1555.5"></polygon><rect class="cls-5" x="599.1" y="1472.7" width="42.7" height="16.3"></rect><rect class="cls-1" x="694" y="1464.5" width="148.2" height="120.2"></rect><rect class="cls-2" x="768.1" y="1464.5" width="148.2" height="120.2"></rect><polygon class="cls-3" points="694.1 1554.3 717.5 1554.3 715.5 1547.8 717.5 1543.1 694.1 1543.1 694.1 1554.3"></polygon><polygon class="cls-4" points="768.1 1501.7 791.6 1501.7 789.5 1495.2 791.6 1490.6 768.1 1490.6 768.1 1501.7"></polygon><polygon class="cls-3" points="768.1 1490.6 744.6 1490.6 746.7 1497.1 744.6 1501.7 768.1 1501.7 768.1 1490.6"></polygon><polygon class="cls-4" points="916.3 1555.5 892.8 1555.5 894.9 1562.1 892.8 1566.7 916.3 1566.7 916.3 1555.5"></polygon><rect class="cls-5" x="864" y="1472.7" width="42.7" height="16.3"></rect><rect class="cls-12" x="479.8" y="1830.1" width="112.3" height="91.1"></rect><rect class="cls-13" x="423.7" y="1830.1" width="112.3" height="91.1"></rect><polygon class="cls-14" points="592.1 1898.2 574.3 1898.2 575.9 1893.2 574.3 1889.7 592.1 1889.7 592.1 1898.2"></polygon><polygon class="cls-15" points="536 1858.3 518.2 1858.3 519.8 1853.4 518.2 1849.9 536 1849.9 536 1858.3"></polygon><polygon class="cls-14" points="536 1849.9 553.8 1849.9 552.2 1854.8 553.8 1858.3 536 1858.3 536 1849.9"></polygon><polygon class="cls-15" points="423.7 1899.1 441.5 1899.1 439.9 1904.1 441.5 1907.6 423.7 1907.6 423.7 1899.1"></polygon><rect class="cls-5" x="431" y="1836.3" width="32.3" height="12.4"></rect><rect class="cls-5" x="299.5" y="1341.6" width="176.7" height="173.8"></rect><rect class="cls-13" x="309" y="1350.9" width="157.9" height="155.3"></rect><rect class="cls-1" x="1317" y="1340.6" width="66" height="846.2"></rect><rect class="cls-1" x="2097.5" y="1340.6" width="64" height="846.2"></rect><rect class="cls-8" x="1382.9" y="1340.6" width="778.6" height="19.8"></rect><rect class="cls-8" x="1382.9" y="1741.7" width="778.6" height="22"></rect><rect class="cls-8" x="1382.9" y="2078.1" width="778.6" height="26.2"></rect><rect class="cls-1" x="1776.3" y="1584.5" width="193.9" height="157.2"></rect><rect class="cls-2" x="1873.2" y="1584.5" width="193.9" height="157.2"></rect><polygon class="cls-3" points="1776.4 1701.8 1807.1 1701.8 1804.4 1693.3 1807.1 1687.3 1776.4 1687.3 1776.4 1701.8"></polygon><polygon class="cls-4" points="1873.2 1633.1 1903.9 1633.1 1901.2 1624.6 1903.9 1618.6 1873.2 1618.6 1873.2 1633.1"></polygon><polygon class="cls-3" points="1873.2 1618.6 1842.5 1618.6 1845.2 1627.1 1842.5 1633.1 1873.2 1633.1 1873.2 1618.6"></polygon><polygon class="cls-4" points="2067.1 1703.5 2036.4 1703.5 2039.1 1712 2036.4 1718.1 2067.1 1718.1 2067.1 1703.5"></polygon><rect class="cls-5" x="1998.6" y="1595.1" width="55.8" height="21.3"></rect><rect class="cls-1" x="1527.5" y="1584.5" width="193.9" height="157.2"></rect><rect class="cls-2" x="1624.4" y="1584.5" width="193.9" height="157.2"></rect><polygon class="cls-16" points="1527.6 1701.8 1558.3 1701.8 1555.6 1693.3 1558.3 1687.3 1527.6 1687.3 1527.6 1701.8"></polygon><polygon class="cls-10" points="1624.4 1633.1 1655.1 1633.1 1652.4 1624.6 1655.1 1618.6 1624.4 1618.6 1624.4 1633.1"></polygon><polygon class="cls-16" points="1624.4 1618.6 1593.7 1618.6 1596.4 1627.1 1593.7 1633.1 1624.4 1633.1 1624.4 1618.6"></polygon><polygon class="cls-10" points="1818.3 1703.5 1787.6 1703.5 1790.3 1712 1787.6 1718.1 1818.3 1718.1 1818.3 1703.5"></polygon><rect class="cls-5" x="1639.8" y="1696.2" width="74.9" height="28.7"></rect><rect class="cls-1" x="1491.3" y="1943.9" width="164.8" height="133.7"></rect><rect class="cls-2" x="1573.7" y="1916.31" width="164.8" height="161.29"></rect><polygon class="cls-3" points="1491.4 2043.7 1517.5 2043.7 1515.2 2036.5 1517.5 2031.3 1491.4 2031.3 1491.4 2043.7"></polygon><polygon class="cls-4" points="1573.7 1966.26 1599.8 1966.26 1597.5 1957.57 1599.8 1951.3 1573.7 1951.3 1573.7 1966.26"></polygon><polygon class="cls-3" points="1573.7 1972.9 1547.6 1972.9 1549.9 1980.1 1547.6 1985.3 1573.7 1985.3 1573.7 1972.9"></polygon><polygon class="cls-4" points="1738.5 2038.39 1712.4 2038.39 1714.7 2047.08 1712.4 2053.35 1738.5 2053.35 1738.5 2038.39"></polygon><rect class="cls-5" x="1680.3" y="1927.29" width="47.4" height="21.83"></rect><rect class="cls-1" x="1758.5" y="1915.95" width="165.2" height="161.65"></rect><rect class="cls-2" x="1841.1" y="1915.95" width="165.2" height="161.65"></rect><polygon class="cls-3" points="1758.6 2036.58 1784.8 2036.58 1782.5 2027.9 1784.8 2021.63 1758.6 2021.63 1758.6 2036.58"></polygon><polygon class="cls-4" points="1841.1 1965.89 1867.3 1965.89 1865 1957.21 1867.3 1950.93 1841.1 1950.93 1841.1 1965.89"></polygon><polygon class="cls-3" points="1841.1 1950.93 1815 1950.93 1817.3 1959.74 1815 1965.89 1841.1 1965.89 1841.1 1950.93"></polygon><polygon class="cls-4" points="2006.4 2045 1980.2 2045 1982.5 2052.3 1980.2 2057.5 2006.4 2057.5 2006.4 2045"></polygon><rect class="cls-5" x="1948" y="1952.7" width="47.5" height="18.2"></rect><rect class="cls-1" x="1512.5" y="1464.5" width="148.2" height="120.2"></rect><rect class="cls-2" x="1586.6" y="1464.5" width="148.2" height="120.2"></rect><polygon class="cls-3" points="1512.6 1554.2 1536.1 1554.2 1534 1547.7 1536.1 1543 1512.6 1543 1512.6 1554.2"></polygon><polygon class="cls-4" points="1586.6 1501.7 1610.1 1501.7 1608 1495.2 1610.1 1490.5 1586.6 1490.5 1586.6 1501.7"></polygon><polygon class="cls-3" points="1586.6 1490.5 1563.1 1490.5 1565.2 1497 1563.1 1501.7 1586.6 1501.7 1586.6 1490.5"></polygon><polygon class="cls-4" points="1734.8 1555.5 1711.3 1555.5 1713.4 1562 1711.3 1566.6 1734.8 1566.6 1734.8 1555.5"></polygon><rect class="cls-5" x="1682.5" y="1472.6" width="42.7" height="16.3"></rect><rect class="cls-12" x="1818.7" y="1493.5" width="112.3" height="91.1"></rect><rect class="cls-13" x="1762.5" y="1493.5" width="112.3" height="91.1"></rect><polygon class="cls-14" points="1931 1561.5 1913.2 1561.5 1914.8 1556.5 1913.2 1553 1931 1553 1931 1561.5"></polygon><polygon class="cls-15" points="1874.9 1521.7 1857.1 1521.7 1858.6 1516.7 1857.1 1513.2 1874.9 1513.2 1874.9 1521.7"></polygon><polygon class="cls-14" points="1874.9 1513.2 1892.7 1513.2 1891.1 1518.1 1892.7 1521.7 1874.9 1521.7 1874.9 1513.2"></polygon><polygon class="cls-15" points="1762.5 1562.5 1780.3 1562.5 1778.8 1567.4 1780.3 1570.9 1762.5 1570.9 1762.5 1562.5"></polygon><rect class="cls-5" x="1769.9" y="1499.6" width="32.3" height="12.4"></rect><rect class="cls-5" x="1382.9" y="1340.6" width="176.7" height="173.8"></rect><rect class="cls-13" x="1392.4" y="1349.9" width="157.9" height="155.3"></rect><g id="P297LW"><path class="cls-16" d="M1516.6,1760.9s-7.6-15.6-1.6-25.3,29.4-10.2,29.4-10.2-2,1.1-2.1,2.1,6.7-2.6,11.4,5.5,4.5,15.7-.5,27S1516.6,1760.9,1516.6,1760.9Z"></path><path class="cls-13" d="M1634.6,1917.3c-4.5,1-25,1.3-39.4-1.9a46.27,46.27,0,0,1-8-2.5c-2.7-1.2-4.7-2.6-5.8-4.3-1.6-2.7-4.6-11.8-8.1-23.8-9.6-32.9-23.2-87.4-23.2-87.4s27.2,5.5,33,10.1,10.8,78.7,16.3,80.7a35.45,35.45,0,0,1,3.9,1.8l.3.1c1.1.5,2.2,1.1,3.5,1.7,11.2,5.7,27.6,16.3,31.8,18.2C1642.4,1911.7,1641.2,1915.7,1634.6,1917.3Z"></path><path class="cls-13" d="M1582.4,1839.6a16.37,16.37,0,0,0-.4-3.8c-3.5-19-31.4-38-31.9-38h0c0,2.9-4.6,8.3-11.8,8.7-8.5.5-18.9-3.6-18.9-8.4,0,0-4.8,0-6.4.2-6.8.8-20.4,4.4-26.2,8.7-5.5,4.1,2.3,30,7.1,48.3,2.1,7.8,3.6,14.1,3.3,17-.1,1.4-1.4,20.2-2.5,37.2-.9,14-1.8,26.9-1.8,27.7-.1,1.6,8,7.2,21.5,11.4a98.53,98.53,0,0,0,10.7,2.7,122.13,122.13,0,0,0,23.4,2.3c2.8,0,5.4-.2,7.9-.4C1575.8,1951.4,1582.5,1929.7,1582.4,1839.6Z"></path><path class="cls-15" d="M1634.6,1917.2c-.7.2-1.6.2-2.7.4a146,146,0,0,1-16.2.2c-10-.5-21.5-1.8-28.6-4.9,3.4-12.8,10.6-19.4,16.4-22.7,5,2.4,12.9,6.5,20,10.5h.1c7.6,4.1,13.1,8.7,15.3,9.5C1642.6,1911.3,1641.2,1915.7,1634.6,1917.2Z"></path><path class="cls-15" d="M1519.4,1797.3a155.35,155.35,0,0,1,1-23.6l29.9,4.8s0,9-.1,18.9h0s.8,9.2-10.7,10.6C1527.8,1809.4,1519,1804.4,1519.4,1797.3Z"></path><path class="cls-16" d="M1544.3,2187.3c-3.7-2.3-1.5-19.1-1.5-19.1s17.6-13.7,20-3.2,16.6,15.4,24.7,16.7c5.6.9,7.4,4,7.8,5.8Z"></path><path class="cls-16" d="M1490.4,2187.3c-3.7-2.3-1.5-19.1-1.5-19.1s17.6-13.7,20-3.2,16.6,15.4,24.7,16.7c5.6.9,7.4,4,7.8,5.8Z"></path><path class="cls-10" d="M1492.9,1937.2c-.1,1.6,8,7.2,21.5,11.4,1.1.3,2.2.7,3.4,1h0c1.3,14.6,4.7,35.1,7.8,55h0c.8,5.2,1.6,10.2,2.3,15.2,1.9,13.1,3.3,25,3.4,33.5v.1c.1,3.9-3.3,13.7-3.6,16-.2,1.4-.3,2.9-.4,4.4a185.71,185.71,0,0,0,.3,21.1c2.2,33.8,11.3,77,14.5,78.8,6.4,3.7,18.2,0,24.2-.9a4.88,4.88,0,0,0,4.3-4.9c-2.9-56.1,5.4-134.1,11.7-182.1.2-1.2.3-2.5.5-3.7.7-5.7,1.2-10.9,1.5-15.7.3-4.1.4-8,.5-11.3v-2.9c0-3-2.4-22.7-2.5-112.8h0a3.82,3.82,0,0,0-3.9-3.8h-56a9.6,9.6,0,0,0-9.7,9.5v.1a146.24,146.24,0,0,1-1.7,25.6c-2.1,12.5-6.5,24.2-15.6,27h0l-.7,1.5h0l-.3,6.9a6.6,6.6,0,0,1-.1,1.4v.8l-.1,1.4-.1,2.4c0,.6-.1,1.3-.1,1.9-.1,1.2-.1,2.4-.2,3.7a4.87,4.87,0,0,1-.1,1.2c-.1,1.6-.2,3.2-.3,4.9,0,.5-.1,1-.1,1.5v.7l-.2,1.9c-.1.7-.1,1.4-.2,2.1C1492.7,1933.2,1493,1935.4,1492.9,1937.2Z"></path><path class="cls-16" d="M1527.7,2094.9c2.2,33.8,11.3,77,14.5,78.8,6.4,3.7,18.2,0,24.2-.9a4.88,4.88,0,0,0,4.3-4.9c-2.9-56.1,5.4-134.1,11.7-182.1.2-1.2.3-2.5.5-3.7.7-5.7,1.2-10.9,1.5-15.7-3-19-19.7-20-34.9,19.3,1.9,13.1-18.1,58.7-18.1,67.5v.1c.1,3.9-3.3,13.7-3.6,16-.2,1.4-.3,2.9-.4,4.4A187.14,187.14,0,0,0,1527.7,2094.9Z"></path><path class="cls-10" d="M1492.3,2051.8c-.5,3.9-5.1,13.2-5.7,15.4-7.7,30.4-3.4,102.4.4,105.3,5.9,4.5,18,2.3,24,2.3a4.88,4.88,0,0,0,4.9-4.3c4.7-57.4,24.3-136.2,36.9-182.6,6.3-23.4,7.2-40.5,7.2-40.5s-58.8-35.4-65.2-16.1C1489.2,1948.3,1495.8,2021.8,1492.3,2051.8Z"></path><path class="cls-10" d="M1511,1798.6s17.3,19.9,18.4,37.2h-8.8a82.43,82.43,0,0,0-15.3-36Z"></path><path class="cls-10" d="M1554.1,1798.5a86.38,86.38,0,0,1,13.9,37.2h8.8c-.7-13.6-9.3-28.1-14.1-35.2h0C1559.4,1799.6,1556.3,1799,1554.1,1798.5Z"></path><path class="cls-13" d="M1497.1,1905.2c.4,20.3-2.1,60.8-2.1,60.8h-12.3c-5.8-28.5-7.8-46.8-7.8-56.8v-5.5c.1-8.5.3-13.5.3-13.5-2.3-51.7,8.2-79.4,11.6-83.2s18.4-7.2,18.4-7.2,5,14.3,7,25.8-16,59.8-15.2,76.3C1497,1902.9,1497.1,1904,1497.1,1905.2Z"></path><path class="cls-15" d="M1496.4,1938.9c-.6,14.7-1.4,27.1-1.4,27.1h-12.2c-2.1-10.2-3.7-19.1-4.9-26.7-2.1-13.9-2.9-23.8-2.9-30.1,0-2,0-3.8.1-5.5a43.62,43.62,0,0,1,22.1,1.5C1497.3,1914.3,1496.8,1927.3,1496.4,1938.9Z"></path><path class="cls-15" d="M1503.6,1981.1c.2,3.3-14.4,10.8-18.8,8.8s-4.6-13.4-2-23.9,12.2,0,12.2,0S1503.4,1977.7,1503.6,1981.1Z"></path><path class="cls-15" d="M1662.9,1917.6h-31l6.9-7.5s8,1.6,13.2,0S1662.9,1917.6,1662.9,1917.6Z"></path><path class="cls-17" d="M1519.6,1781.3s7.4,8.6,15.3,8.6c9.8,0,15.2-9.3,15.2-9.3Z"></path><path class="cls-15" d="M1549.3,1781.4c-2.9,2.3-11.4,4.5-13.9,4.7,0,0-12.6-2.8-14.9-4.1-3.5-2.1-3.3-6.4-3.5-12.4-.2-7.1-.9-12.6-.1-16.7.9-4.9,4.1-7.6,12.9-8.4,16.1-1.4,22.8,2.6,23.1,7.9.1,1.4.1,2.8.2,4.1C1553.7,1773.1,1552.3,1779,1549.3,1781.4Z"></path><path class="cls-16" d="M1516.6,1760.9s-1.3-14.1,7.1-14.1,19.9,10.6,25,3.8,4.4,9.4,4.4,9.4l.5-21.8L1521,1737l-6.8,5Z"></path></g><rect class="cls-18" x="1902.7" y="1805.7" width="101.8" height="82.6"></rect><rect class="cls-13" x="1851.8" y="1805.7" width="101.8" height="82.6"></rect><polygon class="cls-19" points="2004.4 1947.3 1988.3 1947.3 1989.7 1942.9 1988.3 1939.7 2004.4 1939.7 2004.4 1947.3"></polygon><polygon class="cls-15" points="1953.6 1831.3 1937.5 1831.3 1938.9 1826.8 1937.5 1823.6 1953.6 1823.6 1953.6 1831.3"></polygon><polygon class="cls-19" points="1953.6 1823.6 1969.7 1823.6 1968.3 1828.1 1969.7 1831.3 1953.6 1831.3 1953.6 1823.6"></polygon><polygon class="cls-15" points="1851.8 1868.2 1867.9 1868.2 1866.5 1872.7 1867.9 1875.9 1851.8 1875.9 1851.8 1868.2"></polygon><rect class="cls-5" x="1858.5" y="1811.3" width="29.3" height="11.2"></rect><path class="cls-15" d="M1899.8,1884.8c-2.5-1.6-8.1-5.1-8.3-4.2a3.22,3.22,0,0,0,.9,2.6c-3.3-1.1-6.7-1.8-14.6,0a5.58,5.58,0,0,0-3.8,2.7,2.55,2.55,0,0,0,.4,3.6c.2.1.4.3.6.4,4.2,2.3,2.9.9,8.7,4.3s12.7,4,16.7,1.4l5.5-1.1.3-9C1906.2,1885.4,1903,1885.2,1899.8,1884.8Z"></path><path class="cls-15" d="M2042.5,1792.6s-15.6,12.6-30.7,3.3c0,0-1.9-9-.8-15.1.1-.8.3-1.5.4-2.2,1.2-6.9,1.7-10.9,1.7-10.9h0c.8-.2,26.8-5.5,26.6-4.7C2035.8,1781.7,2042.5,1792.6,2042.5,1792.6Z"></path><path class="cls-17" d="M2036.5,1767.1c-3.2,3.8-12.7,10.6-25.1,11.5,1.2-6.9,1.7-10.9,1.7-10.9h0C2013.8,1767.7,2037.4,1766,2036.5,1767.1Z"></path><path class="cls-15" d="M2008.2,1766.1s26,11.3,32.9-4.7,14.9-25.3-1.4-33.2-22.2-3.1-25.8,1.7S2001.6,1762.8,2008.2,1766.1Z"></path><path class="cls-20" d="M2039.2,1765.8c.3.3,5.8,3.2,21-16.5a18.85,18.85,0,0,0,2.2-17.5c-2.8-7.2-16.2-15-27.7-19.4s-15.6,1.6-19.7,7.8c-4.3,6.4-13.9,10.6-13.9,10.6,9.2,7.6,23.1,1.8,27.2,3.9s4.3,9.1,4.2,11.2.1,4.1,5.8,3.1,1.1,8-.2,9.6C2038.2,1758.6,2036.5,1763.2,2039.2,1765.8Z"></path><path class="cls-21" d="M2079,2192.3h16.7c3.5,0,7.4-3.4,8.4-9.8s8.2-9.8,9.8-15-6.4-12.5-6.4-12.5l-1.3-1.7-1.4-1.8-13.3,3.1s-.3,3.1-.5,7.1a69.08,69.08,0,0,0,0,9.1c.4,6.9-2,14.3-8.2,15.7S2079,2192.3,2079,2192.3Z"></path><path class="cls-21" d="M1962.5,2192.3h44.4a1.61,1.61,0,0,0,.9-.3c3-1.5,2-12.6,1.7-16.1a6.73,6.73,0,0,1-.1-1s-15.6-12.3-17.7-2.9c-.1.3-.1.6-.2.9h0c-2.7,8.8-14.8,12.8-21.8,13.9C1964.2,2187.7,1962.8,2190.8,1962.5,2192.3Z"></path><path class="cls-13" d="M1971.4,1940.7s2.4,29.1,5.2,64c3.8,47.5,8.3,105.8,8.8,116.8.8,19.2,3.9,49.9,3.9,49.9s7.4,7.3,22.2,4.2c0,0,13.2-43.8,17-90.2.1-.8.1-1.5.2-2.3,3.5-47.2,9-146.5,9-146.5Z"></path><path class="cls-12" d="M1980.2,1938.8s-1.5,18.1,7,52.2c6.3,25,41.2,94.5,41.2,94.5.1-.8.1-1.5.2-2.3,3.5-47.2,9-146.5,9-146.5Z"></path><path class="cls-13" d="M1980.2,1938.8s44.7,110.7,72.8,160.2,36.9,63.3,36.9,63.3,16.1-6.3,17.5-10.6c0,0-10.7-95.5-29.5-118.8-10.6-13.2-23.1-52.7-23.7-66.5s-3.8-41.1-3.8-41.1Z"></path><path class="cls-10" d="M1978,1936.7c6.2.4,72.2-2.1,72.3-5.7.1-12.6,2.7-33.1,6.1-57.8.6-4.6,1.1-9.2,1.4-13.7a206.93,206.93,0,0,0,.1-33.4c-1.7-19.1-9.9-34.4-18.3-41.6-1.1-.9-5.2,2.1-12,4.9-6.3,2.5-11.3.7-17-.8l-7.2,6.3c-6,5.5-12.5,13.9-15.6,21.5C1987.8,1816.2,1977.4,1936.6,1978,1936.7Z"></path><path class="cls-13" d="M1987.8,1816.2l18,4.1,24.8,66.1a24.61,24.61,0,0,0,23,15.8h0l-2.2,32.6-80.1,5.9Z"></path><path class="cls-10" d="M1901.3,1889.8c-.6-5.2,2.1-6.1,2.1-6.1s53.1-11.6,57.6-13.2,41.8-42.8,41.8-42.8,14.2-17.1,26.6-13.9c10.7,2.8,15.2,10.7,16.9,18.4a22.73,22.73,0,0,1-9.9,23.9c-17.9,11.7-53.6,34.8-62,37.6-18.9,6.2-70.6,3.1-70.6,3.1A17.86,17.86,0,0,1,1901.3,1889.8Z"></path><path class="cls-12" d="M2024.5,1801.2c4.2-3.8,17.6-14.4,17.6-14.4l-2.5-2.4c-1.8-.4-15.8,9.9-20.3,14-5.6,4.9-21,20.8-21,20.8l7.6,1.1C2005.8,1820.3,2019.5,1805.7,2024.5,1801.2Z"></path><path class="cls-22" d="M3121.2,1984h109.2a20.91,20.91,0,0,1,21.1,20.8v97.4a21,21,0,0,1-21.1,20.8H3121.2a20.91,20.91,0,0,1-21.1-20.8v-97.4A20.85,20.85,0,0,1,3121.2,1984Z"></path><path class="cls-15" d="M2946.1,1777.5s-9.7.5-11.6-.3-7.4-3.9-6.6-7.4c.5-2.2,4.5,1.3,6.1.6s-3.3-1.1-3.6-1.9,4.1-1.2,5.7-1.5,6.1,3.3,9.7,4.3C2949.3,1772.1,2946.1,1777.5,2946.1,1777.5Z"></path><path class="cls-23" d="M3072.5,1767.1s-13.4,14.9-29.7,17.1-40.4,6.9-47.8,7-49.6-12.8-49.6-12.8-.8-1.3.1-4.3a7.06,7.06,0,0,1,3-4s28.9.7,42.4,2.6c5.6.8,43.8-21.6,49.8-35.1C3043,1732.2,3072.5,1767.1,3072.5,1767.1Z"></path><rect class="cls-12" x="2411.4" y="1898.8" width="267" height="216.6"></rect><rect class="cls-13" x="2277.9" y="1898.8" width="267" height="216.6"></rect><polygon class="cls-14" points="2678.3 2060.4 2635.9 2060.4 2639.7 2048.7 2635.9 2040.3 2678.3 2040.3 2678.3 2060.4"></polygon><polygon class="cls-15" points="2544.9 1965.8 2502.6 1965.8 2506.3 1954.1 2502.6 1945.7 2544.9 1945.7 2544.9 1965.8"></polygon><polygon class="cls-14" points="2544.9 1945.7 2587.2 1945.7 2583.5 1957.4 2587.2 1965.8 2544.9 1965.8 2544.9 1945.7"></polygon><polygon class="cls-15" points="2277.9 2062.7 2320.2 2062.7 2316.5 2074.4 2320.2 2082.8 2277.9 2082.8 2277.9 2062.7"></polygon><rect class="cls-5" x="2295.4" y="1913.4" width="76.8" height="29.4"></rect><rect class="cls-12" x="2382.6" y="1682.4" width="267" height="216.6"></rect><rect class="cls-13" x="2249.1" y="1682.4" width="267" height="216.6"></rect><polygon class="cls-14" points="2649.5 1844 2607.2 1844 2610.9 1832.3 2607.2 1824 2649.5 1824 2649.5 1844"></polygon><polygon class="cls-15" points="2516.1 1749.4 2473.8 1749.4 2477.6 1737.7 2473.8 1729.3 2516.1 1729.3 2516.1 1749.4"></polygon><polygon class="cls-14" points="2516.1 1729.3 2558.4 1729.3 2554.7 1741 2558.4 1749.4 2516.1 1749.4 2516.1 1729.3"></polygon><polygon class="cls-15" points="2249.1 1846.4 2291.4 1846.4 2287.7 1858.1 2291.4 1866.4 2249.1 1866.4 2249.1 1846.4"></polygon><rect class="cls-5" x="2266.6" y="1697.1" width="76.8" height="29.4"></rect><rect class="cls-22" x="2724.8" y="1579.7" width="70.8" height="549.9"></rect><path class="cls-8" d="M2993.9,1907.1h183.7a21.77,21.77,0,0,1,21.9,21.6v48.5a21.77,21.77,0,0,1-21.9,21.6H2993.9a21.77,21.77,0,0,1-21.9-21.6v-48.5C2971.9,1916.8,2981.8,1907.1,2993.9,1907.1Z"></path><polygon class="cls-24" points="2819.2 2069.8 3107.4 2081.3 3107.4 1964.3 2814.4 1969 2819.2 2069.8"></polygon><ellipse class="cls-10" cx="2834" cy="2095.9" rx="89.2" ry="87.8"></ellipse><ellipse class="cls-22" cx="2834.1" cy="2096.1" rx="51.4" ry="50.6"></ellipse><ellipse class="cls-10" cx="3233.4" cy="2114.4" rx="70.3" ry="69.2"></ellipse><path class="cls-22" d="M3193,2114.5c0-22,18.1-39.9,40.5-39.9s40.5,17.8,40.5,39.9-18.1,39.9-40.5,39.9-40.5-17.8-40.5-39.9Z"></path><path class="cls-13" d="M3182.5,1889v52.3h-74.4l-177.8,114.9v85.4h175.9c18.4,0,33.3-14.7,33.3-32.8v-19.3a63.08,63.08,0,0,1,27.9-52.3h0a59.31,59.31,0,0,1,33.4-10.3h56.1a27.27,27.27,0,0,0,27.5-27.1V1918a29.26,29.26,0,0,0-29.5-29h-72.4Z"></path><path class="cls-22" d="M2820,1996.9l-24.4-2.6,137.1-319.6c17.8-41.8,59.4-68.9,105.5-68.8h115c28.4,0,51.5,22.7,51.5,50.6v284.8h-23.4V1656.4a27.87,27.87,0,0,0-28-27.6h-115c-36.7-.1-69.8,21.5-84,54.7Z"></path><path class="cls-22" d="M2937.4,2147.9a6.36,6.36,0,0,1-6.4-6.3h0v-64.3c-.1-44.3-36.6-80.3-81.7-80.3h-.7c-.5-.1-50.5-5.3-88.8,24a6.49,6.49,0,0,1-8.9-1.4,6.15,6.15,0,0,1,1.1-8.5c41.1-31.5,92.4-27.1,97.7-26.6,52,.2,94,41.7,94,92.9v64.3A6.19,6.19,0,0,1,2937.4,2147.9Z"></path><rect class="cls-22" x="2257" y="2112.8" width="467.8" height="16.8"></rect><rect class="cls-22" x="2708.9" y="1932.9" width="15.9" height="196.7"></rect><path class="cls-10" d="M3135.7,1801.9l-8.4,105.3H2994.5s-7-29.4,15-30.7,74.8-9.1,74.8-9.1-2.6-65.4,38-76.3a10.76,10.76,0,0,1,13.1,7.3A13.43,13.43,0,0,1,3135.7,1801.9Z"></path><path class="cls-15" d="M3062.7,1730.7s-13.7,8.1-28.4,5.8c0,0-2.9-.7-1.5-4.1a38.09,38.09,0,0,1-1.3-4.5,64.14,64.14,0,0,1-1.7-7.3l8.4-8.7,7.9-8.3C3048.4,1723.5,3062.7,1730.7,3062.7,1730.7Z"></path><path class="cls-25" d="M3047.5,1711.2s-4.5,12-15.9,16.8c-1.3-4.6-2.1-9.5-2.1-9.5l8.8-6.5Z"></path><path class="cls-15" d="M3020.5,1720.3s26,3.2,27.8-12.5,6.4-25.8-10.1-28.5-20.4,2.9-22.3,8S3013.8,1719,3020.5,1720.3Z"></path><path class="cls-21" d="M3056.5,1676.6c.2-.3.8-.5,2-.6a4.56,4.56,0,0,0-2.3-.5c-.3-1.6-1.3-4.5-4.2-5.1a3.13,3.13,0,0,1,1.8,2.5c-3.5-3.2-10.7-5.4-30.5-3.2-26,3-16.8,19.1-13.3,20.9s11.7-3.8,18-3.6,7.8,9.1,10,10.3,1.2-1,4.1-2.4,3.3,3.3,2.6,6.4,3.4,7,3.4,7l3.8-4.4c3.8-4.4,6.9-22.5,5-26.3A6.89,6.89,0,0,0,3056.5,1676.6Z"></path><path class="cls-22" d="M3087.1,1828.6s-118.4,5.2-134.6,16.7-44.4,108.8-44.4,108.8,5.7,4.9,22.7,0c0,0,23.9-30,33.1-50.5,8.1-18.3,11-27.5,14.5-26.5,7.4,2,83.3,4.6,105.8-9.7C3098.6,1858.2,3085.2,1828.6,3087.1,1828.6Z"></path><path class="cls-13" d="M3062.7,1728.4s15.2,12.3,20,48.9,10.2,68.9,7.2,70.2c-20.8,9.2-76.6-.2-75.2-22s6.5-86.5,19.7-92.2S3062.7,1728.4,3062.7,1728.4Z"></path><path class="cls-22" d="M2954.6,1829.4h0a4.86,4.86,0,0,1-6.3-2.6l-24.6-58a4.79,4.79,0,0,1,2.6-6.2h0a4.86,4.86,0,0,1,6.3,2.6l24.6,57.9A4.86,4.86,0,0,1,2954.6,1829.4Z"></path><path class="cls-15" d="M2953.1,1796.8s-9.3,2.5-11.4,2.2-8.1-2.3-8.1-5.9c0-2.2,4.7.3,6.1-.7s-3.5-.4-3.9-1.1,3.7-2.1,5.2-2.7,6.7,1.9,10.4,2.1S2953.1,1796.8,2953.1,1796.8Z"></path><path class="cls-13" d="M3074.3,1759.9s-9.8,17.4-25.3,23-37.9,15.3-45.2,16.9-51.2-2.1-51.2-2.1-1.1-1.1-.8-4.2a6.92,6.92,0,0,1,2-4.5s28.4-5.4,42-6.5c5.6-.4,38-30.4,40.9-44.8C3037.8,1732.1,3074.3,1759.9,3074.3,1759.9Z"></path><path class="cls-22" d="M2928.9,1950.8s1.3,15.2-1.9,16.8l-41.8-.1s0-4.8,6.7-5.8,18.5-4.9,20.5-13.6S2928.9,1950.8,2928.9,1950.8Z"></path><path class="cls-22" d="M2906.4,1788.5h19a11.68,11.68,0,0,1,11,7.6l5.5,15a11.22,11.22,0,0,1-.7,9.3l-3.2,5.9a47.17,47.17,0,0,1-38.1,24.5l-23.2,1.6,18.5-55.9A11.74,11.74,0,0,1,2906.4,1788.5Z"></path><rect class="cls-13" x="810.1" y="1915.3" width="13.9" height="240"></rect><path class="cls-10" d="M784,1933.4h34.5a10.14,10.14,0,0,0,10.2-10h0a10.07,10.07,0,0,0-10.2-10H784a10.14,10.14,0,0,0-10.2,10h0a10.14,10.14,0,0,0,10.2,10Z"></path><path class="cls-13" d="M824,2045.3c1.7.1,74.7,42.6,74.7,42.6v62h-76Z"></path><path class="cls-10" d="M1249.9,2168.2a20.65,20.65,0,1,0-20.7,20.3h0A20.47,20.47,0,0,0,1249.9,2168.2Z"></path><path class="cls-26" d="M1242.2,2168.2a12.9,12.9,0,1,0-12.9,12.7h0a12.83,12.83,0,0,0,12.9-12.7Z"></path><rect class="cls-13" x="810.1" y="2147" width="448.4" height="18.3"></rect><path class="cls-10" d="M856.9,2156.1a32.9,32.9,0,1,0-32.9,32.4h0A32.63,32.63,0,0,0,856.9,2156.1Z"></path><path class="cls-26" d="M844.6,2156.1a20.6,20.6,0,1,0-20.6,20.3h0A20.44,20.44,0,0,0,844.6,2156.1Z"></path><path class="cls-15" d="M794.5,1901.8s15.8,6.2,16.7,9.1.8,14-3.4,14-8.6-9.5-10.5-9.7-7.1-1.4-7.8-3.7S794.5,1901.8,794.5,1901.8Z"></path><path class="cls-27" d="M794.9,1909.3c2.3-4.7.1-6.5.1-6.5s-46.3-28.1-50-31.1-25.1-54-25.1-54-7.7-20.7-20.4-21.8c-11.1-.9-17.9,5.2-22.1,11.9a22.44,22.44,0,0,0,1.3,25.7c12.9,16.8,38.9,50.2,46,55.6,15.8,12,65.6,25.8,65.6,25.8A14.94,14.94,0,0,0,794.9,1909.3Z"></path><path class="cls-21" d="M702.1,2185H657.7a3.18,3.18,0,0,1-.9-.3c-3-1.5-2-12.6-1.7-16.1a6.73,6.73,0,0,0,.1-1s15.6-12.3,17.7-2.9c.1.3.1.6.2.9h0c2.7,8.8,14.8,12.8,21.8,13.9C700.4,2180.4,701.8,2183.5,702.1,2185Z"></path><path class="cls-15" d="M674,1779.6s10.5,16.9,27.9,13.1c0,0,4.8-7.9,5.8-14,.1-.8.3-1.5.4-2.2,1.2-7,2-10.8,2-10.8h0c-.7-.4-23.5-13.9-23.6-13C684,1771.5,674,1779.6,674,1779.6Z"></path><path class="cls-17" d="M688.2,1757.4c1.7,4.6,8.4,14.2,19.9,19,1.2-7,2-10.8,2-10.8h0C709.4,1765.3,687.7,1756.1,688.2,1757.4Z"></path><path class="cls-15" d="M715.3,1765.6s-28.3,2.3-29.4-15.1-5.6-28.8,12.4-31,22,4.2,23.8,9.9S722.6,1764.6,715.3,1765.6Z"></path><path class="cls-10" d="M686,1755.2c-.4.2-6.6,1-14.3-22.4a19.13,19.13,0,0,1,3.8-17.2c5.1-5.9,20.3-8.9,32.7-9.4s14.2,6.6,16,13.7c1.9,7.5,9.6,14.5,9.6,14.5-11.2,4.1-22.4-5.8-27-5.2s-7.1,7.2-7.7,9.3-1.4,3.8-6.6,1-3.6,7.2-3,9.2C689.5,1748.8,689.5,1753.8,686,1755.2Z"></path><path class="cls-21" d="M585.6,2185H568.9c-3.5,0-7.4-3.4-8.4-9.8s-8.2-9.8-9.7-15,6.4-12.5,6.4-12.5l1.3-1.7,1.4-1.8,13.3,3.1s.3,3.1.5,7.1c.1,2.9.2,6.2,0,9-.4,6.9,2,14.3,8.2,15.7S585.6,2185,585.6,2185Z"></path><path class="cls-13" d="M693.2,1933.4s-2.4,29.1-5.1,64c-3.8,47.5-8.3,105.8-8.8,116.8-.8,19.2-3.9,49.9-3.9,49.9s-7.4,7.3-22.2,4.2c0,0-13.2-43.8-17-90.1a17.85,17.85,0,0,0-.2-2.3c-3.5-47.2-9-146.5-9-146.5Z"></path><path class="cls-12" d="M681.2,1939.1s4.7,10.5-3.9,44.5c-6.3,25-41.2,94.5-41.2,94.5a17.85,17.85,0,0,0-.2-2.3c-3.5-47.2-9-146.5-9-146.5Z"></path><path class="cls-13" d="M684.4,1931.5s-44.7,110.7-72.8,160.2-36.9,63.3-36.9,63.3-16.1-6.3-17.5-10.6c0,0,10.7-95.5,29.5-118.8,10.6-13.2,23.1-52.7,23.7-66.5s3.8-41.1,3.8-41.1Z"></path><path class="cls-10" d="M686.6,1936.5c-6-1.7-67.5-25.4-66.3-28.8,4.2-11.9,8.5-32,13.7-56.5,1-4.6,2-9,3.2-13.4a207.75,207.75,0,0,1,11.1-31.6c8-17.5,20.9-29.3,31.2-33.4,1.3-.5,4.2,3.7,9.7,8.5,5.1,4.4,10.4,4.3,16.3,4.7l4.7,8.3c3.8,7.2,7.1,17.2,7.5,25.4C717.8,1819.6,687.2,1936.6,686.6,1936.5Z"></path><path class="cls-13" d="M717.8,1819.6l-18.4-1.9L653.8,1872a24.61,24.61,0,0,1-27,7.4h0l-12.6,38.5,77.3,24.5Z"></path><path class="cls-12" d="M688.1,1793.5c-2.7-5-11.9-19.3-11.9-19.3l3.2-1.5c1.8.2,11.6,14.5,14.5,19.8,3.6,6.4,12.9,26.5,12.9,26.5l-7.5-1.4C699.4,1817.6,691.3,1799.4,688.1,1793.5Z"></path><path class="cls-15" d="M774.8,1910.6s15.8,6.2,16.7,9.1.8,14-3.4,14-8.6-9.5-10.5-9.7-7.1-1.4-7.8-3.7S774.8,1910.6,774.8,1910.6Z"></path><path class="cls-10" d="M774.7,1917c2.3-4.7.1-6.5.1-6.5s-46.3-28.1-50-31.1-25.1-54-25.1-54-7.7-20.8-20.5-21.8c-11.1-.9-17.9,5.2-22.1,11.9a22.44,22.44,0,0,0,1.3,25.7c12.9,16.8,38.9,50.2,46,55.6,15.8,12,65.6,25.8,65.6,25.8A13.62,13.62,0,0,0,774.7,1917Z"></path><rect class="cls-8" x="1028.8" y="1996.9" width="187.5" height="152.1"></rect><rect class="cls-28" x="935.1" y="1996.9" width="187.5" height="152.1"></rect><polygon class="cls-3" points="1216.2 2110.4 1186.5 2110.4 1189.1 2102.2 1186.5 2096.3 1216.2 2096.3 1216.2 2110.4"></polygon><polygon class="cls-4" points="1122.6 2044 1092.9 2044 1095.5 2035.7 1092.9 2029.9 1122.6 2029.9 1122.6 2044"></polygon><polygon class="cls-3" points="1122.6 2029.9 1152.3 2029.9 1149.7 2038.1 1152.3 2044 1122.6 2044 1122.6 2029.9"></polygon><polygon class="cls-4" points="935 2112.1 964.8 2112.1 962.1 2120.3 964.8 2126.2 935 2126.2 935 2112.1"></polygon><rect class="cls-5" x="947.3" y="2007.2" width="54" height="20.6"></rect><rect class="cls-12" x="1028.8" y="1907.3" width="112.3" height="91.1"></rect><rect class="cls-13" x="1085" y="1907.3" width="112.3" height="91.1"></rect><polygon class="cls-14" points="1028.9 1975.4 1046.7 1975.4 1045.1 1970.4 1046.7 1966.9 1028.9 1966.9 1028.9 1975.4"></polygon><polygon class="cls-15" points="1085 1935.6 1102.8 1935.6 1101.2 1930.6 1102.8 1927.1 1085 1927.1 1085 1935.6"></polygon><polygon class="cls-14" points="1085 1927.1 1067.2 1927.1 1068.7 1932 1067.2 1935.6 1085 1935.6 1085 1927.1"></polygon><polygon class="cls-15" points="1197.3 1976.3 1179.5 1976.3 1181.1 1981.3 1179.5 1984.8 1197.3 1984.8 1197.3 1976.3"></polygon><rect class="cls-5" x="1157.6" y="1913.5" width="32.3" height="12.4"></rect><path class="cls-5" d="M420.7,1471.4H356.9V1459l30.1-31.5a73.37,73.37,0,0,0,5.7-6.7c1.4-1.8,2.6-3.6,3.8-5.5a19.85,19.85,0,0,0,2.1-4.7,14,14,0,0,0,.6-4.1c0-4.1-1.1-7.3-3.2-9.6s-5.1-3.5-8.9-3.5a14.35,14.35,0,0,0-5.8,1.2,11,11,0,0,0-4.2,3.2,12.88,12.88,0,0,0-2.6,4.9,21.63,21.63,0,0,0-.9,6.2H355a30.66,30.66,0,0,1,2.2-11.6,28.65,28.65,0,0,1,16.6-16.1,36.11,36.11,0,0,1,13.4-2.4,40.86,40.86,0,0,1,13,1.8,26.76,26.76,0,0,1,9.5,5.2,19.87,19.87,0,0,1,5.8,8.2,29.23,29.23,0,0,1,2,10.9,27.27,27.27,0,0,1-1.5,8.9,37.06,37.06,0,0,1-4.1,8.5,66.92,66.92,0,0,1-6.5,8.6c-2.5,2.9-5.4,5.9-8.5,9.1l-16.4,16.8h40v14.6Z"></path><path class="cls-5" d="M1461.5,1416.6h9.8c4.7,0,8.2-1.2,10.4-3.5a13,13,0,0,0,3.4-9.2,12.57,12.57,0,0,0-.8-4.7,10.07,10.07,0,0,0-2.3-3.7,10.58,10.58,0,0,0-3.9-2.4,17.57,17.57,0,0,0-10.4-.2,11,11,0,0,0-4,2.1,11.8,11.8,0,0,0-2.7,3.2,9.07,9.07,0,0,0-1,4.3h-18.5a21.68,21.68,0,0,1,2.4-10.3,24.45,24.45,0,0,1,6.5-7.8,31.92,31.92,0,0,1,9.7-5,39.44,39.44,0,0,1,11.9-1.8,46.43,46.43,0,0,1,12.8,1.7,28.06,28.06,0,0,1,9.9,5,21.3,21.3,0,0,1,6.4,8.2,25.72,25.72,0,0,1,2.3,11.3,18.5,18.5,0,0,1-3.7,11.2,28.15,28.15,0,0,1-4.4,4.7,26.18,26.18,0,0,1-6,3.7,23,23,0,0,1,11.7,8.3,22.64,22.64,0,0,1,3.9,13.1,24.69,24.69,0,0,1-2.5,11.4,23.45,23.45,0,0,1-6.9,8.4,31.29,31.29,0,0,1-10.5,5.2,47.63,47.63,0,0,1-13.1,1.8,41.63,41.63,0,0,1-11.6-1.6,30.37,30.37,0,0,1-10.1-4.8,25.71,25.71,0,0,1-7.2-8.2,23.7,23.7,0,0,1-2.7-11.7h18.5a11,11,0,0,0,3.9,8.4,12.19,12.19,0,0,0,4.3,2.4,16.54,16.54,0,0,0,5.4.9,19.64,19.64,0,0,0,5.9-.9,11,11,0,0,0,4.4-2.6,10.36,10.36,0,0,0,2.8-4,13,13,0,0,0,1-5.2,16.57,16.57,0,0,0-1.1-6.2,10.48,10.48,0,0,0-3-4.2,12.77,12.77,0,0,0-4.8-2.4,27.19,27.19,0,0,0-6.3-.8h-9.8Z"></path><rect class="cls-16" x="0.7" y="2187.2" width="3652.4" height="19.25"></rect></svg> 