<svg width="60" height="60" viewBox="0 0 60 60" fill="none" xmlns="http://www.w3.org/2000/svg">
<path fill-rule="evenodd" clip-rule="evenodd" d="M19.268 18.4284C18.6971 20.6465 16.6836 22.2855 14.2873 22.2855C11.447 22.2855 9.14453 19.983 9.14453 17.1427C9.14453 14.3025 11.447 12 14.2873 12C16.6836 12 18.6971 13.639 19.268 15.8571H54.1444C54.8543 15.8571 55.4301 16.4326 55.4301 17.1427C55.4301 17.8529 54.8543 18.4284 54.1444 18.4284H19.268ZM16.8587 17.1427C16.8587 18.563 15.7073 19.7141 14.2873 19.7141C12.8673 19.7141 11.7159 18.5628 11.7159 17.1427C11.7159 15.7227 12.8673 14.5714 14.2873 14.5714C15.7073 14.5714 16.8587 15.7225 16.8587 17.1427Z" fill="black"/>
<path d="M5.28569 18.4307H9.30475C9.19892 18.0199 9.14275 17.589 9.14275 17.1451C9.14275 16.7011 9.19892 16.2702 9.30475 15.8594H5.28569C4.57555 15.8594 4 16.4349 4 17.1451C4 17.8552 4.57555 18.4307 5.28569 18.4307Z" fill="black"/>
<path fill-rule="evenodd" clip-rule="evenodd" d="M34.695 41.5719C34.1241 39.3538 32.1104 37.7148 29.7143 37.7148C27.3182 37.7148 25.3042 39.3538 24.7335 41.5719H5.28569C4.57555 41.5719 4 42.1477 4 42.8576C4 43.5675 4.57555 44.1433 5.28569 44.1433H24.7333C25.3042 46.3613 27.3179 48.0003 29.714 48.0003C32.1101 48.0003 34.1241 46.3613 34.6948 44.1433H54.1423C54.8522 44.1433 55.428 43.5675 55.428 42.8576C55.428 42.1477 54.8522 41.5719 54.1423 41.5719H34.695ZM29.7143 45.429C31.1346 45.429 32.2857 44.2779 32.2857 42.8576C32.2857 41.4373 31.1346 40.2862 29.7143 40.2862C28.294 40.2862 27.1429 41.4373 27.1429 42.8576C27.1429 44.2779 28.294 45.429 29.7143 45.429Z" fill="black"/>
<path fill-rule="evenodd" clip-rule="evenodd" d="M50.1235 28.7164C49.5526 26.4984 47.5389 24.8594 45.1428 24.8594C42.7467 24.8594 40.7327 26.4984 40.1621 28.7164H5.28569C4.57555 28.7164 4 29.2923 4 30.0021C4 30.712 4.57555 31.2878 5.28569 31.2878H40.1621C40.733 33.5059 42.7467 35.1449 45.1428 35.1449C47.5389 35.1449 49.5529 33.5059 50.1235 31.2878H54.1426C54.8525 31.2878 55.4283 30.712 55.4283 30.0021C55.4283 29.2923 54.8525 28.7164 54.1426 28.7164H50.1235ZM45.1428 32.5735C46.5631 32.5735 47.7142 31.4224 47.7142 30.0021C47.7142 28.5818 46.5628 27.4308 45.1428 27.4308C43.7225 27.4308 42.5714 28.5818 42.5714 30.0021C42.5714 31.4224 43.7225 32.5735 45.1428 32.5735Z" fill="black"/>
</svg>
