<svg width="46" height="43" viewBox="0 0 46 43" fill="none" xmlns="http://www.w3.org/2000/svg">
<path fill-rule="evenodd" clip-rule="evenodd" d="M11.7935 2.53123C11.7962 1.11974 10.7035 -0.0131505 9.34555 0.000115324C7.94032 0.0133811 6.84766 1.11178 6.86605 2.49673C6.88181 3.90026 7.96922 4.97479 9.37182 4.96948C10.6851 4.96418 11.7909 3.8525 11.7935 2.53123ZM18.2844 42.7372L18.2852 42.7372C18.4983 42.723 18.7116 42.7089 18.9251 42.6958C18.9251 42.6984 18.9251 42.7011 18.9198 42.6984C19.5937 42.6599 20.2678 42.6209 20.9421 42.5819L20.9424 42.5819L20.9428 42.5819C22.6807 42.4814 24.4197 42.3809 26.1587 42.2872C27.1752 42.2341 27.7058 41.8043 27.9185 40.7935L27.992 40.4445C28.2671 39.1391 28.5419 37.8352 28.7879 36.5245C28.8799 36.0443 29.048 35.9408 29.5181 36.0894C30.9811 36.5511 32.4573 36.9755 33.936 37.3921C35.0497 37.7078 35.554 37.5035 36.187 36.5458C36.9038 35.4615 37.6195 34.3772 38.3352 33.2931L38.3366 33.291L38.338 33.2889C39.292 31.8437 40.2457 30.399 41.2012 28.9551C41.8999 27.8938 41.7344 27.0235 40.6706 26.347C39.5097 25.6067 38.6613 24.6065 38.2226 23.2932C37.4058 20.847 38.3198 18.4087 40.6365 16.7824C41.7633 15.9917 41.8946 15.1852 41.1093 14.0337C39.3993 11.5291 37.6973 9.01919 35.9979 6.50665C35.3097 5.49049 34.7608 5.28354 33.5946 5.6656C32.1736 6.13255 30.7526 6.60483 29.3395 7.10097C28.9508 7.23893 28.8116 7.1726 28.7196 6.75075C28.4869 5.68217 28.2295 4.61652 27.9722 3.55163L27.9722 3.55144L27.9721 3.55102L27.972 3.55061C27.8838 3.18544 27.7956 2.82036 27.7084 2.45528C27.4667 1.44177 26.9835 1.01726 25.9381 0.956236C22.9122 0.781128 19.8864 0.608682 16.8579 0.452145C15.4895 0.38051 14.9353 0.945628 14.8749 2.31997C14.7987 4.12146 14.0895 5.63376 12.6344 6.70829C10.7249 8.11712 8.70237 8.01099 6.64312 7.0532C5.52944 6.53318 4.70995 6.84626 4.19514 7.95793C2.88771 10.7822 1.57503 13.6039 0.262351 16.4255L0.262258 16.4257L0.260504 16.4295C-0.178137 17.3687 -0.0783273 18.0001 0.678131 18.7324C1.64734 19.6716 2.62181 20.6082 3.61729 21.5156C3.91935 21.7942 3.89571 21.9321 3.60153 22.1815C2.67697 22.9642 1.76291 23.7628 0.867246 24.5826C0.163319 25.2274 0.0556299 25.8482 0.457498 26.7264C1.72089 29.4857 2.98953 32.2423 4.26343 34.9963C4.90169 36.3733 5.63188 36.5988 6.98983 35.9461C8.75753 35.0998 10.5305 35.1369 12.2246 36.1425C14.0475 37.225 14.7803 38.9575 14.9038 41.0057C14.9826 42.2898 15.5867 42.8736 16.8553 42.8205C17.3322 42.8003 17.8079 42.7688 18.2841 42.7373L18.2842 42.7372L18.2844 42.7372ZM26.9866 17.8654L26.9867 17.8656C27.0616 19.0616 27.135 20.2317 27.099 21.0619C27.0465 24.4155 26.8863 27.3552 26.5343 30.2843C26.4319 31.1386 25.9591 31.4305 25.1711 31.1174C20.7926 29.369 16.5533 27.3472 12.6712 24.6251C11.8858 24.0732 11.0978 23.5187 10.3519 22.9111C9.66896 22.3566 9.66633 21.8393 10.3624 21.2927C10.6993 21.0293 11.0339 20.7628 11.3686 20.4962L11.3688 20.4961L11.3689 20.496L11.3689 20.496L11.369 20.496C12.4771 19.6134 13.5855 18.7306 14.7777 17.9604C17.9979 15.8803 21.3442 14.0337 24.8296 12.4497C25.7516 12.0332 26.4529 12.4471 26.5685 13.4792L26.6111 13.8549L26.6112 13.8552C26.75 15.075 26.8888 16.2953 26.9651 17.5199L26.9866 17.8654ZM30.2317 21.176V21.1759V21.1759C30.2269 20.6567 30.222 20.1375 30.222 19.6186C30.2588 17.0026 30.1117 14.3918 29.8254 11.7864C29.7387 10.9772 30.2588 10.1707 31.0914 9.85759C31.5957 9.66922 32.1079 9.50472 32.6201 9.34288C33.4501 9.08287 34.0043 9.26328 34.5086 9.9929C35.0234 10.7385 35.5323 11.4893 36.0415 12.2406L36.0415 12.2406L36.0416 12.2407C36.4963 12.9116 36.9513 13.5829 37.411 14.2512C37.7866 14.7951 37.5213 15.1878 37.1615 15.5805C35.8193 17.0477 34.9735 18.7457 34.8054 20.7594C34.5927 23.3144 35.3728 25.5325 37.0459 27.4401C37.7236 28.2148 37.7525 28.4244 37.1746 29.2999C36.9522 29.637 36.73 29.974 36.5078 30.3109L36.5048 30.3155L36.5047 30.3157C35.9092 31.2186 35.3141 32.1212 34.7161 33.0223C34.0989 33.9563 33.8257 34.0571 32.7646 33.7414C32.0081 33.5185 31.2569 33.2903 30.5057 33.0542C29.7939 32.8287 29.5076 32.4227 29.5969 31.6772C29.878 29.3292 30.1249 26.9784 30.2115 24.6171C30.2531 23.4718 30.2424 22.3239 30.2317 21.1761V21.1761V21.176ZM7.43745 10.7792L7.481 10.7756C8.39506 10.9056 9.3669 11.0436 10.3492 10.9162C13.8873 10.4731 16.2775 8.50448 17.512 5.18272C17.8771 4.20105 18.3157 3.78982 19.3453 3.81901C20.263 3.84644 21.1792 3.89824 22.095 3.95001L22.095 3.95001C22.8621 3.99338 23.6289 4.03673 24.3963 4.06575C24.722 4.07636 24.8822 4.27535 24.9505 4.56189C25.2131 5.67356 25.4679 6.78523 25.7201 7.89956C25.833 8.401 25.4994 8.59204 25.1265 8.75123C23.5164 9.43574 21.9378 10.1839 20.3828 10.9852C16.0358 13.2298 11.9042 15.8246 7.97218 18.743C6.51705 19.8229 6.49078 19.8335 5.18536 18.621C5.05948 18.5042 4.93605 18.3857 4.81233 18.267L4.81227 18.2669L4.81206 18.2667L4.81179 18.2665C4.71368 18.1723 4.61541 18.078 4.51559 17.9842C3.7171 17.2334 3.60153 16.915 4.04279 15.8988C4.49793 14.8501 4.98614 13.8168 5.47466 12.7828C5.68814 12.331 5.90168 11.8791 6.11255 11.4256C6.37113 10.867 6.87924 10.8252 7.43745 10.7792ZM21.226 39.3661V39.4642C21.0133 39.4642 20.8007 39.4621 20.5882 39.4599L20.5875 39.4599C20.0915 39.4549 19.5963 39.4499 19.1037 39.4722C18.2422 39.5093 17.9585 39.3263 17.7011 38.4693C17.3439 37.2886 16.8238 36.1955 16.0279 35.251C13.9319 32.7676 11.2423 31.8682 8.093 32.2795L7.96333 32.2964C6.62416 32.472 6.60577 32.4744 5.99961 31.1572C5.43489 29.9287 4.87017 28.6977 4.32384 27.4587C3.96663 26.6521 4.12684 26.0074 4.8045 25.4423L4.94836 25.322L4.94837 25.322C5.56594 24.8054 5.84841 24.5691 6.133 24.5665C6.3729 24.5643 6.6143 24.7282 7.0592 25.0303C7.16751 25.1039 7.28788 25.1856 7.42322 25.2751C12.9496 28.9365 18.6598 32.2556 24.8323 34.6939C25.5292 34.9678 25.5023 35.4961 25.476 36.0142L25.4732 36.0708C25.4364 36.8217 25.2919 37.5619 25.0135 38.2756C24.7797 38.8726 24.3516 39.1591 23.7527 39.2069C23.1356 39.2575 22.5171 39.2924 21.8982 39.3274L21.898 39.3274C21.674 39.34 21.45 39.3527 21.226 39.3661ZM7.14877 40.5371C7.13827 39.1283 8.22567 38.0272 9.61514 38.0352C10.9626 38.0432 12.0447 39.1389 12.0579 40.5132C12.071 41.93 11.0282 42.978 9.58625 42.9993C8.2283 43.0178 7.15928 41.9353 7.14877 40.5371ZM43.3142 19.0406C41.8959 18.9929 40.8006 20.0303 40.7559 21.455C40.7139 22.8241 41.7777 23.9543 43.1409 23.9994C44.4936 24.0419 45.623 22.9726 45.6782 21.5983C45.7359 20.2187 44.6853 19.0858 43.3142 19.0406Z" fill="white"/>
</svg>
