<svg width="20" height="20" viewBox="0 0 20 20" fill="none" xmlns="http://www.w3.org/2000/svg">
<path fill-rule="evenodd" clip-rule="evenodd" d="M6.25235 2.6011C6.25337 2.05244 5.82864 1.61208 5.3008 1.61723C4.75457 1.62239 4.32985 2.04935 4.33699 2.58769C4.34312 3.13325 4.76581 3.55093 5.31101 3.54887C5.8215 3.5468 6.25133 3.11469 6.25235 2.6011ZM8.77517 18.2275C8.85816 18.222 8.94118 18.2165 9.0243 18.2114C9.0243 18.2124 9.0243 18.2134 9.02226 18.2124C9.27939 18.1977 9.53659 18.1828 9.79386 18.1679L9.80058 18.1675L9.80764 18.1671C10.4835 18.1281 11.1598 18.089 11.8361 18.0525C12.2312 18.0319 12.4374 17.8648 12.5201 17.4719L12.5487 17.3362C12.6556 16.8288 12.7625 16.322 12.8581 15.8125C12.8938 15.6259 12.9591 15.5857 13.1419 15.6434C13.7106 15.8229 14.2844 15.9879 14.8592 16.1498C15.2921 16.2725 15.4881 16.1931 15.7342 15.8208C16.0124 15.3999 16.2902 14.9791 16.568 14.5583L16.5696 14.5558C16.9406 13.9938 17.3116 13.4318 17.6832 12.8702C17.9548 12.4577 17.8905 12.1194 17.477 11.8564C17.0257 11.5687 16.6959 11.1799 16.5254 10.6694C16.2079 9.71856 16.5632 8.77079 17.4637 8.1386C17.9017 7.83127 17.9527 7.51775 17.6475 7.07017C16.9828 6.09661 16.3212 5.12099 15.6607 4.14435C15.3932 3.74936 15.1798 3.66892 14.7265 3.81742C14.1741 3.99893 13.6218 4.18251 13.0725 4.37536C12.9214 4.42899 12.8673 4.40321 12.8315 4.23923C12.7411 3.82384 12.641 3.40959 12.541 2.99563L12.5408 2.99489C12.5065 2.85309 12.4723 2.71132 12.4384 2.56955C12.3445 2.17559 12.1567 2.01058 11.7503 1.98686C10.5741 1.91879 9.39798 1.85176 8.22079 1.79091C7.68886 1.76307 7.47343 1.98273 7.44995 2.51695C7.42034 3.21721 7.14468 3.80505 6.57906 4.22273C5.83681 4.77035 5.05065 4.7291 4.2502 4.3568C3.81731 4.15466 3.49877 4.27636 3.29865 4.70847C2.79051 5.80615 2.28033 6.9028 1.77015 7.99945L1.76923 8.00143C1.59873 8.36651 1.63752 8.61196 1.93156 8.8966C2.3083 9.26169 2.68709 9.62574 3.07404 9.97844C3.19145 10.0867 3.18226 10.1404 3.06791 10.2373C2.70853 10.5415 2.35323 10.852 2.00507 11.1706C1.73145 11.4212 1.68959 11.6626 1.8458 12.0039C2.33689 13.0765 2.83002 14.148 3.3252 15.2185C3.5733 15.7538 3.85713 15.8414 4.38497 15.5877C5.07209 15.2587 5.76125 15.2732 6.41978 15.664C7.12834 16.0848 7.41319 16.7582 7.46118 17.5544C7.49181 18.0536 7.72663 18.2805 8.21977 18.2598C8.40509 18.252 8.58994 18.2398 8.77496 18.2275L8.77507 18.2275L8.77517 18.2275ZM12.1579 8.55961L12.1579 8.55969C12.187 9.02457 12.2156 9.47941 12.2016 9.80209C12.1812 11.1057 12.1189 12.2484 11.9821 13.3869C11.9423 13.719 11.7585 13.8324 11.4522 13.7107C9.75021 13.0311 8.10235 12.2453 6.59335 11.1871C6.28808 10.9726 5.98178 10.7571 5.69183 10.5209C5.42637 10.3054 5.42535 10.1043 5.69591 9.89182C5.82691 9.78941 5.95702 9.68577 6.08715 9.58213C6.51789 9.23906 6.94877 8.89588 7.41217 8.5965C8.66389 7.78795 9.96462 7.07016 11.3195 6.45447C11.6778 6.29256 11.9504 6.45344 11.9953 6.85462L12.0119 7.00069L12.0119 7.00071C12.0659 7.4749 12.1199 7.94925 12.1495 8.4253L12.1579 8.55961ZM13.4193 9.84643V9.84641V9.84639C13.4174 9.64458 13.4155 9.44277 13.4155 9.24106C13.4298 8.2242 13.3726 7.20939 13.2614 6.19665C13.2277 5.8821 13.4298 5.56858 13.7535 5.44689C13.9495 5.37366 14.1486 5.30972 14.3477 5.24681C14.6703 5.14574 14.8857 5.21587 15.0818 5.49948C15.2819 5.78931 15.4797 6.08116 15.6776 6.37319L15.6778 6.37342L15.6779 6.37364C15.8546 6.63428 16.0314 6.89508 16.2099 7.15473C16.3559 7.36615 16.2528 7.51878 16.1129 7.67141C15.5912 8.24172 15.2625 8.90176 15.1971 9.68452C15.1144 10.6777 15.4177 11.5398 16.068 12.2814C16.3314 12.5825 16.3427 12.664 16.1181 13.0043L15.8576 13.3992L15.8572 13.3998C15.6259 13.7505 15.3947 14.1011 15.1624 14.4512C14.9225 14.8142 14.8163 14.8534 14.4038 14.7307C14.1098 14.6441 13.8178 14.5554 13.5258 14.4636C13.2491 14.3759 13.1378 14.2181 13.1725 13.9283C13.2818 13.0156 13.3777 12.1019 13.4114 11.184C13.4276 10.7388 13.4234 10.2926 13.4193 9.84647V9.84643ZM4.55897 5.80512L4.5759 5.80372C4.9312 5.85425 5.30896 5.90789 5.6908 5.85838C7.06606 5.68615 7.99515 4.92092 8.47501 3.62973C8.61693 3.24814 8.78743 3.0883 9.18765 3.09964C9.54437 3.1103 9.90049 3.13044 10.2565 3.15056C10.5546 3.16742 10.8527 3.18427 11.151 3.19555C11.2776 3.19968 11.3399 3.27702 11.3664 3.3884C11.4685 3.82052 11.5676 4.25263 11.6656 4.68578C11.7095 4.8807 11.5798 4.95495 11.4348 5.01683C10.809 5.28291 10.1954 5.57374 9.59094 5.88519C7.90122 6.75768 6.29523 7.7663 4.76682 8.90073C4.2012 9.32048 4.19099 9.3246 3.68356 8.85329C3.63463 8.80789 3.58665 8.76184 3.53856 8.71569L3.53853 8.71566L3.5385 8.71564L3.5385 8.71563C3.50032 8.67899 3.46206 8.64228 3.42321 8.60578C3.11284 8.31392 3.06791 8.19016 3.23944 7.79517C3.41635 7.38752 3.60612 6.98587 3.79602 6.58395L3.79605 6.58388C3.87902 6.40827 3.96201 6.23262 4.04397 6.05639C4.14448 5.83926 4.34199 5.82299 4.55897 5.80512ZM9.91868 16.9171V16.9552C9.83593 16.9552 9.75319 16.9544 9.6705 16.9536C9.47771 16.9516 9.28521 16.9497 9.09372 16.9583C8.75884 16.9728 8.64858 16.9016 8.54852 16.5685C8.40967 16.1096 8.20752 15.6847 7.89816 15.3175C7.08342 14.3522 6.03794 14.0026 4.81379 14.1625L4.76338 14.169C4.24284 14.2373 4.23568 14.2382 4.00007 13.7262C3.78056 13.2487 3.56105 12.7702 3.34868 12.2886C3.20983 11.9751 3.27211 11.7244 3.53552 11.5048L3.59144 11.458C3.83149 11.2572 3.94129 11.1654 4.05192 11.1644C4.14517 11.1635 4.239 11.2272 4.41193 11.3447L4.41194 11.3447C4.45404 11.3732 4.50083 11.405 4.55343 11.4398C6.70157 12.863 8.92118 14.1532 11.3205 15.1009C11.5914 15.2074 11.5809 15.4128 11.5707 15.6142L11.5696 15.6362C11.5553 15.928 11.4991 16.2158 11.3909 16.4932C11.3001 16.7252 11.1336 16.8366 10.9009 16.8552C10.661 16.8749 10.4205 16.8885 10.18 16.902L10.1799 16.902L10.1797 16.902C10.0927 16.907 10.0057 16.9119 9.91868 16.9171ZM4.44693 17.3756C4.44284 16.828 4.86552 16.4 5.40562 16.4031C5.92938 16.4062 6.35003 16.8321 6.35513 17.3663C6.36024 17.917 5.95491 18.3244 5.39439 18.3326C4.86655 18.3399 4.45101 17.9191 4.44693 17.3756ZM18.5051 9.02026C17.9538 9.00169 17.528 9.40494 17.5107 9.95875C17.4943 10.4909 17.9078 10.9302 18.4377 10.9478C18.9635 10.9643 19.4025 10.5487 19.424 10.0144C19.4464 9.47816 19.038 9.03779 18.5051 9.02026Z" fill="white"/>
</svg>
