<svg width="157" height="21" viewBox="0 0 157 21" fill="none" xmlns="http://www.w3.org/2000/svg">
<path d="M9.33322 3.30792V2.83336C9.33322 2.64909 9.18402 2.5 8.99986 2.5C8.8156 2.5 8.6665 2.64944 8.6665 2.83336L8.66662 3.30792C4.47442 3.4998 1 7.25497 1 9.63553V9.69888C1 9.84228 1.08995 9.96887 1.2267 10.0155C1.36006 10.0622 1.50999 10.0155 1.59668 9.90224C1.60659 9.88881 2.66658 8.5454 3.99333 8.5454C4.76002 8.5454 5.49332 9.00208 6.17331 9.90211C6.23667 9.98542 6.33327 10.0321 6.44004 10.0321C6.54668 10.0321 6.64667 9.98215 6.70676 9.89884C6.71583 9.88361 7.5577 8.75942 8.66667 8.53864V17.1666C8.66667 17.5342 8.36766 17.8333 7.99998 17.8333C7.63231 17.8333 7.3333 17.5342 7.3333 17.1666V16.8333C7.3333 16.649 7.1841 16.4999 6.99994 16.4999C6.8158 16.4999 6.66658 16.649 6.66658 16.8333V17.1666C6.66658 17.902 7.26471 18.5 7.99995 18.5C8.7352 18.5 9.33332 17.902 9.33332 17.1666V8.54112C10.4425 8.76782 11.2843 9.88671 11.2934 9.89878C11.3567 9.98209 11.4533 10.032 11.5601 10.032C11.6667 10.032 11.7635 9.98535 11.8268 9.90205C12.5068 9.00201 13.2401 8.54534 14.0068 8.54534C15.3335 8.54534 16.3934 9.88862 16.4034 9.90205C16.4901 10.0153 16.6401 10.062 16.7734 10.0153C16.91 9.96867 17 9.84208 17 9.6987V9.63534C17 7.25491 13.5256 3.49964 9.33307 3.30804L9.33322 3.30792Z" fill="#D81159" stroke="#D81159"/>
<path d="M29.788 16.21C29.0413 16.21 28.367 16.0793 27.765 15.818C27.1677 15.552 26.6753 15.174 26.288 14.684C25.9053 14.1893 25.6627 13.6013 25.56 12.92L27.548 12.626C27.688 13.2047 27.9773 13.6503 28.416 13.963C28.8547 14.2757 29.354 14.432 29.914 14.432C30.2267 14.432 30.53 14.383 30.824 14.285C31.118 14.187 31.3583 14.0423 31.545 13.851C31.7363 13.6597 31.832 13.424 31.832 13.144C31.832 13.0413 31.8157 12.9433 31.783 12.85C31.755 12.752 31.706 12.661 31.636 12.577C31.566 12.493 31.4657 12.4137 31.335 12.339C31.209 12.2643 31.048 12.1967 30.852 12.136L28.234 11.366C28.038 11.31 27.8093 11.2307 27.548 11.128C27.2913 11.0253 27.0417 10.8783 26.799 10.687C26.5563 10.4957 26.3533 10.2437 26.19 9.931C26.0313 9.61367 25.952 9.21467 25.952 8.734C25.952 8.05733 26.1223 7.495 26.463 7.047C26.8037 6.599 27.2587 6.26533 27.828 6.046C28.3973 5.82667 29.0273 5.71933 29.718 5.724C30.4133 5.73333 31.034 5.85233 31.58 6.081C32.126 6.30967 32.5833 6.64333 32.952 7.082C33.3207 7.516 33.5867 8.048 33.75 8.678L31.692 9.028C31.6173 8.70133 31.4797 8.426 31.279 8.202C31.0783 7.978 30.838 7.80767 30.558 7.691C30.2827 7.57433 29.9933 7.51133 29.69 7.502C29.3913 7.49267 29.109 7.53467 28.843 7.628C28.5817 7.71667 28.367 7.84733 28.199 8.02C28.0357 8.19267 27.954 8.398 27.954 8.636C27.954 8.85533 28.0217 9.035 28.157 9.175C28.2923 9.31033 28.4627 9.42 28.668 9.504C28.8733 9.588 29.0833 9.658 29.298 9.714L31.048 10.19C31.3093 10.26 31.5987 10.3533 31.916 10.47C32.2333 10.582 32.5367 10.7407 32.826 10.946C33.12 11.1467 33.3603 11.4127 33.547 11.744C33.7383 12.0753 33.834 12.4953 33.834 13.004C33.834 13.5453 33.7197 14.019 33.491 14.425C33.267 14.8263 32.9637 15.16 32.581 15.426C32.1983 15.6873 31.7643 15.8833 31.279 16.014C30.7983 16.1447 30.3013 16.21 29.788 16.21ZM36.8426 16L34.5326 8.426L36.3946 8.44L37.7666 12.948L39.1596 8.44H40.7416L42.1346 12.948L43.5066 8.44H45.3686L43.0586 16H41.6026L39.9506 11.072L38.2986 16H36.8426ZM46.6349 7.39V5.71H48.5389V7.39H46.6349ZM46.6349 16V8.44H48.5389V16H46.6349ZM51.1275 16V8.468C51.1275 8.27667 51.1322 8.05967 51.1415 7.817C51.1508 7.57433 51.1882 7.32933 51.2535 7.082C51.3235 6.83467 51.4495 6.61067 51.6315 6.41C51.8648 6.14867 52.1168 5.97133 52.3875 5.878C52.6628 5.78 52.9288 5.72867 53.1855 5.724C53.4422 5.71467 53.6615 5.71 53.8435 5.71H54.7815V7.25H53.9135C53.6148 7.25 53.3932 7.327 53.2485 7.481C53.1038 7.63033 53.0315 7.81 53.0315 8.02V16H51.1275ZM49.9375 9.91V8.44H54.7815V9.91H49.9375ZM60.2939 16C59.7712 16.098 59.2579 16.14 58.7539 16.126C58.2546 16.1167 57.8066 16.0303 57.4099 15.867C57.0179 15.699 56.7192 15.4307 56.5139 15.062C56.3272 14.7167 56.2292 14.3667 56.2199 14.012C56.2106 13.6527 56.2059 13.2467 56.2059 12.794V6.34H58.1099V12.682C58.1099 12.976 58.1122 13.242 58.1169 13.48C58.1262 13.7133 58.1752 13.9 58.2639 14.04C58.4319 14.306 58.7002 14.4507 59.0689 14.474C59.4376 14.4973 59.8459 14.4787 60.2939 14.418V16ZM54.9179 9.91V8.44H60.2939V9.91H54.9179ZM61.8386 16V5.92H65.8706C66.5893 5.92 67.1703 6.06467 67.6136 6.354C68.0569 6.63867 68.3813 6.998 68.5866 7.432C68.7919 7.866 68.8946 8.30467 68.8946 8.748C68.8946 9.31267 68.7663 9.78167 68.5096 10.155C68.2576 10.5283 67.9099 10.778 67.4666 10.904V10.554C68.0966 10.6847 68.5679 10.9763 68.8806 11.429C69.1979 11.8817 69.3566 12.388 69.3566 12.948C69.3566 13.55 69.2446 14.0797 69.0206 14.537C68.8013 14.9943 68.4653 15.3537 68.0126 15.615C67.5599 15.8717 66.9906 16 66.3046 16H61.8386ZM63.7706 14.208H66.1086C66.3653 14.208 66.5939 14.1543 66.7946 14.047C66.9953 13.935 67.1516 13.781 67.2636 13.585C67.3803 13.3843 67.4386 13.1487 67.4386 12.878C67.4386 12.64 67.3896 12.4277 67.2916 12.241C67.1936 12.0543 67.0443 11.9073 66.8436 11.8C66.6476 11.688 66.4026 11.632 66.1086 11.632H63.7706V14.208ZM63.7706 9.854H65.8426C66.0573 9.854 66.2486 9.81667 66.4166 9.742C66.5846 9.66733 66.7176 9.553 66.8156 9.399C66.9136 9.24033 66.9626 9.03733 66.9626 8.79C66.9626 8.482 66.8669 8.223 66.6756 8.013C66.4843 7.803 66.2066 7.698 65.8426 7.698H63.7706V9.854ZM74.1267 16.21C73.352 16.21 72.6683 16.0443 72.0757 15.713C71.4877 15.377 71.0257 14.9173 70.6897 14.334C70.3583 13.746 70.1927 13.074 70.1927 12.318C70.1927 11.492 70.356 10.7733 70.6827 10.162C71.0093 9.55067 71.4597 9.077 72.0337 8.741C72.6077 8.40033 73.268 8.23 74.0147 8.23C74.808 8.23 75.4823 8.41667 76.0377 8.79C76.593 9.16333 77.0037 9.68833 77.2697 10.365C77.5357 11.0417 77.629 11.8373 77.5497 12.752H75.6667V12.052C75.6667 11.282 75.543 10.729 75.2957 10.393C75.053 10.0523 74.654 9.882 74.0987 9.882C73.45 9.882 72.9717 10.0803 72.6637 10.477C72.3603 10.869 72.2087 11.45 72.2087 12.22C72.2087 12.9247 72.3603 13.4707 72.6637 13.858C72.9717 14.2407 73.422 14.432 74.0147 14.432C74.388 14.432 74.7077 14.3503 74.9737 14.187C75.2397 14.0237 75.4427 13.788 75.5827 13.48L77.4867 14.026C77.202 14.7167 76.7517 15.2533 76.1357 15.636C75.5243 16.0187 74.8547 16.21 74.1267 16.21ZM71.6207 12.752V11.338H76.6327V12.752H71.6207ZM79.1302 16V5.71H81.0342V16H79.1302Z" fill="#D81159"/>
<path d="M89.8555 16.21C89.2209 16.21 88.6165 16.098 88.0425 15.874C87.4685 15.6453 86.9599 15.3093 86.5165 14.866C86.0779 14.4227 85.7302 13.8743 85.4735 13.221C85.2215 12.5677 85.0955 11.814 85.0955 10.96C85.0955 9.84467 85.3079 8.89733 85.7325 8.118C86.1619 7.334 86.7359 6.73667 87.4545 6.326C88.1779 5.91533 88.9782 5.71 89.8555 5.71C91.1529 5.71 92.1725 6.011 92.9145 6.613C93.6565 7.215 94.1535 8.06667 94.4055 9.168L92.4595 9.448C92.2775 8.86 91.9789 8.391 91.5635 8.041C91.1529 7.68633 90.6255 7.50667 89.9815 7.502C89.3422 7.49267 88.8102 7.63033 88.3855 7.915C87.9609 8.19967 87.6412 8.60333 87.4265 9.126C87.2165 9.64867 87.1115 10.26 87.1115 10.96C87.1115 11.66 87.2165 12.2667 87.4265 12.78C87.6412 13.2933 87.9609 13.6923 88.3855 13.977C88.8102 14.2617 89.3422 14.4087 89.9815 14.418C90.4155 14.4273 90.8075 14.3527 91.1575 14.194C91.5122 14.0353 91.8109 13.7857 92.0535 13.445C92.2962 13.1043 92.4689 12.668 92.5715 12.136H90.9755V10.666H94.6015C94.6109 10.7267 94.6179 10.834 94.6225 10.988C94.6272 11.142 94.6295 11.2307 94.6295 11.254C94.6295 12.22 94.4335 13.0763 94.0415 13.823C93.6495 14.5697 93.0965 15.1553 92.3825 15.58C91.6685 16 90.8262 16.21 89.8555 16.21ZM98.7065 16.224C98.1138 16.224 97.6308 16.1237 97.2575 15.923C96.8842 15.7223 96.5925 15.468 96.3825 15.16C96.1772 14.852 96.0302 14.5323 95.9415 14.201C95.8528 13.865 95.7992 13.5593 95.7805 13.284C95.7618 13.0087 95.7525 12.808 95.7525 12.682V8.44H97.6845V12.01C97.6845 12.1827 97.6938 12.4043 97.7125 12.675C97.7312 12.941 97.7895 13.2093 97.8875 13.48C97.9855 13.7507 98.1442 13.977 98.3635 14.159C98.5875 14.341 98.9025 14.432 99.3085 14.432C99.4718 14.432 99.6468 14.4063 99.8335 14.355C100.02 14.3037 100.195 14.2057 100.358 14.061C100.522 13.9117 100.655 13.6947 100.757 13.41C100.865 13.1207 100.918 12.7427 100.918 12.276L102.01 12.794C102.01 13.3913 101.889 13.9513 101.646 14.474C101.404 14.9967 101.037 15.419 100.547 15.741C100.062 16.063 99.4485 16.224 98.7065 16.224ZM101.156 16V13.494H100.918V8.44H102.836V16H101.156ZM106.753 16.21C106.212 16.21 105.752 16.1073 105.374 15.902C105.001 15.692 104.716 15.4143 104.52 15.069C104.329 14.719 104.233 14.334 104.233 13.914C104.233 13.564 104.287 13.2443 104.394 12.955C104.501 12.6657 104.674 12.4113 104.912 12.192C105.155 11.968 105.479 11.7813 105.885 11.632C106.165 11.5293 106.499 11.4383 106.886 11.359C107.273 11.2797 107.712 11.205 108.202 11.135C108.692 11.0603 109.231 10.9787 109.819 10.89L109.133 11.268C109.133 10.82 109.026 10.491 108.811 10.281C108.596 10.071 108.237 9.966 107.733 9.966C107.453 9.966 107.161 10.0337 106.858 10.169C106.555 10.3043 106.342 10.5447 106.221 10.89L104.499 10.344C104.69 9.71867 105.05 9.21 105.577 8.818C106.104 8.426 106.823 8.23 107.733 8.23C108.4 8.23 108.993 8.33267 109.511 8.538C110.029 8.74333 110.421 9.098 110.687 9.602C110.836 9.882 110.925 10.162 110.953 10.442C110.981 10.722 110.995 11.0347 110.995 11.38V16H109.329V14.446L109.567 14.768C109.198 15.2767 108.799 15.6453 108.37 15.874C107.945 16.098 107.406 16.21 106.753 16.21ZM107.159 14.712C107.509 14.712 107.803 14.6513 108.041 14.53C108.284 14.404 108.475 14.2617 108.615 14.103C108.76 13.9443 108.858 13.8113 108.909 13.704C109.007 13.4987 109.063 13.2607 109.077 12.99C109.096 12.7147 109.105 12.486 109.105 12.304L109.665 12.444C109.1 12.5373 108.643 12.6167 108.293 12.682C107.943 12.7427 107.661 12.7987 107.446 12.85C107.231 12.9013 107.042 12.9573 106.879 13.018C106.692 13.0927 106.541 13.1743 106.424 13.263C106.312 13.347 106.228 13.4403 106.172 13.543C106.121 13.6457 106.095 13.76 106.095 13.886C106.095 14.0587 106.137 14.208 106.221 14.334C106.31 14.4553 106.433 14.5487 106.592 14.614C106.751 14.6793 106.94 14.712 107.159 14.712ZM112.675 16V8.44H114.355V10.288L114.173 10.05C114.271 9.78867 114.402 9.55067 114.565 9.336C114.728 9.12133 114.929 8.944 115.167 8.804C115.349 8.692 115.547 8.60567 115.762 8.545C115.977 8.47967 116.198 8.44 116.427 8.426C116.656 8.40733 116.884 8.412 117.113 8.44V10.218C116.903 10.1527 116.658 10.1317 116.378 10.155C116.103 10.1737 115.853 10.2367 115.629 10.344C115.405 10.4467 115.216 10.5843 115.062 10.757C114.908 10.925 114.791 11.1257 114.712 11.359C114.633 11.5877 114.593 11.8467 114.593 12.136V16H112.675ZM120.254 16.21C119.713 16.21 119.253 16.1073 118.875 15.902C118.502 15.692 118.217 15.4143 118.021 15.069C117.83 14.719 117.734 14.334 117.734 13.914C117.734 13.564 117.788 13.2443 117.895 12.955C118.002 12.6657 118.175 12.4113 118.413 12.192C118.656 11.968 118.98 11.7813 119.386 11.632C119.666 11.5293 120 11.4383 120.387 11.359C120.774 11.2797 121.213 11.205 121.703 11.135C122.193 11.0603 122.732 10.9787 123.32 10.89L122.634 11.268C122.634 10.82 122.527 10.491 122.312 10.281C122.097 10.071 121.738 9.966 121.234 9.966C120.954 9.966 120.662 10.0337 120.359 10.169C120.056 10.3043 119.843 10.5447 119.722 10.89L118 10.344C118.191 9.71867 118.551 9.21 119.078 8.818C119.605 8.426 120.324 8.23 121.234 8.23C121.901 8.23 122.494 8.33267 123.012 8.538C123.53 8.74333 123.922 9.098 124.188 9.602C124.337 9.882 124.426 10.162 124.454 10.442C124.482 10.722 124.496 11.0347 124.496 11.38V16H122.83V14.446L123.068 14.768C122.699 15.2767 122.3 15.6453 121.871 15.874C121.446 16.098 120.907 16.21 120.254 16.21ZM120.66 14.712C121.01 14.712 121.304 14.6513 121.542 14.53C121.785 14.404 121.976 14.2617 122.116 14.103C122.261 13.9443 122.359 13.8113 122.41 13.704C122.508 13.4987 122.564 13.2607 122.578 12.99C122.597 12.7147 122.606 12.486 122.606 12.304L123.166 12.444C122.601 12.5373 122.144 12.6167 121.794 12.682C121.444 12.7427 121.162 12.7987 120.947 12.85C120.732 12.9013 120.543 12.9573 120.38 13.018C120.193 13.0927 120.042 13.1743 119.925 13.263C119.813 13.347 119.729 13.4403 119.673 13.543C119.622 13.6457 119.596 13.76 119.596 13.886C119.596 14.0587 119.638 14.208 119.722 14.334C119.811 14.4553 119.934 14.5487 120.093 14.614C120.252 14.6793 120.441 14.712 120.66 14.712ZM131.328 16V12.43C131.328 12.2573 131.319 12.038 131.3 11.772C131.282 11.5013 131.223 11.2307 131.125 10.96C131.027 10.6893 130.866 10.463 130.642 10.281C130.423 10.099 130.11 10.008 129.704 10.008C129.541 10.008 129.366 10.0337 129.179 10.085C128.993 10.1363 128.818 10.2367 128.654 10.386C128.491 10.5307 128.356 10.7453 128.248 11.03C128.146 11.3147 128.094 11.6927 128.094 12.164L127.002 11.646C127.002 11.0487 127.124 10.4887 127.366 9.966C127.609 9.44333 127.973 9.021 128.458 8.699C128.948 8.377 129.564 8.216 130.306 8.216C130.899 8.216 131.382 8.31633 131.755 8.517C132.129 8.71767 132.418 8.972 132.623 9.28C132.833 9.588 132.983 9.91 133.071 10.246C133.16 10.5773 133.214 10.8807 133.232 11.156C133.251 11.4313 133.26 11.632 133.26 11.758V16H131.328ZM126.162 16V8.44H127.856V10.946H128.094V16H126.162ZM139.473 16C138.95 16.098 138.437 16.14 137.933 16.126C137.433 16.1167 136.985 16.0303 136.589 15.867C136.197 15.699 135.898 15.4307 135.693 15.062C135.506 14.7167 135.408 14.3667 135.399 14.012C135.389 13.6527 135.385 13.2467 135.385 12.794V6.34H137.289V12.682C137.289 12.976 137.291 13.242 137.296 13.48C137.305 13.7133 137.354 13.9 137.443 14.04C137.611 14.306 137.879 14.4507 138.248 14.474C138.616 14.4973 139.025 14.4787 139.473 14.418V16ZM134.097 9.91V8.44H139.473V9.91H134.097ZM144.121 16.21C143.347 16.21 142.663 16.0443 142.07 15.713C141.482 15.377 141.02 14.9173 140.684 14.334C140.353 13.746 140.187 13.074 140.187 12.318C140.187 11.492 140.351 10.7733 140.677 10.162C141.004 9.55067 141.454 9.077 142.028 8.741C142.602 8.40033 143.263 8.23 144.009 8.23C144.803 8.23 145.477 8.41667 146.032 8.79C146.588 9.16333 146.998 9.68833 147.264 10.365C147.53 11.0417 147.624 11.8373 147.544 12.752H145.661V12.052C145.661 11.282 145.538 10.729 145.29 10.393C145.048 10.0523 144.649 9.882 144.093 9.882C143.445 9.882 142.966 10.0803 142.658 10.477C142.355 10.869 142.203 11.45 142.203 12.22C142.203 12.9247 142.355 13.4707 142.658 13.858C142.966 14.2407 143.417 14.432 144.009 14.432C144.383 14.432 144.702 14.3503 144.968 14.187C145.234 14.0237 145.437 13.788 145.577 13.48L147.481 14.026C147.197 14.7167 146.746 15.2533 146.13 15.636C145.519 16.0187 144.849 16.21 144.121 16.21ZM141.615 12.752V11.338H146.627V12.752H141.615ZM152.499 16.21C151.724 16.21 151.04 16.0443 150.448 15.713C149.86 15.377 149.398 14.9173 149.062 14.334C148.73 13.746 148.565 13.074 148.565 12.318C148.565 11.492 148.728 10.7733 149.055 10.162C149.381 9.55067 149.832 9.077 150.406 8.741C150.98 8.40033 151.64 8.23 152.387 8.23C153.18 8.23 153.854 8.41667 154.41 8.79C154.965 9.16333 155.376 9.68833 155.642 10.365C155.908 11.0417 156.001 11.8373 155.922 12.752H154.039V12.052C154.039 11.282 153.915 10.729 153.668 10.393C153.425 10.0523 153.026 9.882 152.471 9.882C151.822 9.882 151.344 10.0803 151.036 10.477C150.732 10.869 150.581 11.45 150.581 12.22C150.581 12.9247 150.732 13.4707 151.036 13.858C151.344 14.2407 151.794 14.432 152.387 14.432C152.76 14.432 153.08 14.3503 153.346 14.187C153.612 14.0237 153.815 13.788 153.955 13.48L155.859 14.026C155.574 14.7167 155.124 15.2533 154.508 15.636C153.896 16.0187 153.227 16.21 152.499 16.21ZM149.993 12.752V11.338H155.005V12.752H149.993Z" fill="#190F0F"/>
</svg>
