<svg width="20" height="19" viewBox="0 0 20 19" fill="none" xmlns="http://www.w3.org/2000/svg">
<path d="M8.975 17.95L7.65 16.725C5.58333 14.8083 3.79167 12.9792 2.275 11.2375C0.758333 9.49583 0 7.675 0 5.775C0 4.275 0.504167 3.02083 1.5125 2.0125C2.52083 1.00417 3.76667 0.5 5.25 0.5C6.1 0.5 6.94167 0.704167 7.775 1.1125C8.60833 1.52083 9.35 2.19167 10 3.125C10.7333 2.19167 11.4917 1.52083 12.275 1.1125C13.0583 0.704167 13.8833 0.5 14.75 0.5C16.2333 0.5 17.4792 1.00417 18.4875 2.0125C19.4958 3.02083 20 4.275 20 5.775C20 7.675 19.2417 9.49583 17.725 11.2375C16.2083 12.9792 14.4167 14.8083 12.35 16.725L11.025 17.95C10.7417 18.2167 10.4 18.35 10 18.35C9.6 18.35 9.25833 18.2167 8.975 17.95ZM9.35 4.775C8.9 3.95833 8.30833 3.29167 7.575 2.775C6.84167 2.25833 6.06667 2 5.25 2C4.15 2 3.25 2.35417 2.55 3.0625C1.85 3.77083 1.5 4.675 1.5 5.775C1.5 6.74167 1.825 7.75417 2.475 8.8125C3.125 9.87083 3.9 10.9 4.8 11.9C5.7 12.9 6.63333 13.8292 7.6 14.6875C8.56667 15.5458 9.36667 16.2667 10 16.85C10.6333 16.2833 11.4333 15.5667 12.4 14.7C13.3667 13.8333 14.3 12.8958 15.2 11.8875C16.1 10.8792 16.875 9.84583 17.525 8.7875C18.175 7.72917 18.5 6.725 18.5 5.775C18.5 4.675 18.1458 3.77083 17.4375 3.0625C16.7292 2.35417 15.8333 2 14.75 2C13.9167 2 13.1375 2.25417 12.4125 2.7625C11.6875 3.27083 11.0833 3.94167 10.6 4.775C10.5167 4.90833 10.425 5.00417 10.325 5.0625C10.225 5.12083 10.1083 5.15 9.975 5.15C9.84167 5.15 9.72083 5.12083 9.6125 5.0625C9.50417 5.00417 9.41667 4.90833 9.35 4.775Z" fill="#190F0F"/>
</svg>
