<svg width="30" height="11" viewBox="0 0 30 11" fill="none" xmlns="http://www.w3.org/2000/svg">
<path d="M0.69133 10.5H2.75578V6.34375H7.19914V10.5H9.2636V0.635742H7.19914V4.6416H2.75578V0.635742H0.69133V10.5ZM11.9124 2.22852C12.5139 2.22852 12.9788 1.75684 12.9788 1.18945C12.9788 0.62207 12.5139 0.150391 11.9124 0.150391C11.3108 0.150391 10.846 0.62207 10.846 1.18945C10.846 1.75684 11.3108 2.22852 11.9124 2.22852ZM10.9143 10.5H12.9104V3.17188H10.9143V10.5ZM17.1041 10.6504C18.1637 10.6504 18.9704 10.1172 19.36 9.24902H19.401V10.5H21.3971V0.635742H19.401V4.44336H19.36C18.9635 3.55469 18.1432 3.02148 17.1041 3.02148C15.2584 3.02148 14.1237 4.44336 14.1237 6.8291V6.83594C14.1237 9.21484 15.2584 10.6504 17.1041 10.6504ZM17.7741 8.99609C16.776 8.99609 16.1539 8.16895 16.1539 6.83594V6.8291C16.1539 5.48926 16.7829 4.67578 17.7741 4.67578C18.7379 4.67578 19.4079 5.50977 19.4079 6.8291V6.83594C19.4079 8.16211 18.7448 8.99609 17.7741 8.99609ZM26.2061 10.6504C28.2979 10.6504 29.3096 9.41309 29.5352 8.33301L29.5557 8.25781H27.7236L27.71 8.29883C27.5664 8.70898 27.0674 9.16016 26.2471 9.16016C25.2285 9.16016 24.5928 8.47656 24.5723 7.30762H29.6172V6.69238C29.6172 4.47754 28.2705 3.02148 26.124 3.02148C23.9775 3.02148 22.6035 4.51172 22.6035 6.84277V6.84961C22.6035 9.19434 23.9639 10.6504 26.2061 10.6504ZM26.1582 4.51172C26.9854 4.51172 27.5801 5.03809 27.7031 6.0498H24.5928C24.7227 5.05859 25.3379 4.51172 26.1582 4.51172Z" fill="#190F0F"/>
</svg>
