<svg width="29" height="27" viewBox="0 0 29 27" fill="none" xmlns="http://www.w3.org/2000/svg">
<path fill-rule="evenodd" clip-rule="evenodd" d="M7.85594 1.57938C7.85757 0.698673 7.1758 -0.00820534 6.3285 7.19572e-05C5.4517 0.00834926 4.76992 0.693705 4.78139 1.55786C4.79123 2.43359 5.46972 3.10406 6.34489 3.10075C7.16433 3.09743 7.8543 2.4038 7.85594 1.57938ZM11.9047 26.6613L11.9058 26.6612L11.9069 26.6611C12.0394 26.6524 12.1719 26.6436 12.3045 26.6354C12.3045 26.6354 12.3045 26.6387 12.3013 26.6371C12.7215 26.613 13.1419 26.5887 13.5623 26.5644L13.5643 26.5643L13.565 26.5643C14.6489 26.5016 15.7335 26.4389 16.818 26.3805C17.4523 26.3474 17.7833 26.0792 17.9161 25.4485L17.9619 25.2306C18.1336 24.4161 18.305 23.6026 18.4585 22.7848C18.5159 22.4852 18.6208 22.4206 18.9141 22.5133C19.827 22.8014 20.748 23.0662 21.6707 23.3261C22.3656 23.5231 22.6803 23.3957 23.0753 22.7981C23.5211 22.1236 23.9664 21.4491 24.4115 20.7748L24.4138 20.7712L24.4162 20.7677L24.4189 20.7637L24.4215 20.7596C25.0154 19.86 25.6091 18.9606 26.2039 18.0618C26.6398 17.3996 26.5366 16.8566 25.8728 16.4345C25.1484 15.9726 24.6191 15.3485 24.3454 14.529C23.8357 13.0027 24.406 11.4813 25.8515 10.4665C26.5546 9.97322 26.6365 9.46996 26.1465 8.75149C25.0796 7.18874 24.0176 5.62266 22.9573 4.05494C22.5279 3.4209 22.1853 3.29178 21.4577 3.53016C20.571 3.82152 19.6844 4.1162 18.8027 4.42577C18.5601 4.51186 18.4733 4.47047 18.4159 4.20725C18.2707 3.54043 18.1101 2.87545 17.9495 2.21094C17.8944 1.98294 17.8394 1.755 17.785 1.52706C17.6342 0.894674 17.3326 0.629797 16.6803 0.591721C14.7924 0.482461 12.9044 0.374862 11.0147 0.27719C10.1609 0.232493 9.81507 0.585102 9.77738 1.44263C9.72985 2.56669 9.28735 3.5103 8.37941 4.18076C7.18794 5.05981 5.926 4.99359 4.64112 4.39597C3.94623 4.0715 3.4349 4.26684 3.11368 4.96048C2.29803 6.72245 1.4791 8.48276 0.660167 10.2431L0.660151 10.2431L0.660071 10.2433L0.658637 10.2464C0.384944 10.8324 0.447221 11.2264 0.919219 11.6833C1.52397 12.2693 2.13199 12.8537 2.75313 13.4199C2.9416 13.5937 2.92685 13.6798 2.74329 13.8354C2.16641 14.3238 1.59608 14.8221 1.03722 15.3336C0.597998 15.7359 0.530804 16.1232 0.781553 16.6712C1.56986 18.3929 2.36143 20.1129 3.15629 21.8313C3.55454 22.6905 4.01015 22.8312 4.85745 22.4239C5.96042 21.8958 7.06666 21.919 8.12374 22.5464C9.26112 23.2219 9.71837 24.3029 9.7954 25.5809C9.84457 26.3821 10.2215 26.7463 11.0131 26.7132C11.3107 26.7007 11.6075 26.681 11.9047 26.6613ZM17.3346 11.1423C17.3814 11.8886 17.4272 12.6188 17.4047 13.1368C17.372 15.2293 17.272 17.0636 17.0524 18.8912C16.9885 19.4242 16.6935 19.6063 16.2018 19.411C13.4698 18.3201 10.8246 17.0586 8.40235 15.3601C7.91233 15.0157 7.42066 14.6698 6.95522 14.2907C6.52911 13.9447 6.52747 13.6219 6.96177 13.2808C7.17205 13.1164 7.38092 12.9501 7.58981 12.7837C8.28123 12.233 8.97288 11.6821 9.71673 11.2016C11.726 9.90369 13.8139 8.75148 15.9887 7.76318C16.564 7.50327 17.0016 7.76152 17.0737 8.40549L17.1003 8.63991C17.1869 9.40112 17.2736 10.1626 17.3211 10.9268L17.3346 11.1423ZM19.3594 13.208V13.2079V13.2079C19.3564 12.884 19.3534 12.56 19.3534 12.2362C19.3763 10.6039 19.2845 8.97497 19.1059 7.34931C19.0518 6.8444 19.3763 6.34113 19.8958 6.14579C20.2105 6.02825 20.5301 5.92561 20.8497 5.82463C21.3675 5.66239 21.7134 5.77497 22.028 6.23022C22.3492 6.69547 22.6668 7.16396 22.9845 7.63276L22.9846 7.6329C23.2683 8.05147 23.5522 8.47027 23.839 8.88723C24.0733 9.2266 23.9078 9.47161 23.6833 9.71662C22.8458 10.6321 22.3181 11.6916 22.2132 12.9481C22.0805 14.5423 22.5672 15.9263 23.6112 17.1165C24.034 17.5999 24.052 17.7307 23.6915 18.277L23.2731 18.9114C22.9017 19.4746 22.5304 20.0375 22.1575 20.5996C21.7723 21.1823 21.6019 21.2453 20.9398 21.0483C20.4678 20.9092 19.9991 20.7668 19.5304 20.6195C19.0862 20.4788 18.9076 20.2255 18.9633 19.7603C19.1387 18.2952 19.2927 16.8285 19.3468 15.3551C19.3728 14.6404 19.3661 13.9242 19.3594 13.208ZM5.13675 6.72082L5.16392 6.71858C5.73425 6.7997 6.34064 6.88579 6.95358 6.80632C9.16115 6.52986 10.6525 5.3015 11.4228 3.22887C11.6506 2.61635 11.9243 2.35976 12.5668 2.37797C13.1394 2.39509 13.711 2.4274 14.2824 2.45971L14.2824 2.45971L14.2825 2.45971C14.7611 2.48677 15.2395 2.51382 15.7183 2.53193C15.9215 2.53855 16.0215 2.66271 16.0641 2.8415C16.228 3.53513 16.387 4.22876 16.5443 4.92406C16.6148 5.23694 16.4067 5.35614 16.1739 5.45546C15.1693 5.88257 14.1843 6.34941 13.2141 6.84936C10.5018 8.24988 7.9238 9.86893 5.4704 11.6899C4.56246 12.3637 4.54606 12.3703 3.73154 11.6138C3.65298 11.5409 3.57594 11.4669 3.49873 11.3928L3.49863 11.3928L3.4986 11.3927C3.43734 11.3339 3.37596 11.275 3.31363 11.2165C2.81541 10.748 2.74329 10.5493 3.01863 9.91527C3.30261 9.26091 3.60723 8.61618 3.91205 7.97102C4.04525 7.6891 4.17849 7.40709 4.31007 7.12417C4.47141 6.77563 4.78845 6.74952 5.13675 6.72082ZM14.6244 24.5319C14.3299 24.5667 14.035 24.6014 13.7402 24.6191C13.6075 24.6191 13.4747 24.6177 13.3421 24.6164L13.3418 24.6164H13.3418H13.3417C13.0323 24.6133 12.7233 24.6101 12.416 24.624C11.8784 24.6472 11.7014 24.533 11.5408 23.9983C11.3179 23.2616 10.9934 22.5795 10.4968 21.9902C9.18902 20.4407 7.5108 19.8795 5.54578 20.1361L5.46488 20.1467C4.62929 20.2562 4.61781 20.2577 4.23959 19.4358C3.88723 18.6693 3.53487 17.9012 3.19399 17.1281C2.9711 16.6249 3.07107 16.2226 3.4939 15.87L3.58366 15.7949C3.969 15.4726 4.14525 15.3251 4.32282 15.3235C4.47251 15.3222 4.62314 15.4244 4.90073 15.6129C4.96831 15.6588 5.04342 15.7098 5.12787 15.7657C8.57607 18.0502 12.139 20.1212 15.9904 21.6426C16.4252 21.8135 16.4085 22.1431 16.392 22.4664L16.3903 22.5017C16.3673 22.9702 16.2772 23.4321 16.1035 23.8774C15.9576 24.2499 15.6905 24.4287 15.3168 24.4585C15.0863 24.4774 14.8554 24.5047 14.6244 24.5319ZM4.95708 25.2955C4.95052 24.4164 5.62902 23.7294 6.49599 23.7344C7.33673 23.7394 8.01195 24.4231 8.02015 25.2806C8.02834 26.1646 7.37771 26.8185 6.47796 26.8318C5.63066 26.8433 4.96363 26.1679 4.95708 25.2955ZM27.5228 11.8838C26.6378 11.854 25.9544 12.5013 25.9265 13.3903C25.9003 14.2445 26.5641 14.9497 27.4146 14.9779C28.2587 15.0043 28.9634 14.3372 28.9978 13.4797C29.0339 12.6188 28.3783 11.9119 27.5228 11.8838Z" fill="black"/>
</svg>
