<svg width="20" height="20" viewBox="0 0 20 20" fill="none" xmlns="http://www.w3.org/2000/svg">
<path d="M6.24992 0.833328C3.26242 0.833328 0.833252 3.26249 0.833252 6.24999V13.75C0.833252 16.7375 3.26242 19.1667 6.24992 19.1667H13.7499C16.7374 19.1667 19.1666 16.7375 19.1666 13.75V6.24999C19.1666 3.26249 16.7374 0.833328 13.7499 0.833328H6.24992ZM14.9999 4.16666C15.4583 4.16666 15.8333 4.54166 15.8333 4.99999C15.8333 5.45833 15.4583 5.83333 14.9999 5.83333C14.5416 5.83333 14.1666 5.45833 14.1666 4.99999C14.1666 4.54166 14.5416 4.16666 14.9999 4.16666ZM9.99992 5.41666C12.5291 5.41666 14.5833 7.47083 14.5833 9.99999C14.5833 12.5292 12.5291 14.5833 9.99992 14.5833C7.47075 14.5833 5.41658 12.5292 5.41658 9.99999C5.41658 7.47083 7.47075 5.41666 9.99992 5.41666ZM9.99992 6.24999C7.93325 6.24999 6.24992 7.93333 6.24992 9.99999C6.24992 12.0667 7.93325 13.75 9.99992 13.75C12.0666 13.75 13.7499 12.0667 13.7499 9.99999C13.7499 7.93333 12.0666 6.24999 9.99992 6.24999Z" fill="#190F0F"/>
</svg>
