<svg width="20" height="20" viewBox="0 0 20 20" fill="none" xmlns="http://www.w3.org/2000/svg">
<path d="M6.2487 0.832031C3.2612 0.832031 0.832031 3.2612 0.832031 6.2487V13.7487C0.832031 16.7362 3.2612 19.1654 6.2487 19.1654H13.7487C16.7362 19.1654 19.1654 16.7362 19.1654 13.7487V6.2487C19.1654 3.2612 16.7362 0.832031 13.7487 0.832031H6.2487ZM14.9987 4.16536C15.457 4.16536 15.832 4.54036 15.832 4.9987C15.832 5.45703 15.457 5.83203 14.9987 5.83203C14.5404 5.83203 14.1654 5.45703 14.1654 4.9987C14.1654 4.54036 14.5404 4.16536 14.9987 4.16536ZM9.9987 5.41536C12.5279 5.41536 14.582 7.46953 14.582 9.9987C14.582 12.5279 12.5279 14.582 9.9987 14.582C7.46953 14.582 5.41536 12.5279 5.41536 9.9987C5.41536 7.46953 7.46953 5.41536 9.9987 5.41536ZM9.9987 6.2487C7.93203 6.2487 6.2487 7.93203 6.2487 9.9987C6.2487 12.0654 7.93203 13.7487 9.9987 13.7487C12.0654 13.7487 13.7487 12.0654 13.7487 9.9987C13.7487 7.93203 12.0654 6.2487 9.9987 6.2487Z" fill="white"/>
</svg>
