<svg width="57" height="86" viewBox="0 0 57 86" fill="none" xmlns="http://www.w3.org/2000/svg">
<path fill-rule="evenodd" clip-rule="evenodd" d="M25.5199 68.7049C25.9101 69.1153 26.3743 69.441 26.8858 69.6633C27.3973 69.8856 27.9459 70 28.5 70C29.0541 70 29.6027 69.8856 30.1142 69.6633C30.6257 69.441 31.0899 69.1153 31.4801 68.7049L48.6473 50.7543C52.6345 46.5974 55.3504 41.3004 56.4513 35.5333C57.5522 29.7662 56.9886 23.7881 54.832 18.3552C52.6753 12.9222 49.0224 8.27838 44.3353 5.01115C39.6482 1.74391 34.1374 0 28.5 0C22.8626 0 17.3518 1.74391 12.6647 5.01115C7.97759 8.27838 4.32468 12.9222 2.16802 18.3552C0.0113619 23.7881 -0.552164 29.7662 0.548722 35.5333C1.64961 41.3004 4.36545 46.5974 8.35273 50.7543L25.5199 68.7049ZM28.5 38.4516C30.1603 38.4516 31.7833 37.938 33.1638 36.9759C34.5443 36.0137 35.6203 34.6461 36.2557 33.0461C36.8911 31.4461 37.0573 29.6855 36.7334 27.9869C36.4095 26.2883 35.61 24.7281 34.4359 23.5035C33.2619 22.2789 31.7661 21.4449 30.1377 21.107C28.5093 20.7692 26.8214 20.9426 25.2875 21.6053C23.7536 22.2681 22.4425 23.3904 21.5201 24.8304C20.5976 26.2704 20.1053 27.9633 20.1053 29.6952C20.1053 32.0175 20.9897 34.2447 22.5641 35.8869C24.1384 37.529 26.2736 38.4516 28.5 38.4516ZM28.6645 86.0009C31.3032 86.0009 33.4423 83.8618 33.4423 81.2231C33.4423 78.5844 31.3032 76.4453 28.6645 76.4453C26.0258 76.4453 23.8867 78.5844 23.8867 81.2231C23.8867 83.8618 26.0258 86.0009 28.6645 86.0009Z" fill="#190F0F"/>
</svg>
