<svg  viewBox="0 0 21 21" fill="none">
<path d="M6.15038 16.3196C6.44544 16.5456 6.80955 16.4703 7.23645 16.1627L10.501 13.7645L13.7655 16.1627C14.1924 16.4703 14.5628 16.5456 14.8578 16.3196C15.1466 16.0999 15.2094 15.7358 15.0399 15.2398L13.7529 11.404L17.0488 9.03725C17.4694 8.73591 17.6515 8.40318 17.5322 8.05162C17.4129 7.70633 17.0802 7.53683 16.5591 7.54311L12.5162 7.56822L11.2857 3.71359C11.1288 3.21136 10.8714 2.94141 10.501 2.94141C10.1368 2.94141 9.87945 3.21136 9.71622 3.71359L8.48575 7.56822L4.44279 7.54311C3.92172 7.53683 3.59527 7.70633 3.47599 8.05162C3.35671 8.40318 3.53249 8.73591 3.95939 9.03725L7.25529 11.404L5.96204 15.2398C5.79254 15.7358 5.85531 16.0999 6.15038 16.3196ZM10.501 12.465V4.81222C10.5198 4.81222 10.5261 4.8185 10.5386 4.85617L11.5431 8.2839C11.6373 8.5978 11.8068 8.70452 12.1269 8.69196L15.6991 8.61035C15.7367 8.61035 15.7493 8.61663 15.7556 8.62919C15.7618 8.64802 15.7556 8.6543 15.7242 8.67313L12.7798 10.6946C12.4911 10.8892 12.4534 11.0776 12.5601 11.3852L13.7529 14.7564C13.7655 14.7878 13.7655 14.7941 13.7529 14.8066C13.7404 14.8255 13.7278 14.8129 13.7027 14.8004L10.8714 12.6157C10.7458 12.5152 10.6202 12.465 10.501 12.465Z" fill="#D81159"/>
<path d="M10.501 12.465V4.81222C10.5198 4.81222 10.5261 4.8185 10.5386 4.85617L11.5431 8.2839C11.6373 8.5978 11.8068 8.70452 12.1269 8.69196L15.6991 8.61035C15.7367 8.61035 15.7493 8.61663 15.7556 8.62919C15.7618 8.64802 15.7556 8.6543 15.7242 8.67313L12.7798 10.6946C12.4911 10.8892 12.4534 11.0776 12.5601 11.3852L13.7529 14.7564C13.7655 14.7878 13.7655 14.7941 13.7529 14.8066C13.7404 14.8255 13.7278 14.8129 13.7027 14.8004L10.8714 12.6157C10.7458 12.5152 10.6202 12.465 10.501 12.465Z" fill="#D81159"/>
</svg>
