<svg width="16" height="23" viewBox="0 0 16 23" fill="none" xmlns="http://www.w3.org/2000/svg">
<path d="M7.975 14.8258C7.75833 14.8258 7.57917 14.7549 7.4375 14.6133C7.29583 14.4716 7.225 14.2924 7.225 14.0758V3.40078L5.55 5.07578C5.41667 5.20911 5.24583 5.27578 5.0375 5.27578C4.82917 5.27578 4.65 5.20078 4.5 5.05078C4.35 4.90078 4.275 4.72161 4.275 4.51328C4.275 4.30495 4.35 4.12578 4.5 3.97578L7.45 1.02578C7.53333 0.942448 7.61667 0.884115 7.7 0.850781C7.78333 0.817448 7.875 0.800781 7.975 0.800781C8.075 0.800781 8.16667 0.817448 8.25 0.850781C8.33333 0.884115 8.41667 0.942448 8.5 1.02578L11.475 4.00078C11.6083 4.13411 11.6792 4.30495 11.6875 4.51328C11.6958 4.72161 11.625 4.90078 11.475 5.05078C11.325 5.20078 11.1458 5.27578 10.9375 5.27578C10.7292 5.27578 10.55 5.20078 10.4 5.05078L8.725 3.40078V14.0758C8.725 14.2924 8.65417 14.4716 8.5125 14.6133C8.37083 14.7549 8.19167 14.8258 7.975 14.8258ZM1.5 22.5008C1.1 22.5008 0.75 22.3508 0.45 22.0508C0.15 21.7508 0 21.4008 0 21.0008V8.27578C0 7.87578 0.15 7.52578 0.45 7.22578C0.75 6.92578 1.1 6.77578 1.5 6.77578H4.975C5.19167 6.77578 5.37083 6.84661 5.5125 6.98828C5.65417 7.12995 5.725 7.30911 5.725 7.52578C5.725 7.74245 5.65417 7.92161 5.5125 8.06328C5.37083 8.20495 5.19167 8.27578 4.975 8.27578H1.5V21.0008H14.5V8.27578H10.975C10.7583 8.27578 10.5792 8.20495 10.4375 8.06328C10.2958 7.92161 10.225 7.74245 10.225 7.52578C10.225 7.30911 10.2958 7.12995 10.4375 6.98828C10.5792 6.84661 10.7583 6.77578 10.975 6.77578H14.5C14.9 6.77578 15.25 6.92578 15.55 7.22578C15.85 7.52578 16 7.87578 16 8.27578V21.0008C16 21.4008 15.85 21.7508 15.55 22.0508C15.25 22.3508 14.9 22.5008 14.5 22.5008H1.5Z" fill="#190F0F"/>
</svg>
