<svg width="37" height="11" viewBox="0 0 37 11" fill="none" xmlns="http://www.w3.org/2000/svg">
<path d="M4.95012 10.6709C7.4384 10.6709 8.92863 9.46777 8.92863 7.57422V7.56738C8.92863 6.01562 7.99895 5.1748 5.93449 4.76465L4.8886 4.55273C3.75383 4.32715 3.24797 3.96484 3.24797 3.34277V3.33594C3.24797 2.63184 3.88371 2.14648 4.94328 2.13965C5.96184 2.13965 6.67278 2.61133 6.77531 3.38379L6.78215 3.46582H8.73039L8.72356 3.33594C8.62785 1.60645 7.22649 0.464844 4.94328 0.464844C2.75578 0.464844 1.18352 1.6543 1.18352 3.45898V3.46582C1.18352 4.94922 2.16789 5.87891 4.11613 6.26855L5.1552 6.47363C6.37883 6.72656 6.86418 7.06152 6.86418 7.73145V7.73828C6.86418 8.49023 6.14641 8.98926 5.00481 8.98926C3.87688 8.98926 3.0634 8.51074 2.93352 7.74512L2.91985 7.66992H0.971603L0.978439 7.7793C1.09465 9.59766 2.60539 10.6709 4.95012 10.6709ZM10.2102 10.5H12.2063V6.30273C12.2063 5.3457 12.7737 4.67578 13.6555 4.67578C14.5647 4.67578 15.0706 5.28418 15.0706 6.30957V10.5H17.0667V5.89941C17.0667 4.12891 16.0823 3.02148 14.4964 3.02148C13.3958 3.02148 12.6233 3.52734 12.2473 4.43652H12.2063V0.635742H10.2102V10.5ZM21.8551 10.6504C24.07 10.6504 25.485 9.22852 25.485 6.83594V6.82227C25.485 4.4502 24.0426 3.02148 21.8483 3.02148C19.6608 3.02148 18.2252 4.46387 18.2252 6.82227V6.83594C18.2252 9.22168 19.6266 10.6504 21.8551 10.6504ZM21.862 9.08496C20.8776 9.08496 20.2555 8.27148 20.2555 6.83594V6.82227C20.2555 5.40723 20.8844 4.58691 21.8483 4.58691C22.819 4.58691 23.4547 5.40723 23.4547 6.82227V6.83594C23.4547 8.26465 22.8327 9.08496 21.862 9.08496ZM28.0176 10.5H30.1162L31.4355 5.31836H31.4766L32.8027 10.5H34.9287L36.8701 3.17188H34.9014L33.7871 8.60645H33.7461L32.4404 3.17188H30.5264L29.2275 8.60645H29.1865L28.0791 3.17188H26.0693L28.0176 10.5Z" fill="#190F0F"/>
</svg>
