<svg width="20" height="18" viewBox="0 0 20 18" fill="none" xmlns="http://www.w3.org/2000/svg">
<path d="M19.9608 2.80834C19.2121 3.13801 18.4188 3.35562 17.6067 3.45417C18.4618 2.94022 19.102 2.13421 19.4092 1.18501C18.6167 1.64751 17.7383 1.98417 16.8033 2.17167C16.1865 1.51203 15.3691 1.07452 14.478 0.927091C13.587 0.779658 12.6722 0.930549 11.8758 1.35633C11.0793 1.78212 10.4457 2.45897 10.0734 3.28178C9.70104 4.10459 9.6108 5.02731 9.81667 5.90667C6.40833 5.74584 3.38917 4.10834 1.36667 1.63501C0.998995 2.25985 0.80722 2.97253 0.811667 3.69751C0.811667 5.12251 1.53667 6.37501 2.635 7.11084C1.98405 7.09012 1.34748 6.91412 0.778333 6.59751V6.64751C0.777964 7.5945 1.10522 8.51246 1.70459 9.24564C2.30395 9.97882 3.13851 10.4821 4.06667 10.67C3.46525 10.8312 2.83534 10.8554 2.22333 10.7408C2.48677 11.5558 2.99805 12.2683 3.68585 12.7788C4.37364 13.2892 5.20363 13.5722 6.06 13.5883C4.60961 14.7266 2.81873 15.3444 0.975 15.3425C0.65 15.3425 0.325833 15.3233 0 15.2867C1.87976 16.4903 4.06543 17.1292 6.2975 17.1275C13.8417 17.1275 17.9625 10.8808 17.9625 5.47334C17.9625 5.29834 17.9625 5.12334 17.95 4.94834C18.755 4.36906 19.4494 3.64986 20 2.82501L19.9608 2.80834Z" fill="#190F0F"/>
</svg>
